<?xml version="1.0" encoding="utf-8"?>
<!-- Generator: Adobe Illustrator 21.0.0, SVG Export Plug-In . SVG Version: 6.00 Build 0)  -->
<svg version="1.1" id="Calque_1" xmlns="http://www.w3.org/2000/svg" xmlns:xlink="http://www.w3.org/1999/xlink" x="0px" y="0px"
	 viewBox="0 0 168.9 64.9" style="enable-background:new 0 0 168.9 64.9;" xml:space="preserve">
<style type="text/css">
	.st0{fill:#FEFEFF;}
	.st1{fill:#F31A34;}
	.st2{fill:none;}
	.st3{fill:#232131;}
</style>
<g>
	<g>
		<path class="st0" d="M35.1,18.4c4.8-2,9.9-3,15.1-3c0.6,1.5,1.2,3.1,1.8,4.6c-4.3,2.1-9.1,2.5-13.7,3.8c-0.9,0.2-1.2-0.2-1.6-0.7
			C36.2,21.5,35.6,19.9,35.1,18.4z"/>
		<path class="st0" d="M42.2,58.2C38.5,59.1,35,61,31.1,61c-1.5,0-3.4,0.8-4.3-1.4c-0.2-1.5-0.4-3-0.6-4.6
			c5.1-0.8,10.3-0.2,15.3-1.7C41.7,55,42,56.6,42.2,58.2z"/>
		<path class="st0" d="M105.9,40.7c5-1.1,10.1-2.2,15.1-3.2c0.3,1.5,0.7,3.1,1,4.6c-4.9,1.4-9.6,3.6-14.9,3.1
			C106.7,43.7,106.3,42.2,105.9,40.7z"/>
		<path class="st0" d="M149.1,35.9c-4,1.3-14,3.6-15,3.1c-0.4-1.3-0.7-2.5-1.1-3.8c4.6-1.9,9.5-2.3,14.3-3.5
			C147.9,33.1,148.5,34.5,149.1,35.9z"/>
		<path class="st0" d="M12.8,55.3c-4,0.1-4.4-3.4-5.7-5.9c-1.3-2.5-2.2-5.1-2.5-8c1.5-0.1,3-0.2,4.5-0.3c1.2,4.3,3.7,7.8,7,10.8
			C15,53,13.9,54.2,12.8,55.3z"/>
		<path class="st0" d="M88.5,7.4c3.5-0.8,7.1-1.3,10.4-2.6c2-0.8,3.2,0.3,3.7,1.1c0.8,1.3,0.8,3.5-1.2,4.1
			c-3.7,1.2-7.5,2.6-11.5,2.1C89.4,10.5,89,9,88.5,7.4z"/>
		<path class="st0" d="M77.9,14.7C73.4,16,69,18,64.1,17.2c-0.3-1.6-0.7-3.1-1-4.7c4.5-0.8,9-1.7,13.4-2.5
			C77,11.5,77.4,13.1,77.9,14.7z"/>
		<path class="st0" d="M69.1,53c-4.8,1.2-9.4,3.1-14.5,3c-0.2-1.6-0.4-3.1-0.6-4.7c4.6-1.5,9.3-2.2,14-3C68,50,68.2,51.6,69.1,53z"
			/>
		<path class="st0" d="M94.7,48c-4.2,2-8.9,1.6-13.3,2.7c-0.4-1.2-0.1-2.8-1.4-3.7c3.8-3.2,8.7-2.4,13.1-3.6
			C93.6,44.9,94.2,46.5,94.7,48z"/>
		<path class="st1" d="M63.1,12.5c0.3,1.6,0.7,3.1,1,4.7c-3.8,1.7-8.1,1.7-12.1,2.8c-0.6-1.5-1.2-3.1-1.8-4.6
			C54.3,13.6,58.8,13.5,63.1,12.5z"/>
		<path class="st1" d="M94.7,48c-0.6-1.5-1.1-3.1-1.7-4.6c4.3-0.9,8.5-1.8,12.8-2.7c0.4,1.5,0.8,3,1.2,4.5
			C103.2,47,98.8,46.9,94.7,48z"/>
		<path class="st1" d="M35.1,18.4c0.6,1.6,1.1,3.1,1.7,4.7c-4.2,0.5-8.2,2.3-12.6,2.1c-0.4-1.3-0.9-2.7-1.3-4
			C26.7,19.4,30.8,18.6,35.1,18.4z"/>
		<path class="st0" d="M22.8,21.2c0.4,1.3,0.9,2.7,1.3,4c-3.9,1.8-7.7,3.6-10.7,6.9c-0.9-1.3-1.8-2.6-2.8-3.9
			C13.8,24.2,18,22.1,22.8,21.2z"/>
		<path class="st1" d="M12.8,55.3c1.1-1.1,2.2-2.2,3.3-3.3c3.3,1.1,6.7,2.1,10,3.2c0.2,1.5,0.4,3,0.6,4.6
			C21.8,59.2,16.7,58.9,12.8,55.3z"/>
		<path class="st1" d="M77.9,14.7c-0.5-1.6-0.9-3.2-1.4-4.7c4-0.8,8-1.7,12-2.5c0.4,1.6,0.9,3.1,1.3,4.7
			C85.9,12.9,81.9,13.8,77.9,14.7z"/>
		<path class="st1" d="M80,47c1.3,0.9,0.9,2.4,1.4,3.7c-4.1,0.8-8.2,1.5-12.3,2.3c-0.8-1.4-1.1-3-1.1-4.6C72,47.8,75.8,45.5,80,47z"
			/>
		<path class="st1" d="M53.9,51.4c0.2,1.6,0.4,3.1,0.6,4.7c-4.1,0.8-8.1,2.2-12.3,2.2c-0.2-1.6-0.5-3.2-0.7-4.8
			C45.6,52.7,49.8,52,53.9,51.4z"/>
		<path class="st1" d="M10.7,28.1c0.9,1.3,1.8,2.6,2.8,3.9c-2.6,2.5-3.4,5.8-4.3,9.1c-1.5,0.1-3,0.2-4.5,0.3
			C4.6,36.1,6.7,31.7,10.7,28.1z"/>
		<path class="st1" d="M132.9,35.3c0.4,1.3,0.7,2.5,1.1,3.8c-4,1-8,2-12.1,3c-0.3-1.5-0.7-3.1-1-4.6
			C124.9,36.4,128.9,35.5,132.9,35.3z"/>
		<path class="st0" d="M162.3,15.3c3.9,5.4,0.8,10.2-1.4,15.1c-1.2-0.5-2.9-0.2-3-2.2c2.5-3.6,2.6-7.7,2.3-11.9
			C160.8,16,161.5,15.6,162.3,15.3z"/>
		<path class="st1" d="M157.8,28.2c0.2,1.9,1.9,1.6,3,2.2c-2.7,4.4-7.7,4.1-11.8,5.6c-0.6-1.4-1.2-2.8-1.8-4.2
			C150.8,30.6,154.3,29.4,157.8,28.2z"/>
		<path class="st1" d="M162.3,15.3c-0.7,0.3-1.4,0.7-2.2,1c-1.4-1.6-2.6-3.6-4.4-4.6c-2.5-1.5-1.4-3.3-1.5-5.9
			C158.3,8.3,162.8,9.5,162.3,15.3z"/>
	</g>
	<path class="st2" d="M154.2,5.8c0.1,2.6-1.1,4.4,1.5,5.9c1.8,1,2.9,3,4.4,4.6c0.3,4.2,0.2,8.3-2.3,11.9c-3.5,1.2-7,2.4-10.5,3.5
		c-4.8,1.2-9.7,1.6-14.3,3.5c-4.1,0.2-8,1.1-12,2.2c-5,1.1-10.1,2.2-15.1,3.2c-4.3,0.9-8.5,1.8-12.8,2.7c-4.4,1.2-9.3,0.4-13.1,3.6
		c-4.2-1.5-8,0.8-12,1.4c-4.7,0.7-9.5,1.4-14,3c-4.1,0.7-8.3,1.4-12.4,2.1c-5,1.5-10.3,0.9-15.3,1.7c-3.3-1.1-6.7-2.1-10-3.2
		c-3.3-3-5.8-6.5-7-10.8c1-3.2,1.8-6.6,4.3-9.1c3-3.2,6.8-5.1,10.7-6.9c4.3,0.2,8.4-1.6,12.6-2.1c0.4,0.5,0.7,0.9,1.6,0.7
		c4.6-1.3,9.3-1.8,13.7-3.8c4-1.1,8.2-1.1,12.1-2.8C69,18,73.4,16,77.9,14.7c4-0.9,8-1.7,12-2.6c4.1,0.5,7.8-0.8,11.5-2.1
		c2-0.7,1.9-2.8,1.2-4.1c-0.4-0.8-1.7-1.9-3.7-1.1C95.6,6.1,92,6.6,88.5,7.4c-4,0.8-8,1.7-12,2.5c-4.5,0.8-9,1.7-13.4,2.5
		c-4.3,1.1-8.8,1.2-12.9,2.9c-5.2,0-10.3,1-15.1,3c-4.2,0.2-8.4,1.1-12.3,2.8c-4.9,0.9-9,3-12.1,6.9c-3.9,3.6-6.1,7.9-6.1,13.3
		c0.3,2.8,1.1,5.5,2.5,8c1.3,2.5,1.7,6,5.7,5.9c4,3.7,9,4,14,4.4c0.9,2.1,2.8,1.4,4.3,1.4c3.9-0.1,7.4-2,11.2-2.8
		c4.2,0,8.2-1.4,12.3-2.2c5.1,0.1,9.7-1.9,14.5-3c4.1-0.8,8.2-1.5,12.3-2.3c4.4-1.1,9.1-0.7,13.3-2.7c4.1-1.1,8.5-1,12.4-2.9
		c5.3,0.4,10-1.7,14.9-3.1c4-1,8-2,12.1-3c1,0.4,1.7,1.2,3.1,0.7c3.9-1.4,7.9-2.6,11.9-3.9c4.1-1.5,9-1.2,11.8-5.6
		c2.2-4.9,5.4-9.6,1.4-15.1C162.8,9.5,158.3,8.3,154.2,5.8z"/>
	<path class="st2" d="M160.8,30.3c2.2-4.9,5.4-9.6,1.4-15.1c0.5-5.7-4-6.9-8-9.5c0.1,2.6-1.1,4.4,1.5,5.9c1.8,1,2.9,3,4.4,4.6
		c0.3,4.2,0.2,8.3-2.3,11.9c-3.5,1.2-7,2.4-10.5,3.5c-4.8,1.2-9.7,1.6-14.3,3.5c-4.1,0.2-8,1.1-12,2.2c-5,1.1-10.1,2.2-15.1,3.2
		c-4.3,0.9-8.5,1.8-12.8,2.7c-4.4,1.2-9.3,0.4-13.1,3.6c-4.2-1.5-8,0.8-12,1.4c-4.7,0.7-9.5,1.4-14,3c-4.1,0.7-8.3,1.4-12.4,2.1
		c-5,1.5-10.3,0.9-15.3,1.7c-3.3-1.1-6.7-2.1-10-3.2c-3.3-3-5.8-6.5-7-10.8c1-3.2,1.8-6.6,4.3-9.1c3-3.2,6.8-5.1,10.7-6.9
		c4.3,0.2,8.4-1.6,12.6-2.1c0.4,0.5,0.7,0.9,1.6,0.7c4.6-1.3,9.3-1.8,13.7-3.8c4-1.1,8.2-1.1,12.1-2.8C69,18,73.4,16,77.9,14.7
		c4-0.9,8-1.7,12-2.6c4.1,0.5,7.8-0.8,11.5-2.1c2-0.7,1.9-2.8,1.2-4.1c-0.4-0.8-1.7-1.9-3.7-1.1C95.6,6.1,92,6.6,88.5,7.4
		c-4,0.8-8,1.7-12,2.5c-4.5,0.8-9,1.7-13.4,2.5c-4.3,1.1-8.8,1.2-12.9,2.9c-5.2,0-10.3,1-15.1,3c-4.2,0.2-8.4,1.1-12.3,2.8
		c-4.9,0.9-9,3-12.1,6.9c-3.9,3.6-6.1,7.9-6.1,13.3c0.3,2.8,1.1,5.5,2.5,8c1.3,2.5,1.7,6,5.7,5.9c4,3.7,9,4,14,4.4
		c0.9,2.1,2.8,1.4,4.3,1.4c3.9-0.1,7.4-2,11.2-2.8c4.2,0,8.2-1.4,12.3-2.2c5.1,0.1,9.7-1.9,14.5-3c4.1-0.8,8.2-1.5,12.3-2.3
		c4.4-1.1,9.1-0.7,13.3-2.7c4.1-1.1,8.5-1,12.4-2.9c5.3,0.4,10-1.7,14.9-3.1c4-1,8-2,12.1-3c1,0.4,1.7,1.2,3.1,0.7
		c3.9-1.4,7.9-2.6,11.9-3.9C153.1,34.4,158.1,34.7,160.8,30.3z"/>
</g>
<g>
	<path class="st2" d="M154.2,5.8c0.1,2.6-1.1,4.4,1.5,5.9c1.8,1,2.9,3,4.4,4.6c0.3,4.2,0.2,8.3-2.3,11.9c-3.5,1.2-7,2.4-10.5,3.5
		c-4.8,1.2-9.7,1.6-14.3,3.5c-4.1,0.2-8,1.1-12,2.2c-5,1.1-10.1,2.2-15.1,3.2c-4.3,0.9-8.5,1.8-12.8,2.7c-4.4,1.2-9.3,0.4-13.1,3.6
		c-4.2-1.5-8,0.8-12,1.4c-4.7,0.7-9.5,1.4-14,3c-4.1,0.7-8.3,1.4-12.4,2.1c-5,1.5-10.3,0.9-15.3,1.7c-3.3-1.1-6.7-2.1-10-3.2
		c-3.3-3-5.8-6.5-7-10.8c1-3.2,1.8-6.6,4.3-9.1c3-3.2,6.8-5.1,10.7-6.9c4.3,0.2,8.4-1.6,12.6-2.1c0.4,0.5,0.7,0.9,1.6,0.7
		c4.6-1.3,9.3-1.8,13.7-3.8c4-1.1,8.2-1.1,12.1-2.8C69,18,73.4,16,77.9,14.7c4-0.9,8-1.7,12-2.6c4.1,0.5,7.8-0.8,11.5-2.1
		c2-0.7,1.9-2.8,1.2-4.1c-0.4-0.8-1.7-1.9-3.7-1.1C95.6,6.1,92,6.6,88.5,7.4c-4,0.8-8,1.7-12,2.5c-4.5,0.8-9,1.7-13.4,2.5
		c-4.3,1.1-8.8,1.2-12.9,2.9c-5.2,0-10.3,1-15.1,3c-4.2,0.2-8.4,1.1-12.3,2.8c-4.9,0.9-9,3-12.1,6.9c-3.9,3.6-6.1,7.9-6.1,13.3
		c0.3,2.8,1.1,5.5,2.5,8c1.3,2.5,1.1,4,5.7,5.9c4,3.7,9,4,14,4.4c3,1.5,11.7-0.6,15.5-1.4c4.2,0,8.2-1.4,12.3-2.2
		c5.1,0.1,9.7-1.9,14.5-3c4.1-0.8,8.2-1.5,12.3-2.3c4.4-1.1,9.1-0.7,13.3-2.7c4.1-1.1,8.5-1,12.4-2.9c5.3,0.4,10-1.7,14.9-3.1
		c4-1,8-2,12.1-3c1,0.4,11-1.9,15-3.1c4.1-1.5,9-1.2,11.8-5.6c2.2-4.9,5.4-9.6,1.4-15.1C162.8,9.5,158.3,8.3,154.2,5.8z"/>
	<path class="st3" d="M168.8,19.2c-0.1-0.2-0.2-0.9-0.2-1c-0.1-0.6-0.1-1.2-0.2-1.9c-1.1-5.8-3.6-10.6-9.3-13.2
		c-1.2-0.6-2-1.3-2.4-2.1h-5.2c-0.4,4.7-0.7,9.3-0.9,14c1.8,0.7,3.1,1.9,3.6,3.6c0.9,3.3-2.3,7.1-7.1,8.3c-0.4,0.1-0.8,0.2-1.2,0.2
		c-0.3,0.1-0.6,0.2-1,0.2C109.6,34.5,74.5,41.9,39.3,49c-5.5,1.1-11.1,1.7-16.8,0.3c-4.2-1-7.1-3.5-8-7.4c-0.9-4,1.9-6.8,5-9.1
		c2.6-2,5.7-2.7,8.8-3.3c12.2-2.5,24.5-4.8,36.7-7.3c12.7-2.6,25.4-5.2,38-8.1c5.6-1.3,7.4-5.9,4.8-10.7c-2.1-3.9-5.5-3.6-9.1-2.9
		c-24.3,4.9-48.6,9.7-72.9,14.6c-6.6,1.3-12.5,4.3-17.6,8.8c-11.6,10.3-10.8,26.6,2,35.5c9.8,6.8,20.9,6.1,31.8,4.2
		c32.1-5.9,64-12.8,95.9-20l19.7-5c0.2-0.1,0.4-0.2,0.6-0.2c5.8-1.5,7.1-5.6,9.2-10.8c0.7-1.8,1.6-3.8,1.6-6
		C168.9,20.7,168.8,20,168.8,19.2z M160.8,30.3c-2.7,4.4-7.7,4.1-11.8,5.6c-4,1.3-14,3.6-15,3.1c-4,1-8,2-12.1,3
		c-4.9,1.4-9.6,3.6-14.9,3.1c-3.9,1.8-8.3,1.8-12.4,2.9c-4.2,2-8.9,1.6-13.3,2.7c-4.1,0.8-8.2,1.5-12.3,2.3c-4.8,1.2-9.4,3.1-14.5,3
		c-4.1,0.8-8.1,2.2-12.3,2.2c-3.8,0.8-12.5,2.9-15.5,1.4c-5-0.4-10-0.8-14-4.4c-4.6-1.8-4.4-3.4-5.7-5.9c-1.3-2.5-2.2-5.1-2.5-8
		c0.1-5.3,2.2-9.7,6.1-13.3c3.1-3.9,7.3-6,12.1-6.9c3.9-1.8,8-2.6,12.3-2.8c4.8-2,9.9-3,15.1-3c4.1-1.7,8.6-1.8,12.9-2.9
		c4.5-0.8,9-1.7,13.4-2.5c4-0.8,8-1.7,12-2.5c3.5-0.8,7.1-1.3,10.4-2.6c2-0.8,3.2,0.3,3.7,1.1c0.8,1.3,0.8,3.5-1.2,4.1
		c-3.7,1.2-7.5,2.6-11.5,2.1c-4,0.9-8,1.7-12,2.6C73.4,16,69,18,64.1,17.2c-3.8,1.7-8.1,1.7-12.1,2.8c-4.3,2.1-9.1,2.5-13.7,3.8
		c-0.9,0.2-1.2-0.2-1.6-0.7c-4.2,0.5-8.2,2.3-12.6,2.1c-3.9,1.8-7.7,3.6-10.7,6.9c-2.6,2.5-3.4,5.8-4.3,9.1c1.2,4.3,3.7,7.8,7,10.8
		c3.3,1.1,6.7,2.1,10,3.2c5.1-0.8,10.3-0.2,15.3-1.7c4.1-0.7,8.3-1.4,12.4-2.1c4.6-1.5,9.3-2.2,14-3c4-0.6,7.8-2.9,12-1.4
		c3.8-3.2,8.7-2.4,13.1-3.6c4.3-0.9,8.5-1.8,12.8-2.7c5-1.1,10.1-2.2,15.1-3.2c3.9-1.1,7.9-2,12-2.2c4.6-1.9,9.5-2.3,14.3-3.5
		c3.5-1.2,7-2.4,10.5-3.5c2.5-3.6,2.6-7.7,2.3-11.9c-1.4-1.6-2.6-3.6-4.4-4.6c-2.5-1.5-1.4-3.3-1.5-5.9c4.1,2.6,8.6,3.8,8,9.5
		C166.2,20.7,163,25.5,160.8,30.3z"/>
</g>
</svg>
