<?xml version="1.0" encoding="utf-8"?>
<!-- Generator: Adobe Illustrator 21.0.0, SVG Export Plug-In . SVG Version: 6.00 Build 0)  -->
<svg version="1.1" id="Calque_2" xmlns="http://www.w3.org/2000/svg" xmlns:xlink="http://www.w3.org/1999/xlink" x="0px" y="0px"
	 viewBox="0 0 350.1 522.9" style="enable-background:new 0 0 350.1 522.9;" xml:space="preserve">
<style type="text/css">
	.st0{fill:#10182D;}
	.st1{fill:#E53042;}
	.st2{fill:#43AE71;}
	.st3{fill:#FFFFFF;}
</style>
<g>
	<path class="st0" d="M170,511.8c0,2.8,2.2,5,5,5s5-2.2,5-5V368.9h-10V511.8z"/>
	<path class="st1" d="M175,333.6c-3.1,0-6.2-0.1-9.2-0.3l-0.2,0.3h18.9l-0.2-0.3C181.2,333.5,178.1,333.6,175,333.6z"/>
	<path class="st2" d="M202.1,354.5l-9.7-11.6c-0.7,0.4-1.5,0.6-2.4,0.6h-30c-0.9,0-1.7-0.2-2.4-0.6l-9.7,11.6
		c-2.9,6.4,0.7,14.4,6.4,14.4H170h10h15.7C201.4,368.9,205,360.9,202.1,354.5z"/>
	<path class="st2" d="M175,11.2c-89,0-161.2,72.2-161.2,161.2c0,84.3,64.7,154,147.1,161.2c1.6,0.1,27,0.2,29.1,0
		c81.7-7.9,146.2-77.4,146.2-161.2C336.2,83.3,264.1,11.2,175,11.2z M149.4,66.9c-36,9.9-64.7,36.9-76.8,72.2
		c-1,2.9-3.7,4.7-6.6,4.7c-0.8,0-1.5-0.1-2.3-0.4c-3.7-1.3-5.6-5.2-4.3-8.9c13.6-39.7,45.9-70,86.3-81.1c3.7-1,7.6,1.2,8.6,4.9
		C155.3,62,153.1,65.8,149.4,66.9z"/>
	<path class="st0" d="M190,333.6h-5.5h-18.9H160c-2.8,0-5,2.2-5,5c0,1.9,1.1,3.5,2.6,4.4c0.7,0.4,1.5,0.6,2.4,0.6h30
		c0.9,0,1.7-0.2,2.4-0.6c1.6-0.8,2.6-2.5,2.6-4.4C195,335.8,192.8,333.6,190,333.6z"/>
	<path class="st3" d="M145.6,53.4c-40.4,11.1-72.7,41.5-86.3,81.1c-1.3,3.7,0.7,7.6,4.3,8.9c0.8,0.3,1.5,0.4,2.3,0.4
		c2.9,0,5.6-1.8,6.6-4.7c12.1-35.3,40.9-62.3,76.8-72.2c3.7-1,5.9-4.9,4.9-8.6C153.2,54.5,149.4,52.3,145.6,53.4z"/>
</g>
</svg>
