<?xml version="1.0" encoding="utf-8"?>
<!-- Generator: Adobe Illustrator 21.0.0, SVG Export Plug-In . SVG Version: 6.00 Build 0)  -->
<svg version="1.1" id="Calque_1" xmlns="http://www.w3.org/2000/svg" xmlns:xlink="http://www.w3.org/1999/xlink" x="0px" y="0px"
	 viewBox="0 0 314 434.9" style="enable-background:new 0 0 314 434.9;" xml:space="preserve">
<style type="text/css">
	.st0{fill:#FFFFFF;}
	.st1{fill:#1A213A;}
	.st2{fill:#DC3D47;}
	.st3{fill:#12182F;}
	.st4{fill:#454A5C;}
	.st5{fill:#CB9932;}
</style>
<polygon class="st0" points="27.3,417 295.1,424 283.3,388.3 159.4,168.4 35.9,377 "/>
<g>
	<path class="st1" d="M255.5,434.5c-8.7,0-17.5-0.4-26.2,0.1c-12.2,0.6-24.3,0.7-36.5,0.3c-19.2-0.6-38.3-0.2-57.5-0.3
		c-6.6-0.1-13.2,0.6-19.8,0.4c-11.1-0.4-22.1-0.4-33.2-0.4c-9.2,0-18.3-0.3-27.5,0.1c-9.8,0.5-19.6,0.2-29.5,0.4
		c-3.5,0-7-0.3-10.4-0.9c-5.5-1-8.5-5.1-11.2-9.5c-0.8-1.4-1.3-3.1-2.2-4.4c-2.6-3.9-1.6-8-0.6-12c1.1-4.9,2.9-9.6,5.8-13.8
		c3.5-5.1,7-10.3,9.8-15.9c3.5-7,7.5-13.6,11.6-20.2c3.4-5.5,6.5-11.1,10-16.6c6.9-10.8,12.3-22.4,18.9-33.4c2.2-3.7,5.1-6.9,7-10.8
		c4-8.1,8.9-15.6,13.2-23.5c2.4-4.3,4.7-8.7,7.2-13c2.7-4.6,5.6-9.2,8.2-13.9c2.9-5,5.2-10.4,8.5-15c3.3-4.6,5.5-9.8,8.9-14.3
		c2.2-2.9,3.6-6.3,5.6-9.4c4.8-7.2,8.2-15.3,13-22.5c3-4.5,5.4-9.3,8.3-13.8c3.7-5.8,8.4-10.7,15.3-12.8c1-0.3,2.1-0.3,3.2-0.2
		c10.5,0.4,18.4,4.7,23.4,14.5c3.5,6.8,7.8,13.3,11.6,20c3.3,5.8,6.9,11.5,10.3,17.3c4,6.8,7.4,13.9,11.7,20.5
		c4.4,6.9,8.1,14.2,12.2,21.3c2.8,4.8,6,9.3,8.5,14.2c2.8,5.5,6.5,10.4,9.2,15.9c3.8,8,8.7,15.4,12.8,23.2c3.3,6.3,7.9,12,11,18.5
		c4,8.4,9.3,16,13.7,24.1c2.1,3.9,4.2,7.9,6.6,11.6c4.5,7,8.3,14.5,12.8,21.5c4.6,7.3,9.6,14.6,12.6,22.7
		c3.8,10.2,2.5,18.7-8.1,25.7c-2.5,1.7-5.8,2.3-8.8,2.8c-7.1,1.1-14.2,0.9-21.4,1.2C267.6,434.4,261.5,434.4,255.5,434.5z
		 M287.7,424.9c2.7,0.4,5-0.5,7.4-0.8c8.2-1.1,11.6-7.3,9.3-15.2c-1.4-4.7-4.3-8.4-6.4-12.6c-3.5-7.4-8.2-14.2-12.6-21.2
		c-4.9-7.9-8.8-16.3-13.9-24.1c-6.7-10.4-12.2-21.6-18.7-32.2c-4.7-7.8-9-15.8-13.5-23.7c-3.6-6.4-6.9-12.8-10.6-19.1
		c-4.2-7.2-8.6-14.3-12.9-21.5c-3.9-6.5-7.1-13.2-11.2-19.6c-3.3-5.2-5.9-11-9.2-16.2c-3.4-5.2-6-10.8-9.3-16
		c-6.1-9.6-12-19.4-17.2-29.6c-0.6-1.1-1.4-1.8-2.5-2.3c-2.2-1.2-4.8-1.4-7.1-2.2c-6-2.2-12.7,2.4-14.4,6.8
		c-0.6,1.7-1.5,3.1-2.6,4.5c-1.2,1.6-2.7,3.1-3.3,4.9c-1.5,4.4-4.7,7.8-6.9,11.8c-3.3,6.1-6.6,12.2-10.4,18c-3.8,5.8-7.1,12-10.7,18
		c-2.9,4.7-6.6,9.1-8.8,14.1c-2.2,5.2-5.6,9.6-8.2,14.5c-2.9,5.6-6.5,10.8-9.4,16.3c-3.5,6.5-6.7,13.1-10.8,19.3
		c-1.1,1.7-1.6,3.9-2.8,5.5c-4.8,6.3-8.4,13.3-12.4,20.1c-4.8,8.3-9.5,16.7-14.2,25.1c-2.6,4.6-5.9,8.9-8.4,13.5
		c-6.4,11.7-13.3,23.1-20.1,34.6c-3.2,5.4-6.2,10.8-7.2,17.1c-0.2,1.1-0.4,2.2,0.1,3.2c1.2,2.4,2.4,4.9,3.7,7.3
		c0.9,1.7,2.5,2.8,4.4,3c3.6,0.3,7.1,0.5,10.7,0.6c12.4,0.3,24.8-0.6,37.2-0.6c19.2-0.1,38.4,0.7,57.7,0c8.1-0.3,16.2,0,24.2,0
		c14.9,0.1,29.8-0.1,44.7,0.3c7.2,0.2,14.3,0.3,21.5,0.2c3.6,0,7.3-1,10.9-0.8c5.9,0.3,11.8,0.3,17.7,0.2
		C257.2,425.8,272.6,426.6,287.7,424.9z"/>
	<path class="st2" d="M287.7,424.9c-15.1,1.7-30.5,0.9-45.9,1.1c-5.9,0.1-11.8,0.1-17.7-0.2c-3.6-0.2-7.3,0.7-10.9,0.8
		c-7.2,0.1-14.3-0.1-21.5-0.2c-14.9-0.4-29.8-0.2-44.7-0.3c-8.1,0-16.2-0.3-24.2,0c-19.2,0.7-38.4-0.2-57.7,0
		c-12.4,0.1-24.8,0.9-37.2,0.6c-3.6-0.1-7.2-0.3-10.7-0.6c-1.9-0.2-3.4-1.3-4.4-3c-1.3-2.4-2.5-4.8-3.7-7.3c-0.5-1-0.3-2.1-0.1-3.2
		c1-6.3,4-11.7,7.2-17.1c6.8-11.5,13.7-22.9,20.1-34.6c2.5-4.6,5.8-8.8,8.4-13.5c4.7-8.4,9.4-16.8,14.2-25.1
		c3.9-6.8,7.6-13.8,12.4-20.1c1.2-1.6,1.7-3.8,2.8-5.5c4.1-6.2,7.3-12.8,10.8-19.3c3-5.5,6.5-10.8,9.4-16.3
		c2.6-4.9,5.9-9.3,8.2-14.5c2.2-5,5.9-9.4,8.8-14.1c3.6-6,6.9-12.1,10.7-18c3.8-5.8,7.1-11.9,10.4-18c2.2-4,5.4-7.4,6.9-11.8
		c0.6-1.8,2.2-3.3,3.3-4.9c1-1.4,1.9-2.8,2.6-4.5c1.7-4.5,8.5-9,14.4-6.8c2.3,0.8,4.9,1,7.1,2.2c1.1,0.6,1.9,1.2,2.5,2.3
		c5.2,10.2,11.1,20,17.2,29.6c3.3,5.2,5.9,10.8,9.3,16c3.3,5.2,5.9,11,9.2,16.2c4.1,6.4,7.3,13.2,11.2,19.6
		c4.3,7.2,8.7,14.3,12.9,21.5c3.7,6.3,7,12.8,10.6,19.1c4.4,7.9,8.8,16,13.5,23.7c6.4,10.6,11.9,21.8,18.7,32.2
		c5,7.8,9,16.2,13.9,24.1c4.3,7,9,13.7,12.6,21.2c2,4.2,5,7.9,6.4,12.6c2.3,7.9-1.1,14.1-9.3,15.2
		C292.8,424.3,290.5,425.3,287.7,424.9z M271.1,407.8c4.3,0.3,8-4.3,6.2-7.8c-1.6-3.3-3.1-6.6-5.2-9.6c-6.6-9.7-12.2-20.1-19-29.7
		c-3.4-4.8-5.3-10.6-8.9-15.3c-5.1-6.6-8.1-14.4-12.6-21.3c-3.6-5.4-6.2-11.5-9.3-17.2c-2.2-4.1-5.4-7.6-7.3-11.8
		c-1.7-3.7-3.7-7.2-5.6-10.8c-2.5-4.7-6.4-8.5-8.2-13.6c-3.6-10-10.9-18-15.1-27.8c-3.5-8-8.8-15.2-12.7-23.1
		c-3.1-6.2-7.8-11.5-10.7-17.9c-0.6-1.2-1.4-2.5-3-2.8c-3.4-0.7-6.9,0.4-8.4,3.4c-1.9,3.8-4.6,7.1-6.7,10.7
		c-5.8,10-11.3,20.2-17.1,30.3c-1.5,2.7-2.1,5.7-3.8,8.3c-3,4.5-6.1,8.9-8.4,13.8c-1.6,3.6-3,7.5-5.3,10.7
		c-4.2,5.9-7.7,12.2-10.9,18.7c-0.8,1.6-1.6,3.1-2.5,4.6c-2,3.5-4.6,6.7-6.5,10.3c-2.7,5.3-5.2,10.7-8.3,15.8
		c-2.4,3.8-4.8,7.5-6.8,11.5c-2.2,4.5-5.8,8.2-7.9,12.6c-4.2,8.9-10.5,16.5-15.2,25.1c-4.7,8.5-11,16.1-15.2,25
		c-0.9,1.9-1.5,3.7-0.1,5.6c1.5,2,3.1,4,5.8,3.5c2.9-0.4,5.8-0.2,8.7-0.1c9,0.4,17.9-0.5,26.9-0.1c8.9,0.4,17.9-0.5,26.9-0.4
		c7.9,0.1,15.8-0.1,23.7-0.3c11.3-0.3,22.6,0.5,33.9,0.4c12.8-0.1,25.6-1.2,38.4-1.1c14,0.1,27.9,0.8,41.9,0.3
		C252.3,407.3,261.7,408.1,271.1,407.8z"/>
	<path class="st3" d="M162,215.9c-0.1-0.2-0.1-0.3-0.2-0.5c0.2-0.8-0.3-1.3-0.6-1.8c0.2-0.3,0.6-0.6,0.8-0.3c1.2,2.3,3.4,4,3.8,6.7
		l-0.1,0.1c-0.5-0.3-0.7-1.1-1.4-1.1c0,0,0,0,0,0C163.8,217.7,163.3,216.6,162,215.9z"/>
	<path class="st4" d="M147.5,223.4c-0.9,2.2-1,4.8-2.8,6.6C145.6,227.8,145.4,225.1,147.5,223.4z"/>
	<path class="st4" d="M161.2,213.6c0.3,0.6,0.8,1.1,0.6,1.8c-0.8-0.4-1.2-1.2-1.5-2C160.6,213.5,160.9,213.6,161.2,213.6z"/>
	<path class="st4" d="M139.9,239c-0.1-0.2-0.3-0.4-0.4-0.6c0.3-0.4,0.7-0.5,1.1-0.5C140.7,238.6,140.5,238.9,139.9,239z"/>
	<path class="st3" d="M165.8,220c1.3,0.2,0.9,1.2,1,2c0,0-0.1,0-0.1,0c-0.6-0.5-0.8-1.2-1.1-1.9L165.8,220z"/>
	<path class="st4" d="M152.3,215.5c0.2,0.8-0.6,1.1-1,1.6C151.1,216.2,151.5,215.7,152.3,215.5z"/>
	<path class="st4" d="M144,231.4c0,0.7-0.1,1.2-0.8,1.4C143.2,232.2,143.3,231.6,144,231.4z"/>
	<path class="st4" d="M142.3,234c-0.3,0.6-0.5,1.2-0.8,1.8C141.3,235,141.4,234.3,142.3,234z"/>
	<path class="st4" d="M148.6,221.4c0.1,0.6-0.2,1-0.7,1.2C147.7,222,147.9,221.6,148.6,221.4z"/>
	<path class="st0" d="M164.2,219.1C164.2,219.1,164.2,219.1,164.2,219.1C164.2,219.1,164.2,219.1,164.2,219.1L164.2,219.1z"/>
	<path class="st4" d="M126.2,263.9c0.5-2.5,1.5-4.7,3.4-6.5C128.8,259.7,127.8,262,126.2,263.9z"/>
	<path class="st4" d="M162,215.9c1.3,0.6,1.9,1.8,2.2,3.1C162.9,218.4,162.4,217.2,162,215.9z"/>
	<path class="st4" d="M124.8,266.1c0-1,0.3-1.8,1.4-2.2C125.8,264.7,125.9,265.8,124.8,266.1z"/>
	<path class="st4" d="M123.2,268.9c0.1-0.8,0.1-1.6,1.1-1.9C124,267.7,124.1,268.6,123.2,268.9z"/>
	<path class="st4" d="M118.3,278.5c-0.2-0.8,0.1-1.3,0.9-1.6C119.3,277.7,118.7,278.1,118.3,278.5z"/>
	<path class="st4" d="M212.5,306.4c0.7,0.2,0.9,0.7,0.9,1.4C212.6,307.6,212.5,307.1,212.5,306.4z"/>
	<path class="st4" d="M138.7,240.9c0-0.6,0.2-0.9,0.8-1C139.7,240.6,139.4,240.9,138.7,240.9z"/>
	<path class="st4" d="M119.3,276.6c-0.2-0.5-0.2-1,0.5-1.2C120.3,276,119.4,276.2,119.3,276.6z"/>
	<path class="st4" d="M102.3,305.6c-0.1-0.7,0.2-1,0.8-1.1C102.9,304.8,102.6,305.2,102.3,305.6z"/>
	<path class="st4" d="M120.1,275c0.1-0.2,0.1-0.4,0.2-0.6C120.4,274.7,120.7,275,120.1,275z"/>
	<path class="st4" d="M138.3,241.5c-0.1-0.3,0.1-0.5,0.4-0.6C138.6,241.2,138.4,241.3,138.3,241.5z"/>
	<path class="st4" d="M277.3,400c-1.6-3.3-3.1-6.6-5.2-9.6c-6.6-9.7-12.2-20.1-19-29.7c-3.4-4.8-5.3-10.6-8.9-15.3
		c-5.1-6.6-8.1-14.4-12.6-21.3c-3.6-5.4-6.2-11.5-9.3-17.2c-2.2-4.1-5.4-7.6-7.3-11.8c-1.7-3.7-3.7-7.2-5.6-10.8
		c-2.5-4.7-6.4-8.5-8.2-13.6c-3.6-10-10.9-18-15.1-27.8c-3.5-8-8.8-15.2-12.7-23.1c-3.1-6.2-7.8-11.5-10.7-17.9
		c-0.6-1.2-1.4-2.5-3-2.8c-3.4-0.7-6.9,0.4-8.4,3.4c-1.9,3.8-4.6,7.1-6.7,10.7c-5.8,10-11.3,20.2-17.1,30.3
		c-1.5,2.7-2.1,5.7-3.8,8.3c-3,4.5-6.1,8.9-8.4,13.8c-1.6,3.6-3,7.5-5.3,10.7c-4.2,5.9-7.7,12.2-10.9,18.7c-0.8,1.6-1.6,3.1-2.5,4.6
		c-2,3.5-4.6,6.7-6.5,10.3c-2.7,5.3-5.2,10.7-8.3,15.8c-2.4,3.8-4.8,7.5-6.8,11.5c-2.2,4.5-5.8,8.2-7.9,12.6
		c-4.2,8.9-10.5,16.5-15.2,25.1c-4.7,8.5-11,16.1-15.2,25c-0.9,1.9-1.5,3.7-0.1,5.6c1.5,2,3.1,4,5.8,3.5c2.9-0.4,5.8-0.2,8.7-0.1
		c9,0.4,17.9-0.5,26.9-0.1c8.9,0.4,17.9-0.5,26.9-0.4c7.9,0.1,15.8-0.1,23.7-0.3c11.3-0.3,22.6,0.5,33.9,0.4
		c12.8-0.1,25.6-1.2,38.4-1.1c14,0.1,27.9,0.8,41.9,0.3c9.4-0.3,18.8,0.5,28.2,0.2C275.4,408.1,279.1,403.5,277.3,400z M194.3,274
		L194.3,274L194.3,274C194.2,274,194.3,274,194.3,274z M184.8,256L184.8,256L184.8,256C184.7,256,184.8,256,184.8,256z M178.3,244
		c0.1,0,0.2,0,0.3,0.1C178.5,244,178.4,244,178.3,244c0-0.4,0-0.8-0.1-1.2C178.3,243.2,178.3,243.6,178.3,244z M107.8,293.6
		c0,0.4,0,0.7,0,1.1c0,0,0,0,0,0C107.8,294.3,107.8,294,107.8,293.6z M97,311.9c-0.1,0.4-0.1,0.9-0.2,1.3c0,0.2,0.1,0.4,0.1,0.6
		c0-0.2-0.1-0.4-0.1-0.6C96.9,312.8,97,312.4,97,311.9z M85.3,334c-0.1,0.1-0.1,0.1-0.2,0.2C85.1,334.1,85.2,334.1,85.3,334z
		 M84.8,334.6C84.9,334.5,84.9,334.5,84.8,334.6C84.9,334.5,84.9,334.5,84.8,334.6z M84.9,334.4C85,334.3,85,334.3,84.9,334.4
		C85,334.3,85,334.3,84.9,334.4z M84.5,336c0,0.8-0.5,1.4-0.9,2C83.9,337.4,84.5,336.8,84.5,336z M69.8,361L69.8,361
		C69.8,361,69.8,361,69.8,361C69.8,361,69.8,361,69.8,361z M67.8,363c0,0.3-0.1,0.7-0.1,1.1l0,0C67.7,363.7,67.7,363.3,67.8,363z
		 M66.8,365.5C66.8,365.5,66.8,365.5,66.8,365.5L66.8,365.5L66.8,365.5z M63.3,370c0.2-0.4,0.4-0.9,0.7-1.3
		C63.7,369.1,63.5,369.6,63.3,370c-0.3,0.3-0.6,0.6-0.9,0.9C62.6,370.6,62.9,370.3,63.3,370z M56.4,380.4c-0.1,0.3-0.2,0.7-0.2,1
		C56.3,381,56.3,380.7,56.4,380.4z M56.3,381.4c0,0.2,0,0.4,0,0.6c-0.2,0.1-0.4,0.1-0.6,0.2c0.2-0.1,0.4-0.1,0.6-0.2
		C56.3,381.8,56.3,381.6,56.3,381.4z M47.8,395c0-0.2,0-0.4,0-0.6C47.8,394.6,47.8,394.8,47.8,395c-0.5,0.2-0.9,0.5-1.3,0.8
		C46.8,395.5,47.2,395.2,47.8,395z M246.3,400.4c0.3,0,0.6,0,0.7-0.4c0,0,0,0,0,0C246.9,400.4,246.6,400.4,246.3,400.4z M83.3,339.6
		c1.7-1.9,4.9-8.9,5.4-10.1c0.5-0.2,1.1-0.2,1-1l0,0c0.5-0.4,1.1-0.7,0.9-1.5c0.1-0.2,0.1-0.3,0.2-0.5c4.7-6.1,7.9-13,11-19.9
		c0.2-0.3,0.4-0.6,0.6-0.9c-0.1-0.7,0.2-1,0.8-1.1c0.2-0.1,0.2-0.2,0.1-0.4c0.3-0.5,1.2-0.7,1-1.6c0.4-0.6,1.2-1,1.1-1.9
		c0.3-0.1,0.6-0.2,0.5-0.6c0,0,0,0,0,0c0.6-0.1,0.8-0.6,1.1-1.2c1.7-3.5,3.4-6.9,5.2-10.3c0.7-1.4,2-2.4,2.1-4.1
		c1.4-2,2.7-4,4.1-5.9c-0.2-0.8,0.1-1.3,0.9-1.6c0.1-0.1,0.2-0.2,0.1-0.4c-0.2-0.5-0.2-1,0.5-1.2c0.1-0.1,0.2-0.2,0.4-0.4
		c0.1-0.2,0.1-0.4,0.2-0.6c1-1.8,1.5-3.9,2.9-5.6c0.1-0.8,0.1-1.6,1.1-1.9c0.2-0.3,0.4-0.6,0.6-0.9c0-1,0.3-1.8,1.4-2.2l0,0
		c0.5-2.5,1.5-4.7,3.4-6.5c0.1-0.1,0.2-0.2,0.2-0.4c0.6-0.2,0.9-0.5,0.8-1.1c0.1-0.1,0.2-0.2,0.2-0.3c0.6-0.2,0.9-0.5,0.8-1.2
		c0.1-0.1,0.2-0.2,0.2-0.4c0.5-0.2,0.9-0.5,0.8-1.1c0.1-0.1,0.2-0.2,0.2-0.4c1.3-0.9,1.4-2.2,1.4-3.6c0.2-0.1,0.2-0.2,0.1-0.4
		c0.4-0.5,0.8-1,0.8-1.6c0.2-0.1,0.2-0.2,0.1-0.4c0.4-0.5,0.9-0.9,0.9-1.6c0.7-1.1,1.4-2.3,2.1-3.4c-0.1-0.3,0.1-0.5,0.4-0.6l0,0
		c0-0.6,0.2-0.9,0.8-1c0.1-0.3,0.2-0.6,0.3-0.9c-0.1-0.2-0.3-0.4-0.4-0.6c0,0,0,0,0,0c0.3-0.4,0.7-0.5,1.1-0.5
		c0.3-0.7,0.6-1.4,0.9-2.1c-0.3-0.8-0.1-1.5,0.8-1.8c0.3-0.4,0.6-0.8,0.9-1.2c0-0.6,0.1-1.2,0.8-1.4c0.5-0.3,0.7-0.9,0.7-1.4
		c0.8-2.2,0.7-4.9,2.8-6.6c0.1-0.3,0.2-0.5,0.3-0.8c-0.2-0.6,0.1-1.1,0.7-1.2c0.9-1.4,1.8-2.9,2.7-4.3c-0.2-0.9,0.2-1.4,1-1.6
		c0.9-1,1.9-2,2.7-3.1c1.5-2,2.9-1.9,4.3,0.1c0.3,0.4,0.7,0.7,1.1,1c0.3,0,0.6,0.1,0.9,0.1c0.2-0.3,0.6-0.6,0.8-0.3
		c1.2,2.3,3.4,4,3.8,6.7c1.3,0.2,0.9,1.2,1,2c0.6,0,1,0.3,1.2,0.7c-0.3-0.4-0.7-0.7-1.2-0.7l-0.1,0c-0.6-0.5-0.8-1.2-1.1-1.9
		c-0.5-0.3-0.7-1.1-1.4-1.1c1.5,3.2,3,6.4,4.5,9.6c0,0.1,0,0.2,0.2,0.3c0.1,1.3,0.6,2.5,1.9,3.2c0,0.1,0.1,0.3,0.2,0.3
		c1.4,2.8,2,6.1,4.5,8.4c0.3,0.4,0.6,0.8,0.8,1.2c0.2,0.7,0.3,1.6,1.1,1.9l0,0c0.3,0.6,0.1,1.6,1.1,1.8l0.1,0.1
		c-0.1,0.3,0,0.4,0.3,0.5c0.1,0.3,0.2,0.6,0.2,0.9c0.4,1.3,0.3,2.8,1.6,3.8c0,0.1,0,0.2,0.2,0.3c0.1,0.4,0,0.8,0.5,1
		c0.5,0.7,1,1.4,1.5,2c1.4,3,2.8,6,4.9,8.7c0,0.1,0,0.2,0.2,0.3c1.9,2.9,2.8,6.3,4.9,9c0.1,0.3,0.1,0.6,0.2,1
		c0.4,0.2,0.8,0.4,1.2,0.7c-0.4-0.2-0.8-0.4-1.2-0.7c0.5,1.7,1.2,3.2,2.4,4.5c0.5,0.7,1,1.4,1.5,2c2.1,3.5,4.1,7,6.2,10.4
		c1.4,2.3,2,5,3.8,7.2c0.1,0.3,0.2,0.6,0.3,1c-0.2,0.3-0.1,0.4,0.2,0.3c0.2,0.4,0.5,0.8,0.7,1.2c-0.1,0.3,0,0.4,0.3,0.5
		c0.8,0.7,1.3,1.5,1.6,2.5c0.6,1.3,1.1,2.6,2.5,3.3l0.1,0.1c0.7,0.2,0.9,0.7,0.9,1.4c0.2,0.2,0.4,0.4,0.6,0.7
		c1.1,2.7,2.4,5.4,3.1,8.3c0.6,2.4,1.8,4.3,3.6,6c0,0.1,0.1,0.3,0.2,0.3c0.2,1.1,0.8,2,1.9,2.6c0,0.2,0,0.3,0.2,0.4
		c-0.1,0.7,0.3,1,0.8,1.2c0,0,0,0,0,0c0,0,0,0,0,0c0,0.4,0.2,0.7,0.5,0.9c0.1,0.6,0.5,0.8,0.9,1.2c0,0.2,0,0.3,0.2,0.3
		c0.1,0,0.1,0,0.2,0.1c-0.1,0-0.1-0.1-0.2-0.1c0.1,0.2,0.3,0.4,0.4,0.6c0.9,1.7,1.9,3.4,2.8,5.2c3.7,7.7,9,14.3,12.9,21.8
		c2.7,5.2,6.3,9.8,9.2,14.8c1.9,3.3,4.3,6.4,5.8,9.7c2.4,5.2,6.6,9,9.2,14c1.7,3.4,1.8,3.5-1.9,3.5c-4.5-0.1-9-0.9-13.4-0.6
		c-7,0.5-14.1-0.5-21.1,0.6c-2.2-0.2-4.4-0.2-6.6,0c-1.3-0.3-2.6-0.3-3.9,0c-2.5,0-5,0-7.6,0c-5.5-0.5-11.1-0.1-16.7-0.5
		c-3.9-0.3-7.9-1.2-11.8,0.6c-1.4-0.2-2.7-0.2-4.1,0c-0.6-0.3-1.3-0.3-1.9,0c-1.7-0.2-3.4-0.2-5,0.1c-2.4-0.1-4.7,0.2-7,0.8
		c-0.6-0.2-1.1-0.1-1.6,0.1c0.2,0.4,0.4,0.6,0.8,0.8c-0.3-0.1-0.6-0.4-0.8-0.8c-2.1,0-4.3,0-6.4,0v0c-0.5,0-1,0-1.5-0.1
		c-0.8-0.6-1.7-0.9-2.8-0.9c-11.3,0.1-22.5,0.2-33.8,0.2c-1.5,0-3,0-4.4,0.6c-0.7-0.2-1.4-0.2-2.1,0c-2.3-0.3-4.5-0.3-6.8,0
		c0,0,0,0,0,0c-1-0.2-2.1-0.3-3.1,0c-10.3-0.4-20.7,0-31,0l0,0c-2.5-0.4-5-0.3-7.5,0c-4.9,0-9.9-0.1-14.8,0c-2.2,0-2.6-0.6-1.5-2.5
		c0.5-0.8,0.8-1.8,1.2-2.7c0,0,0.2-0.1,0.2-0.1l0-0.2c1.2-1.2,1.9-2.7,2.8-4.2c0,0,0.1-0.1,0.1-0.1c0.1-0.1,0.2-0.2,0.4-0.3
		c1.6-1.5,2.9-3.2,3.2-5.5c0.4-0.4,1.1-0.7,1-1.5c0.7,0,0.7-0.6,0.9-1.1c0,0,0,0,0,0c1.3-1,2.2-2.3,2.6-3.9c0.1-0.2,0.3-0.3,0.4-0.5
		c0.1-0.8,0.3-1.5,0.6-2.2c-0.3,0.7-0.5,1.4-0.6,2.2c1.7-2.9,3.3-5.7,5-8.6c0.2-0.3,0.4-0.6,0.6-0.9c0.1-0.2,0.2-0.4,0.4-0.6
		c0.2-0.3,0.4-0.6,0.6-0.9c2.3-2.1,3.8-4.7,4.8-7.6c0.1-0.3,0.2-0.5,0.3-0.8"/>
</g>
<g>
	<circle class="st5" cx="157" cy="211.2" r="15.4"/>
	<path class="st1" d="M157,230.6c-10.7,0-19.4-8.7-19.4-19.4s8.7-19.4,19.4-19.4s19.4,8.7,19.4,19.4S167.7,230.6,157,230.6z
		 M157,199.8c-6.3,0-11.4,5.1-11.4,11.4s5.1,11.4,11.4,11.4s11.4-5.1,11.4-11.4S163.3,199.8,157,199.8z"/>
</g>
<path class="st0" d="M148.3,209.8c-0.3,3,0.5,6.6,3.1,8.4c0.8,0.6,1.8,0.9,2.8,1.1c0.6,0.1,1.1,0.2,1.7,0.2c0.2,0,1.3,0.1,0.6,0
	c1.3,0.2,2.7-0.3,3.1-1.7c0.3-1.2-0.4-2.9-1.7-3.1c-1.3-0.2-2.5-0.1-3.4-0.5c-1.3-0.6-1.4-3-1.2-4.4
	C153.6,206.6,148.6,206.6,148.3,209.8L148.3,209.8z"/>
<path class="st1" d="M173.3,388.3c-2.2,0-4.4-0.7-6.2-2.1l-42-33.1c-0.1-0.1-0.3-0.2-0.4-0.3c-7.5-6.5-11.5-15.1-11.5-24.1
	c0-8.9,4.1-17.3,11.6-23.7c0.1-0.1,0.2-0.2,0.3-0.3l42-33.1c4.3-3.4,10.6-2.7,14,1.7c3.4,4.3,2.7,10.6-1.7,14l-41.8,33
	c-2.9,2.6-4.5,5.5-4.5,8.5c0,3.1,1.6,6.2,4.5,8.8l41.8,33c4.3,3.4,5.1,9.7,1.7,14C179.2,387,176.3,388.3,173.3,388.3z"/>
</svg>
