<?xml version="1.0" encoding="utf-8"?>
<!-- Generator: Adobe Illustrator 21.0.0, SVG Export Plug-In . SVG Version: 6.00 Build 0)  -->
<svg version="1.1" id="Calque_1" xmlns="http://www.w3.org/2000/svg" xmlns:xlink="http://www.w3.org/1999/xlink" x="0px" y="0px"
	 viewBox="0 0 710.9 566.9" style="enable-background:new 0 0 710.9 566.9;" xml:space="preserve">
<style type="text/css">
	.st0{fill:#FFFFFF;stroke:#313132;stroke-width:5;stroke-linejoin:round;stroke-miterlimit:10;}
</style>
<path class="st0" d="M553,387.7c-0.1,27.5-22.5,49.9-50.3,50.3c-3.3,0-5.2,1-7.3,3.3c-20.8,21.8-53.9,21.4-74.4-0.7
	c-1.2-1.3-3.4-2.3-5.1-2.3c-27.4-0.5-48.4-19.9-51-47.3c-2.3-24.7,16-47.8,42-53.1c1.4-0.3,3.2-1.8,3.7-3.3
	c8-21.2,26.7-34.6,48.1-34.5c21.6,0.2,39.8,13.3,47.7,34.4c0.5,1.4,2.6,3.1,4.2,3.3C534.8,341.5,553.1,363.1,553,387.7z"/>
<path class="st0" d="M120,208.4c-39.4-3.6-56.5-33.2-56.5-57.7c0-22.5,14.7-53.2,56.5-57.6c2.1-23.3,12.7-41.8,34.9-51.4
	c22.4-9.6,42.9-5.1,61.2,10c38.3-31.8,87.4-9.2,95.6,31.6c31.2,1.1,57.1,23.5,57.7,58c0.4,30.2-19.3,49.9-56.9,57.6
	c1.6,27.4-8.6,48.6-34.3,60.7c-20,9.4-40.7,5.7-61.9-10.2c-18.1,15.1-38.8,20-61,10.5C133.1,250.6,122.1,232.5,120,208.4z"/>
<path class="st0" d="M615,153.4c7.5-8.2,16.2-13,27-14.3c21.5-2.4,42,15.1,43.2,36.8c0.1,2.7,1.4,5.7,3,8
	c10.2,12.8,11.6,30.7,3,44.7c-8.7,14.5-25,21.7-41.3,18.8c-3.6-0.7-7.5-0.7-11.1,0c-8.7,1.5-16.8,0.1-24.5-3.1
	c-3.9,4.2-7.4,8.8-11.8,12.2c-16.1,12.5-38.4,10.7-52.3-4.2c-3-3.2-5.7-4.4-10-4.3c-20.8,0.4-37.5-14.5-40.1-35.3
	c-2.4-19.1,10.9-38.4,30.7-42.2c6.6-1.4,8.6-3.6,9.8-10c3.3-16.8,17-28.2,34.5-30.4C590.7,127.8,606.1,136.8,615,153.4z"/>
<path class="st0" d="M119.7,415.4c-9-9.6-19.3-15.3-32.2-16.7c-25.7-2.8-50.1,17.7-51.5,43.2c-0.2,3.2-1.7,6.7-3.6,9.3
	c-12.2,15-13.8,36-3.6,52.4c10.4,17,29.8,25.4,49.2,22c4.3-0.8,9-0.8,13.3,0c10.4,1.8,20.1,0.2,29.2-3.7c4.7,4.9,8.8,10.3,14,14.3
	c19.2,14.6,45.8,12.6,62.4-4.9c3.6-3.7,6.9-5.1,12-5c24.8,0.5,44.7-17,47.8-41.4c2.9-22.4-13-45-36.6-49.5
	c-7.9-1.6-10.2-4.2-11.6-11.8c-4-19.7-20.2-33-41.2-35.6C148.7,385.4,130.3,396,119.7,415.4z"/>
</svg>
