<?xml version="1.0" encoding="utf-8"?>
<!-- Generator: Adobe Illustrator 21.0.0, SVG Export Plug-In . SVG Version: 6.00 Build 0)  -->
<svg version="1.1" id="Calque_1" xmlns="http://www.w3.org/2000/svg" xmlns:xlink="http://www.w3.org/1999/xlink" x="0px" y="0px"
	 viewBox="0 0 1203.3 468.3" style="enable-background:new 0 0 1203.3 468.3;" xml:space="preserve">
<style type="text/css">
	.st0{fill:#FFFFFF;}
</style>
<path class="st0" d="M111.3,380.1c9.8-32.7,39-49,71-39.9c21.6-28.4,55.1-32.3,82.3-10.8c16.7-14.4,35.7-20,56.9-11.9
	c20.8,8,32.2,23.8,35.2,46.3c14.8,0.8,27.7,5.9,38.2,16.6c22.1,22.5,20.1,59.6-4.6,79.2c-3.8,3-5,5.2-3.5,10.3
	c11.6,39.9-22.8,76.5-63.5,68.1c-2.7-0.6-7,0.1-8.7,2c-25.2,27.9-60.3,28-85.3,0c-0.5-0.6-1.2-1-2.2-1.8c-18,9-37.3,12.2-57.4,9.7
	c-17.7-2.2-33.7-8.5-47.1-20.6c-11.4-10.3-18.5-22.9-18.9-39.1c-16.4-3.3-30-11.2-38.9-25.8c-6.2-10.2-9.2-21.4-7.7-33.3
	C60.7,401.3,80.6,383.2,111.3,380.1z"/>
<path class="st0" d="M1148.9,57.2c-0.1,42.7-34.9,77.6-78.1,78c-5,0-8,1.6-11.3,5c-32.2,33.8-83.8,33.1-115.4-1.1
	c-1.8-2-5.2-3.6-7.9-3.6c-42.5-0.8-75.2-31-79.2-73.5c-3.6-38.4,24.9-74.4,65.2-82.6c2.2-0.4,4.9-2.9,5.7-5
	c12.5-32.9,41.3-53.7,74.8-53.5c33.5,0.2,61.7,20.6,74.1,53.4c0.9,2.2,4,4.7,6.4,5.1C1120.7-14.5,1149.1,18.9,1148.9,57.2z"/>
<path class="st0" d="M349.8,182.7c-29-2.7-41.6-24.4-41.6-42.5c0-16.6,10.8-39.2,41.6-42.4c1.5-17.3,9.4-30.8,25.8-37.8
	c16.4-7.1,31.6-3.8,45.2,7.4c28.2-23.4,64.4-6.7,70.4,23.2c22.9,0.8,42.1,17.3,42.5,42.7c0.4,22.3-14.2,36.7-41.9,42.4
	c1.2,20.2-6.4,35.8-25.2,44.6c-14.7,6.9-30,4.2-45.6-7.5c-13.4,11.1-28.6,14.6-44.9,7.7C359.5,213.8,351.3,200.5,349.8,182.7z"/>
<path class="st0" d="M857.6,272.9c10.9-11.9,23.5-18.9,39.1-20.6c31.2-3.5,61,21.9,62.6,53.3c0.2,3.9,1.9,8.4,4.4,11.4
	c14.8,18.5,16.7,44.4,4.4,64.9c-12.6,20.9-36.2,31.5-59.8,27.2c-5.2-1-10.9-0.9-16.1,0c-12.6,2.2-24.4,0.3-35.5-4.6
	c-5.8,6-10.7,12.7-17.1,17.6c-23.4,18.2-55.7,15.6-75.8-6c-4.3-4.6-8.3-6.4-14.6-6.3c-30.1,0.7-54.3-20.9-58.2-51.1
	c-3.6-27.7,15.8-55.5,44.4-61.2c9.7-1.9,12.4-5.2,14.2-14.6c4.7-24.3,24.6-40.9,50-44.1C822.3,236,844.6,248.9,857.6,272.9z"/>
</svg>
