<?xml version="1.0" encoding="utf-8"?>
<!-- Generator: Adobe Illustrator 21.0.0, SVG Export Plug-In . SVG Version: 6.00 Build 0)  -->
<svg version="1.1" id="Calque_1" xmlns="http://www.w3.org/2000/svg" xmlns:xlink="http://www.w3.org/1999/xlink" x="0px" y="0px"
	 viewBox="0 0 199 166.3" style="enable-background:new 0 0 199 166.3;" xml:space="preserve">
<style type="text/css">
	.st0{fill:#FFFFFF;stroke:#313132;stroke-width:9;stroke-linejoin:round;stroke-miterlimit:10;}
</style>
<path class="st0" d="M191.4,91.2c-0.1,26.8-21.9,48.5-48.9,48.9c-3.2,0-5.1,1-7.1,3.2c-20.2,21.2-52.4,20.8-72.4-0.7
	c-1.2-1.3-3.3-2.2-5-2.2C31.4,139.9,11,121,8.4,94.4C6.2,70.3,24,47.9,49.3,42.7c1.4-0.3,3.1-1.8,3.6-3.2
	c7.8-20.6,26-33.7,46.8-33.6c21,0.2,38.7,12.9,46.4,33.5c0.5,1.4,2.5,3,4.1,3.2C173.7,46.2,191.5,67.2,191.4,91.2z"/>
</svg>
