<?xml version="1.0" encoding="utf-8"?>
<!-- Generator: Adobe Illustrator 21.0.0, SVG Export Plug-In . SVG Version: 6.00 Build 0)  -->
<svg version="1.1" id="Calque_1" xmlns="http://www.w3.org/2000/svg" xmlns:xlink="http://www.w3.org/1999/xlink" x="0px" y="0px"
	 viewBox="0 0 566.9 566.9" style="enable-background:new 0 0 566.9 566.9;" xml:space="preserve">
<style type="text/css">
	.st0{fill:#FFFFFF;}
</style>
<path class="st0" d="M590,226.1c-0.1,27-22.1,49.1-49.4,49.4c-3.2,0-5.1,1-7.2,3.2c-20.4,21.4-53,21-73.1-0.7
	c-1.2-1.3-3.3-2.3-5-2.3c-26.9-0.5-47.6-19.6-50.1-46.5c-2.3-24.3,15.7-47,41.3-52.2c1.4-0.3,3.1-1.8,3.6-3.2
	c7.9-20.8,26.2-34,47.3-33.9c21.2,0.2,39.1,13.1,46.9,33.8c0.5,1.4,2.6,3,4.1,3.2C572.1,180.7,590.1,201.9,590,226.1z"/>
<path class="st0" d="M9.3,236.9c-36.5-3.3-52.3-30.7-52.3-53.4c0-20.8,13.6-49.3,52.3-53.3c1.9-21.6,11.8-38.7,32.3-47.6
	c20.7-8.9,39.7-4.7,56.7,9.3c35.5-29.4,80.9-8.5,88.5,29.3c28.9,1,52.9,21.8,53.4,53.7c0.4,28-17.9,46.2-52.7,53.3
	c1.5,25.4-8,45-31.8,56.2c-18.5,8.7-37.7,5.3-57.3-9.4c-16.8,14-35.9,18.5-56.5,9.7C21.5,276,11.3,259.2,9.3,236.9z"/>
<path class="st0" d="M379.1,379.2c10.9-11.8,23.4-18.8,39-20.6c31.1-3.4,60.7,21.8,62.4,53.2c0.2,3.9,2,8.3,4.4,11.5
	c14.8,18.5,16.7,44.3,4.4,64.6c-12.6,20.9-36.1,31.3-59.6,27.1c-5.2-1-10.9-1-16.1,0c-12.6,2.2-24.3,0.2-35.4-4.5
	c-5.7,6-10.7,12.7-17,17.6c-23.3,18-55.5,15.5-75.6-6c-4.3-4.6-8.3-6.3-14.5-6.2c-30,0.6-54.1-20.9-57.9-51
	c-3.5-27.6,15.7-55.4,44.3-61c9.6-2,12.4-5.2,14.1-14.5c4.8-24.3,24.5-40.7,49.9-43.9C343.9,342.3,366.2,355.3,379.1,379.2z"/>
</svg>
