<?xml version="1.0" encoding="utf-8"?>
<!-- Generator: Adobe Illustrator 21.0.0, SVG Export Plug-In . SVG Version: 6.00 Build 0)  -->
<svg version="1.1" id="Calque_1" xmlns="http://www.w3.org/2000/svg" xmlns:xlink="http://www.w3.org/1999/xlink" x="0px" y="0px"
	 viewBox="0 0 210.7 148" style="enable-background:new 0 0 210.7 148;" xml:space="preserve">
<style type="text/css">
	.st0{fill:#FFFFFF;stroke:#313132;stroke-width:6;stroke-linejoin:round;stroke-miterlimit:10;}
</style>
<path class="st0" d="M122,30.1c7.5-8.2,16.2-13,27-14.3c21.5-2.4,42,15.1,43.2,36.8c0.1,2.7,1.4,5.7,3,8c10.2,12.8,11.6,30.7,3,44.7
	c-8.7,14.5-25,21.7-41.3,18.8c-3.6-0.7-7.5-0.7-11.1,0c-8.7,1.5-16.8,0.1-24.5-3.1c-3.9,4.2-7.4,8.8-11.8,12.2
	c-16.1,12.5-38.4,10.7-52.3-4.2c-3-3.2-5.7-4.4-10-4.3c-20.8,0.4-37.5-14.5-40.1-35.3C4.7,70.3,18,51,37.8,47.2
	c6.6-1.4,8.6-3.6,9.8-10C50.9,20.4,64.6,9,82.1,6.8C97.7,4.5,113.1,13.5,122,30.1z"/>
</svg>
