<?xml version="1.0" encoding="utf-8"?>
<!-- Generator: Adobe Illustrator 21.0.0, SVG Export Plug-In . SVG Version: 6.00 Build 0)  -->
<svg version="1.1" id="Calque_1" xmlns="http://www.w3.org/2000/svg" xmlns:xlink="http://www.w3.org/1999/xlink" x="0px" y="0px"
	 viewBox="0 0 622 468.3" style="enable-background:new 0 0 622 468.3;" xml:space="preserve">
<style type="text/css">
	.st0{fill:#FFFFFF;}
	.st1{fill:#2B2B2B;}
</style>
<g>
	<path class="st0" d="M169.9,272.5c-7.4,0-15-2.8-22.6-8.3c-7,5.5-14.3,8.3-21.9,8.3c-4.4,0-8.9-1-13.4-2.9
		c-12.4-5-19.5-14.8-21.1-29.2c-22.1-2.6-32.2-19.4-32.2-34.1c0-15,10-31.2,32.2-34.1c1.6-14.2,8.5-24,20.7-29.2c4.6-2,9.2-3,13.8-3
		c7.5,0,14.8,2.7,21.7,8.2c6.8-5.3,14.5-8.1,22.3-8.1c15.8,0,29.5,11.1,33.2,26.5c18.9,1.2,32.8,15.5,33.1,34.4
		c0.3,17.5-10.8,29.2-32.3,33.9c0.6,16.3-6.2,28-20.4,34.6C178.7,271.5,174.3,272.5,169.9,272.5z"/>
	<path class="st1" d="M125.4,141.6c7.7,0,14.9,3,21.7,8.6c7.1-5.9,14.9-8.5,22.3-8.5c15.2,0,28.9,10.9,32,26.4
		c17.7,0.6,32.5,13.3,32.8,32.9c0.3,17.2-11,28.3-32.3,32.7c0.9,15.6-4.9,27.6-19.4,34.4c-4.1,1.9-8.3,2.9-12.5,2.9
		c-7.4,0-15-2.9-22.6-8.7c-6.7,5.6-14.1,8.7-21.8,8.7c-4.1,0-8.4-0.9-12.8-2.7c-12.8-5.2-19.1-15.4-20.3-29.2
		c-22.4-2.1-32.1-18.8-32.1-32.8c0-12.8,8.3-30.2,32.1-32.7c1.2-13.3,7.3-23.8,19.9-29.2C116.7,142.5,121.1,141.6,125.4,141.6
		 M125.4,138.6L125.4,138.6c-4.7,0-9.6,1.1-14.4,3.1C98.8,146.9,91.4,157,89.6,171c-10.3,1.6-18.8,6.1-24.6,13.3
		c-5,6.1-7.8,14.2-7.8,22.1c0,15.1,10.1,32.3,32.4,35.5c1.9,14.3,9.2,24.1,21.9,29.2c4.6,2,9.3,3,13.9,3c7.6,0,15-2.7,21.9-7.9
		c7.6,5.3,15.2,7.9,22.6,7.9c4.7,0,9.3-1.1,13.8-3.2c14.3-6.7,21.5-18.4,21.3-34.7c27-6.4,32.5-22.5,32.2-35.1
		c-0.3-19.3-14.2-34-33.4-35.7c-4.2-15.5-18.3-26.6-34.4-26.6c-7.9,0-15.5,2.7-22.3,7.7C140.1,141.2,132.9,138.6,125.4,138.6
		L125.4,138.6z"/>
</g>
<g>
	<path class="st0" d="M432.6,436.3c-13.5,0-26.1-5.5-35.4-15.6c-3.3-3.5-6.2-4.8-10.7-4.8l-0.4,0c-0.4,0-0.8,0-1.2,0
		c-25.1,0-45.7-18.5-49-44.1c-3.2-24.3,14-48,38.3-52.9c7.3-1.4,9.3-3.5,10.7-11c3.9-20.3,20.9-35.3,43.1-38.1
		c1.8-0.2,3.6-0.3,5.3-0.3c17.4,0,33.6,10.4,43.7,27.8c9.3-9.6,19.8-14.9,32.2-16.2c1.7-0.2,3.3-0.3,5-0.3c25.3,0,47.8,21.2,49,46.3
		c0.2,3,1.5,6.4,3.3,8.7c12.8,16,14.3,38.5,3.8,56c-9.2,15.2-25.1,24.3-42.6,24.3c-3,0-6-0.3-9-0.8c-2-0.4-4.1-0.6-6.3-0.6
		c-2.2,0-4.5,0.2-6.7,0.6c-3,0.5-6,0.8-8.9,0.8c-6.9,0-13.9-1.5-20.7-4.3c-1.3,1.4-2.6,2.9-3.9,4.3c-3,3.4-6.2,7-9.9,9.8
		C453.8,432.7,443.5,436.3,432.6,436.3z"/>
	<path class="st1" d="M433.4,271c17.2,0,33.5,10.6,43.4,28.8c9.1-10,19.7-15.8,32.7-17.2c1.6-0.2,3.2-0.3,4.8-0.3
		c24.3,0,46.3,20.2,47.5,44.9c0.2,3.3,1.6,7,3.7,9.5c12.4,15.5,14,37.2,3.7,54.3c-9,14.9-24.7,23.6-41.3,23.6
		c-2.9,0-5.8-0.3-8.7-0.8c-2.1-0.4-4.3-0.6-6.6-0.6c-2.3,0-4.7,0.2-6.9,0.6c-2.9,0.5-5.8,0.8-8.7,0.8c-7.3,0-14.3-1.7-21-4.6
		c-4.9,5-9,10.6-14.3,14.7c-8.7,6.8-19,10.1-29.1,10.1c-12.6,0-25-5.1-34.3-15.1c-3.5-3.7-6.8-5.3-11.8-5.3c-0.1,0-0.3,0-0.4,0
		c-0.4,0-0.8,0-1.2,0c-24.6,0-44.3-17.9-47.5-42.8c-3-23.2,13.2-46.4,37.2-51.2c8.1-1.6,10.4-4.4,11.9-12.2
		c3.9-20.3,20.6-34.2,41.8-36.9C429.9,271.1,431.7,271,433.4,271 M433.4,268v3V268L433.4,268c-1.8,0-3.7,0.1-5.5,0.3
		c-11.2,1.4-21.2,5.7-29,12.5c-8,7-13.4,16.2-15.4,26.8c-1.3,7-2.8,8.5-9.5,9.8c-25.1,5-42.8,29.5-39.6,54.5
		c1.6,12.8,7.6,24.3,16.7,32.6c9.2,8.3,21.2,12.8,33.8,12.8c0.4,0,0.8,0,1.3,0c0.1,0,0.2,0,0.3,0c4.1,0,6.6,1.1,9.6,4.3
		c9.7,10.4,22.6,16.1,36.5,16.1c11.2,0,21.9-3.7,30.9-10.8c3.8-2.9,7-6.5,10.1-10c1-1.2,2.1-2.3,3.1-3.5c6.7,2.7,13.5,4,20.3,4
		c3,0,6.1-0.3,9.2-0.8c2.1-0.4,4.3-0.6,6.4-0.6c2.1,0,4.1,0.2,6,0.5c3.1,0.6,6.2,0.8,9.3,0.8c18,0,34.5-9.3,43.9-25
		c10.8-18.1,9.3-41.3-3.9-57.7l0,0l0,0c-1.7-2-2.9-5.1-3-7.8c-1.3-25.9-24.5-47.7-50.5-47.7c-1.7,0-3.5,0.1-5.2,0.3
		c-12.1,1.3-22.6,6.3-31.8,15.3C466.9,278,450.7,268,433.4,268L433.4,268z"/>
</g>
<g>
	<path class="st0" d="M545.8,121.2c-5.4,0-10.9-1.5-15.7-4.3c-2.5-1.5-4.7-3.4-6.9-5.3c-0.8-0.7-1.6-1.4-2.4-2
		c-5.1,2.9-10.6,4.4-16.2,4.4c-0.5,0-1,0-1.5,0c-0.3,0-0.7,0-1,0c-2.3,0-4.6,0.3-6.6,1c-3.1,1-6.3,1.5-9.4,1.5
		c-9.5,0-18.4-4.4-24.4-11.9c-7.9-10-8.8-24.1-2.1-35.1c0.9-1.4,1.4-3.5,1.3-5.2c-0.6-8.1,2.3-16.4,8.1-22.7
		c5.8-6.3,13.7-10,21.8-10.1c0.2,0,0.4,0,0.6,0c7.3,0,13.9,2.3,20,7c5.5-12.5,16.1-20.2,28-20.2c14.1,0,25.7,7.9,29.8,20.3
		c1.4,4.3,2.6,5.2,6.9,5.5c15.5,1.1,28,14.4,28,29.8c0,16.5-11.7,29.6-27.7,31.3c-2.7,0.3-4.3,1.2-6,3.5
		C564.5,116.5,555.6,121.2,545.8,121.2C545.8,121.2,545.8,121.2,545.8,121.2z"/>
	<path class="st1" d="M539.4,19.6c13.1,0,24.3,7.2,28.3,19.2c1.5,4.7,3.1,6.2,8.2,6.5c14.9,1,26.6,13.9,26.6,28.3
		c0,15.6-11,28.2-26.3,29.8c-3.2,0.4-5.1,1.5-7,4.2c-5.7,7.9-14.4,12.1-23.3,12.1c-5,0-10.2-1.3-14.9-4.1c-3.6-2.1-6.5-5.2-9.9-7.9
		c-4.9,3-10.4,4.7-16.3,4.7c-0.5,0-1,0-1.5,0c-0.4,0-0.7,0-1.1,0c-2.4,0-4.9,0.3-7.1,1.1c-3,0.9-6,1.4-9,1.4
		c-8.9,0-17.4-4-23.3-11.4c-7.6-9.6-8.3-23-2-33.4c1.1-1.7,1.7-4.1,1.5-6.1c-1.2-16.1,12.3-31,28.4-31.2c0.2,0,0.4,0,0.6,0
		c7.8,0,14.5,2.7,20.6,8C517,27.6,527.6,19.6,539.4,19.6C539.3,19.6,539.4,19.6,539.4,19.6 M539.4,16.6L539.4,16.6
		c-12,0.1-22.7,7.4-28.6,19.4c-6-4.2-12.4-6.2-19.4-6.2c-0.2,0-0.4,0-0.7,0c-8.5,0.1-16.8,4-22.9,10.6c-6.1,6.6-9.2,15.3-8.5,23.8
		c0.1,1.4-0.3,3.1-1,4.3l0,0l0,0c-7,11.5-6.1,26.2,2.2,36.8c6.3,8,15.6,12.5,25.6,12.5c3.3,0,6.7-0.5,9.9-1.5c1.9-0.6,4-0.9,6.2-0.9
		c0.3,0,0.7,0,1,0c0.5,0,1.1,0,1.6,0c5.5,0,10.9-1.4,16-4.1c0.5,0.5,1,0.9,1.6,1.4c2.2,1.9,4.5,3.9,7.1,5.5c5,3,10.7,4.5,16.4,4.5
		c10.3,0,19.7-4.9,25.8-13.4c1.4-2,2.6-2.7,4.9-2.9c16.8-1.7,29-15.5,29-32.8c0-16.1-13.2-30.2-29.4-31.3c-3.7-0.2-4.3-0.8-5.5-4.5
		C566.3,24.9,554,16.6,539.4,16.6L539.4,16.6z"/>
</g>
</svg>
