<?xml version="1.0" encoding="utf-8"?>
<!-- Generator: Adobe Illustrator 21.0.0, SVG Export Plug-In . SVG Version: 6.00 Build 0)  -->
<svg version="1.1" id="Calque_1" xmlns="http://www.w3.org/2000/svg" xmlns:xlink="http://www.w3.org/1999/xlink" x="0px" y="0px"
	 viewBox="0 0 622 468.3" style="enable-background:new 0 0 622 468.3;" xml:space="preserve">
<style type="text/css">
	.st0{fill:#FFFFFF;}
	.st1{fill:#10182D;}
	.st2{fill:#E53042;}
</style>
<path class="st0" d="M99.8,165.3c-29-2.7-41.6-24.4-41.6-42.5c0-16.6,10.8-39.2,41.6-42.4c1.5-17.3,9.4-30.8,25.8-37.8
	c16.4-7.1,31.6-3.8,45.2,7.4c28.2-23.4,64.4-6.7,70.4,23.2c22.9,0.8,42.1,17.3,42.5,42.7c0.4,22.3-14.2,36.7-41.9,42.4
	c1.2,20.2-6.4,35.8-25.2,44.6c-14.7,6.9-30,4.2-45.6-7.5c-13.4,11.1-28.6,14.6-44.9,7.7C109.5,196.4,101.3,183.1,99.8,165.3z"/>
<path class="st0" d="M408.1,231c13.4-14.6,28.9-23.3,48.1-25.3c38.4-4.3,75.1,26.9,77,65.6c0.2,4.8,2.3,10.3,5.4,14
	c18.2,22.8,20.5,54.6,5.4,79.9c-15.5,25.7-44.5,38.8-73.6,33.5c-6.4-1.2-13.4-1.1-19.8,0c-15.5,2.7-30,0.4-43.7-5.7
	c-7.1,7.4-13.2,15.6-21,21.7c-28.8,22.4-68.5,19.2-93.3-7.4c-5.3-5.7-10.2-7.9-18-7.8c-37,0.9-66.8-25.7-71.6-62.9
	c-4.4-34.1,19.4-68.3,54.6-75.3c11.9-2.3,15.3-6.4,17.5-18c5.8-29.9,30.3-50.3,61.5-54.3C364.6,185.6,392.1,201.5,408.1,231z"/>
<g>
	<path class="st1" d="M498.8,262.9c0,1.3,1,2.4,2.4,2.4s2.4-1,2.4-2.4V195h-4.8V262.9z"/>
	<path class="st2" d="M501.2,178.2c-1.5,0-2.9,0-4.4-0.1l-0.1,0.1h9l-0.1-0.1C504.2,178.1,502.7,178.2,501.2,178.2z"/>
	<path class="st2" d="M514.1,188.1l-4.6-5.5c-0.3,0.2-0.7,0.3-1.1,0.3h-14.3c-0.4,0-0.8-0.1-1.1-0.3l-4.6,5.5c-1.4,3,0.3,6.8,3,6.8
		h7.5h4.8h7.5C513.8,195,515.5,191.2,514.1,188.1z"/>
	<path class="st2" d="M501.2,24.9c-42.3,0-76.6,34.3-76.6,76.6c0,40.1,30.8,73.2,69.9,76.6c0.8,0,12.8,0.1,13.8,0
		c38.8-3.8,69.5-36.8,69.5-76.6C577.9,59.2,543.6,24.9,501.2,24.9z M489.1,51.4c-17.1,4.7-30.8,17.5-36.5,34.3
		c-0.5,1.4-1.8,2.2-3.1,2.2c-0.4,0-0.7,0-1.1-0.2c-1.8-0.6-2.7-2.5-2-4.2c6.5-18.9,21.8-33.3,41-38.6c1.8-0.5,3.6,0.6,4.1,2.3
		C491.9,49,490.8,50.8,489.1,51.4z"/>
	<path class="st1" d="M508.4,178.2h-2.6h-9h-2.7c-1.3,0-2.4,1-2.4,2.4c0,0.9,0.5,1.7,1.2,2.1c0.3,0.2,0.7,0.3,1.1,0.3h14.3
		c0.4,0,0.8-0.1,1.1-0.3c0.8-0.4,1.2-1.2,1.2-2.1C510.7,179.2,509.7,178.2,508.4,178.2z"/>
	<path class="st0" d="M487.2,44.9c-19.2,5.3-34.6,19.7-41,38.6c-0.6,1.8,0.3,3.6,2,4.2c0.4,0.1,0.7,0.2,1.1,0.2
		c1.4,0,2.7-0.9,3.1-2.2c5.8-16.8,19.4-29.6,36.5-34.3c1.8-0.5,2.8-2.3,2.3-4.1C490.9,45.5,489.1,44.4,487.2,44.9z"/>
</g>
</svg>
