<?xml version="1.0" encoding="utf-8"?>
<!-- Generator: Adobe Illustrator 21.0.0, SVG Export Plug-In . SVG Version: 6.00 Build 0)  -->
<svg version="1.1" id="Calque_1" xmlns="http://www.w3.org/2000/svg" xmlns:xlink="http://www.w3.org/1999/xlink" x="0px" y="0px"
	 viewBox="0 0 566.9 566.9" style="enable-background:new 0 0 566.9 566.9;" xml:space="preserve">
<style type="text/css">
	.st0{fill:#FFFFFF;}
</style>
<path class="st0" d="M-57.3,418.9c9.7-32.2,38.4-48.2,69.8-39.2c21.2-27.9,54.2-31.8,80.9-10.6c16.4-14.2,35.1-19.7,56-11.7
	c20.4,7.8,31.7,23.4,34.6,45.5c14.6,0.8,27.3,5.8,37.6,16.3c21.7,22.2,19.8,58.6-4.5,77.8c-3.8,3-4.9,5.1-3.4,10.1
	c11.4,39.2-22.5,75.2-62.5,67c-2.7-0.5-6.9,0.1-8.5,1.9c-24.7,27.4-59.3,27.5-83.8,0c-0.5-0.6-1.1-1-2.1-1.8
	c-17.7,8.8-36.7,12-56.4,9.5c-17.4-2.2-33.1-8.4-46.3-20.2c-11.2-10.1-18.2-22.5-18.5-38.5c-16.2-3.2-29.5-11-38.2-25.3
	c-6.1-10-9-21-7.6-32.7C-107.1,439.7-87.5,421.9-57.3,418.9z"/>
<path class="st0" d="M601.1,136.9c-0.1,35.9-29.3,65.3-65.7,65.6c-4.2,0-6.8,1.3-9.5,4.2c-27.1,28.4-70.4,27.9-97.1-0.9
	c-1.6-1.7-4.4-3-6.7-3c-35.8-0.7-63.2-26-66.6-61.8c-3.1-32.3,20.9-62.5,54.9-69.4c1.8-0.4,4.1-2.4,4.8-4.2
	c10.5-27.7,34.8-45.2,62.9-45c28.2,0.2,51.9,17.4,62.3,44.9c0.7,1.9,3.4,4,5.4,4.3C577.3,76.6,601.2,104.7,601.1,136.9z"/>
<path class="st0" d="M136.9,231.2c-26.3-2.4-37.7-22.1-37.7-38.5c0-15,9.8-35.5,37.7-38.4c1.4-15.6,8.5-27.9,23.3-34.3
	c14.9-6.4,28.6-3.4,40.9,6.7c25.6-21.2,58.3-6.1,63.8,21.1c20.8,0.7,38.1,15.7,38.5,38.7c0.3,20.2-12.9,33.3-38,38.4
	c1.1,18.3-5.8,32.4-22.9,40.5c-13.3,6.3-27.2,3.8-41.3-6.8c-12.1,10.1-25.9,13.3-40.7,7C145.7,259.4,138.3,247.3,136.9,231.2z"/>
<path class="st0" d="M440,351.2c8.9-9.7,19.2-15.4,32-16.9c25.5-2.8,49.8,17.9,51.2,43.6c0.2,3.2,1.6,6.8,3.6,9.4
	c12.1,15.2,13.7,36.3,3.6,53c-10.3,17.1-29.6,25.7-48.9,22.2c-4.3-0.8-8.9-0.8-13.2,0c-10.3,1.8-19.9,0.2-29-3.7
	c-4.7,4.9-8.8,10.4-13.9,14.4c-19.1,14.8-45.5,12.7-62-4.9c-3.5-3.8-6.8-5.2-11.9-5.1c-24.6,0.5-44.4-17.1-47.5-41.8
	c-2.9-22.6,12.9-45.4,36.3-50c7.9-1.6,10.2-4.3,11.6-11.9c3.9-19.9,20.1-33.4,40.9-36C411.1,321,429.4,331.6,440,351.2z"/>
</svg>
