<?xml version="1.0" encoding="utf-8"?>
<!-- Generator: Adobe Illustrator 21.0.0, SVG Export Plug-In . SVG Version: 6.00 Build 0)  -->
<svg version="1.1" id="Calque_1" xmlns="http://www.w3.org/2000/svg" xmlns:xlink="http://www.w3.org/1999/xlink" x="0px" y="0px"
	 viewBox="0 0 237.5 22.6" style="enable-background:new 0 0 237.5 22.6;" xml:space="preserve">
<style type="text/css">
	.st0{fill:#9BDAE6;}
	.st1{fill:#FBFAFA;}
	.st2{fill:#F41833;}
	.st3{fill:#3F9843;}
	.st4{fill:#050506;}
	.st5{fill:#090A20;}
	.st6{fill:none;}
</style>
<g>
	<path class="st0" d="M135.1,7.6c-0.8,0-1.6-0.1-2.5-0.1c-31.2,0-62.4,0-93.6,0c-2.4,0-4.8,0.3-7.1-0.2c-2.5,0-5,0-7.5,0
		c-0.9,0.4-1.9,0.2-2.9,0.3C16.2,7.9,10.8,8.2,5.7,10c-2,0.7-4.1,2.9-4,4.3c0.1,1.8,1.4,3.3,3.1,4c5.5,2.1,11.5,2.4,17.4,2.7
		c4.9,0.2,9.7,0.1,14.6,0.1c5.6,0,11.2-0.1,16.8-0.1c27.2,0,54.4,0,81.6,0l0,0l0,0h0c0,0,0,0,0,0c1.1,0,2.2,0,3.3,0c0,0,0,0,0,0
		c0.7,0,1.4,0,2.1,0c3-2.3,4.6-4.7,4.6-7.2c0-2.2-1.2-4.2-3.3-6.2c-1.1,0-2.2,0-3.4,0C137.4,7.6,136.3,7.6,135.1,7.6z"/>
	<g>
		<path class="st1" d="M202.9,7.2c-2.3-0.5-4.7-0.4-7-0.3c-1.4,0.1-2.6,0.7-2.9,2c-0.3,1.7,0.3,3,2.2,3.9c1.3,0.4,2.7,0.2,4,0.2
			c8,0,15.9-0.1,23.9-0.1c0.5,0.1,1-0.2,1.1-0.5c0.5-1,1.3-1.1,2.4-0.7c0.6,0.2,1.4,0.1,2.1-0.3c1.9-1.3,3.8-1.1,5.8,0
			c1.8,1,1.5,2.6,1.1,3.9c-0.5,1.6-2.5,2.3-4.3,2.5c-0.7,0.1-1.4-0.5-2.2-0.7c-0.9-0.2-1.6-0.9-2.7-0.2c-0.5,0.4-0.8-0.2-1-0.6
			c-0.6-1.5-2.3-1.7-3.7-1.5c-3.5,0.5-7,0.1-10.5,0.3c-4.7,0.2-9.4-0.3-14.1,0.3c-2.1,0.3-3.5,1.5-3.5,2.8c0,2-0.8,2.8-3,2.8
			c-1.7,0-3.5,0.1-5.2,0.1c-0.5,0-0.9,0-1.4,0c-1.2,0-2.4-0.1-3.6-0.1c-13.9,0-27.9,0-41.8-0.1l0.1,0c0-4.5,0-9-0.1-13.5
			c14.8,0,29.6,0,44.4,0c1,0,2.1-0.1,3.1-0.2c1-0.1,2.5,0.1,2.3-1.4c-0.1-1.2-0.4-2.3-2.3-2.5c-11.8,0-23.6,0-35.5,0
			c-2,0.4-3.9,0.8-5.6,1.9c-1.2,0.8-2.2-0.1-3.2-0.6c-0.9-0.4-1.8-1-1.6-2c0.1-1,1.2-0.8,1.9-0.8c4-0.1,7.9,0,11.9-0.1
			c2.3,0,3.3-0.1,6.9-0.3c5.5,0,11,0,16.6-0.1c6.3-0.1,12.7,0.1,19,0.5c6,0.4,12,1.1,17.7,3c1,0.4,2.1,0.9,2.9,1.5
			c0.8,0.6-0.7,0.3-0.5,0.7C212.1,7.2,207.5,7.2,202.9,7.2z M233.4,14c-0.2-0.8-0.8-1.4-1.9-1.5c-0.9,0-1.6,0.4-1.7,1.2
			c-0.1,0.9,0.3,1.7,1.5,1.7C232.4,15.5,233.1,14.9,233.4,14z"/>
		<path class="st2" d="M221.3,19.6c-7.6,0-15.2,0-22.9,0c-0.4,0-0.8,0-1.1,0.1c-0.8,0.2-1.7,0.6-2.1-0.3c-0.4-0.9,0.3-1.6,1.2-2
			c1.1-0.5,2.4-0.7,3.7-0.7c6.3,0,12.6,0,18.8,0c0.8,0,1.7,0,2.4-0.1c0.8-0.2,1.7-0.1,2,0.4c0.3,0.4,0.9,1,0.2,1.7
			C223,19.3,222.5,19.9,221.3,19.6z"/>
		<path class="st3" d="M208.8,11.4c-3.8,0-7.6-0.1-11.4,0c-1.6,0-2.6-0.6-2.6-1.7c0-1.2,1.4-1.3,2.6-1.3c4.6,0.2,9.2,0.7,13.8,0.6
			c3,0,6,0,8.9-0.9c0.8-0.3,2-0.5,2.6,0.4c0.5,0.6,0.7,1.3,0.4,2.1c-0.4,0.9-1.3,0.9-2.2,0.9C216.9,11.4,212.9,11.4,208.8,11.4
			C208.8,11.4,208.8,11.4,208.8,11.4z"/>
		<path class="st4" d="M138.5,7.6c0,4.5,0,9,0.1,13.5c-1.1,0-2.2,0-3.3,0c0-4.5-0.1-8.9-0.1-13.4C136.3,7.6,137.4,7.6,138.5,7.6z"/>
		<path class="st5" d="M135.3,21C135.3,21,135.2,21,135.3,21C135.2,21,135.2,21.1,135.3,21L135.3,21z"/>
		<path class="st5" d="M233.4,14c-0.3,1-1,1.5-2.1,1.5c-1.2,0-1.6-0.8-1.5-1.7c0.1-0.8,0.8-1.2,1.7-1.2
			C232.6,12.5,233.2,13.1,233.4,14z"/>
	</g>
	<path class="st6" d="M150.9,6c6.7,0,13.3,0,20,0c4.7,0,9.4,0,14.1,0c0.5,0,1.2,0.2,1.3-0.4C186.4,5,185.6,5,185,5
		c-0.3,0-0.6,0-0.9,0c-10.5,0-20.9,0-31.4,0c-1.4,0-2.7,0.2-4.1,0.8C149.4,6.3,150.2,6,150.9,6z"/>
	<path class="st6" d="M150.8,3.7C151.1,3.9,151.1,3.9,150.8,3.7L150.8,3.7z"/>
	<path class="st6" d="M217.1,7.5c0,0-0.1-0.1-0.1-0.1C217,7.4,217.1,7.4,217.1,7.5L217.1,7.5z"/>
	<path class="st6" d="M140.6,21c13.2,0,26.5,0,39.7,0c1.2,0,2.4,0.1,3.6,0.1c-0.2,0.1-0.4,0.2-0.6,0.3c0.2-0.1,0.4-0.1,0.6-0.3
		c0.5,0,0.9,0,1.4,0c1.7,0,3.5-0.1,5.2-0.1l0,0c2.2-0.1,3-0.8,3-2.8c0-1.3,1.4-2.5,3.5-2.8c4.7-0.6,9.4-0.1,14.1-0.3
		c3.5-0.1,7,0.2,10.5-0.3c1.4-0.2,3.1,0,3.7,1.5c0.2,0.4,0.5,1,1,0.6c1-0.8,1.8-0.1,2.7,0.2c0.8,0.2,1.5,0.8,2.2,0.7
		c1.9-0.3,3.8-0.9,4.3-2.5c0.4-1.3,0.7-2.9-1.1-3.9c-1.9-1.1-3.9-1.2-5.8,0c-0.7,0.5-1.4,0.6-2.1,0.3c-1.1-0.4-1.9-0.3-2.4,0.7
		c-0.2,0.3-0.6,0.5-1.1,0.5c-8,0-15.9,0.1-23.9,0.1c-1.3,0-2.7,0.2-4-0.2l0,0h0c-1.8-0.9-2.5-2.2-2.2-3.9c0.3-1.3,1.5-1.9,2.9-2
		c2.3-0.1,4.7-0.3,7,0.3c4.6,0,9.2,0,13.7,0c-0.1-0.4,1.4-0.1,0.5-0.7c-0.8-0.6-1.9-1.2-2.9-1.5c-5.7-1.9-11.7-2.6-17.7-3
		c-6.3-0.4-12.7-0.6-19-0.5l0,0c-5.5,0-11,0-16.6,0.1c-2.3,0.6-4.6,0.3-6.9,0.3c-4,0.1-7.9,0-11.9,0.1c-0.7,0-1.8-0.2-1.9,0.8
		c-0.1,1,0.7,1.6,1.6,2c1,0.5,1.9,1.4,3.2,0.6c1.6-1.1,3.6-1.5,5.6-1.9c0.1,0,0.1,0.1,0.2,0.1c0,0-0.1-0.1-0.2-0.1
		c11.8,0,23.6,0,35.5,0h0l0,0c1.8,0.1,2.1,1.2,2.3,2.5c0.1,1.5-1.3,1.3-2.3,1.4c-1,0.1-2.1,0.2-3.1,0.2c-13.7,0-27.4,0-41.1,0
		c2.1,2,3.3,4,3.3,6.2C145.2,16.3,143.6,18.8,140.6,21z"/>
	<path class="st6" d="M220.2,8c-2.9,1-6,0.9-8.9,0.9c-4.6,0.1-9.2-0.4-13.8-0.6c-1.2-0.1-2.5,0.1-2.6,1.3c0,1.2,0.9,1.8,2.6,1.7
		c3.8-0.1,7.6,0,11.4,0c0,0,0,0,0,0.1c4,0,8.1,0,12.1,0c0.9,0,1.8,0,2.2-0.9c0.4-0.8,0.1-1.5-0.4-2.1C222.1,7.6,221,7.8,220.2,8z"/>
	<path class="st6" d="M221.4,16.5c-0.8,0.2-1.6,0.1-2.4,0.1c-6.3,0-12.6,0-18.8,0c-1.3,0-2.6,0.2-3.7,0.7c-0.9,0.4-1.5,1.2-1.2,2
		c0.4,0.9,1.3,0.5,2.1,0.3c0.4-0.1,0.7-0.1,1.1-0.1c7.6,0,15.2,0,22.9,0c1.1,0.3,1.6-0.4,2.3-1c0.7-0.7,0-1.3-0.2-1.7
		C223.1,16.4,222.2,16.3,221.4,16.5z"/>
	<path class="st5" d="M236.4,10.6c-2.2-2-5.3-2.5-8.1-1c-1.3,0.7-2.1,0.4-2.6-0.4c-1.2-2.2-2.9-3.5-6-3.3c-0.6,0-1.2-0.6-1.9-1
		c-2.7-1.4-5.6-2.5-8.7-3c-5.6-0.7-11.2-1.5-16.9-1.7c-9.6-0.4-19.2-0.3-28.7-0.1c-6.5,0.2-13,0.2-19.5,0.1c-1.9,0-3.9-0.1-5.2,1.2
		c-1.2,1.3-0.3,2.6,0.9,3.7c0.4,0.4,0.3,0.6,0,0.8c0.8,0.5,1.5,1.1,2.1,1.6c13.7,0,27.4,0,41.1,0c1,0,2.1-0.1,3.1-0.2
		c1-0.1,2.5,0.1,2.3-1.4c-0.1-1.2-0.4-2.3-2.3-2.5l0,0h0c-11.8,0-23.6,0-35.5,0c0.1,0,0.1,0.1,0.2,0.1c0.3,0.2,0.3,0.2,0,0
		c0,0-0.1-0.1-0.2-0.1c-2,0.4-3.9,0.8-5.6,1.9c-1.2,0.8-2.2-0.1-3.2-0.6c-0.9-0.4-1.8-1-1.6-2c0.1-1,1.2-0.8,1.9-0.8
		c4-0.1,7.9,0,11.9-0.1c2.3,0,3.2-0.1,6.9-0.3c5.5,0,11,0,16.6-0.1l0,0c6.3-0.1,12.7,0.1,19,0.5c6,0.4,12,1.1,17.7,3
		c1,0.4,2.1,0.9,2.9,1.5c0.8,0.6-0.7,0.3-0.5,0.7c-4.6,0-9.2,0-13.7,0c-2.3-0.5-4.7-0.4-7-0.3c-1.4,0.1-2.6,0.7-2.9,2
		c-0.3,1.7,0.3,3,2.2,3.9h0l0,0c1.3,0.4,2.7,0.2,4,0.2c8,0,15.9-0.1,23.9-0.1c0.5,0.1,1-0.2,1.1-0.5c0.5-1,1.3-1.1,2.4-0.7
		c0.6,0.2,1.4,0.1,2.1-0.3c1.9-1.3,3.8-1.1,5.8,0c1.8,1,1.5,2.6,1.1,3.9c-0.5,1.6-2.5,2.3-4.3,2.5c-0.7,0.1-1.4-0.5-2.2-0.7
		c-0.9-0.2-1.6-0.9-2.7-0.2c-0.5,0.4-0.8-0.2-1-0.6c-0.6-1.5-2.3-1.7-3.7-1.5c-3.5,0.5-7,0.1-10.5,0.3c-4.7,0.2-9.4-0.3-14.1,0.3
		c-2.1,0.3-3.5,1.5-3.5,2.8c0,2-0.8,2.8-3,2.8l0,0c-1.7,0-3.5,0.1-5.2,0.1c-0.5,0-0.9,0-1.4,0c-0.2,0.1,0.2-0.1,0,0c0.2-0.1,0,0,0,0
		c-1.2,0-2.4-0.1-3.6-0.1c-13.2,0-26.5,0-39.7,0c-0.7,0.5-1.5,1.1-2.4,1.6c15.5,0,31,0,46.6,0c4.3,0,8.5-0.5,12.8-0.5
		c1.7,0,3.6-0.2,5.3-0.4c5.9-0.8,11.7-0.9,17.6-0.3c1.7,0.2,3.3,0,4.3-1.4c1.1-1.5,2.5-1.7,4.4-1.2c2.7,0.8,6.1-0.2,7.6-2
		C237.9,15.4,237.7,11.8,236.4,10.6z M152.7,5c10.5,0,20.9,0,31.4,0c0.3,0,0.6,0,0.9,0c0.6,0,1.4,0,1.3,0.7C186.2,6.3,185.5,6,185,6
		c-4.7,0-9.4,0-14.1,0c-6.7,0-13.3,0-20,0c-0.7,0-1.4,0.2-2.3-0.3C150,5.1,151.3,4.9,152.7,5z M217.1,7.5L217.1,7.5
		c0,0-0.1-0.1-0.1-0.1C217,7.4,217.1,7.4,217.1,7.5z M223.2,10.5c-0.4,0.9-1.3,0.9-2.2,0.9c-4,0-8.1,0-12.1,0c0,0,0,0,0-0.1
		c-3.8,0-7.6-0.1-11.4,0c-1.6,0-2.6-0.6-2.6-1.7c0-1.2,1.4-1.3,2.6-1.3c4.6,0.2,9.2,0.7,13.8,0.6c3,0,6,0,8.9-0.9
		c0.8-0.3,2-0.5,2.6,0.4C223.3,9,223.5,9.7,223.2,10.5z M223.6,18.6c-0.6,0.6-1.1,1.3-2.3,1c-7.6,0-15.2,0-22.9,0
		c-0.4,0-0.8,0-1.1,0.1c-0.8,0.2-1.7,0.6-2.1-0.3c-0.4-0.9,0.3-1.6,1.2-2c1.1-0.5,2.4-0.7,3.7-0.7c6.3,0,12.6,0,18.8,0
		c0.8,0,1.7,0,2.4-0.1c0.8-0.2,1.7-0.1,2,0.4C223.6,17.3,224.3,17.9,223.6,18.6z"/>
	<path class="st5" d="M138.5,21C138.5,21,138.5,21,138.5,21c-1.1,0.1-2.2,0.1-3.3,0.1c0,0,0,0,0,0h0l0,0l0,0c-27.2,0-54.4,0-81.6,0
		c-5.6,0-11.2,0.1-16.8,0.1c-4.9,0-9.8,0.1-14.6-0.1c-5.9-0.3-11.9-0.6-17.4-2.7c-1.7-0.7-3-2.1-3.1-4c-0.1-1.4,2-3.5,4-4.3
		c5.1-1.9,10.5-2.1,15.9-2.5c1-0.1,2,0.1,2.9-0.3c2.5,0,5,0,7.5,0c2.4,0.5,4.8,0.2,7.1,0.2c31.2,0,62.4,0,93.6,0
		c0.8,0,1.6,0,2.5,0.1c1.1,0,2.2,0,3.4,0c1.1,0,2.2,0,3.4,0c-0.6-0.6-1.3-1.1-2.1-1.6c-0.1,0-0.3,0.1-0.5,0.1c-0.7,0-1.3,0-2,0
		C98.6,6.1,59.8,6,21,6.1c-5.2,0-10.4,0.6-15.4,2.2c-2.8,0.9-5,2.6-5.7,5c-0.7,2.4,1,4.3,3.2,5.9c1,0.8,2.3,1.1,3.6,1.5
		c5.6,1.6,11.4,1.9,17.2,2c27.2,0.1,54.4,0.1,81.6,0.1c10.9,0,21.7,0,32.6,0c0.9-0.5,1.7-1.1,2.4-1.6C139.9,21,139.2,21,138.5,21z"
		/>
</g>
</svg>
