<?xml version="1.0" encoding="utf-8"?>
<!-- Generator: Adobe Illustrator 21.0.0, SVG Export Plug-In . SVG Version: 6.00 Build 0)  -->
<svg version="1.1" id="Calque_1" xmlns="http://www.w3.org/2000/svg" xmlns:xlink="http://www.w3.org/1999/xlink" x="0px" y="0px"
	 viewBox="0 0 566.9 566.9" style="enable-background:new 0 0 566.9 566.9;" xml:space="preserve">
<style type="text/css">
	.st0{fill:#B52F30;}
	.st1{fill:#CC3233;}
	.st2{fill:#222C4B;}
</style>
<g>
	<path class="st0" d="M130.3,513.6c-3-1.2-5.8-3-8.2-5.4C124.5,510.6,127.3,512.4,130.3,513.6z"/>
	<path class="st0" d="M90.2,413.4c-0.7-0.7-1.3-1.6-2-2.4L74,425.2c-1.2,1.2-1.2,3.2,0,4.4l63.3,63.3c0.7,0.7,1.6,0.9,2.2,0.9
		c0.6,0,1.4-0.2,2.2-0.9l14.2-14.2c-0.8-0.6-1.7-1.2-2.4-2L90.2,413.4z"/>
	<path class="st0" d="M314,351.3l-16.1,16.1l125.5,125.5c0.7,0.7,1.6,0.9,2.2,0.9c0.6,0,1.4-0.2,2.2-0.9l14.2-14.2
		c-0.8-0.6-1.7-1.2-2.4-2L314,351.3z"/>
	<path class="st0" d="M90.2,127.5c-0.7-0.7-1.3-1.6-2-2.4L74,139.2c-1.2,1.2-1.2,3.2,0,4.4l125.5,125.5l16.1-16.1L90.2,127.5z"/>
	<path class="st0" d="M416.2,513.6c-3-1.2-5.8-3-8.2-5.4C410.4,510.6,413.2,512.4,416.2,513.6z"/>
	<path class="st0" d="M443,508.2c-2.4,2.4-5.2,4.2-8.2,5.4C437.8,512.4,440.6,510.6,443,508.2z"/>
	<path class="st0" d="M157.1,508.2c-2.4,2.4-5.2,4.2-8.2,5.4C151.9,512.4,154.6,510.6,157.1,508.2z"/>
	<path class="st1" d="M155.9,478.7L155.9,478.7c-0.8-0.6-1.7-1.2-2.4-2C154.3,477.5,155.1,478.1,155.9,478.7z"/>
	<path class="st1" d="M441.9,478.7L441.9,478.7c-0.8-0.6-1.7-1.2-2.4-2C440.2,477.5,441,478.1,441.9,478.7z"/>
	<path class="st1" d="M161.7,482.2c-2.1-0.8-4-2.1-5.8-3.5l0,0C157.7,480.1,159.6,481.4,161.7,482.2z"/>
	<path class="st1" d="M447.6,482.2c-2.1-0.8-4-2.1-5.8-3.5l0,0C443.7,480.1,445.6,481.4,447.6,482.2z"/>
	<path class="st1" d="M188.5,476.8c-2.4,2.4-5.2,4.2-8.2,5.4C183.3,481,186.1,479.2,188.5,476.8z"/>
	<path class="st1" d="M474.4,476.8c-2.4,2.4-5.2,4.2-8.2,5.4C469.2,481,472,479.2,474.4,476.8z"/>
	<path class="st1" d="M397,268.3L381.7,253l15.3-15.3l94.1-94.1l17.3-17.3l14.2-14.2c1.2-1.2,1.2-3.2,0-4.4l-63.3-63.3
		c-0.7-0.7-1.6-0.9-2.2-0.9c-0.6,0-1.4,0.2-2.2,0.9l-14.2,14.2l-17.3,17.3l-94.1,94.1L314,185.2l-15.3-15.3L173.2,44.5
		c-0.7-0.7-1.6-0.9-2.2-0.9c-0.6,0-1.4,0.2-2.2,0.9l-14.2,14.2l-17.3,17.3l-31.9,31.9c-1.2,1.2-1.2,3.2,0,4.4l125.5,125.5l15.3,15.3
		l-15.3,15.3l-16.1,16.1l-15.3,15.3l-94.1,94.1c-1.2,1.2-1.2,3.2,0,4.4l63.3,63.3c0.7,0.7,1.6,0.9,2.2,0.9c0.6,0,1.4-0.2,2.2-0.9
		l94.1-94.1l15.3-15.3l16.1-16.1l15.3-15.3l15.3,15.3l125.5,125.5c0.7,0.7,1.6,0.9,2.2,0.9c0.6,0,1.4-0.2,2.2-0.9l31.9-31.9
		l17.3-17.3l14.2-14.2c1.2-1.2,1.2-3.2,0-4.4L397,268.3z"/>
	<polygon class="st2" points="329.3,169.9 423.3,75.9 423.3,75.9 314,185.2 314,185.2 	"/>
	<path class="st2" d="M412.3,253l94.1-94.1l31.4-31.4c9.7-9.7,9.7-25.3,0-35l-63.3-63.3c-4.8-4.8-11.2-7.2-17.5-7.2
		c-6.3,0-12.7,2.4-17.5,7.2L408,60.6L314,154.7L188.5,29.2c-4.8-4.8-11.2-7.2-17.5-7.2c-6.3,0-12.7,2.4-17.5,7.2l-31.4,31.4
		L90.2,92.5l-31.4,31.4c-9.7,9.7-9.7,25.3,0,35l125.5,125.5l-94.1,94.1l-31.4,31.4c-9.7,9.7-9.7,25.3,0,35l63.3,63.3
		c2.4,2.4,5.2,4.2,8.2,5.4c3,1.2,6.1,1.8,9.3,1.8c3.2,0,6.3-0.6,9.3-1.8c3-1.2,5.8-3,8.2-5.4l31.4-31.4l94.1-94.1L408,508.2
		c2.4,2.4,5.2,4.2,8.2,5.4c3,1.2,6.1,1.8,9.3,1.8c3.2,0,6.3-0.6,9.3-1.8c3-1.2,5.8-3,8.2-5.4l31.4-31.4l31.9-31.9l31.4-31.4
		c9.7-9.7,9.7-25.3,0-35L412.3,253z M74,143.6c-1.2-1.2-1.2-3.2,0-4.4l14.2-14.2c0.6,0.8,1.2,1.7,2,2.4L215.7,253l-16.1,16.1
		L74,143.6z M141.8,492.9c-0.7,0.7-1.6,0.9-2.2,0.9c-0.6,0-1.4-0.2-2.2-0.9L74,429.5c-1.2-1.2-1.2-3.2,0-4.4L88.2,411
		c0.6,0.8,1.2,1.7,2,2.4l63.3,63.3c0.7,0.7,1.6,1.3,2.4,2L141.8,492.9z M441.9,478.7l-14.2,14.2c-0.7,0.7-1.6,0.9-2.2,0.9
		c-0.6,0-1.4-0.2-2.2-0.9L297.8,367.4l16.1-16.1l125.5,125.5C440.2,477.5,441,478.1,441.9,478.7c1.8,1.4,3.7,2.6,5.8,3.5
		C445.6,481.4,443.7,480.1,441.9,478.7z M522.5,398.1l-14.2,14.2L491,429.5l-31.9,31.9c-0.7,0.7-1.6,0.9-2.2,0.9
		c-0.6,0-1.4-0.2-2.2-0.9L329.3,336L314,320.7L298.7,336l-16.1,16.1l-15.3,15.3l-94.1,94.1c-0.7,0.7-1.6,0.9-2.2,0.9
		c-0.6,0-1.4-0.2-2.2-0.9l-63.3-63.3c-1.2-1.2-1.2-3.2,0-4.4l94.1-94.1l15.3-15.3l16.1-16.1l15.3-15.3l-15.3-15.3L105.5,112.2
		c-1.2-1.2-1.2-3.2,0-4.4l31.9-31.9l17.3-17.3l14.2-14.2c0.7-0.7,1.6-0.9,2.2-0.9c0.6,0,1.4,0.2,2.2,0.9l125.5,125.5l15.3,15.3
		L423.3,75.9h0l17.3-17.3l14.2-14.2c0.7-0.7,1.6-0.9,2.2-0.9c0.6,0,1.4,0.2,2.2,0.9l63.3,63.3c1.2,1.2,1.2,3.2,0,4.4l-14.2,14.2
		L491,143.6L397,237.7L381.7,253l15.3,15.3l125.5,125.5C523.7,394.9,523.7,396.9,522.5,398.1z"/>
</g>
</svg>
