<?xml version="1.0" encoding="utf-8"?>
<!-- Generator: Adobe Illustrator 21.0.0, SVG Export Plug-In . SVG Version: 6.00 Build 0)  -->
<svg version="1.1" id="Calque_1" xmlns="http://www.w3.org/2000/svg" xmlns:xlink="http://www.w3.org/1999/xlink" x="0px" y="0px"
	 viewBox="0 0 566.9 566.9" style="enable-background:new 0 0 566.9 566.9;" xml:space="preserve">
<style type="text/css">
	.st0{fill:#CC3233;}
	.st1{fill:#222C4B;}
</style>
<g>
	<path class="st0" d="M382.2,283.5l126-126c9.7-9.7,9.7-25.4,0-35.1l-63.6-63.6c-9.7-9.7-25.4-9.7-35.1,0l-126,126l-126-126
		c-9.7-9.7-25.4-9.7-35.1,0l-63.6,63.6c-9.7,9.7-9.7,25.4,0,35.1l126,126l-126,126c-9.7,9.7-9.7,25.4,0,35.1l63.6,63.6
		c9.7,9.7,25.4,9.7,35.1,0l126-126l126,126c9.7,9.7,25.4,9.7,35.1,0l63.6-63.6c9.7-9.7,9.7-25.4,0-35.1L382.2,283.5z"/>
	<path class="st1" d="M427,73.2c0.6,0,1.4,0.2,2.2,0.9l63.6,63.6c1.2,1.2,1.2,3.2,0,4.4l-126,126l-15.4,15.4l15.4,15.4l126,126
		c1.2,1.2,1.2,3.2,0,4.4l-63.6,63.6c-0.8,0.8-1.6,0.9-2.2,0.9s-1.4-0.2-2.2-0.9l-126-126l-15.4-15.4L268,366.9l-126,126
		c-0.8,0.8-1.6,0.9-2.2,0.9c-0.6,0-1.4-0.2-2.2-0.9L74,429.3c-1.2-1.2-1.2-3.2,0-4.4l126-126l15.4-15.4L200,268.1l-126-126
		c-1.2-1.2-1.2-3.2,0-4.4l63.6-63.6c0.8-0.8,1.6-0.9,2.2-0.9c0.6,0,1.4,0.2,2.2,0.9l126,126l15.4,15.4l15.4-15.4l126-126
		C425.6,73.4,426.4,73.2,427,73.2 M427,51.5c-6.4,0-12.7,2.4-17.6,7.3l-126,126l-126-126c-4.8-4.8-11.2-7.3-17.6-7.3
		c-6.4,0-12.7,2.4-17.6,7.3l-63.6,63.6c-9.7,9.7-9.7,25.4,0,35.1l126,126l-126,126c-9.7,9.7-9.7,25.4,0,35.1l63.6,63.6
		c4.8,4.8,11.2,7.3,17.6,7.3s12.7-2.4,17.6-7.3l126-126l126,126c4.8,4.8,11.2,7.3,17.6,7.3s12.7-2.4,17.6-7.3l63.6-63.6
		c9.7-9.7,9.7-25.4,0-35.1l-126-126l126-126c9.7-9.7,9.7-25.4,0-35.1l-63.6-63.6C439.7,53.9,433.4,51.5,427,51.5L427,51.5z"/>
</g>
</svg>
