<?xml version="1.0" encoding="utf-8"?>
<!-- Generator: Adobe Illustrator 21.0.0, SVG Export Plug-In . SVG Version: 6.00 Build 0)  -->
<svg version="1.1" id="Calque_1" xmlns="http://www.w3.org/2000/svg" xmlns:xlink="http://www.w3.org/1999/xlink" x="0px" y="0px"
	 viewBox="0 0 850.4 261.1" style="enable-background:new 0 0 850.4 261.1;" xml:space="preserve">
<ellipse transform="matrix(0.9738 -0.2273 0.2273 0.9738 2.6982 63.3523)" cx="276.4" cy="20" rx="42" ry="42"/>
<ellipse transform="matrix(0.9738 -0.2273 0.2273 0.9738 -21.3086 23.028)" cx="89.3" cy="104" rx="42" ry="42"/>
<ellipse transform="matrix(0.9738 -0.2273 0.2273 0.9738 -39.0407 64.3655)" cx="259.9" cy="201.7" rx="42" ry="42"/>
<ellipse transform="matrix(0.9738 -0.2273 0.2273 0.9738 -3.3754 94.675)" cx="409.3" cy="62" rx="42" ry="42"/>
<ellipse transform="matrix(0.9738 -0.2273 0.2273 0.9738 -32.1405 124.2752)" cx="523.4" cy="201.7" rx="42" ry="42"/>
<ellipse transform="matrix(0.9738 -0.2273 0.2273 0.9738 -9.3967 153.6339)" cx="662.3" cy="117.6" rx="42" ry="42"/>
<ellipse transform="matrix(0.9738 -0.2273 0.2273 0.9738 20.4462 144.5057)" cx="637.5" cy="-16.5" rx="42" ry="42"/>
<ellipse transform="matrix(0.9738 -0.2273 0.2273 0.9738 7.9914 193.3655)" cx="843.4" cy="62" rx="42" ry="42"/>
<ellipse transform="matrix(0.9738 -0.2273 0.2273 0.9738 -36.1502 173.5174)" cx="735.2" cy="243.7" rx="42" ry="42"/>
<ellipse transform="matrix(0.9738 -0.2273 0.2273 0.9738 -59.0818 9.2214)" cx="10.5" cy="261.1" rx="42" ry="42"/>
</svg>
