<?xml version="1.0" encoding="utf-8"?>
<!-- Generator: Adobe Illustrator 21.0.0, SVG Export Plug-In . SVG Version: 6.00 Build 0)  -->
<svg version="1.1" xmlns="http://www.w3.org/2000/svg" xmlns:xlink="http://www.w3.org/1999/xlink" x="0px" y="0px"
	 viewBox="0 0 566.9 494.9" style="enable-background:new 0 0 566.9 494.9;" xml:space="preserve">
<style type="text/css">
	.st0{fill:#F2D62A;}
	.st1{fill:#F3B92A;}
	.st2{fill:#10182D;}
	.st3{fill:#CCB026;}
	.st4{fill:#FFFFFF;}
	.st5{fill:#EAEAEA;}
	.st6{fill:#BABABA;}
	.st7{fill:#FEFEFE;}
</style>
<g id="Calque_1">
</g>
<g id="Calque_2">
	<path class="st0" d="M174.6,475.2c22.9,7.3,115.4,6.4,146.1,6.4s144.8-19,200.1-99.3c55.2-80.3,38-155.4-28.5-198.6
		c-66.5-43.2-135.5-21.6-135.5-21.6s-13.5,4.7-21.8,9c-8.3,4.2-21.5,12.9-21.5,12.9c8.6-23,11.3-53,6.1-76.2
		C301.7,28.2,224.8-8.2,151.7,9.3C77.3,27.1,49.8,80.2,51.4,138.1c14.2-4.1,25.2-11.1,27-12.4c0,0,0.1-0.1,0.1-0.1
		c0.1-0.1,0.2-0.1,0.2-0.1l0,0c4.8-3.1,10.5-5.4,16.8-6.8c-7.2-4.3-12.5-14.5-12.7-26.5c-0.3-16,8.4-29.2,19.3-29.4
		c11-0.2,20.2,12.6,20.5,28.6c0.2,11.1-3.9,20.8-10.1,25.8c1.9,0.1,3.9,0.2,6,0.5c4.2,0.5,8.2,1.4,12,2.8
		c-3.9-6.8-5.7-15.9-4.4-25.5c2.5-18.6,15.7-32.2,29.4-30.3c13.7,1.9,22.7,18.5,20.2,37.1c-2.3,16.9-13.4,29.7-25.6,30.5
		c12.1,11,19,26.5,17.3,40.8c-2.8,24.1-29.7,37.4-59.6,33.9c-5.1-0.6-10-1.8-14.6-3.4l0,0c0,0,0,0-0.1,0c-2.1-0.7-4.1-1.6-6-2.5
		c-6.2-2.5-16.2-6.3-26-8.9c4.9,13.3,11.8,25.2,20.3,35.4c-16.9,16.9-38.1,44.8-39.6,79.8C39.2,361.5,77.5,444.3,174.6,475.2z
		 M334.3,256c37.9-4.6,69.9,2.6,71.6,16.1c1.7,13.6-27.7,28.3-65.6,32.9c-37.9,4.6-69.9-2.6-71.6-16.1
		C267.1,275.4,296.4,260.7,334.3,256z"/>
	<g>
		<path class="st1" d="M78.5,125.7c0.1-0.1,0.2-0.1,0.2-0.1l0,0c4.8-3.1,10.5-5.4,16.8-6.8c2.4,1.4,5,2.2,7.8,2.1
			c3.4-0.1,6.5-1.4,9.3-3.6c1.9,0.1,3.9,0.2,6,0.5c4.2,0.5,8.2,1.4,12,2.8c3.7,6.3,9.2,10.7,15.8,11.6c1.2,0.2,2.5,0.2,3.7,0.1
			c12.1,11,19,26.5,17.3,40.8c-2.8,24.1-29.7,37.4-59.6,33.9c-5.1-0.6-10-1.8-14.6-3.4l0,0c0,0,0,0-0.1,0c-2.1-0.7-4.1-1.6-6-2.5
			c-6.2-2.5-16.2-6.3-26-8.9c-5.2-1.4-10.3-2.5-14.8-2.9c0,0-0.1,0-0.1,0c-23.6-2.4-34.5-12.2-34.5-24.7c0-11.5,12.6-21.1,29.9-24.1
			l0,0c0.2,0,0.4-0.1,0.7-0.1c0.1,0,0.2,0,0.3,0c3.1-0.5,6-1.2,8.9-2c14.2-4.1,25.2-11.1,27-12.4C78.4,125.7,78.5,125.7,78.5,125.7z
			"/>
		<path class="st2" d="M126,95c2.5-18.6,15.7-32.2,29.4-30.3c13.7,1.9,22.7,18.5,20.2,37.1c-2.3,16.9-13.4,29.7-25.6,30.5
			c-1.2,0.1-2.5,0-3.7-0.1c-6.6-0.9-12.1-5.2-15.8-11.6C126.5,113.7,124.7,104.7,126,95z"/>
		<path class="st2" d="M102.1,62.8c11-0.2,20.2,12.6,20.5,28.6c0.2,11.1-3.9,20.8-10.1,25.8c-2.7,2.2-5.9,3.5-9.3,3.6
			c-2.7,0.1-5.4-0.7-7.8-2.1c-7.2-4.3-12.5-14.5-12.7-26.5C82.5,76.2,91.1,63,102.1,62.8z"/>
	</g>
	<path class="st3" d="M269.5,291.6c0,0-1.5-3.2-0.5-6.4c1-2.9,3.7-6.9,6.9-9.3c1.4-1.1,3.2-2.4,3.2-2.4c1.9-8.8,6.5-21.8,17-38.1
		c24.2-37.5,29.5-54.7,30.5-59.6l-6.4,3.9l-6.9,4.4c-3.7,8.9-11.5,23.5-25.9,45.6c-10.4,16-16.8,30.9-19.1,44.2
		C266.7,284.3,268.3,288.9,269.5,291.6z"/>
	<g>
		<circle class="st4" cx="160" cy="85.9" r="9.8"/>
		<path d="M149.5,85.9c0-5.7,4.7-10.4,10.4-10.4c5.7,0,10.4,4.7,10.4,10.4c0,5.7-4.7,10.4-10.4,10.4
			C154.2,96.3,149.5,91.6,149.5,85.9z M150.8,85.9c0,5,4.1,9.1,9.1,9.1c5,0,9.1-4.1,9.1-9.1c0-5-4.1-9.1-9.1-9.1
			C154.9,76.8,150.8,80.8,150.8,85.9z"/>
	</g>
	<g>
		<circle class="st4" cx="108" cy="79.1" r="7.4"/>
		<path d="M99.9,79.1c0-4.5,3.6-8.1,8.1-8.1c4.5,0,8.1,3.6,8.1,8.1c0,4.5-3.6,8.1-8.1,8.1C103.5,87.2,99.9,83.6,99.9,79.1z
			 M101.2,79.1c0,3.7,3.1,6.8,6.8,6.8s6.8-3,6.8-6.8s-3.1-6.8-6.8-6.8S101.2,75.4,101.2,79.1z"/>
	</g>
	<g>
		<g>
			<path class="st5" d="M511.8,221.6l13.1-17.3c0.1-0.1,0.2-0.3,0.4-0.4l11.9,8.9c-0.1,0.2-0.2,0.3-0.3,0.5l-13.1,17.3
				c-1.3,1.8-3.8,2.1-5.6,0.8l-5.6-4.2C510.9,225.9,510.5,223.3,511.8,221.6z"/>
			<path class="st6" d="M516,234.5l-5.6-4.2c-3.5-2.6-4.2-7.5-1.6-11l13.1-17.3c0.2-0.3,0.4-0.5,0.7-0.8l2.4-2.4l14.7,10.9l2.7,2.1
				l-1.6,3c-0.2,0.3-0.3,0.6-0.5,0.9L527,232.9c-1.5,2.1-3.9,3.2-6.3,3.2C519,236,517.4,235.5,516,234.5z M526,209.3l-11.1,14.6
				c0,0,0,0.1,0,0.1l5.6,4.2c0,0,0.1,0,0.2,0l11.1-14.6L526,209.3z"/>
		</g>
		<g>
			<path class="st5" d="M519.5,193.1l1-1.3c1.7-2.3,5-2.8,7.3-1.1l21.4,16c2.3,1.7,2.8,5,1.1,7.3l-1,1.3c-1.7,2.3-5,2.8-7.3,1.1
				l-4.7-3.5l-11.9-8.9l-4.7-3.5C518.3,198.6,517.8,195.4,519.5,193.1z"/>
			<path class="st6" d="M539.7,219.4l-21.4-16c-1.9-1.4-3.2-3.6-3.6-6c-0.4-2.4,0.3-4.8,1.7-6.7l1-1.3c1.4-1.9,3.6-3.2,6-3.6
				c2.4-0.3,4.8,0.3,6.7,1.7l21.4,16c1.9,1.4,3.2,3.6,3.6,6c0.4,2.4-0.3,4.8-1.7,6.7l-1,1.3c-1.4,1.9-3.6,3.2-6,3.6
				c-0.4,0.1-0.9,0.1-1.3,0.1C543.1,221.2,541.2,220.6,539.7,219.4z M524.5,193.5c-0.2,0-0.6,0.1-0.9,0.5l-1,1.3
				c-0.4,0.6-0.3,1.4,0.3,1.9l21.4,16c0.4,0.3,0.8,0.3,1,0.2c0.2,0,0.6-0.1,0.9-0.5l1-1.3c0.4-0.6,0.3-1.4-0.3-1.9l-21.4-16
				c-0.3-0.2-0.6-0.3-0.8-0.3C524.6,193.5,524.5,193.5,524.5,193.5z"/>
		</g>
	</g>
	<path class="st7" d="M88.8,351.4c1.1,0,2.3-0.4,3.2-1.1c2.2-1.8,2.6-5,0.8-7.3c-7.6-9.5-11.4-21.3-10.7-33.2
		c0.6-10.8,4.8-20.9,12.1-29.2c1.9-2.1,1.7-5.4-0.5-7.3c-2.1-1.9-5.4-1.7-7.3,0.5c-8.8,10-13.9,22.3-14.7,35.4
		c-0.8,14.4,3.8,28.7,13,40.2C85.7,350.7,87.2,351.4,88.8,351.4z"/>
</g>
</svg>
