<?xml version="1.0" encoding="utf-8"?>
<!-- Generator: Adobe Illustrator 21.0.0, SVG Export Plug-In . SVG Version: 6.00 Build 0)  -->
<svg version="1.1" id="Calque_1" xmlns="http://www.w3.org/2000/svg" xmlns:xlink="http://www.w3.org/1999/xlink" x="0px" y="0px"
	 viewBox="0 0 566.9 566.9" style="enable-background:new 0 0 566.9 566.9;" xml:space="preserve">
<style type="text/css">
	.st0{fill:#FFFFFF;}
</style>
<g>
	<path class="st0" d="M444.8,324.4c0-40.2,0-80.4,0-120.6c0-8.3,3.7-14,10.7-16.7c1.9-0.7,4-1,6-1c8.6,0,17.1,0,25.7,0
		c10.5,0,17.3,6.8,17.3,17.3c0,24.7,0,49.4,0,74.1c0,56.4,0,112.8,0.1,169.2c0,2.3-0.5,3-2.9,3c-17.8-0.1-35.6-0.1-53.4-0.1
		c-3.4,0-3.4,0-3.4-3.3C444.8,405.7,444.8,365.1,444.8,324.4z"/>
	<path class="st0" d="M371,336.4c0-36.2,0-72.3,0-108.5c0-11.4,6.5-17.9,17.9-18c8.2,0,16.5,0,24.7,0c10.1,0,17,6.9,17,17.1
		c0,73.4,0,146.8,0.1,220.1c0,2.2-0.7,2.5-2.7,2.5c-18-0.1-36.1-0.1-54.1,0c-2.3,0-3-0.5-3-2.9C371,410.1,371,373.2,371,336.4z"/>
	<path class="st0" d="M356.8,348.5c0,32.9,0,65.7,0.1,98.6c0,2.3-0.7,2.8-2.9,2.8c-18.1-0.1-36.2-0.1-54.3,0c-1.9,0-2.5-0.4-2.5-2.4
		c0.1-65.5,0-130.9,0.1-196.4c0-10.3,6.7-17,17-17.1c8.6,0,17.1,0,25.7,0c10.1,0,16.9,6.8,16.9,16.9
		C356.8,283.4,356.8,316,356.8,348.5z"/>
	<path class="st0" d="M379.4,133c47.3-5.2,94.3-10.5,141.2-15.7c0,0.1,0.1,0.2,0.1,0.4c-38.3,27.8-76.6,55.5-115,83.4
		c-3.1-7.9-6.2-15.6-9-23.4c-0.7-2-1.4-2.4-3.5-1.6c-9.3,3.6-17.3,9.1-24.8,15.5c-13.3,11.2-27.3,21.2-43.1,28.6
		c-17.3,8.1-35.6,12.8-54.5,14.6c-10,1-20.1,0.9-30,2.6c-18.6,3.3-34.7,11.4-49.1,23.5c-12.9,10.8-26.6,20.4-42,27.4
		c-16.8,7.6-34.5,11.7-52.9,13.2c-11.1,0.9-22.4,0.8-33.4,3.4c-3.3,0.8-6.6,1.6-9.7,2.8c-1.4,0.5-1.8,0.2-2.3-1.1
		c-1.6-4.4-3.3-8.8-5.1-13.1c-0.6-1.4-0.1-1.8,1.1-2.2c13.5-5,27.4-8,41.7-9.6c9.8-1.1,19.7-0.9,29.5-2.2c14-1.8,26.1-7.6,37.2-16
		c6.4-4.9,12.4-10.3,19-15c25.5-18.5,53.8-29.5,85-33.1c9.3-1.1,18.7-1.1,28.1-2.1c17.6-1.9,32.8-9.2,46.3-20.4
		c10.6-8.8,21.4-17.3,33.4-24c6.3-3.5,12.7-6.6,19.4-9.1c1.9-0.7,2.1-1.4,1.4-3.1C385.5,148.9,382.6,141.1,379.4,133z"/>
	<path class="st0" d="M283,365.7c0,27.1,0,54.2,0.1,81.3c0,2.3-0.7,2.8-2.9,2.8c-18.1-0.1-36.2-0.1-54.4,0c-2.1,0-2.6-0.6-2.6-2.6
		c0.1-53.9,0-107.7,0.1-161.6c0-10.3,6.9-17.2,17.2-17.3c8.5,0,17,0,25.4,0c10.2,0,17,6.9,17,17.1C283,312.2,283,338.9,283,365.7z"
		/>
	<path class="st0" d="M209.2,384.8c0,20.7,0,41.5,0.1,62.2c0,2.3-0.7,2.8-2.9,2.8c-18.1-0.1-36.2-0.1-54.3,0c-2,0-2.6-0.5-2.6-2.6
		c0.1-41.2,0-82.5,0.1-123.7c0-10.4,6.8-17.2,17.1-17.2c8.5,0,17,0,25.4,0c10.2,0,17.1,6.8,17.1,17
		C209.3,343.8,209.2,364.3,209.2,384.8z"/>
	<path class="st0" d="M135.4,401.5c0,15.3,0,30.6,0,46c0,1.8-0.3,2.4-2.3,2.4c-18.4-0.1-36.7-0.1-55.1,0c-1.9,0-2.3-0.5-2.3-2.3
		c0.1-30.2,0-60.5,0.1-90.7c0-9.9,6.9-16.7,16.8-16.8c8.5-0.1,17,0,25.4,0c10.6,0,17.3,6.7,17.3,17.3
		C135.4,372,135.4,386.7,135.4,401.5z"/>
</g>
</svg>
