<?xml version="1.0" encoding="utf-8"?>
<!-- Generator: Adobe Illustrator 21.0.0, SVG Export Plug-In . SVG Version: 6.00 Build 0)  -->
<svg version="1.1" xmlns="http://www.w3.org/2000/svg" xmlns:xlink="http://www.w3.org/1999/xlink" x="0px" y="0px"
	 viewBox="0 0 258 42.5" style="enable-background:new 0 0 258 42.5;" xml:space="preserve">
<style type="text/css">
	.st0{display:none;}
	.st1{fill:#302D3E;}
	.st2{fill:#3B628E;}
</style>
<g id="Calque_1" class="st0">
	
		<image style="display:inline;overflow:visible;" width="832" height="548" xlink:href="../../../../Capture d’écran 2019-05-17 à 12.24.35.png"  transform="matrix(0.4989 3.267188e-02 -3.267188e-02 0.4989 -61.2578 -44.1976)">
	</image>
</g>
<g id="Calque_2">
	<g>
		<circle class="st1" cx="8.1" cy="35.2" r="6.8"/>
		<g>
			<path class="st2" d="M4.9,37.4L4.9,37.4c-1.1,0.1-2-0.8-2.1-1.9L1.1,3C1,1.9,1.8,0.9,2.9,0.9l0,0C4,0.8,5,1.7,5,2.8l1.8,32.5
				C6.9,36.4,6,37.3,4.9,37.4z"/>
			<path class="st1" d="M4.8,37.9c-0.6,0-1.2-0.2-1.7-0.6c-0.5-0.4-0.8-1.1-0.8-1.7L0.6,3c0-0.7,0.2-1.3,0.6-1.8
				c0.4-0.5,1.1-0.8,1.7-0.8c1.4-0.1,2.6,1,2.6,2.4l1.8,32.5c0,0.7-0.2,1.3-0.6,1.8c-0.4,0.5-1.1,0.8-1.7,0.8
				C4.9,37.9,4.9,37.9,4.8,37.9z M3.1,1.4C3,1.4,3,1.4,3.1,1.4c-0.5,0-0.8,0.2-1.1,0.5S1.5,2.6,1.6,3l1.8,32.5c0,0.4,0.2,0.8,0.5,1
				s0.7,0.4,1.1,0.4l0,0c0.4,0,0.8-0.2,1-0.5s0.4-0.7,0.4-1.1L4.6,2.8C4.5,2,3.8,1.4,3.1,1.4z"/>
		</g>
		<g>
			<path class="st2" d="M11.3,37.4L11.3,37.4c1.1,0.1,2-0.8,2.1-1.9L15.2,3c0.1-1.1-0.8-2-1.9-2.1l0,0c-1.1-0.1-2,0.8-2.1,1.9
				L9.4,35.3C9.3,36.4,10.2,37.3,11.3,37.4z"/>
			<path class="st1" d="M11.4,37.9c0,0-0.1,0-0.1,0v0c-0.7,0-1.3-0.3-1.7-0.8c-0.4-0.5-0.7-1.1-0.6-1.8l1.8-32.5
				c0.1-1.4,1.3-2.4,2.6-2.4c0.7,0,1.3,0.3,1.7,0.8c0.4,0.5,0.7,1.1,0.6,1.8l-1.8,32.5c0,0.7-0.3,1.3-0.8,1.7
				C12.6,37.7,12,37.9,11.4,37.9z M13.2,1.4c-0.8,0-1.5,0.6-1.5,1.4L9.9,35.3c0,0.4,0.1,0.8,0.4,1.1s0.6,0.5,1,0.5l0,0
				c0.4,0,0.8-0.1,1.1-0.4s0.5-0.6,0.5-1L14.7,3c0-0.4-0.1-0.8-0.4-1.1S13.6,1.4,13.2,1.4C13.2,1.4,13.2,1.4,13.2,1.4z"/>
		</g>
	</g>
	<g>
		<circle class="st1" cx="88.8" cy="35.2" r="6.8"/>
		<g>
			<path class="st2" d="M85.6,37.4L85.6,37.4c-1.1,0.1-2-0.8-2.1-1.9L81.7,3c-0.1-1.1,0.8-2,1.9-2.1l0,0c1.1-0.1,2,0.8,2.1,1.9
				l1.8,32.5C87.6,36.4,86.7,37.3,85.6,37.4z"/>
			<path class="st1" d="M85.5,37.9c-0.6,0-1.2-0.2-1.7-0.6c-0.5-0.4-0.8-1.1-0.8-1.7L81.2,3c0-0.7,0.2-1.3,0.6-1.8
				c0.4-0.5,1.1-0.8,1.7-0.8c0.7,0,1.3,0.2,1.8,0.6s0.8,1.1,0.8,1.7L88,35.3c0,0.7-0.2,1.3-0.6,1.8c-0.4,0.5-1.1,0.8-1.7,0.8
				C85.6,37.9,85.5,37.9,85.5,37.9z M83.7,1.4C83.7,1.4,83.7,1.4,83.7,1.4c-0.5,0-0.8,0.2-1.1,0.5S82.2,2.6,82.2,3L84,35.5
				c0,0.4,0.2,0.8,0.5,1s0.7,0.4,1.1,0.4l0,0c0.4,0,0.8-0.2,1-0.5s0.4-0.7,0.4-1.1L85.2,2.8c0-0.4-0.2-0.8-0.5-1
				C84.5,1.5,84.1,1.4,83.7,1.4z"/>
		</g>
		<g>
			<path class="st2" d="M92,37.4L92,37.4c1.1,0.1,2-0.8,2.1-1.9L95.8,3c0.1-1.1-0.8-2-1.9-2.1v0c-1.1-0.1-2,0.8-2.1,1.9l-1.8,32.5
				C90,36.4,90.9,37.3,92,37.4z"/>
			<path class="st1" d="M92.1,37.9c0,0-0.1,0-0.1,0v0c-1.4-0.1-2.4-1.3-2.4-2.6l1.8-32.5c0-0.7,0.3-1.3,0.8-1.7
				c0.5-0.4,1.1-0.7,1.8-0.6c0.7,0,1.3,0.3,1.7,0.8c0.4,0.5,0.7,1.1,0.6,1.8l-1.8,32.5C94.5,36.9,93.4,37.9,92.1,37.9z M92,36.9
				c0.8,0.1,1.5-0.6,1.6-1.4L95.3,3c0-0.4-0.1-0.8-0.4-1.1s-0.6-0.5-1-0.5c-0.4,0-0.8,0.1-1.1,0.4c-0.3,0.3-0.5,0.6-0.5,1l-1.8,32.5
				c0,0.4,0.1,0.8,0.4,1.1S91.6,36.9,92,36.9L92,36.9z"/>
		</g>
	</g>
	<g>
		<circle class="st1" cx="35" cy="35.2" r="6.8"/>
		<g>
			<path class="st2" d="M31.8,37.4L31.8,37.4c-1.1,0.1-2-0.8-2.1-1.9L27.9,3c-0.1-1.1,0.8-2,1.9-2.1l0,0c1.1-0.1,2,0.8,2.1,1.9
				l1.8,32.5C33.8,36.4,32.9,37.3,31.8,37.4z"/>
			<path class="st1" d="M31.7,37.9c-0.6,0-1.2-0.2-1.7-0.6c-0.5-0.4-0.8-1.1-0.8-1.7L27.5,3c0-0.7,0.2-1.3,0.6-1.8
				c0.4-0.5,1.1-0.8,1.7-0.8c0.7,0,1.3,0.2,1.8,0.6c0.5,0.4,0.8,1.1,0.8,1.7l1.8,32.5c0.1,1.4-1,2.6-2.4,2.6v0
				C31.8,37.9,31.8,37.9,31.7,37.9z M29.9,1.4C29.9,1.4,29.9,1.4,29.9,1.4c-0.5,0-0.8,0.2-1.1,0.5S28.4,2.6,28.4,3l1.8,32.5
				c0,0.8,0.8,1.5,1.6,1.4l0,0c0.4,0,0.8-0.2,1-0.5s0.4-0.7,0.4-1.1L31.4,2.8c0-0.4-0.2-0.8-0.5-1C30.7,1.5,30.3,1.4,29.9,1.4z"/>
		</g>
		<g>
			<path class="st2" d="M38.2,37.4L38.2,37.4c1.1,0.1,2-0.8,2.1-1.9L42,3c0.1-1.1-0.8-2-1.9-2.1l0,0c-1.1-0.1-2,0.8-2.1,1.9
				l-1.8,32.5C36.2,36.4,37.1,37.3,38.2,37.4z"/>
			<path class="st1" d="M38.3,37.9c0,0-0.1,0-0.1,0v0c-1.4-0.1-2.4-1.3-2.4-2.6l1.8-32.5c0-0.7,0.3-1.3,0.8-1.7
				c0.5-0.4,1.1-0.7,1.8-0.6c0.7,0,1.3,0.3,1.7,0.8c0.4,0.5,0.7,1.1,0.6,1.8l-1.8,32.5C40.7,36.9,39.6,37.9,38.3,37.9z M38.2,36.9
				c0.8,0.1,1.5-0.6,1.6-1.4L41.5,3c0-0.4-0.1-0.8-0.4-1.1s-0.6-0.5-1-0.5c-0.4,0-0.8,0.1-1.1,0.4c-0.3,0.3-0.5,0.6-0.5,1l-1.8,32.5
				c0,0.4,0.1,0.8,0.4,1.1S37.8,36.9,38.2,36.9L38.2,36.9z"/>
		</g>
	</g>
	<g>
		<circle class="st1" cx="61.9" cy="35.2" r="6.8"/>
		<g>
			<path class="st2" d="M58.7,37.4L58.7,37.4c-1.1,0.1-2-0.8-2.1-1.9L54.8,3c-0.1-1.1,0.8-2,1.9-2.1l0,0c1.1-0.1,2,0.8,2.1,1.9
				l1.8,32.5C60.7,36.4,59.8,37.3,58.7,37.4z"/>
			<path class="st1" d="M58.6,37.9c-0.6,0-1.2-0.2-1.7-0.6c-0.5-0.4-0.8-1.1-0.8-1.7L54.3,3c0-0.7,0.2-1.3,0.6-1.8
				c0.4-0.5,1.1-0.8,1.7-0.8c1.4-0.1,2.6,1,2.6,2.4l1.8,32.5c0,0.7-0.2,1.3-0.6,1.8c-0.4,0.5-1.1,0.8-1.7,0.8
				C58.7,37.9,58.7,37.9,58.6,37.9z M56.8,1.4C56.8,1.4,56.8,1.4,56.8,1.4c-0.5,0-0.8,0.2-1.1,0.5S55.3,2.6,55.3,3l1.8,32.5
				c0,0.4,0.2,0.8,0.5,1s0.7,0.4,1.1,0.4c0.4,0,0.8-0.2,1-0.5s0.4-0.7,0.4-1.1L58.3,2.8C58.3,2,57.6,1.4,56.8,1.4z"/>
		</g>
		<g>
			<path class="st2" d="M65.1,37.4L65.1,37.4c1.1,0.1,2-0.8,2.1-1.9L68.9,3c0.1-1.1-0.8-2-1.9-2.1v0c-1.1-0.1-2,0.8-2.1,1.9
				l-1.8,32.5C63.1,36.4,64,37.3,65.1,37.4z"/>
			<path class="st1" d="M65.2,37.9c0,0-0.1,0-0.1,0v0c-0.7,0-1.3-0.3-1.7-0.8c-0.4-0.5-0.7-1.1-0.6-1.8l1.8-32.5
				c0.1-1.4,1.3-2.4,2.6-2.4c0.7,0,1.3,0.3,1.7,0.8c0.4,0.5,0.7,1.1,0.6,1.8l-1.8,32.5c0,0.7-0.3,1.3-0.8,1.7
				C66.4,37.7,65.8,37.9,65.2,37.9z M66.9,1.4c-0.8,0-1.5,0.6-1.5,1.4l-1.8,32.5c0,0.4,0.1,0.8,0.4,1.1c0.3,0.3,0.6,0.5,1,0.5l0,0
				c0.4,0,0.8-0.1,1.1-0.4c0.3-0.3,0.5-0.6,0.5-1L68.4,3c0-0.4-0.1-0.8-0.4-1.1S67.4,1.4,66.9,1.4C67,1.4,67,1.4,66.9,1.4z"/>
		</g>
	</g>
	<g>
		<circle class="st1" cx="115.7" cy="35.2" r="6.8"/>
		<g>
			<path class="st2" d="M112.5,37.4L112.5,37.4c-1.1,0.1-2-0.8-2.1-1.9L108.6,3c-0.1-1.1,0.8-2,1.9-2.1l0,0c1.1-0.1,2,0.8,2.1,1.9
				l1.8,32.5C114.5,36.4,113.6,37.3,112.5,37.4z"/>
			<path class="st1" d="M112.4,37.9c-1.3,0-2.4-1-2.5-2.4L108.1,3c0-0.7,0.2-1.3,0.6-1.8c0.4-0.5,1.1-0.8,1.7-0.8
				c1.4-0.1,2.6,1,2.6,2.4l1.8,32.5c0.1,1.4-1,2.6-2.4,2.6v0C112.5,37.9,112.4,37.9,112.4,37.9z M110.6,1.4
				C110.6,1.4,110.6,1.4,110.6,1.4c-0.5,0-0.8,0.2-1.1,0.5s-0.4,0.7-0.4,1.1l1.8,32.5c0,0.8,0.7,1.5,1.6,1.4l0,0
				c0.4,0,0.8-0.2,1-0.5s0.4-0.7,0.4-1.1l-1.8-32.5C112.1,2,111.4,1.4,110.6,1.4z"/>
		</g>
		<g>
			<path class="st2" d="M118.9,37.4L118.9,37.4c1.1,0.1,2-0.8,2.1-1.9L122.7,3c0.1-1.1-0.8-2-1.9-2.1v0c-1.1-0.1-2,0.8-2.1,1.9
				L117,35.3C116.9,36.4,117.8,37.3,118.9,37.4z"/>
			<path class="st1" d="M119,37.9c0,0-0.1,0-0.1,0v0c-0.7,0-1.3-0.3-1.7-0.8c-0.4-0.5-0.7-1.1-0.6-1.8l1.8-32.5
				c0.1-1.4,1.2-2.4,2.6-2.4c0.7,0,1.3,0.3,1.7,0.8c0.4,0.5,0.7,1.1,0.6,1.8l-1.8,32.5C121.4,36.9,120.3,37.9,119,37.9z M118.9,36.9
				c0.8,0.1,1.5-0.6,1.6-1.4L122.2,3c0-0.4-0.1-0.8-0.4-1.1s-0.6-0.5-1-0.5c-0.8-0.1-1.5,0.6-1.6,1.4l-1.8,32.5
				c0,0.4,0.1,0.8,0.4,1.1S118.5,36.9,118.9,36.9L118.9,36.9z"/>
		</g>
	</g>
	<g>
		<circle class="st1" cx="142.6" cy="35.2" r="6.8"/>
		<g>
			<path class="st2" d="M139.4,37.4L139.4,37.4c-1.1,0.1-2-0.8-2.1-1.9L135.5,3c-0.1-1.1,0.8-2,1.9-2.1v0c1.1-0.1,2,0.8,2.1,1.9
				l1.8,32.5C141.4,36.4,140.5,37.3,139.4,37.4z"/>
			<path class="st1" d="M139.3,37.9c-1.3,0-2.4-1-2.5-2.4L135,3c0-0.7,0.2-1.3,0.6-1.8c0.4-0.5,1.1-0.8,1.7-0.8
				c1.4-0.1,2.6,1,2.6,2.4l1.8,32.5c0,0.7-0.2,1.3-0.6,1.8c-0.4,0.5-1.1,0.8-1.7,0.8C139.4,37.9,139.3,37.9,139.3,37.9z M137.5,1.4
				C137.5,1.4,137.5,1.4,137.5,1.4c-0.5,0-0.8,0.2-1.1,0.5S136,2.6,136,3l1.8,32.5c0,0.8,0.8,1.5,1.6,1.4c0.4,0,0.8-0.2,1-0.5
				s0.4-0.7,0.4-1.1L139,2.8C139,2,138.3,1.4,137.5,1.4z"/>
		</g>
		<g>
			<path class="st2" d="M145.7,37.4L145.7,37.4c1.1,0.1,2-0.8,2.1-1.9L149.6,3c0.1-1.1-0.8-2-1.9-2.1l0,0c-1.1-0.1-2,0.8-2.1,1.9
				l-1.8,32.5C143.8,36.4,144.7,37.3,145.7,37.4z"/>
			<path class="st1" d="M145.9,37.9c0,0-0.1,0-0.1,0c-0.7,0-1.3-0.3-1.7-0.8c-0.4-0.5-0.7-1.1-0.6-1.8l1.8-32.5
				c0.1-1.4,1.2-2.4,2.6-2.4c1.4,0.1,2.4,1.3,2.4,2.6l-1.8,32.5C148.3,36.9,147.2,37.9,145.9,37.9z M147.6,1.4
				c-0.8,0-1.5,0.6-1.5,1.4l-1.8,32.5c0,0.4,0.1,0.8,0.4,1.1s0.6,0.5,1,0.5c0.8,0.1,1.5-0.6,1.6-1.4L149.1,3
				C149.2,2.1,148.5,1.4,147.6,1.4C147.7,1.4,147.7,1.4,147.6,1.4z"/>
		</g>
	</g>
	<g>
		<circle class="st1" cx="169.5" cy="35.2" r="6.8"/>
		<g>
			<path class="st2" d="M166.3,37.4L166.3,37.4c-1.1,0.1-2-0.8-2.1-1.9L162.4,3c-0.1-1.1,0.8-2,1.9-2.1v0c1.1-0.1,2,0.8,2.1,1.9
				l1.8,32.5C168.2,36.4,167.4,37.3,166.3,37.4z"/>
			<path class="st1" d="M166.2,37.9c-1.3,0-2.4-1-2.5-2.4L161.9,3c0-0.7,0.2-1.3,0.6-1.8c0.4-0.5,1.1-0.8,1.7-0.8
				c0.7,0,1.3,0.2,1.8,0.6c0.5,0.4,0.8,1.1,0.8,1.7l1.8,32.5c0,0.7-0.2,1.3-0.6,1.8c-0.4,0.5-1.1,0.8-1.7,0.8
				C166.3,37.9,166.2,37.9,166.2,37.9z M164.4,1.4C164.4,1.4,164.4,1.4,164.4,1.4c-0.5,0-0.8,0.2-1.1,0.5s-0.4,0.7-0.4,1.1l1.8,32.5
				c0,0.8,0.8,1.5,1.6,1.4c0.4,0,0.8-0.2,1-0.5s0.4-0.7,0.4-1.1l-1.8-32.5c0-0.4-0.2-0.8-0.5-1C165.1,1.5,164.8,1.4,164.4,1.4z"/>
		</g>
		<g>
			<path class="st2" d="M172.6,37.4L172.6,37.4c1.1,0.1,2-0.8,2.1-1.9L176.5,3c0.1-1.1-0.8-2-1.9-2.1l0,0c-1.1-0.1-2,0.8-2.1,1.9
				l-1.8,32.5C170.7,36.4,171.5,37.3,172.6,37.4z"/>
			<path class="st1" d="M172.8,37.9c0,0-0.1,0-0.1,0c-0.7,0-1.3-0.3-1.7-0.8c-0.4-0.5-0.7-1.1-0.6-1.8L172,2.7
				c0-0.7,0.3-1.3,0.8-1.7c0.5-0.4,1.1-0.7,1.8-0.6c0.7,0,1.3,0.3,1.7,0.8c0.4,0.5,0.7,1.1,0.6,1.8l-1.8,32.5
				C175.2,36.9,174.1,37.9,172.8,37.9z M174.5,1.4c-0.4,0-0.7,0.1-1,0.4c-0.3,0.3-0.5,0.6-0.5,1l-1.8,32.5c0,0.4,0.1,0.8,0.4,1.1
				s0.6,0.5,1,0.5c0.8,0.1,1.5-0.6,1.6-1.4L176,3c0-0.4-0.1-0.8-0.4-1.1S175,1.4,174.5,1.4C174.6,1.4,174.5,1.4,174.5,1.4z"/>
		</g>
	</g>
	<g>
		<circle class="st1" cx="196.4" cy="35.2" r="6.8"/>
		<g>
			<path class="st2" d="M193.2,37.4L193.2,37.4c-1.1,0.1-2-0.8-2.1-1.9L189.3,3c-0.1-1.1,0.8-2,1.9-2.1v0c1.1-0.1,2,0.8,2.1,1.9
				l1.8,32.5C195.1,36.4,194.3,37.3,193.2,37.4z"/>
			<path class="st1" d="M193.1,37.9c-1.3,0-2.4-1-2.5-2.4L188.8,3c0-0.7,0.2-1.3,0.6-1.8c0.4-0.5,1.1-0.8,1.7-0.8
				c1.4-0.1,2.6,1,2.6,2.4l1.8,32.5c0,0.7-0.2,1.3-0.6,1.8c-0.4,0.5-1.1,0.8-1.7,0.8v0C193.2,37.9,193.1,37.9,193.1,37.9z
				 M191.3,1.4C191.3,1.4,191.3,1.4,191.3,1.4c-0.5,0-0.8,0.2-1.1,0.5s-0.4,0.7-0.4,1.1l1.8,32.5c0,0.8,0.8,1.5,1.6,1.4l0,0
				c0.4,0,0.8-0.2,1-0.5s0.4-0.7,0.4-1.1l-1.8-32.5C192.8,2,192.1,1.4,191.3,1.4z"/>
		</g>
		<g>
			<path class="st2" d="M199.5,37.4L199.5,37.4c1.1,0.1,2-0.8,2.1-1.9L203.4,3c0.1-1.1-0.8-2-1.9-2.1v0c-1.1-0.1-2,0.8-2.1,1.9
				l-1.8,32.5C197.6,36.4,198.4,37.3,199.5,37.4z"/>
			<path class="st1" d="M199.6,37.9c0,0-0.1,0-0.1,0v0c-0.7,0-1.3-0.3-1.7-0.8c-0.4-0.5-0.7-1.1-0.6-1.8l1.8-32.5
				c0.1-1.4,1.2-2.4,2.6-2.4c0.7,0,1.3,0.3,1.7,0.8c0.4,0.5,0.7,1.1,0.6,1.8l-1.8,32.5c0,0.7-0.3,1.3-0.8,1.7
				C200.8,37.7,200.3,37.9,199.6,37.9z M201.4,1.4c-0.8,0-1.5,0.6-1.5,1.4l-1.8,32.5c0,0.4,0.1,0.8,0.4,1.1s0.6,0.5,1,0.5l0,0
				c0.4,0,0.8-0.1,1.1-0.4s0.5-0.6,0.5-1L202.9,3c0-0.4-0.1-0.8-0.4-1.1S201.9,1.4,201.4,1.4C201.5,1.4,201.4,1.4,201.4,1.4z"/>
		</g>
	</g>
	<g>
		<circle class="st1" cx="223.3" cy="35.2" r="6.8"/>
		<g>
			<path class="st2" d="M220.1,37.4L220.1,37.4c-1.1,0.1-2-0.8-2.1-1.9L216.2,3c-0.1-1.1,0.8-2,1.9-2.1v0c1.1-0.1,2,0.8,2.1,1.9
				l1.8,32.5C222,36.4,221.2,37.3,220.1,37.4z"/>
			<path class="st1" d="M220,37.9c-0.6,0-1.2-0.2-1.7-0.6c-0.5-0.4-0.8-1.1-0.8-1.7L215.7,3c0-0.7,0.2-1.3,0.6-1.8
				c0.4-0.5,1.1-0.8,1.7-0.8c1.4-0.1,2.6,1,2.6,2.4l1.8,32.5c0,0.7-0.2,1.3-0.6,1.8c-0.4,0.5-1.1,0.8-1.7,0.8
				C220.1,37.9,220,37.9,220,37.9z M218.2,1.4C218.2,1.4,218.2,1.4,218.2,1.4c-0.5,0-0.8,0.2-1.1,0.5s-0.4,0.7-0.4,1.1l1.8,32.5
				c0,0.4,0.2,0.8,0.5,1c0.3,0.3,0.7,0.4,1.1,0.4l0,0c0.4,0,0.8-0.2,1-0.5s0.4-0.7,0.4-1.1l-1.8-32.5C219.7,2,219,1.4,218.2,1.4z"/>
		</g>
		<g>
			<path class="st2" d="M226.4,37.4L226.4,37.4c1.1,0.1,2-0.8,2.1-1.9L230.3,3c0.1-1.1-0.8-2-1.9-2.1v0c-1.1-0.1-2,0.8-2.1,1.9
				l-1.8,32.5C224.5,36.4,225.3,37.3,226.4,37.4z"/>
			<path class="st1" d="M226.5,37.9c0,0-0.1,0-0.1,0v0c-0.7,0-1.3-0.3-1.7-0.8c-0.4-0.5-0.7-1.1-0.6-1.8l1.8-32.5
				c0.1-1.4,1.2-2.4,2.6-2.4c0.7,0,1.3,0.3,1.7,0.8c0.4,0.5,0.7,1.1,0.6,1.8L229,35.5C229,36.9,227.9,37.9,226.5,37.9z M226.5,36.9
				c0.8,0.1,1.5-0.6,1.6-1.4L229.8,3c0-0.4-0.1-0.8-0.4-1.1s-0.6-0.5-1-0.5c-0.8-0.1-1.5,0.6-1.6,1.4L225,35.3
				c0,0.4,0.1,0.8,0.4,1.1S226.1,36.9,226.5,36.9L226.5,36.9z"/>
		</g>
	</g>
	<g>
		<circle class="st1" cx="250.2" cy="35.2" r="6.8"/>
		<g>
			<path class="st2" d="M247,37.4L247,37.4c-1.1,0.1-2-0.8-2.1-1.9L243.1,3c-0.1-1.1,0.8-2,1.9-2.1l0,0c1.1-0.1,2,0.8,2.1,1.9
				l1.8,32.5C248.9,36.4,248.1,37.3,247,37.4z"/>
			<path class="st1" d="M246.9,37.9c-1.3,0-2.4-1-2.5-2.4L242.6,3c0-0.7,0.2-1.3,0.6-1.8c0.4-0.5,1.1-0.8,1.7-0.8
				c1.4-0.1,2.6,1,2.6,2.4l1.8,32.5c0,0.7-0.2,1.3-0.6,1.8c-0.4,0.5-1.1,0.8-1.7,0.8C247,37.9,246.9,37.9,246.9,37.9z M245.1,1.4
				C245.1,1.4,245,1.4,245.1,1.4c-0.5,0-0.8,0.2-1.1,0.5s-0.4,0.7-0.4,1.1l1.8,32.5c0,0.8,0.8,1.5,1.6,1.4c0.4,0,0.8-0.2,1-0.5
				s0.4-0.7,0.4-1.1l-1.8-32.5C246.6,2,245.9,1.4,245.1,1.4z"/>
		</g>
		<g>
			<path class="st2" d="M253.3,37.4L253.3,37.4c1.1,0.1,2-0.8,2.1-1.9L257.2,3c0.1-1.1-0.8-2-1.9-2.1v0c-1.1-0.1-2,0.8-2.1,1.9
				l-1.8,32.5C251.4,36.4,252.2,37.3,253.3,37.4z"/>
			<path class="st1" d="M253.4,37.9c0,0-0.1,0-0.1,0c-0.7,0-1.3-0.3-1.7-0.8c-0.4-0.5-0.7-1.1-0.6-1.8l1.8-32.5
				c0-0.7,0.3-1.3,0.8-1.7c0.5-0.4,1.1-0.7,1.8-0.6c0.7,0,1.3,0.3,1.7,0.8c0.4,0.5,0.7,1.1,0.6,1.8l-1.8,32.5
				C255.9,36.9,254.8,37.9,253.4,37.9z M255.2,1.4c-0.4,0-0.7,0.1-1,0.4c-0.3,0.3-0.5,0.6-0.5,1l-1.8,32.5c0,0.4,0.1,0.8,0.4,1.1
				s0.6,0.5,1,0.5c0.8,0.1,1.5-0.6,1.6-1.4L256.7,3c0-0.4-0.1-0.8-0.4-1.1S255.7,1.4,255.2,1.4C255.3,1.4,255.2,1.4,255.2,1.4z"/>
		</g>
	</g>
</g>
</svg>
