<?xml version="1.0" encoding="utf-8"?>
<!-- Generator: Adobe Illustrator 21.0.0, SVG Export Plug-In . SVG Version: 6.00 Build 0)  -->
<svg version="1.1" id="Calque_1" xmlns="http://www.w3.org/2000/svg" xmlns:xlink="http://www.w3.org/1999/xlink" x="0px" y="0px"
	 viewBox="0 0 850.4 850.4" style="enable-background:new 0 0 850.4 850.4;" xml:space="preserve">
<style type="text/css">
	.st0{fill:none;}
	.st1{fill:#ED0D26;}
	.st2{fill:#030610;}
</style>
<g>
	<g>
		<path class="st0" d="M475.2,439.1c-9,1-18.1,1.8-27.2,2.3C457.1,440.9,466.2,440.1,475.2,439.1z"/>
		<path class="st0" d="M648.8,380.5c-52,30.9-110.8,51.4-173.7,58.6C538,431.9,596.9,411.4,648.8,380.5z"/>
		<path class="st0" d="M670.2,366.9c-6.8,4.6-13.8,9.1-20.9,13.3C656.4,375.9,663.4,371.5,670.2,366.9z"/>
		<path class="st0" d="M157.2,350.5c-6.2-4.8-12.2-9.7-18.2-14.8C145,340.8,151,345.8,157.2,350.5z"/>
		<path class="st0" d="M178.5,366c-6.6-4.5-13.1-9.2-19.4-14C165.4,356.8,171.9,361.5,178.5,366z"/>
		<path class="st0" d="M200.7,380.2c-7.1-4.2-14.1-8.7-20.9-13.3C186.6,371.5,193.6,375.9,200.7,380.2z"/>
		<path class="st0" d="M374.9,439.1c-62.9-7.2-121.7-27.7-173.7-58.6C253.1,411.4,312,431.9,374.9,439.1z"/>
		<path class="st0" d="M402.1,441.3c-9.1-0.5-18.2-1.2-27.2-2.3C383.9,440.1,392.9,440.9,402.1,441.3z"/>
		<path class="st0" d="M781.4,259.1c-4.7,6.5-9.5,12.8-14.5,19C771.8,271.9,776.7,265.6,781.4,259.1z"/>
		<path class="st0" d="M765.4,279.9c-4.9,6-10,11.9-15.2,17.7C755.4,291.8,760.5,285.9,765.4,279.9z"/>
		<path class="st0" d="M796.1,237.3c-4.4,7-9.1,13.9-13.9,20.6C787,251.2,791.7,244.3,796.1,237.3z"/>
		<path class="st0" d="M691,351.9c-6.3,4.8-12.8,9.5-19.4,14C678.2,361.5,684.6,356.8,691,351.9z"/>
		<path class="st0" d="M748.3,299.6c-5.2,5.7-10.6,11.2-16.1,16.6C737.7,310.8,743,305.3,748.3,299.6z"/>
		<path class="st0" d="M730.1,318.3c-5.5,5.4-11.2,10.6-17.1,15.7C718.9,328.8,724.6,323.6,730.1,318.3z"/>
		<path class="st0" d="M711,335.7c-5.9,5.1-12,10-18.2,14.8C699,345.8,705.1,340.8,711,335.7z"/>
		<path class="st0" d="M99.9,297.6c-5.2-5.8-10.3-11.6-15.2-17.7C89.6,285.9,94.7,291.8,99.9,297.6z"/>
		<path class="st0" d="M53.9,237.3c4.4,7,9.1,13.9,13.9,20.6C63,251.2,58.3,244.3,53.9,237.3z"/>
		<path class="st0" d="M117.9,316.2c-5.5-5.4-10.9-10.9-16.1-16.6C107,305.3,112.4,310.8,117.9,316.2z"/>
		<path class="st0" d="M83.2,278.1c-5-6.2-9.9-12.5-14.5-19C73.3,265.6,78.2,271.9,83.2,278.1z"/>
		<path class="st0" d="M137,333.9c-5.8-5.1-11.5-10.3-17.1-15.7C125.5,323.6,131.2,328.8,137,333.9z"/>
		<g>
			<path class="st1" d="M402.1,441.3c-9.1-0.5-18.2-1.2-27.2-2.3c0,0,0,0,0,0c-62.9-7.2-121.7-27.7-173.7-58.6
				c-0.2-0.1-0.3-0.2-0.5-0.3c-7.1-4.2-14.1-8.7-20.9-13.3c-0.4-0.3-0.9-0.6-1.3-0.9c-6.6-4.5-13.1-9.2-19.4-14
				c-0.6-0.5-1.2-0.9-1.8-1.4c-6.2-4.8-12.2-9.7-18.2-14.8c-0.7-0.6-1.4-1.2-2.1-1.8c-5.8-5.1-11.5-10.3-17.1-15.7
				c-0.7-0.7-1.4-1.3-2.1-2c-5.5-5.4-10.9-10.9-16.1-16.6c-0.6-0.7-1.2-1.4-1.9-2.1c-5.2-5.8-10.3-11.6-15.2-17.7
				c-0.5-0.6-1-1.2-1.5-1.8c-5-6.2-9.9-12.5-14.5-19c-0.3-0.4-0.6-0.8-0.9-1.2c-4.8-6.7-9.5-13.6-13.9-20.6C25,294,8.6,358,8.6,426
				c0,222.3,174.2,403.8,393.4,415.7L402.1,441.3L402.1,441.3z"/>
			<path class="st1" d="M841.4,426c0-68-16.4-132-45.3-188.7c-4.4,7-9.1,13.9-13.9,20.6c-0.3,0.4-0.6,0.8-0.9,1.2
				c-4.7,6.5-9.5,12.8-14.5,19c-0.5,0.6-1,1.2-1.5,1.8c-4.9,6-10,11.9-15.2,17.7c-0.6,0.7-1.2,1.4-1.9,2.1
				c-5.2,5.7-10.6,11.2-16.1,16.6c-0.7,0.7-1.4,1.4-2.1,2c-5.5,5.4-11.2,10.6-17.1,15.7c-0.7,0.6-1.4,1.2-2.1,1.8
				c-5.9,5.1-12,10-18.2,14.8c-0.6,0.5-1.2,0.9-1.8,1.4c-6.3,4.9-12.8,9.5-19.4,14c-0.4,0.3-0.9,0.6-1.3,0.9
				c-6.8,4.6-13.8,9.1-20.9,13.3c-0.2,0.1-0.3,0.2-0.5,0.3c-52,30.9-110.8,51.4-173.7,58.6c0,0,0,0,0,0c-9,1-18.1,1.8-27.2,2.3
				c0,0,0,0,0,0v400.4C667.2,829.8,841.4,648.3,841.4,426z"/>
		</g>
		<path class="st2" d="M766.8,278.1c-0.5,0.6-1,1.2-1.5,1.8C765.9,279.3,766.3,278.7,766.8,278.1z"/>
		<path class="st2" d="M139.1,335.7c-0.7-0.6-1.4-1.2-2.1-1.8C137.7,334.5,138.4,335.1,139.1,335.7z"/>
		<path class="st2" d="M782.2,257.9c-0.3,0.4-0.6,0.8-0.9,1.2C781.6,258.7,781.9,258.3,782.2,257.9z"/>
		<path class="st2" d="M713.1,333.9c-0.7,0.6-1.4,1.2-2.1,1.8C711.7,335.1,712.4,334.5,713.1,333.9z"/>
		<path class="st2" d="M732.2,316.2c-0.7,0.7-1.4,1.4-2.1,2C730.8,317.6,731.5,316.9,732.2,316.2z"/>
		<path class="st2" d="M692.8,350.5c-0.6,0.5-1.2,0.9-1.8,1.4C691.6,351.5,692.2,351,692.8,350.5z"/>
		<path class="st2" d="M750.1,297.6c-0.6,0.7-1.2,1.4-1.9,2.1C748.9,299,749.5,298.3,750.1,297.6z"/>
		<path class="st2" d="M179.8,366.9c-0.4-0.3-0.9-0.6-1.3-0.9C178.9,366.3,179.4,366.6,179.8,366.9z"/>
		<path class="st2" d="M101.8,299.6c-0.6-0.7-1.2-1.4-1.9-2.1C100.5,298.3,101.1,299,101.8,299.6z"/>
		<path class="st2" d="M201.2,380.5c-0.2-0.1-0.3-0.2-0.5-0.3C200.9,380.3,201,380.4,201.2,380.5z"/>
		<path class="st2" d="M119.9,318.3c-0.7-0.7-1.4-1.3-2.1-2C118.5,316.9,119.2,317.6,119.9,318.3z"/>
		<path class="st2" d="M159,351.9c-0.6-0.5-1.2-0.9-1.8-1.4C157.8,351,158.4,351.5,159,351.9z"/>
		<path class="st2" d="M374.9,439.1C374.9,439.1,374.9,439.1,374.9,439.1C374.9,439.1,374.9,439.1,374.9,439.1z"/>
		<path class="st2" d="M68.7,259.1c-0.3-0.4-0.6-0.8-0.9-1.2C68.1,258.3,68.4,258.7,68.7,259.1z"/>
		<path class="st2" d="M649.3,380.2c-0.2,0.1-0.3,0.2-0.5,0.3C649,380.4,649.2,380.3,649.3,380.2z"/>
		<path class="st2" d="M671.5,366c-0.4,0.3-0.9,0.6-1.3,0.9C670.7,366.6,671.1,366.3,671.5,366z"/>
		<path class="st2" d="M475.2,439.1C475.2,439.1,475.2,439.1,475.2,439.1C475.2,439.1,475.2,439.1,475.2,439.1z"/>
		<path class="st2" d="M84.7,279.9c-0.5-0.6-1-1.2-1.5-1.8C83.7,278.7,84.2,279.3,84.7,279.9z"/>
	</g>
	<g>
		<circle class="st2" cx="554.6" cy="509.3" r="42"/>
		<circle class="st2" cx="725.9" cy="551.3" r="42"/>
		
			<ellipse transform="matrix(0.9738 -0.2273 0.2273 0.9738 -141.4212 143.5826)" class="st2" cx="552.6" cy="685.7" rx="42" ry="42"/>
		<circle class="st2" cx="295.5" cy="509.3" r="42"/>
		<circle class="st2" cx="124.1" cy="551.3" r="42"/>
		
			<ellipse transform="matrix(0.2273 -0.9738 0.9738 0.2273 -437.968 819.4678)" class="st2" cx="297.4" cy="685.7" rx="42" ry="42"/>
	</g>
	<path class="st2" d="M425,9.6c-143.3,0-269.7,72.4-344.6,182.7C147.5,313.7,276.8,396.1,425,396.1s277.5-82.4,344.6-203.8
		C694.7,82.1,568.3,9.6,425,9.6z"/>
</g>
<g>
	<g>
		<path class="st0" d="M-538.8,439.1c-9,1-18.1,1.8-27.2,2.3C-556.9,440.9-547.8,440.1-538.8,439.1z"/>
		<path class="st0" d="M-365.2,380.5c-52,30.9-110.8,51.4-173.7,58.6C-476,431.9-417.1,411.4-365.2,380.5z"/>
		<path class="st0" d="M-343.8,366.9c-6.8,4.6-13.8,9.1-20.9,13.3C-357.6,375.9-350.6,371.5-343.8,366.9z"/>
		<path class="st0" d="M-856.8,350.5c-6.2-4.8-12.2-9.7-18.2-14.8C-869,340.8-863,345.8-856.8,350.5z"/>
		<path class="st0" d="M-835.5,366c-6.6-4.5-13.1-9.2-19.4-14C-848.6,356.8-842.1,361.5-835.5,366z"/>
		<path class="st0" d="M-813.3,380.2c-7.1-4.2-14.1-8.7-20.9-13.3C-827.4,371.5-820.4,375.9-813.3,380.2z"/>
		<path class="st0" d="M-639.1,439.1c-62.9-7.2-121.7-27.7-173.7-58.6C-760.9,411.4-702,431.9-639.1,439.1z"/>
		<path class="st0" d="M-611.9,441.3c-9.1-0.5-18.2-1.2-27.2-2.3C-630.1,440.1-621.1,440.9-611.9,441.3z"/>
		<path class="st0" d="M-232.6,259.1c-4.7,6.5-9.5,12.8-14.5,19C-242.2,271.9-237.3,265.6-232.6,259.1z"/>
		<path class="st0" d="M-248.6,279.9c-4.9,6-10,11.9-15.2,17.7C-258.6,291.8-253.5,285.9-248.6,279.9z"/>
		<path class="st0" d="M-217.9,237.3c-4.4,7-9.1,13.9-13.9,20.6C-227,251.2-222.3,244.3-217.9,237.3z"/>
		<path class="st0" d="M-323,351.9c-6.3,4.8-12.8,9.5-19.4,14C-335.8,361.5-329.4,356.8-323,351.9z"/>
		<path class="st0" d="M-265.7,299.6c-5.2,5.7-10.6,11.2-16.1,16.6C-276.3,310.8-271,305.3-265.7,299.6z"/>
		<path class="st0" d="M-283.9,318.3c-5.5,5.4-11.2,10.6-17.1,15.7C-295.1,328.8-289.4,323.6-283.9,318.3z"/>
		<path class="st0" d="M-303,335.7c-5.9,5.1-12,10-18.2,14.8C-315,345.8-308.9,340.8-303,335.7z"/>
		<path class="st0" d="M-914.1,297.6c-5.2-5.8-10.3-11.6-15.2-17.7C-924.4,285.9-919.3,291.8-914.1,297.6z"/>
		<path class="st0" d="M-960.1,237.3c4.4,7,9.1,13.9,13.9,20.6C-951,251.2-955.7,244.3-960.1,237.3z"/>
		<path class="st0" d="M-896.1,316.2c-5.5-5.4-10.9-10.9-16.1-16.6C-907,305.3-901.6,310.8-896.1,316.2z"/>
		<path class="st0" d="M-930.8,278.1c-5-6.2-9.9-12.5-14.5-19C-940.7,265.6-935.8,271.9-930.8,278.1z"/>
		<path class="st0" d="M-877,333.9c-5.8-5.1-11.5-10.3-17.1-15.7C-888.5,323.6-882.8,328.8-877,333.9z"/>
		<g>
			<path class="st1" d="M-611.9,441.3c-9.1-0.5-18.2-1.2-27.2-2.3c0,0,0,0,0,0c-62.9-7.2-121.7-27.7-173.7-58.6
				c-0.2-0.1-0.3-0.2-0.5-0.3c-7.1-4.2-14.1-8.7-20.9-13.3c-0.4-0.3-0.9-0.6-1.3-0.9c-6.6-4.5-13.1-9.2-19.4-14
				c-0.6-0.5-1.2-0.9-1.8-1.4c-6.2-4.8-12.2-9.7-18.2-14.8c-0.7-0.6-1.4-1.2-2.1-1.8c-5.8-5.1-11.5-10.3-17.1-15.7
				c-0.7-0.7-1.4-1.3-2.1-2c-5.5-5.4-10.9-10.9-16.1-16.6c-0.6-0.7-1.2-1.4-1.9-2.1c-5.2-5.8-10.3-11.6-15.2-17.7
				c-0.5-0.6-1-1.2-1.5-1.8c-5-6.2-9.9-12.5-14.5-19c-0.3-0.4-0.6-0.8-0.9-1.2c-4.8-6.7-9.5-13.6-13.9-20.6
				C-989,294-1005.4,358-1005.4,426c0,222.3,174.2,403.8,393.4,415.7L-611.9,441.3L-611.9,441.3z"/>
			<path class="st1" d="M-172.6,426c0-68-16.4-132-45.3-188.7c-4.4,7-9.1,13.9-13.9,20.6c-0.3,0.4-0.6,0.8-0.9,1.2
				c-4.7,6.5-9.5,12.8-14.5,19c-0.5,0.6-1,1.2-1.5,1.8c-4.9,6-10,11.9-15.2,17.7c-0.6,0.7-1.2,1.4-1.9,2.1
				c-5.2,5.7-10.6,11.2-16.1,16.6c-0.7,0.7-1.4,1.4-2.1,2c-5.5,5.4-11.2,10.6-17.1,15.7c-0.7,0.6-1.4,1.2-2.1,1.8
				c-5.9,5.1-12,10-18.2,14.8c-0.6,0.5-1.2,0.9-1.8,1.4c-6.3,4.9-12.8,9.5-19.4,14c-0.4,0.3-0.9,0.6-1.3,0.9
				c-6.8,4.6-13.8,9.1-20.9,13.3c-0.2,0.1-0.3,0.2-0.5,0.3c-52,30.9-110.8,51.4-173.7,58.6c0,0,0,0,0,0c-9,1-18.1,1.8-27.2,2.3
				c0,0,0,0,0,0v400.4C-346.8,829.8-172.6,648.3-172.6,426z"/>
		</g>
		<path class="st2" d="M-247.2,278.1c-0.5,0.6-1,1.2-1.5,1.8C-248.1,279.3-247.7,278.7-247.2,278.1z"/>
		<path class="st2" d="M-874.9,335.7c-0.7-0.6-1.4-1.2-2.1-1.8C-876.3,334.5-875.6,335.1-874.9,335.7z"/>
		<path class="st2" d="M-231.8,257.9c-0.3,0.4-0.6,0.8-0.9,1.2C-232.4,258.7-232.1,258.3-231.8,257.9z"/>
		<path class="st2" d="M-300.9,333.9c-0.7,0.6-1.4,1.2-2.1,1.8C-302.3,335.1-301.6,334.5-300.9,333.9z"/>
		<path class="st2" d="M-281.8,316.2c-0.7,0.7-1.4,1.4-2.1,2C-283.2,317.6-282.5,316.9-281.8,316.2z"/>
		<path class="st2" d="M-321.2,350.5c-0.6,0.5-1.2,0.9-1.8,1.4C-322.4,351.5-321.8,351-321.2,350.5z"/>
		<path class="st2" d="M-263.9,297.6c-0.6,0.7-1.2,1.4-1.9,2.1C-265.1,299-264.5,298.3-263.9,297.6z"/>
		<path class="st2" d="M-834.2,366.9c-0.4-0.3-0.9-0.6-1.3-0.9C-835.1,366.3-834.6,366.6-834.2,366.9z"/>
		<path class="st2" d="M-912.2,299.6c-0.6-0.7-1.2-1.4-1.9-2.1C-913.5,298.3-912.9,299-912.2,299.6z"/>
		<path class="st2" d="M-812.8,380.5c-0.2-0.1-0.3-0.2-0.5-0.3C-813.1,380.3-813,380.4-812.8,380.5z"/>
		<path class="st2" d="M-894.1,318.3c-0.7-0.7-1.4-1.3-2.1-2C-895.5,316.9-894.8,317.6-894.1,318.3z"/>
		<path class="st2" d="M-855,351.9c-0.6-0.5-1.2-0.9-1.8-1.4C-856.2,351-855.6,351.5-855,351.9z"/>
		<path class="st2" d="M-639.1,439.1C-639.1,439.1-639.1,439.1-639.1,439.1C-639.1,439.1-639.1,439.1-639.1,439.1z"/>
		<path class="st2" d="M-945.3,259.1c-0.3-0.4-0.6-0.8-0.9-1.2C-945.9,258.3-945.6,258.7-945.3,259.1z"/>
		<path class="st2" d="M-364.7,380.2c-0.2,0.1-0.3,0.2-0.5,0.3C-365,380.4-364.8,380.3-364.7,380.2z"/>
		<path class="st2" d="M-342.5,366c-0.4,0.3-0.9,0.6-1.3,0.9C-343.3,366.6-342.9,366.3-342.5,366z"/>
		<path class="st2" d="M-538.8,439.1C-538.8,439.1-538.8,439.1-538.8,439.1C-538.8,439.1-538.8,439.1-538.8,439.1z"/>
		<path class="st2" d="M-929.3,279.9c-0.5-0.6-1-1.2-1.5-1.8C-930.3,278.7-929.8,279.3-929.3,279.9z"/>
	</g>
	<g>
		<circle class="st2" cx="-459.4" cy="509.3" r="42"/>
		<circle class="st2" cx="-288.1" cy="551.3" r="42"/>
		
			<ellipse transform="matrix(0.9738 -0.2273 0.2273 0.9738 -167.9713 -86.936)" class="st2" cx="-461.4" cy="685.7" rx="42" ry="42"/>
		<circle class="st2" cx="-718.5" cy="509.3" r="42"/>
		<circle class="st2" cx="-889.9" cy="551.3" r="42"/>
		
			<ellipse transform="matrix(0.2273 -0.9738 0.9738 0.2273 -1221.4495 -167.982)" class="st2" cx="-716.6" cy="685.7" rx="42" ry="42"/>
	</g>
	<path class="st2" d="M-589,9.6c-143.3,0-269.7,72.4-344.6,182.7c67.1,121.4,196.4,203.8,344.6,203.8s277.5-82.4,344.6-203.8
		C-319.3,82.1-445.7,9.6-589,9.6z"/>
</g>
</svg>
