<?xml version="1.0" encoding="utf-8"?>
<!-- Generator: Adobe Illustrator 21.0.0, SVG Export Plug-In . SVG Version: 6.00 Build 0)  -->
<svg version="1.1" id="Calque_1" xmlns="http://www.w3.org/2000/svg" xmlns:xlink="http://www.w3.org/1999/xlink" x="0px" y="0px"
	 viewBox="0 0 681.6 564.4" style="enable-background:new 0 0 681.6 564.4;" xml:space="preserve">
<style type="text/css">
	.st0{fill:#171717;}
	.st1{fill:#0D1029;}
	.st2{fill:#F4173A;}
	.st3{fill:#040510;}
	.st4{fill:#111436;}
	.st5{fill:#120918;}
	.st6{fill:#FFFFFF;}
	.st7{fill:#250D21;}
</style>
<path class="st0" d="M674.7,480.3c-10-5.6-20.8-8.5-32.2-8.1c-3.8,0.2-5.4-1.4-6.7-4.6c-2.6-6.8-4.5-13.8-6.2-20.9
	c-0.8-3.3-0.6-6.2-0.1-9.5c0.7-3.7,2.3-4.4,5.5-3.6c10.4,2.3,20.9,4.6,30.3,10.1c2.5,1.5,5.3,2.3,8.3,1.3c4.2-1.4,7-4,7.7-8.6
	c0.7-5-1.5-8.6-5.7-11c-11.7-6.7-24.4-10.1-37.5-12.4c-3.7-0.6-4.5-1.8-4.2-5.5c2.5-32.1,2.4-64.3-2-96.2c-1.1-8.1-2.5-16,2.2-23.4
	c0.7-1.1,0.8-2.6,1-3.9c4.1-26.8,1.1-53.3-9.1-78c-24.5-59.4-64.8-106.5-117.4-143.3c-28.4-19.9-60.5-32-92.8-43.8
	C349.1-5.8,282.3-7,215.8,19.5c-53.7,21.4-99.4,52.7-131.1,102.6C54.5,169.8,36,220.4,41.3,277.7c2.9,31.6,10.6,61.9,26.1,89.9
	c1.7,3.1,1.3,4.2-1.8,5.5c-7.9,3.5-12,9.9-13,18.2c-0.7,5-1.1,10.2-0.7,15.3c0.4,5.1-1.5,7.5-6.1,9.4c-12.2,5-24.6,9.8-35.6,17.5
	c-3.8,2.7-7.2,5.8-9.1,10.1c-2.3,5.1-0.8,10.5,3.6,13.5c4.3,2.9,10.4,2.5,13.3-1.8c3.6-5.3,8.9-7.8,14.2-10.4
	c8.4-4,16.9-7.9,25.5-11.3c9.7-3.9,15.5-10,15.1-21.1c-0.2-5.6,0.2-11.2,0.2-16.8c0-5,4.5-4.6,7.3-6.3c2.7-1.7,3.6,1,4.8,2.3
	c15.2,16.5,33.5,28.8,53.5,38.6c1.5,0.7,3.3,0.9,4.3,2.9c-8.9,8.9-15.4,19.6-21.9,30.4c-10.4,17.7-25.9,28.7-46.5,32.2
	c-4.6,0.8-8.2,4.7-8.7,9.4c-0.5,4.2,2.5,9.1,6.5,10.6c3,1.1,6.1,0.6,9,0c25.9-5.6,45.6-20.1,58.6-43c5.9-10.5,13.1-19.8,21-28.7
	c2.2-2.6,4-3.1,7.2-2c15.8,5.2,32,9.1,48.6,11.1c6.9,0.8,13.9,1.5,22.1,2.3c-2.5,1.7-3.8,2.7-5.2,3.6c-7.4,4.7-12.8,11-15.1,19.8
	c-2.5,9.8-2.7,19.5,1.1,29c2.3,5.8,3.1,11.5-1.6,16.7c-8.1,9.1-16.4,17.7-29.4,19.6c-5.4,0.8-8.7,6.1-8,11.4
	c0.7,5.6,4.6,8.5,10.5,8.8c4.8,0.2,9.1-0.9,13.3-2.8c13.5-6.1,24.4-15.5,32.7-27.7c5.8-8.6,7-18.3,3.7-28.3c-1-3.1-2.2-6.1-2.7-9.2
	c-1.3-7.9-0.5-15.1,7.4-19.9c8.4-5.1,16.4-10.9,24.7-16.2c4.1-2.6,7.9-6,12.6-7.5c17.7-5.7,33.9-14,48.3-26.5
	c6.9,12.2,11.9,24.8,19.5,35.8c1.6,2.3,0.1,2.7-1.5,3.6c-7,3.5-14,6.9-20.9,10.7c-10.5,5.8-20.5,12.2-28.4,21.4
	c-4.6,5.3-4.4,11.3,0.2,15.4c4.6,4.1,10.7,3.5,15.4-1.5c2.5-2.8,5.2-5.4,8.2-7.6c11.2-8.5,23.8-14.4,36.4-20.4
	c3.6-1.7,5.6-1.5,8.4,1.7c18.8,21.2,41,37.5,69.5,42.8c19.8,3.7,39.9,3.8,60.1,3.4c34.8-0.7,64.7-12.4,89-37.8
	c8.6-9,17.6-17.4,25.8-27.2c0.8,2.3,1.3,4,2,5.8c5.7,15.9,11.2,20,28,20.9c7.7,0.4,15.1,2.1,21.9,5.9c6.3,3.4,12.4,1.8,15.3-3.7
	C683.2,489.6,681,483.8,674.7,480.3z M390.8,172.4c0.1,0.4,0.2,0.8,0.2,1.2C390.9,173.2,390.9,172.8,390.8,172.4z M390.9,174.4
	c0,0.2,0,0.3-0.1,0.5c1.6,0.3,2.6,1.1,3.3,2.1c-0.7-1-1.7-1.8-3.3-2.1C390.9,174.7,390.9,174.6,390.9,174.4z M482.7,402.9
	c-0.9,0-1.8-0.1-2.8-0.1C480.8,402.9,481.7,402.9,482.7,402.9z M434.6,49.1c3.4,0.5,6.6,1.6,9.7,2.9c0.8,0.3,1.5,0.7,2.3,1
	c-0.8-0.4-1.5-0.7-2.3-1C441.2,50.7,438,49.6,434.6,49.1c-0.2-0.2-0.5-0.5-0.7-0.7C434.1,48.7,434.3,48.9,434.6,49.1z M70.2,235.3
	c-2.7-0.1-4.5-0.2-5.5-0.7C65.7,235.1,67.4,235.2,70.2,235.3C70.2,235.3,70.2,235.3,70.2,235.3z M63.8,234.1
	C63.8,234.1,63.8,234.1,63.8,234.1C63.8,234.1,63.8,234.1,63.8,234.1z"/>
<g>
	<path class="st1" d="M331.4,426.1c-14.4,12.5-30.7,20.8-48.3,26.5c-4.7,1.5-8.5,4.9-12.6,7.5c-8.3,5.3-16.3,11.1-24.7,16.2
		c-7.9,4.8-8.7,12-7.4,19.9c0.5,3.1,1.7,6.2,2.7,9.2c3.3,10,2.1,19.7-3.7,28.3c-8.2,12.2-19.1,21.6-32.7,27.7
		c-4.2,1.9-8.6,3-13.3,2.8c-5.9-0.3-9.7-3.2-10.5-8.8c-0.7-5.2,2.6-10.6,8-11.4c13-1.9,21.3-10.5,29.4-19.6
		c4.6-5.2,3.9-10.9,1.6-16.7c-3.8-9.5-3.6-19.2-1.1-29c2.3-8.8,7.6-15,15.1-19.8c1.4-0.9,2.7-1.9,5.2-3.6
		c-8.2-0.8-15.2-1.5-22.1-2.3c-16.6-2-32.7-5.9-48.6-11.1c-3.3-1.1-5-0.5-7.2,2c-7.8,9-15,18.3-21,28.7c-13,22.9-32.6,37.4-58.6,43
		c-3,0.6-6.1,1.1-9,0c-4-1.5-7-6.4-6.5-10.6c0.5-4.8,4.1-8.7,8.7-9.4c20.5-3.5,36.1-14.5,46.5-32.2c6.4-10.9,12.9-21.6,21.9-30.4
		c-1.1-1.9-2.9-2.1-4.3-2.9c-20-9.9-38.2-22.2-53.5-38.6c-1.2-1.3-2.1-3.9-4.8-2.3c-2.8,1.7-7.3,1.3-7.3,6.3
		c0,5.6-0.4,11.2-0.2,16.8c0.4,11-5.4,17.2-15.1,21.1c-8.6,3.5-17.1,7.3-25.5,11.3c-5.3,2.5-10.6,5.1-14.2,10.4
		c-2.9,4.3-9,4.7-13.3,1.8c-4.5-3-6-8.4-3.6-13.5c2-4.3,5.3-7.4,9.1-10.1c10.9-7.7,23.3-12.5,35.6-17.5c4.6-1.9,6.5-4.2,6.1-9.4
		c-0.4-5,0.1-10.2,0.7-15.3c1.1-8.3,5.2-14.7,13-18.2c3-1.3,3.5-2.4,1.8-5.5c-15.5-28-23.2-58.3-26.1-89.9
		c-5.3-57.3,13.1-108,43.4-155.6c31.6-49.9,77.4-81.2,131.1-102.6C282.3-7,349.1-5.8,415.9,18.8c32.2,11.9,64.3,24,92.8,43.8
		c52.5,36.7,92.9,83.8,117.4,143.3c10.2,24.7,13.2,51.2,9.1,78c-0.2,1.3-0.3,2.8-1,3.9c-4.7,7.5-3.3,15.3-2.2,23.4
		c4.4,32,4.6,64.1,2,96.2c-0.3,3.7,0.5,4.9,4.2,5.5c13.1,2.2,25.9,5.7,37.5,12.4c4.2,2.4,6.4,6,5.7,11c-0.6,4.6-3.5,7.1-7.7,8.6
		c-3,1-5.8,0.2-8.3-1.3c-9.4-5.6-19.9-7.8-30.3-10.1c-3.2-0.7-4.9,0-5.5,3.6c-0.6,3.3-0.7,6.2,0.1,9.5c1.7,7.1,3.6,14.1,6.2,20.9
		c1.2,3.2,2.8,4.7,6.7,4.6c11.5-0.5,22.2,2.5,32.2,8.1c6.3,3.5,8.5,9.3,5.6,14.8c-2.9,5.4-9,7.1-15.3,3.7
		c-6.9-3.7-14.2-5.5-21.9-5.9c-16.8-0.9-22.3-5-28-20.9c-0.6-1.7-1.2-3.5-2-5.8c-8.2,9.8-17.3,18.3-25.8,27.2
		c-24.3,25.4-54.2,37.1-89,37.8c-20.1,0.4-40.3,0.2-60.1-3.4c-28.5-5.3-50.7-21.6-69.5-42.8c-2.8-3.2-4.8-3.4-8.4-1.7
		c-12.6,6-25.2,11.9-36.4,20.4c-3,2.3-5.7,4.9-8.2,7.6c-4.6,5-10.8,5.6-15.4,1.5c-4.6-4.1-4.8-10.2-0.2-15.4
		c7.9-9.1,17.9-15.6,28.4-21.4c6.8-3.8,13.9-7.2,20.9-10.7c1.7-0.8,3.1-1.3,1.5-3.6C343.2,450.9,338.3,438.4,331.4,426.1z
		 M442.9,234.1c1.9,8.8,3.9,17.5,5.6,26.3c0.6,3.5,1.8,3.4,4.6,2.1c13.6-6.1,27.8-10,42.7-11.1c24.6-1.8,47.5,4.3,69.6,14.4
		c12,5.5,23.6,12.3,36,16.8c13.1,4.8,13.2,4.3,14.1-9c1.5-24.4-2.5-48.1-12.9-70.4c-7.5-16.1-16.7-31.1-27-45.5
		c-17.7-24.6-38-46.6-61.8-65.4c-1.4-1.1-2.6-2.9-4.2-0.2c0.8-3.7-2.2-5.1-4.4-6.7c-16.3-11.3-33-21.9-51.4-29.3
		c-6.2-2.5-12.1-6.1-18.9-7c-0.5-0.4-0.9-1-1.5-1.2C391,30.4,347.8,18.1,301.5,21.8c-6.5,0.5-13.1,0.3-19.5,2.1
		c0.2,0.4,0.2,0.6,0.3,0.7c1.2,0.7,2.3,1.4,3.5,2.1c26.6,15.3,50.5,34,70.3,57.5c17.3,20.6,32.2,42.9,46.2,65.9c1.2,2,1.7,5,4.8,5.5
		c-0.2,2.2,0.9,3.9,1.9,5.7c5.4,10,11.2,19.7,16.2,29.9C432.2,205,439,219,442.9,234.1z M90.1,155.5c-0.5,0.4-1.2,0.8-1.5,1.4
		c-11.9,22.4-20.4,46-24.8,71c-1.2,7-1,7.1,6.3,7.4c-0.6,0.2-1.3,0.7-1.9,0.6c-4.4-0.7-5.5,1.2-5.9,5.5c-2.3,24.7,0.8,48.8,6.5,72.8
		c8.8,36.9,27.7,66.6,60.6,86.5c38.4,23.2,80.3,33.4,124.9,33.8c33.1,0.2,58.2-14.8,77.6-40.7c5.1-6.8,7.6-15.3,12.3-22.3
		c23.6-35.1,49.2-68.5,83.3-94.4c1.6-1.2,2.4-2.3,1.9-4.2c-3.1-12.8-5.3-25.9-9.2-38.6c-0.4-1.8-0.6-3.7-1.2-5.4
		c-5.8-16.2-13.7-31.4-22.4-46.2c-1.6-2.7-1.7-6.9-5.9-7.7c0.3-1.8-0.2-3.3-1.1-4.8c-10.7-17.8-22.1-35.1-34-52.1
		c-23.5-33.5-53.4-59.9-90.1-77.9c-23.7-11.7-15.2-11.1-39.3-1.9C170.4,59.4,124,92.7,94.6,146.5C92.9,149.4,90.7,152.1,90.1,155.5z
		 M483.8,510.1c9.5-0.1,19,0.4,28.5-1c13.6-2.1,27.2-4.6,38.7-12.8c16.7-11.9,31.4-25.9,44.5-41.5c5.2-6.2,10.2-12.7,13-20.5
		c0.9-2.5,0.9-3.5-2.2-4c-5.6-1-11.1-0.9-16.7-0.9c-8.5-0.1-12.4-4.1-11.9-12.2c0.3-5.5,7.1-10.5,13.6-9.1
		c5.3,1.1,10.5,0.3,15.7,0.9c4.9,0.5,6.5-1.9,6.4-6.1c-0.2-11.2,1.2-22.4,1.2-33.6c0-11.1-1-22-1.3-33.1c-0.2-7.9-1.4-15.8-2.2-23.7
		c-0.4-4.5-1.7-7.6-7.4-7.1c-2.8,0.2-5.9-1.4-8.8-2.3c-12.6-4.3-23.8-11.6-36-16.9c-20.3-8.8-40.8-16-63.7-13.4
		c-18.3,2.1-34.9,8.1-50.3,17.8c-13.3,8.4-24.6,19-35,30.8c-9.6,10.7-18.6,22-27.9,32.9c-13.8,16.2-22.9,35.2-34,53
		c-1,1.6-1.1,3-0.2,4.7c6.9,13.2,12.8,27,21.2,39.5c1.9,2.9,3.8,3.7,7.2,2.5c11.6-4.3,23.3-8.3,35-12.4c6.6-2.3,12.1,0.4,14.2,6.6
		c1.9,5.7-1.1,11.1-7.5,13.3c-9,3.1-18,6.2-26.9,9.4c-5.3,1.8-5.3,1.9-1.2,6c3.8,3.9,7.7,7.6,12,11c10.6,8.2,21.8,15,35,18.1
		C452.3,509.9,468,510.3,483.8,510.1z"/>
	<path class="st2" d="M420.4,234.2c3.9,12.6,6.1,25.7,9.2,38.6c0.5,1.9-0.4,3-1.9,4.2c-34.1,25.9-59.7,59.3-83.3,94.4
		c-4.7,7-7.2,15.5-12.3,22.3c-19.4,25.9-44.5,41-77.6,40.7c-44.6-0.3-86.5-10.6-124.9-33.8c-32.9-19.9-51.8-49.6-60.6-86.5
		c-5.7-24-8.8-48.1-6.5-72.8c0.4-4.3,1.4-6.2,5.9-5.5c0.6,0.1,1.3-0.4,1.9-0.6c2.2-0.3,4.4-0.3,6.5-0.9
		c18.1-5.1,29.4-16.9,32.4-35.3c3-18.2-3.9-32.9-19-43.6c0.6-3.5,2.9-6.1,4.5-9.1C124,92.7,170.4,59.4,226.3,38.1
		c24.1-9.2,15.7-9.7,39.3,1.9c36.7,18.1,66.5,44.4,90.1,77.9c11.9,17,23.3,34.3,34,52.1c0.9,1.5,1.4,3,1.1,4.8
		C379.3,198.4,394.9,229.6,420.4,234.2z M195.6,131.5c0,24.3,19.3,43.9,43.5,44.1c23.8,0.2,43.8-19.6,44.1-43.7
		c0.3-23.8-19.7-43.9-43.7-43.9C215,88,195.6,107.2,195.6,131.5z M214.8,368c24.2,0,44-19.8,43.9-43.8c-0.2-24.9-20.1-43.9-46-43.7
		c-22.4,0.1-41.7,20.4-41.7,43.8C171.1,348.9,190.3,368,214.8,368z"/>
	<path class="st2" d="M407.1,155.5c-3-0.6-3.5-3.5-4.8-5.5c-14-23-28.9-45.3-46.2-65.9c-19.8-23.5-43.7-42.1-70.3-57.5
		c-1.2-0.7-2.4-1.4-3.5-2.1c-0.1-0.1-0.1-0.3-0.3-0.7c6.4-1.8,13-1.6,19.5-2.1c46.3-3.6,89.5,8.6,131.6,26.2c0.6,0.2,1,0.8,1.5,1.2
		c-13.2,15.7-12.1,40.6,2.6,56.3c21.7,23.3,61.9,15.9,72.1-13.3c1.6-2.6,2.8-0.9,4.2,0.2c23.8,18.8,44.2,40.8,61.8,65.4
		c10.3,14.4,19.5,29.4,27,45.5c10.4,22.3,14.5,46,12.9,70.4c-0.8,13.3-1,13.8-14.1,9c-12.4-4.5-23.9-11.3-36-16.8
		c-22.1-10.1-45-16.2-69.6-14.4c-14.9,1.1-29.1,4.9-42.7,11.1c-2.8,1.3-4,1.3-4.6-2.1c-1.7-8.8-3.7-17.6-5.6-26.3
		c21.2-7.3,33-23.7,31.5-45.6c-1.1-16.4-9.6-28.7-24.3-35.8C435.6,145.7,420.9,146.3,407.1,155.5z"/>
	<path class="st0" d="M483.8,510.1c-15.8,0.3-31.5-0.2-47-3.9c-13.1-3.2-24.4-10-35-18.1c-4.3-3.3-8.2-7.1-12-11
		c-4.1-4.2-4.1-4.2,1.2-6c9-3.1,17.9-6.2,26.9-9.4c6.4-2.2,9.4-7.6,7.5-13.3c-2.1-6.2-7.6-8.9-14.2-6.6c-11.7,4-23.4,8.1-35,12.4
		c-3.4,1.2-5.2,0.4-7.2-2.5c-8.4-12.5-14.3-26.2-21.2-39.5c-0.9-1.7-0.8-3.2,0.2-4.7c11.1-17.8,20.2-36.9,34-53
		c9.3-11,18.3-22.2,27.9-32.9c10.5-11.7,21.8-22.3,35-30.8c15.4-9.8,32-15.7,50.3-17.8c22.9-2.7,43.5,4.5,63.7,13.4
		c12.1,5.3,23.4,12.5,36,16.9c2.9,1,5.9,2.6,8.8,2.3c5.7-0.5,7,2.7,7.4,7.1c0.8,7.9,2,15.8,2.2,23.7c0.3,11,1.3,22,1.3,33.1
		c0,11.2-1.4,22.4-1.2,33.6c0.1,4.2-1.6,6.6-6.4,6.1c-5.2-0.6-10.4,0.2-15.7-0.9c-6.4-1.4-13.2,3.6-13.6,9.1
		c-0.5,8.1,3.4,12.1,11.9,12.2c5.6,0,11.2-0.1,16.7,0.9c3.1,0.5,3.1,1.5,2.2,4c-2.8,7.8-7.8,14.3-13,20.5
		c-13.1,15.7-27.9,29.6-44.5,41.5c-11.5,8.2-25.1,10.7-38.7,12.8C502.8,510.5,493.3,509.9,483.8,510.1z M566.6,379
		c-0.2-23.1-8.1-42.9-25-59.1c-14.3-13.6-37.5-16.9-50.2,2.2c-2.1,3.1-3.4,2.6-5.7,0.3c-8.4-8.3-21.6-10.5-32.1-5.3
		c-20.9,10.4-30.7,28.9-33.9,50.8c-2.2,14.5,0.9,29.1,5.5,43.1c1.1,3.4,1.3,5.4-2.6,7.2c-4.3,2-5.9,7.3-4.4,11.7
		c2.3,6.9,8.9,9.3,16.1,5.8c15.6-7.8,32.3-10.5,49.4-9.2c10.2,0.8,20.7,5.9,28.6-5.1c0.2-0.3,1-0.2,1.4-0.4
		c15.1-6.3,30.6-4.4,46.1-2.1c5.7,0.8,10.9-1.4,12.6-6.1c2-5.9,0.2-11-5.4-13.6c-2-0.9-2.4-1.7-1.8-3.8
		C566.6,390,566.8,384.5,566.6,379z M541,469.3c0-3.1-2.3-5.9-5.9-7.6c-14.8-7.1-30.1-6.9-45.4-2c-8.3,2.7-15.8,7-21.8,13.6
		c-3.6,4-3.5,8.3,0.1,12.3c3.5,3.8,7.8,4.2,12.1,1c2.3-1.7,4.6-3.5,7.1-4.9c13.3-7.3,27-8,41.1-2.6
		C534.9,481.6,540.8,477.4,541,469.3z M386.8,440.6c12.4,0.7,21.9-8.9,22.3-21.5c0.3-10.2-10.2-21-20.5-20.5
		c-13.2,0.6-22.2,8.3-22.2,20.4C366.2,430.7,375.6,440.5,386.8,440.6z M606.4,385.7c0-8.9-6.9-17-15.2-16.5
		c-10.1,0.6-15.9,7.1-16.4,17.8c-0.3,7,7.8,13.7,15.8,13.6C599.8,400.7,606.3,394.5,606.4,385.7z"/>
	<path class="st3" d="M509.3,92.1c-10.2,29.2-50.4,36.6-72.1,13.3c-14.7-15.7-15.9-40.6-2.6-56.3c6.8,0.9,12.7,4.5,18.9,7
		c18.5,7.4,35.2,18,51.4,29.3C507.2,87,510.1,88.5,509.3,92.1z"/>
	<path class="st3" d="M407.1,155.5c13.8-9.2,28.4-9.8,43-2.7c14.7,7.1,23.2,19.4,24.3,35.8c1.4,21.8-10.3,38.3-31.5,45.6
		c-3.9-15.2-10.7-29.1-17.6-43c-5-10.2-10.8-19.9-16.2-29.9C408,159.4,406.9,157.7,407.1,155.5z"/>
	<path class="st3" d="M90.1,155.5c15.1,10.7,22.1,25.4,19,43.6c-3.1,18.4-14.4,30.2-32.4,35.3c-2.1,0.6-4.3,0.6-6.5,0.9
		c-7.3-0.4-7.6-0.4-6.3-7.4c4.4-25,12.8-48.6,24.8-71C88.9,156.4,89.6,156,90.1,155.5z"/>
	<path class="st3" d="M420.4,234.2c-25.5-4.6-41-35.8-29.5-59.3c4.2,0.8,4.3,5,5.9,7.7c8.7,14.8,16.5,30,22.4,46.2
		C419.8,230.5,420,232.4,420.4,234.2z"/>
	<path class="st3" d="M195.6,131.5c0-24.4,19.4-43.6,43.9-43.5c24.1,0,44,20.1,43.7,43.9c-0.3,24.1-20.3,44-44.1,43.7
		C214.9,175.5,195.6,155.8,195.6,131.5z"/>
	<path class="st3" d="M214.8,368c-24.5,0-43.7-19.2-43.7-43.6c0-23.4,19.3-43.7,41.7-43.8c25.9-0.1,45.8,18.8,46,43.7
		C258.8,348.2,239,368,214.8,368z"/>
	<path class="st4" d="M566.6,379c0.2,5.5,0,10.9-1.5,16.2c-0.6,2.1-0.2,2.8,1.8,3.8c5.6,2.6,7.4,7.8,5.4,13.6
		c-1.6,4.7-6.9,7-12.6,6.1c-15.5-2.2-31-4.1-46.1,2.1c-0.5,0.2-1.2,0.1-1.4,0.4c-7.9,11-18.4,5.9-28.6,5.1
		c-17.1-1.3-33.8,1.4-49.4,9.2c-7.1,3.6-13.8,1.1-16.1-5.8c-1.5-4.5,0.1-9.7,4.4-11.7c3.8-1.8,3.7-3.8,2.6-7.2
		c-4.6-14-7.6-28.5-5.5-43.1c3.2-21.9,13-40.4,33.9-50.8c10.5-5.2,23.7-3,32.1,5.3c2.3,2.3,3.6,2.8,5.7-0.3
		c12.8-19.1,35.9-15.8,50.2-2.2C558.5,336.1,566.4,355.9,566.6,379z M466.7,403.6c7-1.5,14.1-0.6,21.4-0.5c-1.7-6.2-3.4-12.2-5-18.2
		c-0.3-1-0.7-1.9-1.6-2.5c-10.7-8.3-20.4-17.9-33.1-23.4c-3.5-1.5-4.8-1-6,2.6c-4.4,12.6-1.5,24.8,1.1,37.1
		c1.9,8.7,2.2,8.6,10.5,7.1C458.2,405.3,462.6,405.2,466.7,403.6z M545.9,378.6c-0.4-9-2.1-18.7-6.9-27.8c-4-7.7-4.2-7.7-9.8-1.2
		c-7.9,9.1-13.5,20-20.5,29.7c-4.1,5.6-2.8,9.5-0.6,14.6c1.3,3,3,3.5,5.9,2.7c6.2-1.8,12.7-2.5,19.1-2.8
		c12.4-0.6,12.5-0.7,12.8-13.5C545.9,380.1,545.9,379.9,545.9,378.6z M476.9,351.2c-1.4-6.2-2.1-13.2-9.3-15.5
		c-4-1.3-7.2,1.1-10.1,4.4C464.5,343.3,470.7,347,476.9,351.2z M518.7,330.6c-8.7-0.7-15.2,7.4-13.6,15.7
		C509.2,340.8,513.1,335.6,518.7,330.6z"/>
	<path class="st4" d="M541,469.3c-0.2,8.1-6.1,12.3-12.6,9.8c-14.2-5.3-27.8-4.7-41.1,2.6c-2.5,1.4-4.8,3.2-7.1,4.9
		c-4.3,3.2-8.6,2.8-12.1-1c-3.6-4-3.7-8.3-0.1-12.3c6-6.6,13.5-10.9,21.8-13.6c15.3-5,30.6-5.1,45.4,2
		C538.7,463.4,541,466.2,541,469.3z"/>
	<path class="st5" d="M386.8,440.6c-11.2,0-20.6-9.9-20.5-21.6c0-12.1,9.1-19.8,22.2-20.4c10.3-0.5,20.9,10.4,20.5,20.5
		C408.6,431.7,399.2,441.2,386.8,440.6z M387.4,434.4c10.5,0.7,15.1-8,15.5-15.2c0.5-7.6-7.8-15.5-15.4-15.4
		c-7.9,0.1-15.1,7.5-15.2,15.5C372.3,428,378.7,434.4,387.4,434.4z"/>
	<path class="st5" d="M606.4,385.7c0,8.8-6.6,15-15.8,15c-8,0-16.1-6.7-15.8-13.6c0.4-10.7,6.3-17.3,16.4-17.8
		C599.5,368.8,606.4,376.8,606.4,385.7z M579.8,385.1c-0.1,6.4,5,11.4,11.7,11.5c5,0,10.7-6.1,10.8-11.6c0.1-5.8-5-10.8-11.1-10.8
		C584.7,374.1,579.9,378.7,579.8,385.1z"/>
	<path class="st6" d="M454,405.7c-8.3,1.5-8.6,1.6-10.5-7.1c-2.6-12.2-5.5-24.5-1.1-37.1c1.3-3.6,2.5-4.1,6-2.6
		c12.7,5.5,22.4,15.1,33.1,23.4c0.8,0.6,1.3,1.5,1.6,2.5c1.6,6,3.3,12,5,18.2c-7.3-0.2-14.4-1-21.4,0.5c0.1-1.3-0.2-2.5,0.1-3.9
		c1.6-5.8,0.5-11.4-2.4-16.6c-1.5-2.8-3.6-5.2-7.1-4.8c-3.8,0.3-5.3,3.3-6.3,6.5C448.6,392.2,450.6,399.1,454,405.7z"/>
	<path class="st6" d="M545.9,378.6c0,1.3,0,1.5,0,1.6c-0.3,12.7-0.5,12.8-12.8,13.5c-6.4,0.3-12.9,1-19.1,2.8
		c-2.9,0.8-4.6,0.3-5.9-2.7c-2.1-5.1-3.4-9,0.6-14.6c7-9.7,12.5-20.5,20.5-29.7c5.6-6.5,5.8-6.4,9.8,1.2
		C543.8,359.9,545.5,369.6,545.9,378.6z M523.6,376.8c0,6,2.5,10.2,6.4,10.7c4.3,0.5,8.7-3.4,9.9-9c0.6-2.8,0.7-5.8,0-8.6
		c-0.7-3-2.1-5.5-5.7-6.2c-3.4-0.7-5.5,0.9-7.3,3.2C524.6,369.8,523.4,373.1,523.6,376.8z"/>
	<path class="st5" d="M454,405.7c-3.4-6.6-5.3-13.5-2.9-21c1-3.2,2.5-6.1,6.3-6.5c3.5-0.3,5.6,2.1,7.1,4.8c2.9,5.2,4,10.7,2.4,16.6
		c-0.4,1.4-0.1,2.6-0.1,3.9C462.6,405.2,458.2,405.3,454,405.7z M458.7,388.1c-0.4-1.4-0.7-3-3.1-2.8c-2,0.2-2.5,1.3-2.5,3
		c-0.1,2,0.7,3.4,2.7,3.5C458,391.9,458.5,390.2,458.7,388.1z"/>
	<path class="st3" d="M476.9,351.2c-6.1-4.2-12.4-7.9-19.4-11.1c2.9-3.3,6.1-5.7,10.1-4.4C474.8,338,475.4,344.9,476.9,351.2z"/>
	<path class="st3" d="M518.7,330.6c-5.6,5-9.6,10.2-13.6,15.7C503.5,337.9,510.1,329.9,518.7,330.6z"/>
	<path class="st7" d="M387.4,434.4c-8.7,0-15.1-6.5-15-15.1c0.1-8,7.3-15.4,15.2-15.5c7.6-0.1,15.8,7.8,15.4,15.4
		C402.5,426.5,397.9,435.2,387.4,434.4z"/>
	<path class="st7" d="M579.8,385.1c0.1-6.4,4.9-11,11.4-11c6,0,11.2,5.1,11.1,10.8c-0.1,5.5-5.8,11.7-10.8,11.6
		C584.8,396.6,579.7,391.6,579.8,385.1z"/>
	<path class="st5" d="M523.6,376.8c-0.2-3.7,1-7,3.2-9.9c1.8-2.3,3.9-4,7.3-3.2c3.6,0.7,5,3.2,5.7,6.2c0.7,2.8,0.6,5.7,0,8.6
		c-1.2,5.6-5.5,9.6-9.9,9C526.1,387,523.6,382.8,523.6,376.8z M531.2,373c1.6-0.4,2.6-1.3,2.7-3.1c0.1-1.5-0.2-2.7-2-3
		c-1.9-0.3-2.8,1-3.1,2.5C528.5,371.3,529.8,372.2,531.2,373z"/>
	<path class="st6" d="M458.7,388.1c-0.2,2.1-0.7,3.8-2.9,3.7c-2-0.1-2.8-1.5-2.7-3.5c0-1.7,0.6-2.8,2.5-3
		C458,385.1,458.3,386.7,458.7,388.1z"/>
	<path class="st6" d="M531.2,373c-1.4-0.8-2.7-1.8-2.3-3.5c0.3-1.6,1.2-2.8,3.1-2.5c1.7,0.3,2,1.5,2,3
		C533.8,371.7,532.8,372.6,531.2,373z"/>
</g>
</svg>
