<?xml version="1.0" encoding="utf-8"?>
<!-- Generator: Adobe Illustrator 21.0.0, SVG Export Plug-In . SVG Version: 6.00 Build 0)  -->
<svg version="1.1" id="Calque_1" xmlns="http://www.w3.org/2000/svg" xmlns:xlink="http://www.w3.org/1999/xlink" x="0px" y="0px"
	 viewBox="0 0 46.4 850.4" style="enable-background:new 0 0 46.4 850.4;" xml:space="preserve">
<style type="text/css">
	.st0{fill:#18233B;}
	.st1{fill:#559E5B;}
	.st2{fill:#0B1322;}
	.st3{fill:#BC8E3A;}
	.st4{fill:#FFFFFF;}
</style>
<g>
	<path class="st0" d="M0,456.8C0,330.3,0,203.8,0.1,77.4c0-8.3,1.3-16.6,3.6-24.8c1.3-4.8,3.5-9.3,4.5-14.1
		c1.5-7.3,4.5-14.2,6.3-21.4c1-4.1,1.4-8.4,2.9-12.4C18.2,2.3,20.9,0,23.2,0c2.1,0,5.1,2.3,5.7,4.5c0.9,2.9,1.3,6,1.9,9
		c1.1,5,2.7,10,4.4,14.8c1.4,3.9,2.3,7.9,3.5,11.8c0.3,1,0.5,2.2,1,3.1c1.6,2.8,1.9,5.9,2.7,8.9c1.1,4.1,1.9,8.2,2.7,12.3
		c0.1,0.3,0.2,0.6,0.2,0.9c-0.4,5.3,1,10.4,1,15.6c-0.1,252-0.1,504-0.1,755.9c0,7.8,1.1,6.9-6.9,10.4c-6.4,2.8-13.5,3.8-20.4,2.6
		c-3.6-0.6-7.3-0.3-10.9-1.4c-4.8-1.5-8-4.8-8.2-9.9c0-1,0-1.9,0-2.9C0,709.4,0,583.1,0,456.8z M7.7,777.7c0,0.5-0.1,1-0.1,1.6
		c0,19.6,0,39.2,0,58.7c0,2.3,1.4,3.2,3,3.4c2.6,0.5,5.1,1.2,7.9,1.1c5.8-0.2,11.6,0.4,17.3-1.8c1.9-0.8,3.1-1.4,3.1-3.8
		c-0.1-12.9,0-25.8-0.1-38.7c0-6.8-0.1-13.6-0.1-20.5c0.1-3.4,0.4-6.8-0.1-10.1c0.1-0.8,0.2-1.6,0.2-2.4c0.3-8.7-0.4-17.3,0-26
		c0.2-4.8,0-9.6,0-14.5c0-213.8,0-427.7,0-641.5c0-1.1-0.1-2.2,0-3.3c0.1-1.6-0.2-2.4-2.1-1.6c-1.8,0.7-3.8,1.5-5.5,1.1
		c-1.7-0.4-3.9-0.9-5.1-2.8c-0.8-1.2-1.7-1.3-3-0.3c-1.7,1.3-3.6,2.5-5.6,3.6c-1.6,0.9-3.4,0.9-5.1,0c-1.1-0.6-2.2-1.2-3.3-1.9
		c-1.2-0.9-1.5-0.4-1.5,0.8c0,1.6,0,3.1,0,4.7c0,227.4,0,454.8,0,682.2c0,0.9,0.1,1.8,0.2,2.6C7.4,771.6,7.5,774.7,7.7,777.7z
		 M37.8,66.1c0.4-1.6-0.9-3.2-1-4.9c-0.1-2.6-0.9-5.1-1.4-7.6c-0.7-3.3-2.5-6.2-3.4-9.3c-1.2-4-2.1-8-3.2-12c-0.4-1.4-1.2-2.1-2.8-2
		c-2,0.1-4,0.1-6,0c-1.6-0.1-2.3,0.8-2.7,2.1c-1.8,5.6-2.6,11.5-5.1,16.9C10.1,54,9.9,59.3,8.6,64.4c-0.5,2-0.5,4,2.1,4.9
		c0.6,0.2,1.1,0.7,1.6,1.1c3,2.3,3,2.3,6.2,0c1.1-0.8,1.9-2.2,3.5-2.3c3.5-0.3,6.9-0.2,9.3,2.9c0.4,0.5,0.8,1.1,1.7,0.9
		C34.6,71.6,37.9,67.9,37.8,66.1z M23.6,23.6c1.5,0.2,2.2-0.2,1.8-2.2c-0.4-2.2-1.3-4.2-1.5-6.5c0-0.5-0.3-0.9-0.8-0.9
		c-0.5,0-0.7,0.4-0.8,0.9c-0.5,2-1,4-1.4,6C20.6,23.4,20.9,23.6,23.6,23.6z"/>
	<path class="st1" d="M7.8,768.5c-0.1-0.9-0.2-1.8-0.2-2.6c0-227.4,0-454.8,0-682.2c0-1.6,0-3.1,0-4.7c0-1.2,0.2-1.7,1.5-0.8
		c1,0.7,2.1,1.3,3.3,1.9c1.7,0.9,3.5,0.8,5.1,0c2-1,3.9-2.2,5.6-3.6c1.3-1,2.2-0.9,3,0.3c1.2,1.9,3.4,2.3,5.1,2.8
		c1.7,0.4,3.8-0.5,5.5-1.1c1.9-0.7,2.2,0,2.1,1.6c-0.1,1.1,0,2.2,0,3.3c0,213.8,0,427.7,0,641.5c0,4.8,0.1,9.6,0,14.5
		c-0.3,8.7,0.3,17.4,0,26c0,0.8-0.1,1.6-0.2,2.4c-2.1,0.5-4.1,1.1-6.1,1.7c-5.7,1.6-11.5,0.8-17.2,0.1
		C12.8,769.2,10.3,768.5,7.8,768.5z"/>
	<path class="st2" d="M38.6,777.8c0,6.8,0.1,13.6,0.1,20.5c0,12.9-0.1,25.8,0.1,38.7c0,2.4-1.2,3.1-3.1,3.8
		c-5.6,2.2-11.5,1.6-17.3,1.8c-2.7,0.1-5.3-0.7-7.9-1.1c-1.7-0.3-3.1-1.2-3-3.4c0.1-19.6,0-39.2,0-58.7c0-0.5,0.1-1,0.1-1.6
		c4.1,0.7,8.1,1.6,12.2,1.9C26.2,780.1,32.5,779.8,38.6,777.8z"/>
	<path class="st3" d="M37.8,66.1c0,1.8-3.3,5.6-4.9,5.8c-0.8,0.1-1.2-0.4-1.7-0.9c-2.4-3.1-5.8-3.2-9.3-2.9
		c-1.5,0.1-2.3,1.5-3.5,2.3c-3.1,2.3-3.1,2.3-6.2,0c-0.5-0.4-1-1-1.6-1.1c-2.6-0.8-2.6-2.9-2.1-4.9c1.2-5.1,1.4-10.4,3.7-15.2
		c2.5-5.4,3.4-11.3,5.1-16.9c0.4-1.3,1.1-2.2,2.7-2.1c2,0.1,4,0.1,6,0c1.6-0.1,2.4,0.6,2.8,2c1.1,4,2,8,3.2,12
		c0.9,3.2,2.7,6.1,3.4,9.3c0.5,2.5,1.3,5,1.4,7.6C36.9,62.9,38.3,64.4,37.8,66.1z"/>
	<path class="st4" d="M38.6,777.8c-6.1,2-12.4,2.3-18.8,1.8c-4.1-0.3-8.1-1.2-12.2-1.9c-0.2-3.1-0.3-6.2,0.1-9.3c2.5,0,5,0.7,7.4,1
		c5.7,0.7,11.4,1.5,17.2-0.1c2-0.6,4.1-1.2,6.1-1.7C39,771.1,38.8,774.4,38.6,777.8z"/>
	<path class="st2" d="M23.6,23.6c-2.8,0-3.1-0.2-2.7-2.7c0.3-2,0.9-4,1.4-6c0.1-0.5,0.3-0.9,0.8-0.9c0.5,0,0.8,0.4,0.8,0.9
		c0.2,2.2,1.1,4.3,1.5,6.5C25.8,23.4,25.1,23.7,23.6,23.6z"/>
</g>
</svg>
