<?xml version="1.0" encoding="utf-8"?>
<!-- Generator: Adobe Illustrator 21.0.0, SVG Export Plug-In . SVG Version: 6.00 Build 0)  -->
<svg version="1.1" id="Calque_1" xmlns="http://www.w3.org/2000/svg" xmlns:xlink="http://www.w3.org/1999/xlink" x="0px" y="0px"
	 viewBox="0 0 83.4 850.4" style="enable-background:new 0 0 83.4 850.4;" xml:space="preserve">
<style type="text/css">
	.st0{fill:#262E48;}
	.st1{fill:#12192B;}
</style>
<g>
	<path class="st0" d="M24,582.4c0-83.8,0-167.6,0-251.3c0-1.9-0.2-2.4-2.2-1.5c-7.6,3.1-13.5-1.6-13.7-11c-0.7-24.4-1-48.7-2.1-73.1
		c-0.5-11.3,0.3-22.6-0.6-33.9c-0.1-1.4-0.4-2.6-1.6-3.4c-3.8-2.4-5.1-9.1-2.1-12.6c2.4-2.7,2.9-5.7,3-9.2
		c0.6-18.9,1.5-37.9,3.3-56.8c1.7-18.7,4.3-37.4,9.2-55.6c5.3-19.7,8.1-39.9,12.1-59.9c0.1-0.3,0.1-0.6,0.2-0.9
		C31,8.9,30.3,3,36.2,1.5C44.6-0.7,53-1.2,60.4,4.7c2.2,1.7,2,4.5,2.8,6.9C70.9,34.2,74.9,57.4,77,81.2c2.8,33.1,1.8,66.2,2.1,99.2
		c0,2.8,0.5,5.4,2,7.8c4.3,7,2.8,12-4.7,15.2c-1.2,0.5-1.7,1.2-1.6,2.4c0,1.1,0,2.2,0,3.2c0,101.2,0,202.4,0,303.6
		c0,17.9-0.1,35.8-0.1,53.7c0,86.5,0.1,173,0.2,259.5c0,4.9,0.6,9.8-0.1,14.7c-0.5,4-2.6,6.2-6.2,7.3c-11.9,3.5-23.8,3.3-35.7,0.3
		c-5.3-1.4-8.8-7.3-8.8-14.7c0-23.8,0-47.6,0-71.4C24,702.1,24,642.2,24,582.4C24,582.4,24,582.4,24,582.4z M64.3,204.9
		c-2.3,0-4.6,0-6.8,0.1c-0.6,0-1.2-0.1-1.2,0.9c0,1.6-0.3,3.1-0.3,4.7c0,144.5,0,289,0,433.5c0,10.3,0,10.3-10.5,10.6
		c-0.1,0-0.3,0-0.4,0c-3.5-0.1-6.2-2.8-6.2-6.3c0-146.2,0-292.4,0-438.6c0-2.9,0.7-5.6-4.1-4.4c-2.1,0.5-2.8,0.7-2.8,2.9
		c0.1,20.3,0,40.5,0,60.8c-1.1-0.1-1.5,0.8-1.4,1.6c0.3,2.6-1.1,5.4,1.4,7.6c-0.3,5.5-0.2,10.9-0.3,16.4c-0.1,4.2,0.2,8.7,0.2,12.9
		C32,470.2,32,632.8,32,795.4c0,0.5,0,1,0,1.5c-0.1,1,0.4,1.4,1.3,1.4c10.6,0.1,21.1,0.1,31.7,0.2c0.8,0,1.6,0.1,1.6-1.1
		c0-1.6,0-3.1,0-4.7c-0.1-26.6-0.2-53.3-0.2-79.9c0-62.5,0.2-125,0.2-187.4c0.1,1.7,0.2,3.4,0.3,5c0,0.5-0.2,1.3,0.6,1.3
		c1,0.1,0.8-0.8,0.8-1.4c0-3.7,0-7.5,0-11.2c0-0.5,0.2-1.3-0.7-1.3c-0.8,0-1.2,0.5-1.2,1.4c0,1.2-0.1,2.3-0.1,3.5
		c0-3-0.1-5.9-0.1-8.9c0-26.2-0.1-52.5,0-78.7c0.1-75.1,0.2-150.3,0.3-225.4c0.8,0.5-0.3,2.2,1,2c1-0.1,0.4-1.5,0.5-2.3
		c0.1-1.3,0-2.6,0-3.9c0-1.1-0.7-1.5-1.6-1.4C65.7,203.9,64.3,203.2,64.3,204.9z M51.2,197.5c7.1,0,14.3,0.3,21.4-0.1
		c3.8-0.2,4.5-2.6,2.5-5.6c-1.4-2-2-4.3-2.1-6.8c-0.2-9.3-0.5-18.6-0.7-27.9c-0.1-6-0.3-11.9-0.3-17.9c0.1-8.5,0.5-16.9,0.6-25.4
		c0.1-11.3-1.9-22.6-2.3-33.9c-0.6-13.1-2.6-26.2-5.8-39c-2.4-9.5-5.3-18.8-7.8-28.3c-0.9-3.4-3-4.9-6.1-5.6
		c-2.6-0.6-5.2-0.2-7.9-0.1c-3.5,0.2-6,1.4-6.2,5.3c-0.4,5.6-2.1,10.9-3.2,16.3c-3.3,15.9-5.3,32-9.9,47.6
		c-2.8,9.4-4.5,19.1-5.5,28.9c-0.6,6.4-2.6,12.6-3,19c-0.7,11-1.5,22.1-2.2,33.1c-0.8,11.4-1.6,22.8-2.2,34.3
		c-0.1,2.7-0.6,5.1-2.5,7.1c-1.2,1.2-1.4,2.5,0,4c2.2,2.4,4.3,5.1,4.3,8.6c-0.1,16.4,0.3,32.7,0.8,49c0.2,4.8-0.5,9.6,0.1,14.3
		c1.5,11,0.8,22,1,33.1c0.1,4.3,0.1,8.6,0.8,12.8c0.3,1.7,1.1,3.1,2.8,3.5c1.5,0.3,2.3-1.1,3-2.2c1.4-2.2,1.6-4.7,2.3-7.1
		c2.2-8.6,1.4-17.3,1.3-26.1c-0.4-25.8-0.1-51.5-0.2-77.3c0-2.6-0.6-4.8-2.5-6.9c-1.6-1.7-1.5-3.7,1.1-4.5c2.2-0.7,4.4-1.2,6.6-1.5
		C36.5,197.3,43.9,198.1,51.2,197.5z M43.4,427.4c0,0,0,220.9,0,220.9c0,0.9-0.4,2,0.7,2.6c2.6,1.3,5.3,0.8,7.7-0.1
		c1.7-0.7,1-2.6,1-3.9c0-145.5,0-291,0-436.5c0-6.5,0-6.4-6.5-6.5c-2.4,0-3.1,0.6-3.1,3.1C43.4,280.4,43.4,353.9,43.4,427.4z
		 M49.6,806.4c-5.5,0-11,0-16.5,0c-1.2,0-2.3,0.1-2.3,1.8c0,8.4-0.3,16.8,0.2,25.2c0.1,2.8-0.3,6.7,3.8,8.1c8.9,3,18.1,2.6,27.2,1.4
		c4.8-0.6,7.4-3.8,7.2-8.5c-0.4-8.7-0.8-17.4-1.1-26.1c-0.1-1.5-0.8-1.9-2.2-1.9C60.5,806.5,55,806.4,49.6,806.4z M66.9,440.2
		c0.6,1.1-0.8,2.9,0.8,3.2c1.2,0.2,0.7-1.5,0.6-2.3c-0.1-1.3,1-3.3-0.8-3.6C66.4,437.3,67.4,439.3,66.9,440.2z"/>
	<path d="M51.2,197.5c-7.3,0.6-14.7-0.2-22,0.7c-2.2,0.3-4.5,0.8-6.6,1.5c-2.7,0.8-2.7,2.9-1.1,4.5c1.9,2,2.5,4.3,2.5,6.9
		c0,25.8-0.3,51.5,0.2,77.3c0.1,8.8,0.9,17.5-1.3,26.1c-0.6,2.4-0.9,5-2.3,7.1c-0.7,1.1-1.4,2.6-3,2.2c-1.7-0.4-2.5-1.8-2.8-3.5
		c-0.7-4.3-0.7-8.5-0.8-12.8c-0.2-11,0.5-22.1-1-33.1c-0.6-4.7,0-9.5-0.1-14.3c-0.5-16.3-0.9-32.7-0.8-49c0-3.5-2.1-6.1-4.3-8.6
		c-1.3-1.5-1.1-2.8,0-4c1.9-2,2.3-4.4,2.5-7.1c0.6-11.4,1.4-22.9,2.2-34.3c0.7-11,1.6-22.1,2.2-33.1c0.4-6.4,2.4-12.6,3-19
		c1-9.8,2.7-19.5,5.5-28.9C28,60.6,30,44.5,33.3,28.6c1.1-5.4,2.8-10.7,3.2-16.3c0.3-3.9,2.7-5.1,6.2-5.3c2.6-0.2,5.3-0.6,7.9,0.1
		c3.1,0.8,5.2,2.2,6.1,5.6c2.5,9.5,5.4,18.8,7.8,28.3c3.2,12.8,5.2,25.8,5.8,39c0.5,11.3,2.4,22.5,2.3,33.9
		c-0.1,8.5-0.5,16.9-0.6,25.4c-0.1,6,0.1,11.9,0.3,17.9c0.2,9.3,0.5,18.6,0.7,27.9c0,2.5,0.7,4.7,2.1,6.8c2,3,1.3,5.4-2.5,5.6
		C65.5,197.8,58.4,197.5,51.2,197.5z"/>
	<path d="M43.4,427.4c0-73.5,0-147-0.1-220.6c0-2.5,0.7-3.1,3.1-3.1c6.5,0.1,6.5,0,6.5,6.5c0,120.9,0,241.8,0,362.7
		c0,0-2.5,0.7-4.8,0.7c-2.3,0-4.7-0.7-4.7-0.7C43.4,524.5,43.4,475.9,43.4,427.4z"/>
	<path d="M49.6,806.4c5.4,0,10.9,0,16.3,0c1.4,0,2.1,0.4,2.2,1.9c0.3,8.7,0.7,17.4,1.1,26.1c0.2,4.7-2.5,7.9-7.2,8.5
		c-9.2,1.1-18.3,1.6-27.2-1.4c-4.1-1.4-3.6-5.3-3.8-8.1c-0.4-8.4-0.2-16.8-0.2-25.2c0-1.7,1-1.8,2.3-1.8
		C38.6,806.4,44.1,806.4,49.6,806.4z"/>
	<path class="st1" d="M66.6,525.3c-0.1-0.9-0.1-1.8-0.2-2.7c0-1.2,0.1-2.3,0.1-3.5c0-0.8,0.4-1.4,1.2-1.4c0.9,0,0.6,0.8,0.7,1.3
		c0,3.7,0,7.5,0,11.2c0,0.6,0.2,1.4-0.8,1.4c-0.8-0.1-0.6-0.8-0.6-1.3C66.9,528.6,66.8,527,66.6,525.3z"/>
	<path class="st1" d="M66.7,209.6c-1.1-1.4-0.9-3.5-2.4-4.7c0.1-1.8,1.4-1,2.2-1.1c0.9,0,1.6,0.4,1.6,1.4c0,1.3,0.1,2.6,0,3.9
		c-0.1,0.8,0.5,2.2-0.5,2.3C66.4,211.8,67.4,210.1,66.7,209.6z"/>
	<path class="st1" d="M31.9,269.2c0,3,0,6.1,0,9.1c-2.5-2.1-1.2-5-1.4-7.6C30.4,269.9,30.8,269.1,31.9,269.2z"/>
	<path class="st1" d="M66.9,440.2c0.5-0.9-0.5-2.8,0.6-2.7c1.8,0.3,0.7,2.3,0.8,3.6c0.1,0.8,0.6,2.5-0.6,2.3
		C66.1,443.1,67.5,441.3,66.9,440.2z"/>
</g>
</svg>
