<?xml version="1.0" encoding="utf-8"?>
<!-- Generator: Adobe Illustrator 21.0.0, SVG Export Plug-In . SVG Version: 6.00 Build 0)  -->
<svg version="1.1" id="Calque_1" xmlns="http://www.w3.org/2000/svg" xmlns:xlink="http://www.w3.org/1999/xlink" x="0px" y="0px"
	 viewBox="0 0 267.3 568" style="enable-background:new 0 0 267.3 568;" xml:space="preserve">
<style type="text/css">
	.st0{display:none;}
	.st1{display:inline;fill:#24292B;}
	.st2{display:inline;fill:#F4F4F4;}
	.st3{display:inline;fill:#FFFFFF;}
	.st4{display:inline;fill:#FDFDFD;}
	.st5{display:inline;fill:#47535A;}
	.st6{display:inline;fill:#D2D7D8;}
	.st7{fill:#24292B;}
	.st8{fill:#FDFDFD;}
	.st9{fill:#F4F4F4;}
	.st10{fill:#47535A;}
</style>
<g id="Calque_1_1_" class="st0">
	<path class="st1" d="M258.6,53.3c0-4.4-0.3-8.7-1.2-13C253.1,21,235.9,6.6,216.2,6.5c-54.9-0.1-109.8,0-164.7,0
		c-5.2,0-10.3,1-15,3.2C18,18.2,9.5,33,9.5,52.9c0,151.1,0,302.3,0,453.4c0,3.8,0,7.7,0,11.5c0.2,22.3,18,43.8,44.1,43.7
		c53.9-0.2,107.8,0,161.8-0.1c5.1,0,10-0.8,14.8-2.7c17.6-6.7,28.3-23.2,28.3-43.3c0-77.3,0-154.5,0-231.8l0,0
		C258.6,206.9,258.6,130.1,258.6,53.3z M25.8,87c-1.9,0.2-2.8,1.3-2.2,3.6c-0.9,1.2-0.7,2.6-0.6,3.9c-0.1-1.3-0.3-2.7,0.6-3.9
		C23,88.3,23.9,87.3,25.8,87z M40,481.5c-1.7,0.3-3.4,0.3-5.1,0.2C36.6,481.9,38.3,481.8,40,481.5c0.8,0.3,1.5,0.3,2.3,0
		C41.6,481.9,40.8,481.9,40,481.5z M237.3,481.6c-1.1,0.1-2.2,0.2-3.3,0.2C235.1,481.8,236.2,481.6,237.3,481.6
		c1.9,0.3,3.8,0.3,5.7,0C241.1,481.9,239.2,481.9,237.3,481.6z"/>
	<path class="st1" d="M258.2,283.8c0,77.3,0,154.5,0,231.8c0,20.1-10.8,36.5-28.3,43.3c-4.8,1.8-9.7,2.7-14.8,2.7
		c-53.9,0-107.8-0.1-161.8,0.1C27.2,561.8,9.4,540.3,9.2,518c0-3.8,0-7.7,0-11.5c0-151.1,0-302.3,0-453.4c0-20,8.5-34.7,26.8-43.3
		c4.7-2.2,9.8-3.2,15-3.2c54.9,0,109.8-0.1,164.7,0c19.7,0,37,14.5,41.2,33.8c1,4.3,1.2,8.7,1.2,13
		C258.2,130.1,258.2,206.9,258.2,283.8L258.2,283.8z M23.2,90.6c-1,1.4-0.6,3-0.6,4.5c0,127.3,0,254.6,0,381.9c0,0.7,0,1.3,0,2
		c-0.1,1.9,0.6,2.9,2.6,2.8c2.5-0.1,5-0.1,7.5-0.2c2.3,0.3,4.6,0.3,6.9,0c0.8,0.3,1.5,0.3,2.3,0c1.1,0.1,2.2,0.2,3.3,0.2
		c62.8,0,125.6,0,188.4,0c1.1,0,2.2-0.1,3.3-0.2c1.9,0.3,3.8,0.3,5.7,0c3.5-0.9,2.2-3.9,2.2-5.9c0.1-127.8,0.1-255.5,0.1-383.3
		c0-5.2-0.2-5.4-5.3-5.4c-68.5,0-137,0-205.5,0c-2.6,0-5.3,0-7.9,0C23.8,87,22.5,88,23.2,90.6z M133.4,543.1
		c11,0.2,19.9-8.9,20.1-20.3c0.2-11.4-8.6-20.9-19.5-21c-11.2-0.1-20.1,9-20.3,20.6C113.6,533.6,122.4,542.9,133.4,543.1z M134.8,67
		c8.3-0.5,18.8,0.6,29.3-0.5c2.8-0.3,4-1.8,4.1-4.2c0.1-2.7-1.6-3.8-4.2-3.9c-3.8-0.1-7.6-0.4-11.4-0.5c-6.1-0.3-12.2,0.5-18.4,0.5
		c-10.1,0.1-20.2,0.1-30.2,0c-1.9,0-3.4,0.5-4.3,2.3c-0.8,1.6-0.4,3,0.6,4.3c1.2,1.7,3,1.9,5,1.9C114.4,67,123.5,67,134.8,67z
		 M140.5,38.8c0-3.8-3.3-7-6.8-6.9c-3.4,0.1-6.5,3.4-6.5,7c0,3.7,3.4,7.1,6.9,6.9C137.5,45.6,140.5,42.4,140.5,38.8z"/>
	<path class="st2" d="M32.7,481.6c-2.5,0.1-5,0.1-7.5,0.2c-2,0.1-2.7-0.9-2.6-2.8c0-0.7,0-1.3,0-2c0-127.3,0-254.6,0-381.9
		c0-1.5-0.4-3.1,0.6-4.4c3.1-0.9,4.7,0.2,5.9,3.3c3,7.7,8.2,14.3,11.7,21.8c2.6,5.7,6.5,10.7,9.3,16.5c3.8,7.9,8.3,15.5,12.9,23
		c5.2,8.3,9.1,17.3,14.7,25.3c5,7.1,7.3,15.5,12.4,22.4c2.3,3,4.1,6.5,5.5,10c1.5,3.7,4.9,6.3,6.1,10c2.5,8,8,14.5,11.8,21.8
		c4.4,8.3,8.9,16.7,14.1,24.6c1.9,2.9,1.8,6.9,3.9,9.2c3.9,4.5,6.6,9.5,8.9,14.7c3,6.9,7.9,12.7,11.1,19.6
		c4.5,9.8,10.9,18.8,15.7,28.5c2.8,5.6,6.6,10.5,9.1,16.3c2.5,5.9,6.2,11.3,9.5,16.8c7.5,12.4,14.4,25.1,21.7,37.6
		c4,6.8,8.1,13.7,11.5,20.9c3.2,6.8,8,12.8,10.8,19.8c2.5,6.2,6.5,11.5,9.6,17.4c2,3.7,4.6,6.9,3.1,11.4c-1.9,0.3-3.8,0.3-5.7,0
		c-0.9-1.2-2.2-0.9-3.3-0.9c-62.8,0-125.5,0-188.3,0c-1.2,0-2.5-0.3-3.3,0.9c-0.8,0.3-1.5,0.3-2.3,0C37.3,480.2,35,480.1,32.7,481.6
		z"/>
	<path class="st3" d="M242.6,481.6c1.4-4.5-1.1-7.6-3.1-11.4c-3.1-5.8-7.2-11.2-9.6-17.4c-2.8-7-7.6-13-10.8-19.8
		c-3.4-7.2-7.5-14-11.5-20.9c-7.3-12.5-14.2-25.2-21.7-37.6c-3.3-5.5-7-10.9-9.5-16.8c-2.5-5.8-6.3-10.7-9.1-16.3
		c-4.9-9.7-11.2-18.7-15.7-28.5c-3.2-6.9-8.1-12.7-11.1-19.6c-2.3-5.3-5-10.3-8.9-14.7c-2.1-2.4-2-6.3-3.9-9.2
		c-5.2-7.9-9.7-16.2-14.1-24.6c-3.9-7.3-9.3-13.7-11.8-21.8c-1.2-3.7-4.6-6.3-6.1-10c-1.4-3.5-3.2-7-5.5-10
		c-5.2-6.9-7.5-15.4-12.4-22.4c-5.6-8-9.5-17-14.7-25.3c-4.6-7.5-9.2-15.1-12.9-23c-2.7-5.8-6.6-10.8-9.3-16.5
		c-3.5-7.5-8.7-14.1-11.7-21.8c-1.2-3.1-2.8-4.2-5.9-3.3c-0.8-2.7,0.5-3.7,3-3.7c2.6,0,5.3,0,7.9,0c68.5,0,137,0,205.5,0
		c5.1,0,5.3,0.2,5.3,5.4c0,127.8,0,255.5-0.1,383.3C244.9,477.7,246.2,480.7,242.6,481.6z"/>
	<path class="st4" d="M133.4,543.1c-11-0.2-19.8-9.5-19.7-20.8c0.2-11.6,9.1-20.7,20.3-20.6c10.9,0.1,19.6,9.6,19.5,21
		C153.3,534.2,144.4,543.2,133.4,543.1z"/>
	<path class="st5" d="M134.8,67c-11.3,0-20.4,0-29.4,0c-1.9,0-3.7-0.3-5-1.9c-1-1.3-1.3-2.7-0.6-4.3c0.9-1.9,2.4-2.3,4.3-2.3
		c10.1,0,20.2,0.1,30.2,0c6.1-0.1,12.2-0.8,18.4-0.5c3.8,0.2,7.6,0.4,11.4,0.5c2.6,0.1,4.3,1.2,4.2,3.9c-0.1,2.4-1.3,3.9-4.1,4.2
		C153.6,67.6,143.1,66.5,134.8,67z"/>
	<path class="st6" d="M140.5,38.8c0,3.6-3,6.9-6.4,7c-3.5,0.1-6.8-3.2-6.9-6.9c0-3.6,3-6.9,6.5-7C137.2,31.7,140.4,35,140.5,38.8z"
		/>
	<path class="st2" d="M41.9,481.6c0.9-1.2,2.2-0.9,3.3-0.9c62.8,0,125.5,0,188.3,0c1.2,0,2.5-0.3,3.3,0.9c-1.1,0.1-2.2,0.2-3.3,0.2
		c-62.8,0-125.6,0-188.4,0C44.1,481.8,43,481.6,41.9,481.6z"/>
	<path class="st2" d="M32.7,481.6c2.3-1.4,4.6-1.4,6.9,0C37.3,481.9,35,481.9,32.7,481.6z"/>
</g>
<g id="Calque_2">
	<path class="st7" d="M214.5,561.7H52.8c-23.9,0-43.5-19.6-43.5-43.5V50.1c0-23.9,19.6-43.5,43.5-43.5h161.7
		c23.9,0,43.5,19.6,43.5,43.5v468.1C258,542.1,238.4,561.7,214.5,561.7z"/>
	<circle class="st8" cx="133.6" cy="523.2" r="19.9"/>
	<g>
		<path class="st9" d="M22.7,87.7c-0.2,0.3-0.4,0.7-0.4,1.1V480c0,1,0.8,1.8,1.8,1.8H243c0.6,0,1.1-0.3,1.4-0.7L22.7,87.7z"/>
	</g>
	<path class="st10" d="M163.5,66.9h-59.8c-2.5,0-4.6-2.1-4.6-4.6l0,0c0-2.5,2.1-4.6,4.6-4.6h59.8c2.5,0,4.6,2.1,4.6,4.6l0,0
		C168.1,64.8,166,66.9,163.5,66.9z"/>
	<circle class="st8" cx="133.6" cy="38.8" r="7"/>
</g>
<path class="st9" d="M243.2,87h-219c-0.6,0-1.2,0.3-1.5,0.7c-0.2,0.3-0.4,0.7-0.4,1.1V480c0,1,0.8,1.8,1.8,1.8H243
	c0.6,0,1.3-0.3,1.6-0.7c0.2-0.3,0.4-0.7,0.4-1.1V88.8C245,87.8,244.2,87,243.2,87z"/>
<path class="st8" d="M244.8,480.4V89.2c0-1-0.8-1.8-1.8-1.8h-219c-0.6,0-1.1,0.3-1.4,0.7l221.8,393.4
	C244.6,481.1,244.8,480.8,244.8,480.4z"/>
</svg>
