<?xml version="1.0" encoding="utf-8"?>
<!-- Generator: Adobe Illustrator 21.0.0, SVG Export Plug-In . SVG Version: 6.00 Build 0)  -->
<svg version="1.1" id="Calque_1" xmlns="http://www.w3.org/2000/svg" xmlns:xlink="http://www.w3.org/1999/xlink" x="0px" y="0px"
	 viewBox="0 0 32 234.3" style="enable-background:new 0 0 32 234.3;" xml:space="preserve">
<style type="text/css">
	.st0{fill:#060A22;}
	.st1{fill:#050510;}
	.st2{fill:#3F9944;}
	.st3{fill:#50B04C;}
	.st4{fill:#1C0710;}
	.st5{fill:#9DD5E0;}
	.st6{fill:#F71934;}
	.st7{fill:#F9C628;}
	.st8{fill:#F4F4F1;}
	.st9{fill:#FFFFFF;}
	.st10{fill:#A70C25;}
	.st11{fill:#469E48;}
	.st12{fill:#050506;}
	.st13{fill:#0E1112;}
	.st14{fill:#5AB456;}
	.st15{fill:#DBDBD7;}
</style>
<g>
	<path class="st0" d="M2.2,153.1c0-25.6,0-51.2,0-76.8c0-1.3,0.1-2.5-1.3-3.3C0,72.5,0,71.3,0,70.3C0,49.6,0,29,0,8.3
		C0,4,2,2.2,6.4,2.1c0.7,0,1.5,0.1,2-0.2c4.1-2.9,8.8-1.7,13.1-1.3C24,0.9,26.7,2,29.3,2.7C30.4,3,31.4,4,31.6,5.5
		C31.7,6.7,32,7.9,32,9c0,20.5,0,41,0,61.5c-2.9,12.9-0.9,26-1.3,39.1c-0.4,13.2-0.1,26.4-0.1,39.7c0,13.1,0,26.3,0,39.4
		c0,13.1,0,26.3,0,39.4c0,5-0.7,5.9-5.7,6c-6.2,0.2-12.5,0.1-18.7,0c-2.8,0-4-1.5-4-4.3C2.2,204.3,2.2,178.7,2.2,153.1z M3.1,5.7
		L3.1,5.7C3,5.8,2.8,6,2.7,6.2C2.3,6.4,2.3,6.7,2.4,7c0,0.8-0.1,1.6-0.1,2.5c0,19.1,0,38.3,0,57.4c0,4.4,0,4.4,4.2,4.3
		c0.3,0,0.6,0,0.9,0c6.7,0,13.3-0.3,20,0.2c1.7,0.1,2.4-0.3,2.4-2.2c-0.1-20-0.1-40.1-0.1-60.1c0-0.8,0.1-1.7-0.2-2.4
		c-0.6-2.2-2.8-1.7-4.3-2.2c-0.9,0.6-0.4,1.5-0.4,2.2c0,13.7,0,27.3,0,41c-0.4,0.3-0.9,0.6-1.3,1c-4.6,0-9.3,0-13.9,0
		c-0.3-0.3-0.6-0.6-0.8-0.9c0-4.1-0.1-8.2-0.1-12.4c0-9.7,0-19.3,0-29C8.5,5.7,9,4.6,8,4.5C6.2,4.3,4.4,4,3.1,5.7z M28.4,84.1
		c0-2.9-0.1-5.9,0-8.8c0.1-1.6-0.5-2-2.1-2c-6.4,0.1-12.8,0.1-19.1,0c-2.2,0-2.8,0.6-2.7,2.7c0.1,28.3,0,56.6,0,84.9
		c0,22.7,0,45.4,0,68c0,3,0,3,3,3c5.9,0,11.9,0,17.8,0c2.7,0,3.1-0.4,3.1-3c0-11,0-22.1,0-33.1c0-8.2,0-16.3,0-24.5
		C28.4,142.3,28.4,113.2,28.4,84.1z M10.8,24.4c0,6.6,0,13.2,0,19.8c0,1.5,0.4,2.2,2,2.1c2.6-0.1,5.3-0.1,7.9,0
		c1.5,0.1,1.9-0.6,1.9-2c0-13.1-0.1-26.2,0-39.4c0-1.8-0.8-2.4-2.4-2.4c-2.2,0-4.4,0.1-6.5,0c-2.1-0.1-2.9,0.5-2.9,2.8
		C10.9,11.7,10.8,18,10.8,24.4z"/>
	<path class="st1" d="M28.4,195.9c0,11,0,22.1,0,33.1c0,2.6-0.4,2.9-3.1,3c-5.9,0-11.9,0-17.8,0c-3,0-3,0-3-3c0-22.7,0-45.4,0-68
		c0-28.3,0-56.6,0-84.9c0-2.2,0.6-2.8,2.7-2.7c6.4,0.1,12.8,0.1,19.1,0c1.5,0,2.1,0.4,2.1,2c-0.1,2.9,0,5.9,0,8.8
		c-0.4,0-0.7,0-0.9,0.4c0,17.9,0,35.8,0,53.6c-0.4,0.8-0.4,1.6,0,2.4c0,1.9,0,3.8,0,5.6c-0.4,2.1-0.3,4.3-0.1,6.4
		c0,1.8-0.1,3.6-0.1,5.3c-0.3,2.7-0.2,5.5-0.1,8.2c0,16.4,0,32.8,0,49.3c0.2,0,0.3,0,0.5,0c0-6.1,0-12.1,0-18.2c0,0,0.1-0.1,0.1-0.1
		c0-0.1-0.1-0.2-0.1-0.3c0-0.3,0-0.6,0-0.9C27.9,195.9,28.1,195.9,28.4,195.9z M23.9,147.6L23.9,147.6c-0.1-0.5-0.5-0.4-0.9-0.4
		c0-0.2-0.1-0.3-0.1-0.5c0.9-1.1,1.9-2,2.5-3.4c1.2-2.9,0-7.6-2.3-8.8c2.5-2.5,3-5.6,2.6-8.9c-0.2-1.5-3.6-3.6-4.1-2.7
		c-0.6,1.4-1.5,0.8-2.3,0.8c-2.3,0.1-4.7,0.1-7,0c-1.5,0-1.8,0.9-1.7,2c0.1,1.1-0.5,2.8,1.3,2.7c2-0.1,2.2,0.8,2.1,2.3
		c0,0.8,0.3,1.6,0.4,2.4c-4.2,1.1-6.1,7.3-3.5,11.3c0.3,0.5,0.9,0.8,0.8,1.5c-2.4,2.7-2.4,7.2-0.1,9.9c0.4,0.4,0.9,0.8,1,1.5
		c-2.5,3-3.6,6.2-1.8,10c-1.2,1-1.2,3.3-0.1,4.1c1,0.7,1.6,4,0.6,4.4c-2.4,1.1-1.3,3-1.5,4.6c-0.1,0.9,0.2,1.3,1.3,1
		c3.2-0.8,6.4-1.9,9.6-2.9c4.2-1.3,4.3-1.3,4.2-5.8c0-1.4,0.3-2.9-1.5-3.5c1.7-0.8,2.5-2.5,1.9-4c-0.1-0.3-0.1-0.7-0.1-1.1
		c-0.2-2.4-0.5-4.8-2.2-6.7c0-0.3,0-0.6,0-0.8c0.6-0.2,1.7,0.5,1.9-0.6c0.1-1,1.4-2.1,0-3.1c0-0.3,0-0.6,0-0.9
		c0.3-1.4,0.7-2.8-0.4-4.1l0,0C24.2,147.9,24.1,147.8,23.9,147.6z M24,212.2c0.2-0.2,0.3-0.3,0.5-0.5l0,0c0.9-1.4,0.3-3,0.4-4.5
		c0-0.2,0-0.3,0-0.5c0-0.4,0-0.9,0-1.3c0-0.3,0-0.6,0-1c0-1.8,0-3.6,0-5.4c0-0.5,0-1-0.1-1.5c0-1.4,0.7-2.9-0.8-4l0,0
		c-0.6-0.6-1.3-0.7-2-0.1l0-0.1c-0.4,0-1.7,2.7-0.9,3.8c0,0.3,0,0.5,0,0.8c-0.8,2,0.6,3.6,1.3,5.6c0,0.7-1.6,1.7-1.6,2.2
		c0,2.2-0.6,5.1,1.2,6.5C22.8,212.6,23.5,212.9,24,212.2L24,212.2z M13.8,212.2c0.2-0.2,0.3-0.3,0.5-0.5l0,0
		c0.9-3.4,0.3-6.9,0.3-10.4c0-1.6,0.1-3.1,0.1-4.7c0-1.1,0.4-2.3-0.9-3c-0.6-0.7-1.4-0.5-2.1-0.2c-0.5,0.2-1,0.5-1.1,1.2
		c-0.1,0.4-0.5,17.3,1.3,17.9C12.7,212.6,13.4,212.9,13.8,212.2L13.8,212.2z M18.9,193.6L18.9,193.6c-0.7-0.6-1.4-0.5-2.1,0
		c-0.3,0-0.6,0.2-0.6,0.5c-0.1,0.1-0.2,0.2-0.2,0.4l0.1,0c-0.4,0.2-0.4,0.6-0.4,1c0,5.1,0.1,10.2,0.1,15.3c1.1,2.2,1.8,2.4,3.6,1.2
		c0.7-0.6,0.4-1.4,0.4-2.1c0-4,0-8.1,0-12.1c0-1.2,0.4-2.5-0.3-3.7l0,0.1C19.3,193.9,19.1,193.7,18.9,193.6z M23,118.4
		c1.3-0.8,1.3-2.7,0-4c-0.7-0.7-1.5-0.6-2.2,0c-0.4,0-0.8,0.1-1.2,0.1c-0.3-0.2-0.6-0.5-0.9-0.5c-4.8-0.7-5.1-0.4-5.2,4.5
		c-0.5,1.4,0.8,1.2,1.4,1.3c1.3,0.1,2.7,0,4.4,0c-0.8-0.4-1.3-0.6-1.7-0.8c0.7-0.2,1.7,0.3,2.2-0.7c0.3,0.5,0.6,0.7,1,0.1
		C21.5,119,22.2,119,23,118.4z M8.2,121.1c0,1.8,0,3.6,0,5.5C8.1,137.9,8,149.3,8,160.6c0,0.1-0.1,0.1-0.1,0.2
		c0,0.1,0.1,0.3,0.1,0.4c0,1.4-0.5,2.8,0.7,4.1c0-10.4,0-20.7,0-31.1c0.2-0.2,0.2-0.4,0-0.6c0.1-2.4,0.2-4.7,0.2-7.1
		c0.3-1.8,0.2-3.7,0.1-5.5c0-12.2,0-24.4,0-36.6C8.7,96.7,8.5,108.9,8.2,121.1z M8.2,180.6c0.3-0.6,0.3-1.3,0-1.9
		c0-3.8,0-7.5,0-11.3c-0.4,16.1-0.6,32.1-0.9,48.2c0.3,0,0.6,0,0.9,0C8.2,204,8.2,192.3,8.2,180.6z M14.9,99.3c1,2.1,2.6,1,4,0.6
		c1.6-2.8,1.1-3.9-2.1-4c-1.3-0.1-1.4-0.8-1.5-1.7c-0.1-1.1,0.7-0.9,1.4-0.9c0.6,0,1.2,0,1.8-0.1c1.7-0.3,1-1.7,1.1-2.7
		c0.1-0.8,0.3-1.7-0.9-1.9c-2.2-0.5-4.5,0.5-5,2.6C13.1,94,12.9,96.8,14.9,99.3z M19.8,104.7c0.1,0,0.1,0.1,0.2,0.1
		c0.1,0,0.1,0,0.2,0c-0.1-1.4,1.1-3-0.8-4c-1.4,0-2.9,0-4.3,0c-1.7-0.1-1.5,1.2-1.4,2.2c0,1-0.7,2.6,1.2,2.5c1.5,0,2,0.7,2,1.8
		c0,1.4-1.2,0.6-1.9,0.7c-1,0.2-1.5,0.7-1.3,1.7c0.2,1.1-0.8,2.6,0.6,3.2c2.9,1.4,5.7-0.6,5.5-3.9c-0.1-0.8-0.1-1.7-0.5-2.4
		C18.6,105.8,19.1,105.3,19.8,104.7z"/>
	<path class="st2" d="M25.2,4.4c1.5,0.6,3.6,0,4.3,2.2c-1.1,0.9-0.2,1.9-0.2,2.8c-0.1,19.6-0.1,39.2,0,58.8c0,1.9-0.6,2.4-2.4,2.4
		c-7.6,0-15.2,0-22.7,0.2c-0.9,0-1-0.3-1-1c0-0.6,0-1.2,0-1.8c0-20.8,0-41.6-0.1-62.4c0,0,0,0.1,0,0.1c0.4-0.1,0.7-0.3,1.1-0.4
		c3.6-0.6,4-0.3,4,3.4c0,12.1,0,24.3,0,36.4c0,0.9-0.3,1.8,0.5,2.5c0.3,0.3,0.6,0.6,0.8,0.9c0.1,0.8,0.7,0.8,1.3,0.8
		c3.7,0,7.5,0,11.2,0c0.6,0,1.2,0,1.4-0.8c0.4-0.3,0.9-0.6,1.3-1c0.8-0.7,0.5-1.5,0.5-2.3C25.2,31.7,25.2,18.1,25.2,4.4z"/>
	<path class="st1" d="M10.8,24.4c0-6.4,0.1-12.7,0-19.1c0-2.2,0.7-2.9,2.9-2.8c2.2,0.2,4.3,0.1,6.5,0c1.6,0,2.4,0.6,2.4,2.4
		c-0.1,13.1,0,26.2,0,39.4c0,1.4-0.4,2-1.9,2c-2.6-0.1-5.3-0.1-7.9,0c-1.6,0.1-2-0.6-2-2.1C10.9,37.6,10.8,31,10.8,24.4z M18.4,29.5
		c0-0.1,0-0.2,0.1-0.3c0.6-0.8,0.7-1.6-0.5-1.8c-1.1-0.2-2.2,0-3.3-0.3c-0.8-0.1-1.3,0.6-1.5,1.3c-0.2,0.7,0.1,1.4,0.9,1.5
		c1.1,0.1,0.9,0.6,0.9,1.5c-0.1,1.5-0.7,3.1,0.5,4.5c0.1,1.3,0.3,2.5,1.9,3.2c-1.3,0-2.1,0.2-2,1.6c0.1,0.6,0.1,1,0.8,1.1
		c1.1,0.2,1.9-0.3,2.3-1.3c0.2-0.5,0.6-1.4,0.3-1.7c-1.2-1.6-0.2-3.3-0.4-4.9c0.3-0.7,0.5-1.4,0.8-2.1c0.3-0.7,0.2-1.2-0.7-1.3
		c-0.1-0.1-0.2-0.2-0.1-0.3C18.4,30,18.4,29.7,18.4,29.5z"/>
	<path class="st3" d="M3.1,5.6c0,20.8,0,41.6,0.1,62.4c0,0.6,0,1.2,0,1.8c0,0.7,0.1,1,1,1c7.6-0.1,15.2-0.2,22.7-0.2
		c1.9,0,2.4-0.5,2.4-2.4c-0.1-19.6-0.1-39.2,0-58.8c0-0.9-0.9-2,0.2-2.8c0.4,0.8,0.2,1.6,0.2,2.4c0,20,0,40.1,0.1,60.1
		c0,2-0.7,2.3-2.4,2.2c-6.7-0.5-13.3-0.2-20-0.2c-0.3,0-0.6,0-0.9,0c-4.2,0.1-4.2,0.1-4.2-4.3c0-19.1,0-38.3,0-57.4
		c0-0.8,0.1-1.6,0.1-2.5c0.1-0.3,0.2-0.6,0.3-0.9C2.8,6,3,5.8,3.1,5.6z"/>
	<path class="st4" d="M28.4,195.9c-0.3,0-0.5,0-0.8,0c0-7.5,0-15,0-22.5c0.3-0.3,0.3-0.7,0-1c0-0.7,0-1.4,0-2.1
		c0.4-0.9,0.3-1.9,0.1-2.8c0-0.4,0-0.8,0-1.2c0.4-2.7,0.3-5.5,0.2-8.2c0.1-24,0.1-47.9,0.2-71.9c0-0.6,0.4-1.4-0.6-1.7
		c0.2-0.4,0.6-0.4,0.9-0.4c0,29.1,0,58.2,0,87.3C28.4,179.5,28.4,187.7,28.4,195.9z"/>
	<path class="st3" d="M8.6,47.7C7.8,47,8.1,46,8.1,45.1c0-12.1,0-24.3,0-36.4c0-3.6-0.4-4-4-3.4C3.8,5.4,3.4,5.6,3.1,5.7
		C4.4,4,6.2,4.3,8,4.5C9,4.6,8.5,5.7,8.5,6.3c0,9.7,0,19.3,0,29C8.6,39.4,8.6,43.5,8.6,47.7z"/>
	<path class="st3" d="M25.2,4.4c0,13.6,0,27.3,0,40.9c0,0.8,0.3,1.7-0.5,2.3c0-13.7,0-27.3,0-41C24.8,5.9,24.3,5,25.2,4.4z"/>
	<path class="st3" d="M23.4,48.6c-0.1,0.8-0.7,0.8-1.4,0.8c-3.7,0-7.5,0-11.2,0c-0.6,0-1.2,0-1.3-0.8C14.1,48.6,18.8,48.6,23.4,48.6
		z"/>
	<path class="st2" d="M2.7,6.2C2.6,6.5,2.5,6.7,2.4,7C2.3,6.7,2.3,6.4,2.7,6.2z"/>
	<path class="st5" d="M23,134.6c2.4,1.2,3.5,5.9,2.3,8.8c-0.6,1.4-1.6,2.3-2.5,3.4c-1,0.5-1.3,1.8-2.6,1.9c-2.2,0.1-4.2-0.4-6.3-0.8
		c-0.8-0.5-1.5-1.1-2.3-1.6c0.2-0.7-0.5-1-0.8-1.5c-2.6-4.1-0.7-10.3,3.5-11.3C17,136.4,19.9,136.9,23,134.6z M17.9,143.8
		c2.1,0,3.8-1.5,3.8-3.2c0-1.7-1.7-3.4-3.2-3.3c-2.1,0.1-3.9,1.5-3.9,3C14.4,142.1,16,143.7,17.9,143.8z"/>
	<path class="st6" d="M23.4,169.4c1.8,0.6,1.5,2.1,1.5,3.5c0,4.6,0,4.5-4.2,5.8c-3.2,1-6.3,2.1-9.6,2.9c-1.1,0.3-1.4,0-1.3-1
		c0.2-1.6-0.9-3.6,1.5-4.6c1-0.5,0.4-3.7-0.6-4.4c-1.1-0.8-1.1-3.1,0.1-4.1c1,2.2,2.4,0.6,3.6,0.4c2.8,0.8,5.5,2.5,8.7,1.4
		C23.2,169.3,23.3,169.4,23.4,169.4z M15.9,175.7c1.6-0.6,3.1-1.1,4.8-1.7c-1-0.3-1.7-0.4-2.4-0.6C15.7,172.7,15.7,172.7,15.9,175.7
		z"/>
	<path class="st6" d="M23,134.6c-3.1,2.2-6,1.8-8.6-1.2c-0.2-0.8-0.5-1.6-0.4-2.4c0.1-1.6-0.2-2.4-2.1-2.3c-1.8,0.1-1.2-1.7-1.3-2.7
		c-0.1-1.2,0.2-2.1,1.7-2c2.3,0,4.7,0.1,7,0c0.8,0,1.7,0.6,2.3-0.8c0.4-0.9,3.9,1.2,4.1,2.7C26,129,25.5,132.1,23,134.6z
		 M19.5,128.7c-0.3,0.5-1.5-0.6-1.4,0.8c0.1,0.8,0.6,1.4,1.4,1.4c0.8-0.1,1.9-0.2,1.9-1.4C21.4,128.4,20.3,128.9,19.5,128.7z"/>
	<path class="st7" d="M23.4,169.4c-0.1-0.1-0.2-0.1-0.3-0.1c0.1-0.7-0.4-0.8-0.9-1c-1.2-0.6-2.5-1-1.2-3c0.9-1.3,0.4-3-1.1-4.1
		c-1.5-1.1-2.9-1-4.3,0.1c-1.4,1.1-1.8,2.6-0.9,4.2c0.6,1,0.5,1.7-0.3,2.5c-1.3,0.2-2.7,1.8-3.6-0.4c-1.7-3.8-0.6-7,1.8-10
		c1.3,0.5,2.7,0.8,4.1,0.3c0.5-0.2,0.9-0.5,1.4-0.7c0.5-0.2,0.8-0.4,0.9-0.9c0.3-0.1,0.6-0.1,0.9-0.2c0.3,0.2,0.6,0.4,1,0.6
		c0.6,0.6,1.4,0.8,2.3,0.9c1.7,1.9,2,4.3,2.2,6.7c0,0.4,0,0.8,0.1,1.1C25.9,166.9,25.1,168.6,23.4,169.4z"/>
	<path class="st2" d="M16.7,157.8c-1.4,0.5-2.7,0.2-4.1-0.3c-0.1-0.7-0.6-1-1-1.5c-2.4-2.7-2.3-7.1,0.1-9.9c0.8,0.5,1.5,1.1,2.3,1.6
		c0.6,1,0.5,2.1,0.1,3.2c-0.2,0.5-0.1,1,0.5,1.3c0.5,0.3,0.9,0.1,1.1-0.4c0.8-1.9,1.8-3.3,4.1-3c0.1,0,0.3-0.3,0.5-0.4
		c1.3,0,1.6-1.4,2.6-1.9c0,0.2,0.1,0.3,0.1,0.5c0.2,0.4,0.6,0.4,1,0.4l0,0c0.2,0.2,0.3,0.3,0.5,0.5l0,0c0.1,1.4-0.4,2.8,0.4,4.1
		c0,0.3,0,0.6,0,0.9c0.2,2.4-1.1,3-3.2,2.7c-0.1,0-0.3,0-0.4-0.1c0.3-1,0.5-2.1,0.8-3.1c0.1-0.7,0.1-1.4-0.6-1.7
		c-0.7-0.3-1,0.2-1.4,0.7c-0.7,1.7-1.4,3.5-2.5,5C17,156.9,16.7,157.3,16.7,157.8z"/>
	<path class="st8" d="M19.8,104.7c-0.6,0.6-1.2,1.1-0.6,2.1c0.4,0.7,0.4,1.6,0.5,2.4c0.2,3.3-2.6,5.3-5.5,3.9
		c-1.3-0.7-0.4-2.1-0.6-3.2c-0.1-1,0.3-1.5,1.3-1.7c0.7-0.2,1.9,0.6,1.9-0.7c0-1.1-0.5-1.9-2-1.8c-1.9,0.1-1.1-1.6-1.2-2.5
		c0-1-0.3-2.3,1.4-2.2c1.4,0.1,2.9,0,4.3,0C20,102.1,19.5,103.4,19.8,104.7z"/>
	<path class="st8" d="M14.9,99.3c-2.1-2.4-1.8-5.3-1.2-8.1c0.5-2.1,2.9-3.1,5-2.6c1.2,0.3,1,1.1,0.9,1.9c-0.1,1,0.6,2.4-1.1,2.7
		c-0.6,0.1-1.2,0.1-1.8,0.1c-0.7,0-1.5-0.2-1.4,0.9c0.1,0.9,0.1,1.7,1.5,1.7c3.2,0.1,3.7,1.2,2.1,4C17.6,99.7,16.1,100.4,14.9,99.3z
		"/>
	<path class="st6" d="M27.5,84.5c1,0.2,0.6,1.1,0.6,1.7c0,24-0.1,47.9-0.2,71.9c-0.2,0-0.5,0-0.7,0c0-1.8,0.1-3.6,0.1-5.3
		c0.5-2.1,0.3-4.3,0.1-6.4c0-1.9,0-3.8,0-5.6c0.2-0.8,0.2-1.6,0-2.4C27.4,120.3,27.5,102.4,27.5,84.5z"/>
	<path class="st6" d="M8.2,180.6c0,11.7,0,23.3,0,35c-0.3,0-0.6,0-0.9,0c0.3-16,0.5-32.1,0.9-48.2c0,3.8,0,7.5,0,11.3
		C8.2,179.4,8.2,180,8.2,180.6z"/>
	<path class="st8" d="M13.4,118.4c0.1-4.9,0.4-5.2,5.2-4.5c0.3,0,0.6,0.4,0.9,0.5c0.1,1.3,0.1,2.5,0.2,3.8c-0.5,1-1.4,0.5-2.2,0.7
		C16.2,118.6,14.7,119.4,13.4,118.4z"/>
	<path class="st6" d="M27.6,173.4c0,7.5,0,15,0,22.5c0,0.3,0,0.6,0,0.9c-0.1,0.1-0.1,0.3,0,0.4c0,6.1,0,12.1,0,18.2
		c-0.2,0-0.3,0-0.5,0c0-16.4,0-32.8,0-49.3c0.2,0,0.4,0.1,0.6,0.1c0,0.4,0,0.8,0,1.2c-0.4,0.9-0.3,1.9-0.1,2.8c0,0.7,0,1.4,0,2.1
		C27.6,172.7,27.6,173.1,27.6,173.4z"/>
	<path class="st6" d="M8,160.6c0.1-11.4,0.1-22.7,0.2-34.1c0.2,0,0.5,0,0.7,0c-0.1,2.4-0.2,4.7-0.2,7.1c0,0.2,0,0.4,0,0.6
		c0,10.4,0,20.7,0,31.1c-1.2-1.3-0.7-2.7-0.7-4.1C8,161,8,160.8,8,160.6z"/>
	<path class="st6" d="M8.2,121.1C8.5,108.9,8.7,96.7,9,84.5c0,12.2,0,24.4,0,36.6C8.7,121.1,8.5,121.1,8.2,121.1z"/>
	<path class="st9" d="M20.8,114.3c0.7-0.6,1.5-0.6,2.2,0c0,1.3,0,2.7,0,4c-0.8,0.6-1.5,0.6-2.2,0C20.8,117,20.8,115.7,20.8,114.3z"
		/>
	<path class="st10" d="M27.7,166.3c-0.2,0-0.4-0.1-0.6-0.1c-0.1-2.7-0.2-5.5,0.1-8.2c0.2,0,0.5,0,0.7,0
		C28,160.8,28.1,163.5,27.7,166.3z"/>
	<path class="st10" d="M8.2,121.1c0.3,0,0.5,0,0.8,0c0.1,1.8,0.2,3.7-0.1,5.5c-0.2,0-0.5,0-0.7,0C8.2,124.7,8.2,122.9,8.2,121.1z"/>
	<path class="st11" d="M21.6,155.8c2.1,0.3,3.4-0.3,3.2-2.7c1.4,1,0.2,2.1,0,3.1c-0.1,1.1-1.2,0.4-1.9,0.6
		C22.6,156.3,21.8,156.4,21.6,155.8z"/>
	<path class="st12" d="M13.4,118.4c1.3,1,2.8,0.1,4.1,0.5c0.4,0.2,0.9,0.4,1.7,0.8c-1.7,0-3.1,0.1-4.4,0
		C14.2,119.6,13,119.8,13.4,118.4z"/>
	<path class="st12" d="M20.8,114.3c0,1.3,0,2.7,0,4c-0.4,0.6-0.7,0.4-1-0.1c-0.1-1.3-0.1-2.5-0.2-3.8
		C20,114.4,20.4,114.4,20.8,114.3z"/>
	<path class="st12" d="M23,118.4c0-1.3,0-2.7,0-4C24.3,115.6,24.3,117.6,23,118.4z"/>
	<path class="st10" d="M27.3,146.2c0.2,2.2,0.4,4.3-0.1,6.4C27,150.5,26.9,148.3,27.3,146.2z"/>
	<path class="st11" d="M24.8,152.2c-0.8-1.3-0.3-2.7-0.4-4.1C25.5,149.4,25.1,150.8,24.8,152.2z"/>
	<path class="st13" d="M21.6,155.8c0.3,0.6,1,0.5,1.4,0.9c0,0.3,0,0.6,0,0.8c-0.8-0.1-1.6-0.3-2.3-0.9c0.2-0.3,0.3-0.6,0.5-0.9
		C21.3,155.8,21.5,155.8,21.6,155.8z"/>
	<path class="st12" d="M19.8,104.7c-0.3-1.3,0.2-2.6-0.4-3.9c1.9,1,0.7,2.6,0.8,4c-0.1,0-0.1,0-0.2,0
		C19.9,104.8,19.8,104.8,19.8,104.7z"/>
	<path class="st12" d="M14.9,99.3c1.2,1.1,2.7,0.4,4,0.6C17.5,100.2,16,101.4,14.9,99.3z"/>
	<path class="st3" d="M24.4,211.7c0.1-1.5-0.4-3.1,0.4-4.5C24.7,208.7,25.3,210.3,24.4,211.7z"/>
	<path class="st10" d="M27.4,138.2c0.2,0.8,0.2,1.6,0,2.4C27,139.8,27.1,139,27.4,138.2z"/>
	<path class="st10" d="M8.2,180.6c0-0.6,0-1.3,0-1.9C8.5,179.4,8.5,180,8.2,180.6z"/>
	<path class="st3" d="M22.1,212.5c0.6-0.5,1.2-0.3,1.9-0.3C23.5,212.9,22.8,212.6,22.1,212.5z"/>
	<path class="st3" d="M24.8,206.7c-0.5-0.4-0.5-0.9,0-1.3C24.8,205.8,24.8,206.3,24.8,206.7z"/>
	<path class="st11" d="M24,147.6c-0.4,0.1-0.8,0-1-0.4C23.4,147.2,23.8,147.1,24,147.6z"/>
	<path class="st3" d="M22,193.5c-0.1,0.5-0.4,0.6-0.9,0.6C21.3,193.7,21.6,193.5,22,193.5z"/>
	<path class="st11" d="M24.4,148.1c-0.2-0.2-0.3-0.3-0.5-0.5C24.1,147.8,24.2,147.9,24.4,148.1z"/>
	<path class="st10" d="M8,160.6c0,0.2,0,0.4-0.1,0.6c0-0.1-0.1-0.3-0.1-0.4C7.9,160.8,7.9,160.7,8,160.6z"/>
	<path class="st4" d="M27.6,197.3c-0.1-0.1-0.1-0.3,0-0.4c0,0.1,0.1,0.2,0.1,0.3C27.7,197.2,27.6,197.2,27.6,197.3z"/>
	<path class="st14" d="M19.4,194.1c-0.2-0.2-0.3-0.3-0.5-0.5C19.1,193.7,19.3,193.9,19.4,194.1z"/>
	<path class="st3" d="M13.8,212.2c0.2-0.2,0.3-0.3,0.5-0.5C14.2,211.9,14,212,13.8,212.2z"/>
	<path class="st3" d="M24,212.2c0.2-0.2,0.3-0.3,0.5-0.5C24.3,211.9,24.1,212,24,212.2z"/>
	<path class="st3" d="M16.2,194.1c0,0.1,0,0.2,0,0.3c0,0-0.1,0-0.2,0C16,194.4,16.1,194.2,16.2,194.1z"/>
	<path class="st10" d="M8.6,134.2c0-0.2,0-0.4,0-0.6C8.9,133.8,8.9,134,8.6,134.2z"/>
	<path class="st15" d="M18.4,30.2c0,0.1,0,0.2,0.1,0.3c-0.2,0.6,0.5,1.5-0.6,1.9c-0.5,0.1-1.4-0.3-1.1,0.7c0.2,0.9,0.9,0.8,1.6,0.7
		c0.1,1.6-0.9,3.3,0.4,4.9c0.2,0.3-0.1,1.2-0.3,1.7c-0.4,1-1.2,1.5-2.3,1.3c-0.7-0.1-0.7-0.6-0.8-1.1c-0.1-1.4,0.7-1.6,2-1.6
		c-1.6-0.7-1.8-1.9-1.9-3.2c-0.6-1.1,0.5-1.9,0.4-2.9C15.5,30.5,15.7,30.2,18.4,30.2z"/>
	<path class="st12" d="M18.4,30.2c-2.7,0-3,0.3-2.6,2.8c0.1,1-0.9,1.9-0.4,2.9c-1.2-1.4-0.5-3-0.5-4.5c0-0.9,0.2-1.4-0.9-1.5
		c-0.8-0.1-1.1-0.7-0.9-1.5c0.2-0.7,0.7-1.5,1.5-1.3c1.1,0.2,2.2,0.1,3.3,0.3c1.2,0.2,1.1,0.9,0.5,1.8c0.2-1.4-0.7-1.5-1.8-1.5
		c-0.8,0-1.1,0.3-1,1c0.1,1.5,1.2,0.7,1.9,0.8c0.3,0.1,0.6,0,0.9-0.1C18.4,29.7,18.4,30,18.4,30.2z"/>
	<path class="st8" d="M18.4,29.5c-0.3,0-0.6,0.2-0.9,0.1c-0.7-0.2-1.8,0.6-1.9-0.8c0-0.7,0.3-1,1-1c1.1,0,2,0,1.8,1.5
		C18.4,29.2,18.4,29.4,18.4,29.5z"/>
	<path class="st12" d="M18.4,33.8c-0.7,0.1-1.4,0.1-1.6-0.7c-0.2-1.1,0.7-0.6,1.1-0.7c1-0.3,0.3-1.3,0.6-1.9
		c0.8,0.1,0.9,0.6,0.7,1.3C18.9,32.5,18.7,33.1,18.4,33.8z"/>
	<path class="st10" d="M27.6,170.3c-0.2-0.9-0.3-1.9,0.1-2.8C27.9,168.4,28,169.4,27.6,170.3z"/>
	<path class="st10" d="M27.6,173.4c0-0.3,0-0.7,0-1C27.9,172.7,27.8,173.1,27.6,173.4z"/>
	<path class="st1" d="M17.9,143.8c-1.9,0-3.5-1.7-3.4-3.5c0.1-1.6,1.9-3,3.9-3c1.6,0,3.2,1.6,3.2,3.3
		C21.6,142.3,19.9,143.8,17.9,143.8z"/>
	<path class="st13" d="M20.3,148.6c-0.2,0.1-0.3,0.4-0.5,0.4c-2.3-0.3-3.4,1.1-4.1,3c-0.2,0.4-0.6,0.6-1.1,0.4
		c-0.6-0.3-0.7-0.8-0.5-1.3c0.4-1.1,0.5-2.1-0.1-3.2C16,148.3,18.1,148.8,20.3,148.6z"/>
	<path class="st1" d="M14.4,167.9c0.7-0.8,0.9-1.4,0.3-2.5c-0.9-1.5-0.5-3.1,0.9-4.2c1.4-1.1,2.8-1.2,4.3-0.1c1.5,1.1,2,2.8,1.1,4.1
		c-1.3,2,0,2.3,1.2,3c0.5,0.2,1,0.3,0.9,1C19.9,170.4,17.2,168.7,14.4,167.9z"/>
	<path class="st4" d="M15.9,175.7c-0.2-3-0.2-3,2.3-2.3c0.7,0.2,1.4,0.4,2.4,0.6C19,174.6,17.6,175.1,15.9,175.7z"/>
	<path class="st1" d="M19.5,128.7c0.8,0.2,1.9-0.3,1.9,0.8c0,1.2-1.1,1.3-1.9,1.4c-0.8,0.1-1.4-0.6-1.4-1.4
		C18,128.1,19.2,129.2,19.5,128.7z"/>
	<path class="st1" d="M21.2,155.7c-0.2,0.3-0.3,0.6-0.5,0.9c-0.3-0.2-0.6-0.4-1-0.6c-0.4-0.3-0.7-0.3-0.9,0.2
		c-0.1,0.5-0.4,0.8-0.9,0.9c-0.2-0.2-0.3-0.3-0.5-0.5c1.1-1.5,1.8-3.3,2.5-5c0.8-0.1,1.2,0.9,1.9,1
		C21.7,153.7,21.5,154.7,21.2,155.7z"/>
	<path class="st13" d="M17.5,156.7c0.2,0.2,0.3,0.3,0.5,0.5c-0.5,0.2-0.9,0.5-1.4,0.7C16.7,157.3,17,156.9,17.5,156.7z"/>
	<path class="st13" d="M18.9,156.2c0.2-0.5,0.5-0.5,0.9-0.2C19.5,156.1,19.2,156.2,18.9,156.2z"/>
	<path class="st13" d="M22,152.7c-0.8-0.1-1.1-1.1-1.9-1c0.3-0.5,0.7-1,1.4-0.7C22.1,151.3,22.1,152,22,152.7z"/>
	<path class="st1" d="M9.5,203.1c0.1,0,0.1,0.1,0.2,0.1C9.6,203.2,9.5,203.2,9.5,203.1L9.5,203.1z"/>
	<g>
		<path class="st3" d="M24.4,211.7C24.4,211.7,24.4,211.7,24.4,211.7C24.4,211.7,24.4,211.7,24.4,211.7L24.4,211.7z"/>
		<path class="st3" d="M24.8,204.4c-0.3-0.3-0.6-0.6-0.9-0.9h0c0-0.4,0.2-0.9,0-1.2c0.2,0.4,0,0.8,0,1.2
			C24.2,203.9,24.5,204.2,24.8,204.4c0-1.8,0-3.6,0-5.4c0-0.5,0-1-0.1-1.5l0,0c0-1.4,0.7-2.9-0.8-4c0,0,0,0,0,0
			c-0.6-0.6-1.3-0.7-2,0c0,0,0-0.1,0-0.1c-0.1,0.5-0.4,0.6-0.9,0.6c-0.7,1.1-0.2,11.3-0.2,11.9c0,2.2-1.5,4.8,1.2,6.5
			c0.5-0.5,1.2-0.3,1.9-0.3c0.1-0.2,0.3-0.3,0.4-0.5c0.1-1.5-0.4-3.1,0.4-4.5c0-0.2,0-0.3,0-0.5c-0.5-0.4-0.5-0.9,0-1.3
			C24.8,205.1,24.8,204.8,24.8,204.4z M23.8,202.2c0.1,0,0.1,0.1,0.1,0.1C23.9,202.3,23.8,202.2,23.8,202.2z M23.5,202
			C23.5,202,23.5,201.9,23.5,202C23.5,201.9,23.5,202,23.5,202C23.5,202,23.5,202,23.5,202z M23.7,202.1c-0.1,0-0.1-0.1-0.2-0.1
			C23.6,202.1,23.7,202.1,23.7,202.1z M23.6,201.7C23.6,201.7,23.6,201.7,23.6,201.7C23.6,201.7,23.6,201.7,23.6,201.7z M24.4,200.1
			c0,0,0-0.1,0-0.1C24.4,200,24.4,200,24.4,200.1z M24.2,200.7C24.2,200.6,24.2,200.6,24.2,200.7C24.2,200.6,24.2,200.6,24.2,200.7z
			 M24.3,200.4C24.3,200.4,24.4,200.3,24.3,200.4C24.4,200.3,24.3,200.4,24.3,200.4z M24,193.6c0,0.9,0,1.8,0,2.7
			C23.9,195.4,24,194.5,24,193.6c-0.6,0-1.2,0-1.8-0.1C22.8,193.6,23.4,193.6,24,193.6z M22.1,199.4c0.2-0.3,0.5-0.6,0.7-0.9
			C22.7,198.8,22.3,199.1,22.1,199.4c0.7,0.1,1.5,0.2,2.2,0.2C23.6,199.5,22.9,199.5,22.1,199.4z M23.4,202L23.4,202
			c-0.1,0-0.2-0.1-0.4-0.1C23.2,201.9,23.3,202,23.4,202z M23.3,203.6c0.2,0,0.4,0,0.5,0C23.7,203.6,23.5,203.6,23.3,203.6z"/>
		<path class="st3" d="M24,212.2C24,212.2,24,212.2,24,212.2C24,212.2,24,212.2,24,212.2L24,212.2z"/>
		<path class="st3" d="M24,193.6C24,193.6,24,193.6,24,193.6C24,193.6,24,193.6,24,193.6C24,193.6,24,193.6,24,193.6z"/>
	</g>
	<g>
		<path class="st14" d="M13.9,212.2C13.9,212.2,13.9,212.2,13.9,212.2C13.9,212.2,13.8,212.2,13.9,212.2L13.9,212.2z"/>
		<path class="st14" d="M14.6,201.3c0-1.6,0.1-3.1,0.1-4.7c0-1.1,0.4-2.3-0.9-3c-0.6-0.7-1.4-0.5-2.1-0.2c0,0,0,0,0,0
			c-0.5,0.2-1,0.5-1.1,1.2c-0.1,0.4-0.2,0.9-0.2,1.3c0,2.1,0,4.2,0,6.3c0,0.3,0,0.6,0,0.9c0.1,0.7,0.1,1.5,0.2,2.2
			c0.1,0.8-0.1,3.2-0.2,3.7c0.2,1.3-0.3,2.9,1.6,3.5c0.1-0.1,0.1-0.1,0.2-0.2c-0.1,0-0.1,0.1-0.2,0.2c0.7,0.2,1.3,0.4,1.9-0.3
			c-0.3,0-0.6-0.1-0.9,0c0.3,0,0.6,0,0.9,0c0.1-0.2,0.3-0.3,0.4-0.5c0,0,0,0,0,0v0c0,0,0,0,0,0c0,0,0,0,0,0
			C15.2,208.3,14.6,204.8,14.6,201.3z M11.1,200c0,0,0-0.1,0-0.1C11.1,199.9,11.1,199.9,11.1,200c0.2,0,0.3,0,0.5,0
			C11.4,200,11.2,200,11.1,200z M13.4,203.6L13.4,203.6c-0.2,0-0.3,0-0.5,0C13.1,203.6,13.2,203.6,13.4,203.6z M12.4,212.2
			c-0.1,0-0.1,0.1-0.2,0.1C12.3,212.3,12.4,212.2,12.4,212.2z M12.7,212.2c-0.1,0-0.1,0-0.2,0C12.6,212.2,12.6,212.2,12.7,212.2z
			 M12.7,212.1c0.1,0,0.1,0,0.2,0C12.8,212.1,12.8,212.1,12.7,212.1z M13.8,202.6L13.8,202.6c0.2,0.2,0.3,0.3,0.3,0.4
			C14.1,202.9,14,202.8,13.8,202.6z M14.1,201.2L14.1,201.2L14.1,201.2L14.1,201.2C14.2,201.2,14.1,201.2,14.1,201.2z"/>
	</g>
	<g>
		<path class="st14" d="M18.9,193.6C18.9,193.6,18.9,193.6,18.9,193.6C18.9,193.6,18.9,193.6,18.9,193.6L18.9,193.6z"/>
		<path class="st14" d="M19.8,197.7c0-1.2,0.4-2.5-0.3-3.7l0,0.1c-0.2-0.2-0.3-0.3-0.5-0.5c0,0,0,0,0,0c-0.7-0.7-1.4-0.6-2.1,0
			c0,0,0.1,0,0.1,0c0,0-0.1,0-0.1,0c-0.3,0-0.6,0.2-0.6,0.5c0,0.1,0,0.2,0,0.3c0,0-0.1,0-0.2,0c0,0,0,0,0,0c0,0-0.1,0-0.1,0
			c0,0,0,0,0,0c-0.4,0.2-0.4,0.6-0.4,1c0,5.1,0.1,10.2,0.1,15.3c1.1,2.2,1.8,2.4,3.6,1.2c0.7-0.6,0.4-1.4,0.4-2.1
			C19.8,205.8,19.8,201.7,19.8,197.7z M16.8,201.4c-0.1,0-0.2,0.2,0,0.4c0,0.3,0,0.6-0.1,0.8c-0.2,0-0.4,0-0.6-0.1
			c0.2,0,0.4,0,0.6,0.1c0-0.3,0-0.6,0.1-0.8C16.7,201.6,16.7,201.5,16.8,201.4z M17.8,202.6c0.2-0.1,0.4-0.2,0.6-0.4
			c0.4-0.6,0.5-1.1,0.5-1.4c0,0.4-0.1,0.8-0.5,1.4C18.2,202.5,18.1,202.6,17.8,202.6c-0.1,0-0.3,0-0.4,0
			C17.6,202.7,17.7,202.7,17.8,202.6z M19,203.7C19,203.7,19,203.7,19,203.7C19,203.7,19,203.7,19,203.7L19,203.7z M16.6,200
			c0.1,0,0.3,0,0.4,0C16.9,200,16.7,200,16.6,200c-0.1-0.2-0.1-0.3-0.2-0.5C16.5,199.7,16.5,199.8,16.6,200z M17,204.4
			c0.2,0,0.3,0.1,0.5,0.1c0.4,0,0.7,0.1,1,0c-0.3,0.1-0.7,0.1-1,0l0,0C17.3,204.4,17.2,204.4,17,204.4L17,204.4z"/>
	</g>
</g>
</svg>
