<?xml version="1.0" encoding="utf-8"?>
<!-- Generator: Adobe Illustrator 21.0.0, SVG Export Plug-In . SVG Version: 6.00 Build 0)  -->
<svg version="1.1" id="Calque_1" xmlns="http://www.w3.org/2000/svg" xmlns:xlink="http://www.w3.org/1999/xlink" x="0px" y="0px"
	 viewBox="0 0 575.5 271.3" style="enable-background:new 0 0 575.5 271.3;" xml:space="preserve">
<style type="text/css">
	.st0{fill:#EDF1F2;}
	.st1{stroke:#000000;stroke-width:5;stroke-miterlimit:10;}
	.st2{fill:#BF3E2F;}
	.st3{fill:#E88A36;}
	.st4{fill:#EBC119;}
	.st5{fill:#4BB86F;}
	.st6{fill:#3A95CF;}
	.st7{fill:#2576A9;}
	.st8{fill:#915EA5;}
</style>
<g>
	<path class="st0" d="M404.9,264.4c-22.9,0-41.6-18.7-41.6-41.6c0-11.3,4.6-22.1,12.8-29.9c-17.9-31.5-51.3-50.9-87.6-50.9
		s-69.6,19.4-87.6,50.9c8.1,7.8,12.8,18.6,12.8,29.9c0,22.9-18.7,41.6-41.6,41.6c-1.8,0-3.7-0.1-5.9-0.5H48.4
		c-22.9,0-41.6-18.7-41.6-41.6s18.7-41.6,41.6-41.6c0.4,0,0.8,0,1.2,0c0.3-21,12.8-39.6,32.2-47.7C122.5,56.3,201.6,8.6,288.5,8.6
		S454.6,56.3,495.3,133c19.4,8.1,31.9,26.6,32.2,47.7c0.4,0,0.8,0,1.2,0c22.9,0,41.6,18.7,41.6,41.6s-18.7,41.6-41.6,41.6H410.9
		C408.7,264.2,406.8,264.4,404.9,264.4z"/>
	<path class="st1" d="M288.5,11.6c88.9,0,166,50.2,204.7,123.8c18.3,7.2,31.3,25.1,31.3,46c0,0.9,0,1.7-0.1,2.5
		c1.4-0.2,2.8-0.2,4.2-0.2c21.3,0,38.6,17.3,38.6,38.6s-17.3,38.6-38.6,38.6h-118c-1.9,0.3-3.8,0.5-5.7,0.5
		c-21.3,0-38.6-17.3-38.6-38.6c0-11.7,5.3-22.3,13.5-29.3C362.3,161,327.9,139,288.5,139c-39.5,0-73.8,22.1-91.3,54.5
		c8.3,7.1,13.5,17.6,13.5,29.3c0,21.3-17.3,38.6-38.6,38.6c-1.9,0-3.8-0.2-5.7-0.5h-118c-21.3,0-38.6-17.3-38.6-38.6
		s17.3-38.6,38.6-38.6c1.4,0,2.8,0.1,4.2,0.2c0-0.8-0.1-1.7-0.1-2.5c0-20.9,13-38.8,31.3-46C122.5,61.8,199.6,11.6,288.5,11.6
		 M288.5,5.6c-44,0-87,12.2-124.3,35.2c-35.6,22-64.9,53.1-84.6,89.9c-9.3,4.1-17.3,10.7-23.2,19.1c-5.7,8.3-9.1,17.8-9.7,27.9
		c-23.8,0.9-42.9,20.6-42.9,44.6c0,24.6,20,44.6,44.6,44.6H166c2.3,0.3,4.2,0.5,6.2,0.5c24.6,0,44.6-20,44.6-44.6
		c0-11.4-4.3-22.2-12-30.4c17.6-29.4,49.3-47.4,83.8-47.4s66.2,18.1,83.8,47.4c-7.7,8.2-12,19.1-12,30.4c0,24.6,20,44.6,44.6,44.6
		c1.9,0,3.9-0.1,6.2-0.5h117.6c24.6,0,44.6-20,44.6-44.6c0-24-19.1-43.7-42.9-44.6c-0.7-10-4-19.6-9.7-27.9
		c-5.9-8.4-13.8-15-23.2-19.1c-19.8-36.8-49-67.9-84.6-89.9C375.6,17.8,332.6,5.6,288.5,5.6L288.5,5.6z"/>
</g>
<g>
	<path class="st2" d="M288.5,11.5c-127.6,0-231,103.4-231,231h19c0-117.1,94.9-212.1,212.1-212.1s212.1,94.9,212.1,212.1h19
		C519.6,114.9,416.1,11.5,288.5,11.5z"/>
	<path class="st3" d="M288.5,49.7c106.5,0,192.9,86.3,192.9,192.9h19.2c0-117.1-94.9-212.1-212.1-212.1s-212,94.9-212,212h19.2
		C95.7,136,182,49.7,288.5,49.7z"/>
	<path class="st4" d="M288.5,49.7C182,49.7,95.7,136,95.7,242.5h18.4c0-96.3,78.1-174.4,174.4-174.4S463,146.2,463,242.5h18.4
		C481.4,136,395.1,49.7,288.5,49.7z"/>
	<path class="st5" d="M288.5,86.1c86.4,0,156.4,70,156.4,156.4H463c0-96.3-78.1-174.4-174.4-174.4s-174.4,78.1-174.4,174.4h18.1
		C132.1,156.2,202.2,86.1,288.5,86.1z"/>
	<path class="st6" d="M288.5,86.1c-86.4,0-156.4,70-156.4,156.4h18.6c0-76.1,61.7-137.8,137.8-137.8s137.8,61.7,137.8,137.8h18.6
		C444.9,156.2,374.9,86.1,288.5,86.1z"/>
	<path class="st7" d="M288.5,122.1c66.5,0,120.4,53.9,120.4,120.4h17.4c0-76.1-61.7-137.8-137.8-137.8s-137.8,61.7-137.8,137.8h17.4
		C168.2,176,222.1,122.1,288.5,122.1z"/>
	<path class="st8" d="M288.5,122.1c-66.5,0-120.4,53.9-120.4,120.4h16.7c0-57.3,46.4-103.7,103.7-103.7s103.7,46.4,103.7,103.7h16.7
		C408.9,176,355,122.1,288.5,122.1z"/>
</g>
<g>
	<path class="st0" d="M528.7,183.6c-1.4,0-2.8,0.1-4.2,0.2c0-0.8,0.1-1.7,0.1-2.5c0-27.3-22.1-49.4-49.4-49.4
		c-19.6,0-36.6,11.5-44.6,28.1c-3.3-1.7-7-2.7-11-2.7c-13.3,0-24,10.8-24,24c0,1.3,0.1,2.6,0.3,3.9c-16.9,4.1-29.5,19.3-29.5,37.5
		c0,21.3,17.3,38.6,38.6,38.6c1.9,0,3.8-0.2,5.7-0.5h118c21.3,0,38.6-17.3,38.6-38.6C567.3,200.9,550,183.6,528.7,183.6z"/>
	<path class="st0" d="M48.4,183.6c1.4,0,2.8,0.1,4.2,0.2c0-0.8-0.1-1.7-0.1-2.5c0-27.3,22.1-49.4,49.4-49.4
		c19.6,0,36.6,11.5,44.6,28.1c3.3-1.7,7-2.7,11-2.7c13.3,0,24,10.8,24,24c0,1.3-0.1,2.6-0.3,3.9c16.9,4.1,29.5,19.3,29.5,37.5
		c0,21.3-17.3,38.6-38.6,38.6c-1.9,0-3.8-0.2-5.7-0.5h-118c-21.3,0-38.6-17.3-38.6-38.6C9.8,200.9,27.1,183.6,48.4,183.6z"/>
</g>
</svg>
