<?xml version="1.0" encoding="utf-8"?>
<!-- Generator: Adobe Illustrator 21.0.0, SVG Export Plug-In . SVG Version: 6.00 Build 0)  -->
<svg version="1.1" id="Calque_1" xmlns="http://www.w3.org/2000/svg" xmlns:xlink="http://www.w3.org/1999/xlink" x="0px" y="0px"
	 viewBox="0 0 608.8 608.8" style="enable-background:new 0 0 608.8 608.8;" xml:space="preserve">
<style type="text/css">
	.st0{fill:#444443;stroke:#444443;stroke-width:5;stroke-miterlimit:10;}
	.st1{fill:#989897;}
	.st2{fill:#444443;}
	.st3{fill:#EED489;}
	.st4{fill:#CC6868;}
	.st5{fill:#EA7A7A;}
	.st6{fill:none;stroke:#444443;stroke-width:8;stroke-miterlimit:10;}
</style>
<g>
	<path class="st0" d="M304.3,580.6c-65.7,0-131.3,0.3-197-0.1c-32.8-0.2-56.8-15.7-71.6-44.9c-5.4-10.6-7.6-22.1-7.5-34.1
		c0-131.4,0.1-262.8-0.1-394.2C28,69.9,53.8,38,89.3,29.9c5.7-1.3,11.5-1.9,17.3-1.9c131.8,0,263.6,0,395.5,0
		c37.8,0,69.6,26.1,77.1,63.2c1,5.2,1.5,10.4,1.5,15.6c0,131.6,0,263.1,0,394.7c0,39-27.6,71.5-65.9,77.9c-4.8,0.8-9.6,1-14.4,1
		C435,580.6,369.6,580.6,304.3,580.6z M304.1,571.2c65.8,0,131.7,0,197.5,0c5,0,9.9-0.5,14.9-1.5c30.7-5.9,54.8-35.1,54.8-66.3
		c0-131.3,0-262.6,0-394c0-3.5,0-7-0.4-10.5c-1.7-15.3-7.7-28.5-18.2-39.7c-14.1-15-31.7-22.1-52.2-22.1c-129.5,0-259,0-388.5,0
		c-3.5,0-7,0.1-10.5,0.3C84.6,38.6,70.1,45.2,58.1,57C44,70.9,37.2,88,37.2,107.7c0,131.1,0,262.1,0,393.2
		c0,15.6,4.3,29.9,13.8,42.4c13.6,17.8,31.7,27.6,54.2,27.7C171.7,571.3,237.9,571.2,304.1,571.2z"/>
	<path class="st1" d="M304.1,571.2c-66.2,0-132.5,0.2-198.7-0.1c-22.5-0.1-40.6-9.9-54.2-27.7C41.6,531,37.3,516.7,37.3,501
		c0-131.1,0-262.1,0-393.2c0-19.8,6.7-36.9,20.9-50.7c12-11.8,26.5-18.4,43.4-19.6c3.5-0.2,7-0.3,10.5-0.3c129.5,0,259,0,388.5,0
		c20.5,0,38.1,7.1,52.2,22.1C563.2,70.4,569.3,83.7,571,99c0.4,3.5,0.4,7,0.4,10.5c0,131.3,0,262.6,0,394
		c0,31.2-24.1,60.4-54.8,66.3c-4.9,0.9-9.8,1.5-14.9,1.5C435.8,571.2,370,571.2,304.1,571.2z M304.2,506.7
		c111.2,0.1,202.5-90.1,202.6-202.3c0.1-110.9-89.3-201.8-201.1-202.5c-112.6-0.7-203,90-203.7,201.2
		C101.3,415.9,192.7,506.6,304.2,506.7z"/>
	<path class="st2" d="M304.2,506.7c-111.5-0.1-202.9-90.8-202.3-203.6c0.6-111.2,91.1-201.8,203.7-201.2
		c111.8,0.7,201.2,91.6,201.1,202.5C506.7,416.6,415.4,506.8,304.2,506.7z M304.6,497.3c106.7-0.1,192.8-86.6,192.9-193.3
		c0.1-105.8-86.9-194.2-195.6-192.8c-105.7,1.3-192.7,88.9-190.5,197.2C113.4,412.9,199.5,497.7,304.6,497.3z"/>
	<path class="st3" d="M304.6,497.3c-105,0.4-191.1-84.4-193.3-188.9c-2.2-108.4,84.8-195.9,190.5-197.2
		c108.8-1.3,195.7,87,195.6,192.8C497.4,410.7,411.2,497.2,304.6,497.3z M373.6,149.5c-0.1-0.1-0.2-0.3-0.3-0.4
		c0.1-2.4-2.1-2-3.3-2.6c-1.2-0.6-1.2,1.1-1.5,1.8c-2.5,5.3-4.8,10.6-7.3,15.9c-0.7,1.6-0.6,2.3,1,2.9c1.6,0.6,2.6,1.1,3.4-1.1
		c1.2-3.3,2.9-6.6,4.4-9.8c1.3-2.9,4.4-3.9,6.2-1.9c1.9,2.1,3.3,0.7,4.9,0c1.3-0.5,1.1-1.2,0.4-2.1
		C379.3,149.7,376.7,148.9,373.6,149.5z M304.4,445.5c78.4-0.2,140.1-63.7,141.1-139.3c1-77-60.6-141.1-137.6-143
		c-79.6-1.9-143.4,61.9-144.7,138.6C161.9,379.4,224.4,445.3,304.4,445.5z M227.9,174.2c4.5,0,8.5-1.6,11.9-4.5
		c3-2.6,3.8-5.8,2.4-9.4c-1.4-3.7-4.2-5.6-8.2-5.7c-2.7-0.1-5,1.2-7.4,1.9c-2.7,0.7-4.6,0-5.4-2.1c-0.7-2,0.1-3.9,2.4-5.2
		c2-1.1,4.2-1.6,6.5-1.6c3.1,0,1.7-2.5,2.1-3.9c0.4-1.5-1.2-0.9-1.9-1c-3.4-0.3-6.6,0.8-9.5,2.5c-4.3,2.6-5.8,7-3.9,11.3
		c1.9,4.3,6,6.1,10.8,4.7c1.8-0.5,3.5-1.2,5.2-1.6c1.9-0.5,3.6-0.1,4.6,1.9c1,2.1,0.2,3.7-1.5,5c-2.6,2-5.6,3.1-8.9,2.7
		c-3.1-0.4-2.7,1.9-3,3.4c-0.4,2.1,1.6,1.2,2.6,1.5C227,174.3,227.4,174.2,227.9,174.2z M380.8,433.6c-3.9-0.1-7.3,1.2-10.5,3.5
		c-4.3,3.1-5.4,6.9-3.3,11.3c2,4.2,6.2,5.9,11.2,4.5c1.9-0.6,3.7-1.5,5.7-1.6c1.5-0.1,2.8,0.4,3.5,1.8c0.8,1.6,0.6,3.1-0.5,4.4
		c-0.8,0.9-1.8,1.5-2.9,1.9c-1.8,0.7-3.7,1-5.6,1c-2.3,0-1.3,1.9-1.5,3c-0.2,1-0.2,2,1.4,2c4.6,0.1,8.7-1.1,12.1-4.3
		c2.6-2.5,3.3-6.1,1.8-9.4c-1.5-3.5-4.2-5.3-7.9-5.3c-2.7,0-5.1,1.3-7.7,2c-1.9,0.5-3.8,0.6-5-1.6c-1-2-0.5-3.9,1.6-5.4
		c2.5-1.8,5.3-2.7,8.4-2.5c2.3,0.1,3.1-0.8,3.2-3.4c0-2.2-1.8-1.1-2.8-1.5C381.7,433.5,381.2,433.6,380.8,433.6z M221.1,428.7
		c-3.6,0-3.6,0.2-2.4,3.4c0.6,1.5,1.5,1,2.4,1c3.7,0.1,6.4,3,5.6,6.1c-0.3,1.1-0.7,1.8-2,0.9c-1.9-1.3-4-2.4-5.9-3.7
		c-4.7-2.9-5.2-2.7-7.2,2.6c-1.4,3.7-0.2,7.5,3,10c3.1,2.4,6.9,2.6,10.2,0.5c2.8-1.8,4.5-4.5,5.7-7.4
		C233.1,435.3,228.5,428.7,221.1,428.7z M387.7,179.2c3.3,0,3.6-0.6,2.3-3.6c-0.6-1.4-1.7-0.8-2.5-0.8c-3.6-0.2-6.2-3-5.4-6
		c0.3-1.3,0.8-1.9,2.2-0.9c1.9,1.3,3.9,2.5,5.9,3.7c4.5,2.8,4.9,2.6,6.9-2.3c1.5-3.7,0.5-7.6-2.5-10.1c-3.3-2.7-7.1-3-10.6-0.7
		c-2.6,1.7-4.2,4.2-5.4,7C375.5,172.2,380.2,179.2,387.7,179.2z M300.5,133.2c-0.4,0-0.9,0-1.5,0c-4.2,0.4-6.8,3-6.7,6.9
		c0.1,3.7,2.4,5.8,6.7,6.2c1.4,0.1,2.8,0.2,4.2,0.4c0.8,0.1,1.5,0.3,1.7,1.2c0.1,0.8,0.2,1.7-0.6,2.3c-0.8,0.7-1.7,1-2.7,1.1
		c-2.3,0.2-4.5-0.3-6.3-1.7c-2.1-1.6-2.5,0.8-3.4,1.6c-1.4,1.2,0.3,1.7,0.9,2.1c4.4,2.9,9.1,3.5,13.9,0.9c2.7-1.5,3.7-4.1,3-7
		c-0.7-3-2.4-4.5-5.6-4.8c-1.5-0.1-3-0.2-4.5-0.4c-1.3-0.1-2.7-0.3-2.6-2c0.1-1.6,1.4-2.1,2.8-2.2c1.9-0.1,3.8,0.2,5.5,1.2
		c2,1.1,2.2-1.1,3.1-2c1.2-1.2-0.3-1.5-0.9-1.9C305.4,133.6,303.1,133,300.5,133.2z M271.9,158.7c2.9,0,3.4-0.6,2.9-3.4
		c-0.4-2.4-0.8-4.7-1.3-7.1c-0.2-1-0.3-2-0.5-3c-0.4-2.7,0.8-4.6,3.1-5.1c2.6-0.5,4.5,0.8,5,3.6c0.7,3.7,1.4,7.5,1.9,11.3
		c0.3,2.4,1.7,1.2,2.8,1.2c1.5,0,2.1-0.6,1.8-2.1c-0.7-3.9-1.3-7.9-2.1-11.8c-1.4-7.1-7.1-9.3-12.9-4.9c-0.5,0.4-0.6,0.7-1.2-0.1
		c-1.1-1.6-2.8-0.4-4.1-0.1c-1.3,0.3-0.3,1.4-0.2,2.1c0.9,6,2,11.9,3,17.9C270.5,158.3,270.8,158.9,271.9,158.7z M307.7,474.7
		c1.2,0,2.3,0,3.5-0.4c3.7-1.1,5.6-3.5,5.4-6.8s-2.4-5.4-6.3-5.9c-1.6-0.2-3.2-0.2-4.7-0.5c-1.7-0.2-2.4-1.7-1.5-3
		c0.7-1,1.7-1.3,2.8-1.4c2.5-0.2,4.7,0.3,6.8,1.8c2,1.5,2.3-1.1,3.3-1.8c1.1-0.8-0.1-1.4-0.7-1.8c-4.4-3-9-3.7-13.9-1.2
		c-2.8,1.4-3.9,3.9-3.2,6.9c0.7,3.2,2.5,4.8,5.9,5.1c1.5,0.1,3,0.2,4.5,0.4c1.2,0.1,2.4,0.4,2.3,2c-0.1,1.5-1.2,2-2.6,2.1
		c-1.9,0.1-3.7,0-5.3-1c-2.3-1.4-2.7,1-3.5,2c-1.1,1.4,0.7,1.5,1.4,2C303.5,474.3,305.6,474.8,307.7,474.7z M335.8,463.1
		c0.1,2.9-1.6,4.6-4.1,4.6c-2.4,0-3.6-1.1-4.2-4.3c-0.7-3.6-1.2-7.2-1.9-10.8c-0.4-2.5-2.1-1-3.3-1c-1.4,0-1.6,0.7-1.4,1.9
		c0.8,4.2,1.4,8.3,2.3,12.5c1.4,6.5,7.3,8.6,12.4,4.5c0.6-0.5,0.8-1,1.6,0.1c1.1,1.4,2.6,0.1,3.9-0.1c1.2-0.2,0.4-1.4,0.2-2.1
		c-1-5.8-2.1-11.6-2.9-17.4c-0.3-2.3-1.5-1.8-2.9-1.7c-1.9,0.1-2,1.1-1.7,2.6C334.6,455.7,335.2,459.6,335.8,463.1z M313.8,146.3
		c-0.2,3.9,1.4,7.1,5,9.1c3.4,1.9,6.9,1.7,10.2-0.4c0.6-0.4,2.5-0.8,1.3-2c-0.9-0.9-1.2-3.5-3.7-1.8c-2,1.4-5.2,1-6.7-0.6
		c-2.1-2.1-1.9-7.8,0.4-10.2c2-2.1,4.9-1.9,8,0.5c1.7,1.4,2.3-0.7,3.4-1.2c1.3-0.6,0.4-1.3-0.1-1.9c-1.9-2.3-4.4-3.5-7.4-3.5
		C317.9,134.1,313.8,138.8,313.8,146.3z M294.9,461.3c0.2-3.7-1.2-6.8-4.8-8.8c-3.4-1.9-6.9-1.9-10.2,0.2c-0.7,0.4-2.6,0.8-1.4,2.1
		c0.8,0.9,1.2,3.4,3.7,1.8c2.4-1.6,5.6-0.9,7.1,1.3c1.7,2.4,1.1,7.7-1.1,9.8c-1.9,1.9-4.6,1.5-7.8-0.8c-1.6-1.2-2.4,0.7-3.5,1.3
		c-1.3,0.7-0.2,1.4,0.2,2c2.6,2.9,5.9,4,9.7,3.2C292.1,472.3,294.8,468.2,294.9,461.3z M275.2,450.1c-0.7-0.9-2.1-0.6-3.2-1.1
		c-1.3-0.5-1.4,0.4-1.6,1.2c-0.9,3.8-1.7,7.6-2.7,11.4c-0.7,2.8-3.7,4.5-5.7,2.9c-2.3-1.8-3.3-0.2-4.8,0.8c-1.2,0.8-1,1.5,0,2.3
		c2.1,1.6,4.4,2.1,7,1.4c0.8-0.2,1.3-0.5,1.8,0.7c0.6,1.4,2.5,1.2,3.8,1.3c1,0.1,0.8-1.3,1-2c0.6-2,1-4,1.5-6
		C273.2,458.8,274.1,454.7,275.2,450.1z M230.4,452.3c-0.5,0.2-1.1,0.5-1.7,0.8c-2.4,1.2-2.5,1.9-0.3,3.6c1.8,1.4,3.7,2.2,6,1.7
		c0.7-0.1,1.2-0.6,1.2,0.9c-0.1,1.6,2.1,1.5,3.2,2.1c1.2,0.6,1.2-0.9,1.5-1.5c2.5-5.3,4.8-10.8,7.3-16.1c0.9-1.8,0.3-2.3-1.2-3.1
		c-1.7-0.8-2.4-0.4-3.1,1.3c-1.3,3.3-2.8,6.5-4.4,9.8c-1.5,3.1-4.3,3.6-6.9,1.3C231.5,452.7,231.2,452.1,230.4,452.3z M333.8,156.7
		c-0.4,1.9,1.3,1.6,2.2,1.9c1,0.3,2,0.5,2.4-1.2c0.8-3.7,1.7-7.4,2.7-11.1c0.8-2.9,3.4-4.5,5.6-2.9c2.3,1.7,3.3,0.2,4.8-0.7
		c1.4-0.9,1-1.6,0-2.5c-2.1-1.7-4.5-1.9-7.1-1.3c-0.5,0.1-1.2,0.8-1.4-0.1c-0.5-2.3-2.5-1.8-3.8-1.8c-1.3-0.1-0.9,1.8-1.3,2.8
		c-0.2,0.4-0.3,1-0.4,1.4C336.2,146.4,335,151.5,333.8,156.7z M353.9,163.7c1.1,0.1,1.1-0.9,1.3-1.5c2-5.6,3.8-11.3,5.9-16.9
		c0.8-2.1-0.4-2.3-1.8-2.9c-1.7-0.7-2.2-0.2-2.8,1.5c-1.8,5.4-3.7,10.8-5.6,16.2C350.2,162.3,351.5,163.9,353.9,163.7z M264.8,160.1
		c-0.1-0.2-0.1-0.3-0.1-0.4c-1.8-6.4-3.6-12.8-5.6-19.1c-0.6-2-2.1-0.2-3.2-0.2c-0.5,0-1.8-0.1-1.3,1.4c1.9,6.3,3.7,12.6,5.5,18.9
		c0.3,1,0.8,1.2,1.6,0.9C262.8,161.1,264.2,161.3,264.8,160.1z M347,446.3c-0.4,1.1-3.3-0.3-2.8,2c1.6,6.3,3.5,12.6,5.4,18.8
		c0.6,2.2,2,0.5,3,0.4c0.8-0.1,2-0.1,1.5-1.8c-1.9-6-3.5-12.1-5.3-18.1C348.6,446.8,348.4,446.1,347,446.3z M258.4,446
		c-0.4-1.5-1.9-1.2-2.9-1.7c-1.2-0.5-1.6,0.4-1.9,1.3c-1.9,5.6-3.8,11.3-5.8,16.9c-0.6,1.7-0.3,2.3,1.4,2.8c1.6,0.5,2.5,0.6,3.1-1.3
		c1.8-5.6,3.8-11.2,5.7-16.7C258,446.9,258.2,446.5,258.4,446z M243.3,143.6c1.9,0,2.7-1.2,2-3c-0.4-1.2-0.9-2.3-1.3-3.5
		c-0.6-1.6-2.9-2.2-3.5-0.7c-0.8,2.1,1.1,3.9,1.6,5.9C242.2,142.9,242.3,143.8,243.3,143.6z M368.7,470.8c-0.6-1.7-1.3-3.3-1.8-4.9
		c-0.4-1.4-1-1.8-2.5-1.3c-1.7,0.6-1.4,1.4-1,2.6c0.6,1.4,1.1,2.8,1.6,4.2c0.3,0.9,1,1.1,1.8,0.7
		C367.5,471.7,368.5,471.8,368.7,470.8z M251.9,133.3c1.3,0.8,0,3.4,2.3,3.2c1-0.1,3.3,0.3,3.1-1.8c-0.1-1.1,0.3-3.4-1.9-3.3
		C254.2,131.5,252.7,131.6,251.9,133.3z M351.3,473.4c1.1,0.7-0.1,3,1.9,2.9c1.1-0.1,3.4,0.3,3.3-1.8c0-1.1,0.2-3.4-2-3.2
		C353.4,471.4,351.6,471.2,351.3,473.4z M362.4,139.3c1.5-0.8,1.8-2.5,1.7-3.6c-0.1-1.8-2.2-1.9-3.3-1.8c-1.8,0.1-2,2.3-1.9,3.5
		C359.1,138.9,361.3,138.4,362.4,139.3z M248.1,474.3c1.4-0.9,1.7-2.4,1.7-3.6c-0.1-1.8-2.2-2-3.4-1.9c-1.7,0.1-1.8,2.3-1.7,3.3
		C244.7,474,246.9,473.4,248.1,474.3z"/>
	<path class="st2" d="M304.4,445.5c-80.1-0.2-142.5-66.1-141.2-143.7c1.3-76.7,65.1-140.5,144.7-138.6c77,1.9,138.5,66,137.6,143
		C444.5,381.7,382.8,445.3,304.4,445.5z M172.7,304.3c-0.6,71,57.6,131.7,131.5,131.8c72.7,0.1,132.1-58.7,132-132
		c-0.1-73.9-60.5-131.6-131.8-131.7C232.1,172.4,172.1,232,172.7,304.3z"/>
	<path class="st2" d="M227.9,174.2c-0.4,0-0.9,0.1-1.2,0c-1-0.3-3,0.6-2.6-1.5c0.3-1.5-0.1-3.9,3-3.4c3.3,0.5,6.3-0.7,8.9-2.7
		c1.6-1.3,2.5-2.9,1.5-5c-1-2-2.7-2.4-4.6-1.9c-1.8,0.4-3.5,1.1-5.2,1.6c-4.8,1.3-8.9-0.5-10.8-4.7c-1.9-4.3-0.4-8.8,3.9-11.3
		c2.9-1.7,6-2.8,9.5-2.5c0.7,0.1,2.3-0.5,1.9,1c-0.3,1.4,1,3.9-2.1,3.9c-2.3,0-4.5,0.5-6.5,1.6c-2.2,1.3-3.1,3.2-2.4,5.2
		c0.8,2.1,2.7,2.8,5.4,2.1c2.5-0.7,4.7-2,7.4-1.9c3.9,0.1,6.7,2,8.2,5.7c1.4,3.6,0.6,6.9-2.4,9.4
		C236.3,172.6,232.4,174.2,227.9,174.2z"/>
	<path class="st2" d="M380.8,433.6c0.4,0,0.9-0.1,1.2,0c1,0.3,2.8-0.7,2.8,1.5c0,2.6-0.9,3.5-3.2,3.4c-3.1-0.1-5.9,0.7-8.4,2.5
		c-2.1,1.5-2.6,3.5-1.6,5.4c1.1,2.2,3,2.1,5,1.6c2.6-0.7,4.9-2,7.7-2c3.7,0,6.4,1.8,7.9,5.3c1.4,3.3,0.8,6.9-1.8,9.4
		c-3.4,3.2-7.5,4.4-12.1,4.3c-1.6,0-1.6-1-1.4-2c0.3-1.1-0.7-3,1.5-3c1.9,0,3.8-0.2,5.6-1c1.1-0.4,2.1-1,2.9-1.9
		c1.1-1.3,1.3-2.9,0.5-4.4c-0.7-1.5-2-1.9-3.5-1.8c-2,0.1-3.8,1.1-5.7,1.6c-4.9,1.4-9.1-0.2-11.2-4.5c-2.1-4.4-1-8.2,3.3-11.3
		C373.5,434.9,376.9,433.5,380.8,433.6z"/>
	<path class="st2" d="M221.1,428.7c7.4,0,11.9,6.6,9.2,13.4c-1.2,3-2.9,5.6-5.7,7.4c-3.3,2.2-7.1,2-10.2-0.5c-3.2-2.5-4.3-6.4-3-10
		c1.9-5.2,2.5-5.4,7.2-2.6c2,1.2,4,2.4,5.9,3.7c1.4,0.9,1.7,0.2,2-0.9c0.8-3-1.9-6-5.6-6.1c-0.9,0-1.9,0.5-2.4-1
		C217.5,428.9,217.5,428.7,221.1,428.7z M220.2,446.7c0.5-0.2,1-0.3,1.6-0.5c0.8-0.4,1.8-0.9,1.8-1.9c0-0.8-1-0.9-1.6-1.3
		c-1-0.7-2.1-1.4-3.2-1.9c-0.8-0.4-1.5-1.8-2.5-0.8c-0.8,0.8-0.8,2.1-0.5,3.3C216.4,445.6,218.1,446.4,220.2,446.7z"/>
	<path class="st2" d="M387.7,179.2c-7.5,0-12.2-7-9.2-13.8c1.2-2.8,2.8-5.3,5.4-7c3.5-2.3,7.3-2.1,10.6,0.7c3,2.5,4,6.4,2.5,10.1
		c-2,5-2.4,5.1-6.9,2.3c-2-1.2-4-2.4-5.9-3.7c-1.4-0.9-1.9-0.4-2.2,0.9c-0.8,2.9,1.8,5.8,5.4,6c0.9,0,1.9-0.6,2.5,0.8
		C391.3,178.6,391,179.2,387.7,179.2z M388.8,161.2c-1.6,0.1-2.9,0.7-3.4,2c-0.5,1.4,1.2,1.4,2,2c0.8,0.7,1.8,1.2,2.8,1.7
		c0.8,0.4,1.5,1.6,2.3,0.9c0.8-0.7,1-2.1,0.6-3.3C392.4,162.4,390.8,161.3,388.8,161.2z"/>
	<path class="st2" d="M300.5,133.2c2.6-0.2,4.9,0.3,6.9,1.6c0.6,0.4,2.1,0.8,0.9,1.9c-0.9,0.9-1.1,3.1-3.1,2
		c-1.8-0.9-3.6-1.3-5.5-1.2c-1.5,0.1-2.7,0.6-2.8,2.2c-0.1,1.7,1.3,1.9,2.6,2c1.5,0.1,3,0.2,4.5,0.4c3.2,0.3,4.9,1.7,5.6,4.8
		c0.7,2.9-0.3,5.6-3,7c-4.8,2.6-9.4,2-13.9-0.9c-0.6-0.4-2.3-0.9-0.9-2.1c0.9-0.8,1.3-3.2,3.4-1.6c1.9,1.4,4,2,6.3,1.7
		c1-0.1,2-0.4,2.7-1.1c0.7-0.6,0.7-1.5,0.6-2.3c-0.2-0.9-0.9-1.1-1.7-1.2c-1.4-0.1-2.8-0.3-4.2-0.4c-4.3-0.3-6.6-2.5-6.7-6.2
		c-0.1-3.8,2.6-6.5,6.7-6.9C299.6,133.2,300.1,133.2,300.5,133.2z"/>
	<path class="st2" d="M271.9,158.7c-1,0.2-1.4-0.4-1.6-1.4c-1-6-2-11.9-3-17.9c-0.1-0.7-1-1.8,0.2-2.1c1.3-0.3,2.9-1.6,4.1,0.1
		c0.6,0.8,0.7,0.5,1.2,0.1c5.8-4.4,11.5-2.3,12.9,4.9c0.8,3.9,1.3,7.8,2.1,11.8c0.3,1.6-0.3,2.1-1.8,2.1c-1.1,0-2.5,1.2-2.8-1.2
		c-0.5-3.8-1.2-7.5-1.9-11.3c-0.5-2.8-2.4-4.1-5-3.6c-2.4,0.4-3.5,2.4-3.1,5.1c0.2,1,0.3,2,0.5,3c0.4,2.4,0.9,4.7,1.3,7.1
		C275.3,158.1,274.8,158.7,271.9,158.7z"/>
	<path class="st2" d="M307.7,474.7c-2.1,0.1-4.2-0.4-6-1.6c-0.7-0.4-2.5-0.6-1.4-2c0.8-1,1.2-3.4,3.5-2c1.6,1,3.5,1.1,5.3,1
		c1.4-0.1,2.5-0.6,2.6-2.1c0.1-1.6-1-1.9-2.3-2c-1.5-0.1-3-0.2-4.5-0.4c-3.4-0.3-5.2-1.9-5.9-5.1c-0.6-2.9,0.5-5.5,3.2-6.9
		c4.8-2.5,9.5-1.8,13.9,1.2c0.6,0.4,1.9,1,0.7,1.8c-1,0.7-1.3,3.3-3.3,1.8c-2.1-1.5-4.4-2-6.8-1.8c-1.1,0.1-2.2,0.5-2.8,1.4
		c-0.9,1.3-0.2,2.8,1.5,3c1.6,0.2,3.2,0.3,4.7,0.5c3.8,0.5,6.1,2.6,6.3,5.9c0.2,3.3-1.8,5.7-5.4,6.8
		C310,474.7,308.9,474.7,307.7,474.7z"/>
	<path class="st2" d="M335.8,463.1c-0.6-3.5-1.3-7.3-2-11.2c-0.3-1.5-0.2-2.5,1.7-2.6c1.4-0.1,2.6-0.5,2.9,1.7
		c0.8,5.8,1.9,11.6,2.9,17.4c0.1,0.7,0.9,1.9-0.2,2.1c-1.3,0.2-2.8,1.5-3.9,0.1c-0.8-1-1-0.6-1.6-0.1c-5.2,4.1-11.1,2-12.4-4.5
		c-0.9-4.1-1.5-8.3-2.3-12.5c-0.2-1.3,0-1.9,1.4-1.9c1.2,0,2.8-1.5,3.3,1c0.6,3.6,1.2,7.2,1.9,10.8c0.6,3.1,1.8,4.3,4.2,4.3
		C334.2,467.7,335.9,466,335.8,463.1z"/>
	<path class="st2" d="M313.8,146.3c0-7.5,4.1-12.2,10.2-12.1c3,0.1,5.5,1.3,7.4,3.5c0.5,0.6,1.4,1.3,0.1,1.9
		c-1.1,0.5-1.8,2.6-3.4,1.2c-3-2.4-6-2.7-8-0.5c-2.3,2.5-2.5,8.1-0.4,10.2c1.5,1.5,4.7,2,6.7,0.6c2.5-1.7,2.8,0.9,3.7,1.8
		c1.2,1.2-0.6,1.6-1.3,2c-3.3,2.1-6.7,2.3-10.2,0.4C315.2,153.4,313.6,150.2,313.8,146.3z"/>
	<path class="st2" d="M294.9,461.3c-0.1,6.9-2.8,10.9-7.9,12c-3.8,0.8-7.1-0.4-9.7-3.2c-0.5-0.5-1.5-1.3-0.2-2
		c1.1-0.6,1.8-2.5,3.5-1.3c3.2,2.3,5.9,2.7,7.8,0.8c2.2-2.1,2.7-7.4,1.1-9.8c-1.5-2.1-4.7-2.9-7.1-1.3c-2.5,1.7-2.9-0.8-3.7-1.8
		c-1.2-1.4,0.7-1.7,1.4-2.1c3.3-2.1,6.8-2.1,10.2-0.2C293.7,454.5,295.1,457.7,294.9,461.3z"/>
	<path class="st2" d="M373.6,149.5c3.1-0.5,5.8,0.2,7.8,2.7c0.7,0.9,0.9,1.6-0.4,2.1c-1.6,0.7-3,2.1-4.9,0s-4.9-1-6.2,1.9
		c-1.5,3.2-3.1,6.4-4.4,9.8c-0.8,2.2-1.8,1.7-3.4,1.1c-1.7-0.7-1.8-1.4-1-2.9c2.5-5.2,4.8-10.6,7.3-15.9c0.3-0.7,0.4-2.3,1.5-1.8
		c1.2,0.6,3.4,0.3,3.3,2.6c-0.1,0.1-0.3,0.3-0.2,0.4C373.1,149.7,373.4,149.6,373.6,149.5z"/>
	<path class="st2" d="M275.2,450.1c-1.1,4.6-2,8.7-3,12.8c-0.5,2-0.9,4-1.5,6c-0.2,0.7,0,2.1-1,2c-1.3-0.1-3.2,0.1-3.8-1.3
		c-0.5-1.2-0.9-1-1.8-0.7c-2.6,0.7-4.9,0.2-7-1.4c-1-0.8-1.2-1.5,0-2.3c1.5-1,2.5-2.6,4.8-0.8c2,1.6,5-0.1,5.7-2.9
		c1-3.8,1.8-7.6,2.7-11.4c0.2-0.8,0.3-1.7,1.6-1.2C273.1,449.4,274.5,449.2,275.2,450.1z"/>
	<path class="st2" d="M230.4,452.3c0.8-0.2,1.1,0.4,1.5,0.8c2.6,2.3,5.4,1.8,6.9-1.3c1.6-3.2,3.1-6.5,4.4-9.8
		c0.7-1.7,1.4-2.1,3.1-1.3c1.5,0.7,2.1,1.3,1.2,3.1c-2.6,5.3-4.9,10.7-7.3,16.1c-0.3,0.6-0.2,2-1.5,1.5c-1.2-0.5-3.3-0.4-3.2-2.1
		c0-1.5-0.5-1-1.2-0.9c-2.3,0.5-4.3-0.3-6-1.7c-2.1-1.7-2-2.4,0.3-3.6C229.3,452.8,229.9,452.5,230.4,452.3z"/>
	<path class="st2" d="M333.8,156.7c1.2-5.2,2.5-10.3,3.7-15.5c0.1-0.5,0.2-1,0.4-1.4c0.4-1,0-2.9,1.3-2.8c1.2,0.1,3.3-0.4,3.8,1.8
		c0.2,0.9,0.9,0.3,1.4,0.1c2.6-0.6,4.9-0.4,7.1,1.3c1,0.8,1.5,1.5,0,2.5s-2.5,2.4-4.8,0.7c-2.2-1.6-4.8,0-5.6,2.9
		c-1,3.7-1.9,7.4-2.7,11.1c-0.3,1.7-1.4,1.5-2.4,1.2C335,158.3,333.4,158.6,333.8,156.7z"/>
	<path class="st2" d="M353.9,163.7c-2.4,0.2-3.7-1.4-2.9-3.7c1.9-5.4,3.8-10.8,5.6-16.2c0.5-1.6,1.1-2.2,2.8-1.5
		c1.4,0.6,2.6,0.8,1.8,2.9c-2.1,5.6-3.9,11.3-5.9,16.9C355,162.8,355,163.8,353.9,163.7z"/>
	<path class="st2" d="M264.8,160.1c-0.6,1.2-2,1-3.1,1.5c-0.8,0.4-1.4,0.1-1.6-0.9c-1.8-6.3-3.6-12.6-5.5-18.9
		c-0.5-1.5,0.8-1.4,1.3-1.4c1.1-0.1,2.6-1.8,3.2,0.2c2,6.3,3.8,12.7,5.6,19.1C264.7,159.7,264.8,159.8,264.8,160.1z"/>
	<path class="st2" d="M347,446.3c1.4-0.2,1.6,0.6,1.8,1.3c1.7,6,3.4,12.1,5.3,18.1c0.5,1.7-0.7,1.7-1.5,1.8c-1,0.1-2.3,1.8-3-0.4
		c-1.8-6.3-3.8-12.5-5.4-18.8C343.6,445.9,346.6,447.4,347,446.3z"/>
	<path class="st2" d="M258.4,446c-0.2,0.5-0.3,0.9-0.5,1.3c-1.9,5.6-3.9,11.1-5.7,16.7c-0.6,1.9-1.5,1.9-3.1,1.3
		c-1.7-0.5-2-1.2-1.4-2.8c2-5.6,3.9-11.3,5.8-16.9c0.3-0.9,0.7-1.8,1.9-1.3C256.5,444.7,258,444.5,258.4,446z"/>
	<path class="st2" d="M243.3,143.6c-1,0.2-1.1-0.7-1.2-1.2c-0.5-2-2.4-3.8-1.6-5.9c0.6-1.4,2.8-0.9,3.5,0.7c0.5,1.1,0.9,2.3,1.3,3.5
		C246,142.4,245.2,143.6,243.3,143.6z"/>
	<path class="st2" d="M368.7,470.8c-0.2,1-1.3,0.9-1.9,1.3c-0.8,0.4-1.4,0.2-1.8-0.7c-0.5-1.4-1-2.8-1.6-4.2c-0.5-1.2-0.7-2,1-2.6
		c1.5-0.5,2.1-0.1,2.5,1.3C367.4,467.5,368.1,469.1,368.7,470.8z"/>
	<path class="st2" d="M251.9,133.3c0.7-1.8,2.3-1.8,3.5-1.9c2.2-0.1,1.8,2.2,1.9,3.3c0.2,2-2.1,1.6-3.1,1.8
		C251.9,136.8,253.2,134.1,251.9,133.3z"/>
	<path class="st2" d="M351.3,473.4c0.3-2.2,2.1-2,3.2-2.1c2.2-0.2,1.9,2.1,2,3.2c0.1,2.1-2.2,1.7-3.3,1.8
		C351.2,476.5,352.3,474.1,351.3,473.4z"/>
	<path class="st2" d="M362.4,139.3c-1.1-0.9-3.3-0.3-3.4-2c-0.1-1.2,0.1-3.4,1.9-3.5c1.1-0.1,3.2,0.1,3.3,1.8
		C364.2,136.8,363.9,138.4,362.4,139.3z"/>
	<path class="st2" d="M248.1,474.3c-1.1-0.9-3.4-0.3-3.5-2.1c0-1.1,0.1-3.2,1.7-3.3c1.2-0.1,3.3,0.1,3.4,1.9
		C249.8,471.8,249.4,473.4,248.1,474.3z"/>
	<path class="st4" d="M172.7,304.3c-0.6-72.3,59.4-131.9,131.8-131.8c71.2,0.1,131.7,57.8,131.8,131.7c0.1,73.3-59.3,132-132,132
		C230.2,436,172.1,375.3,172.7,304.3z"/>
	<path class="st3" d="M220.2,446.7c-2.1-0.3-3.8-1.1-4.4-3.2c-0.4-1.2-0.4-2.5,0.5-3.3c1-0.9,1.7,0.5,2.5,0.8
		c1.1,0.5,2.2,1.2,3.2,1.9c0.6,0.4,1.7,0.6,1.6,1.3c0,0.9-1,1.5-1.8,1.9C221.3,446.4,220.7,446.5,220.2,446.7z"/>
	<path class="st3" d="M388.8,161.2c2,0.2,3.6,1.2,4.3,3.3c0.4,1.2,0.2,2.5-0.6,3.3c-0.8,0.7-1.6-0.5-2.3-0.9c-1-0.5-1.9-1-2.8-1.7
		c-0.7-0.6-2.5-0.6-2-2C385.8,161.9,387.2,161.3,388.8,161.2z"/>
	<path class="st3" d="M373.6,149.5c-0.2,0.2-0.4,0.3-0.6,0c0-0.1,0.2-0.2,0.2-0.4C373.3,149.2,373.4,149.4,373.6,149.5z"/>
</g>
<g>
	<path class="st2" d="M1175.3,328.2c-65.8,0-131.7,0-197.5,0c-36.5,0-67.6-24.5-76.4-59.8c-1.5-6-2.2-12.1-2.2-18.3
		c0-132,0-264,0-396c0-38.3,27.6-70.9,65.4-77.4c4.6-0.8,9.3-1.1,13.9-1.1c131.2,0,262.5,0,393.7,0c37.1,0,68.1,24,77.2,59.5
		c1.7,6.6,2.3,13.3,2.3,20c0,85.8,0,171.6,0,257.5c0,45.5,0.1,91,0,136.5c0,25.1-9.9,45.8-29.3,61.6c-14.1,11.5-30.4,17.3-48.6,17.3
		C1307.6,328.3,1241.4,328.2,1175.3,328.2L1175.3,328.2z M1442.3,51.9c0-65.1,0-130.2,0-195.2c0-2,0-4-0.1-6
		c-0.3-10.1-2.8-19.7-7.6-28.4c-13.5-24.2-34.1-36.9-62-37.1c-26.7-0.2-53.5,0-80.2,0c-104.4,0-208.8,0-313.2,0
		c-5.2,0-10.3,0.3-15.4,1.3c-32.7,6.8-55.4,36-55.3,68.7c0.3,131.2,0.1,262.5,0.1,393.7c0,3.4,0,6.8,0.5,10.2
		c1.9,14.1,7.6,26.5,17.2,37c14.3,15.8,32.4,23.1,53.6,23.1c129.7,0,259.5,0,389.2,0c4.7,0,9.3-0.2,13.9-0.9
		c17.8-2.5,32.4-10.8,43.8-24.6c10.8-13.1,15.7-28.2,15.7-45.2C1442.2,182.9,1442.3,117.4,1442.3,51.9z"/>
	<path class="st1" d="M1442.3,51.9c0,65.5-0.1,131,0.1,196.5c0,17-4.9,32.1-15.7,45.2c-11.4,13.8-26,22.1-43.8,24.6
		c-4.6,0.7-9.3,0.9-13.9,0.9c-129.7,0-259.5,0-389.2,0c-21.2,0-39.2-7.3-53.6-23.1c-9.5-10.5-15.2-22.9-17.2-37
		c-0.5-3.4-0.5-6.8-0.5-10.2c0-131.2,0.1-262.5-0.1-393.7c-0.1-32.7,22.6-62,55.3-68.7c5.1-1,10.2-1.3,15.4-1.3
		c104.4,0,208.8,0,313.2,0c26.7,0,53.5-0.1,80.2,0c27.9,0.2,48.5,13,62,37.1c4.9,8.7,7.4,18.3,7.6,28.4c0.1,2,0.1,4,0.1,6
		C1442.3-78.2,1442.3-13.1,1442.3,51.9z M1175.3,254.2c111.3,0.9,203.2-91.4,202.6-203.4c-0.6-110.6-91.6-202.1-204.1-201.3
		c-110.8,1-201.6,92.2-200.8,204C973.8,164.8,1065.5,254.9,1175.3,254.2z"/>
	<path class="st2" d="M1175.3,254.2c-109.7,0.7-201.4-89.4-202.2-200.7c-0.8-111.8,90-203.1,200.7-203.9
		c112.5-0.9,203.5,90.7,204.1,201.3C1378.5,162.9,1286.5,255.1,1175.3,254.2z M982.3,51.9c0.2,107.2,87.2,193.7,194.1,193.2
		c105.6-0.5,191.9-86.2,192.2-192.9c0.2-106.8-86.6-193.6-193.9-193.3C1068.7-140.8,982.7-54.8,982.3,51.9z"/>
	<path class="st3" d="M982.3,51.9c0.4-106.7,86.4-192.6,192.4-192.9c107.3-0.3,194.2,86.5,193.9,193.3
		c-0.2,106.7-86.5,192.4-192.2,192.9C1069.5,245.6,982.5,159.1,982.3,51.9z M1136.5,217.1c0.1,0.1,0.2,0.2,0.3,0.3
		c0.2,2.4,2.3,1.5,3.6,2c1.2,0.4,1.1-0.9,1.3-1.6c1.4-5.8,2.7-11.7,4.3-17.4c0.5-2-0.4-2.3-1.8-2.6s-2.4-0.7-2.8,1.4
		c-0.7,3.7-1.7,7.5-2.7,11.1c-0.8,2.8-3.5,4.3-5.5,2.7c-2.2-1.7-3.2-0.2-4.7,0.7c-1.6,1-1,1.7,0,2.6
		C1131,218.1,1133.7,218,1136.5,217.1z M1214.2-112.3L1214.2-112.3c-0.2-2.7-2.5-1.8-3.8-2.3c-1.2-0.4-1,1-1.2,1.7
		c-0.6,2.2-1.1,4.5-1.6,6.8c-0.2,0.9-0.4,1.6-1.7,1c-4.7-2.3-9.6-4.1-14.5-5.9c2.3-2.2,5.3-2.3,7.4,0c2,2.3,2.9-0.1,3.9-0.8
		c1.5-1.1-0.1-1.9-0.7-2.5c-4.2-4.1-10.6-3.9-14.4,0.4c-0.9,1.1-1.7,1.4-3,0.9c-1.9-0.8-3.9-1-5.6-3c-2.6-3-6.8-3-10.5-1.9
		c-2.2,0.6-4.2,0.7-6.4,0.4c-10.5-1.3-21.1-1.3-31.6,0c-1.5,0.2-2.4,0-2.7-1.6c-0.1-0.5-0.3-1.5-1-1.1c-1.2,0.8-4.2-0.4-3.5,2.9
		c0.2,0.8-0.6,0.8-1.2,1c-2,0.4-4.1,0.8-6.1,1.2c-0.5,0.1-0.9,0.3-1.4-0.1c-1.3-1.3-2.7-0.3-3.4,0.6c-0.7,0.9-1.4,1.1-2.2,1.3
		c-12.3,3.3-23.9,8.3-34.8,14.8C1023.1-68,996.5-10,1007.3,48.4c6.9,37.6,26.5,67.4,57.5,89.8c1.4,1,2.6,2.1,3.6,3.4
		c5.6,6.7,11.7,12.8,18.4,18.3c32.3,25.9,69,36.1,110,30c28.3-4.2,53.2-16.2,73.7-36.1c36-34.8,50.1-77.4,41.8-126.8
		c-5.1-30.3-19.7-55.8-42.1-76.8c-2.7-2.5-5.9-4.6-8-7.5c-7.3-10-15.4-19.2-24.9-27.3c-0.6-0.5-1-1-0.6-1.9c1.5-3.1,2.8-6.4,4.4-9.5
		c1.2-2.3,4.1-3,5.7-1.2c1.9,2.2,3.2,0.8,4.9,0.2c1.5-0.6,1.2-1.3,0.4-2.2c-1.8-2-3.9-3-6.6-2.8c-0.7,0-1.7,1.1-1.6-1
		c0.1-1.3-2.1-1.5-3.4-2c-1-0.4-1,0.9-1.3,1.5c-1.8,3.8-3.5,7.6-5.2,11.3c-1.6,3.6-1.6,3.5-4.8,1.3c-1.9-1.3-2.1-2.5-1.3-4.5
		c1.5-3.7,2.5-7.6,3.9-11.3c0.8-2.1-0.8-1.9-1.8-2.3s-2-1.1-2.6,0.8c-1.1,3.7-2.5,7.4-3.7,11.1c-0.4,1.2-0.8,1.8-2.2,0.9
		c-2.9-1.9-6-3.6-9-5.4c-0.4-0.2-1.1-0.6-1.1-0.9c-0.1-1.9,0.2-3.7,1.7-5c1.2-1.2,3.1-1.8,4.3-0.6c2,1.9,3.1,0.4,4.6-0.5
		c1.7-1.1,1.2-1.8-0.1-2.7C1219.7-113.3,1217-113.1,1214.2-112.3z M1252,182.2c-4.9-0.1-9.1,1.8-12.6,5.2c-1.4,1.3-2.2,2.9-2.3,4.9
		c-0.3,6.5,5.2,11,11.6,9.3c1.7-0.5,3.3-1.3,5-1.6c1.9-0.4,3.9-0.4,4.9,1.8c0.9,1.9,0.1,4.1-1.9,5.4c-1.6,1-3.5,1.9-5.4,1.7
		c-3-0.4-3.3,1.4-3.5,3.5c-0.1,1.1,0.2,1.5,1.3,1.5c4.6,0.2,8.8-1,12.2-4.1c2.7-2.4,3.4-6,2.1-9.4c-1.4-3.7-4.2-5.5-8-5.6
		c-2.5-0.1-4.7,1-7,1.7c-3,1-4.8,0.5-5.8-1.7c-1-2.1-0.2-4,2.4-5.6c2.5-1.6,5.3-2.3,8.3-2.1c0.7,0.1,1.4,0.4,1.9-0.5
		c1.7-3.1,1-4.4-2.4-4.4C1252.5,182.1,1252.2,182.1,1252,182.2z M1092.4,177.2c-3.6-0.1-4,0.6-2.6,3.6c0.6,1.2,1.4,0.8,2.3,0.8
		c3.7,0.1,6.1,2.5,5.6,5.8c-0.2,1.5-0.7,2.1-2.2,1.1c-2-1.3-4.1-2.5-6.2-3.8c-4.3-2.6-4.3-2.6-6.5,2.1c-1.8,3.8-0.7,8.2,2.6,10.8
		c3.6,2.7,7.8,2.7,11.2-0.2c2.3-1.9,3.9-4.4,4.9-7.1C1103.9,183.6,1099.4,177.3,1092.4,177.2z M1258.5-72.3c3.4,0,3.9-0.7,2.5-3.6
		c-0.6-1.3-1.6-0.9-2.5-0.9c-3.5-0.2-5.9-2.7-5.4-5.7c0.2-1.4,0.6-2.2,2.2-1.1c1.9,1.3,4,2.4,5.9,3.7c4.5,2.8,4.8,2.7,6.9-2.3
		c1.6-3.8,0.5-7.9-2.9-10.5c-3.2-2.5-7.3-2.6-10.6-0.1c-2.4,1.8-4,4.2-5.1,7C1246.7-79.2,1251.2-72.4,1258.5-72.3z M1179,223.3
		c0.9-0.1,1.8-0.1,2.7-0.3c3.9-0.9,6-3.4,5.9-6.9c-0.2-3.4-2.4-5.4-6.5-5.9c-1.5-0.2-3-0.3-4.5-0.4c-0.9-0.1-1.6-0.5-1.9-1.4
		c-0.3-1,0.2-1.8,1-2.3s1.6-0.8,2.6-0.8c2.3-0.1,4.4,0.5,6.4,1.8c2.1,1.4,2.4-1,3.4-1.8c1.2-0.9-0.2-1.4-0.8-1.8
		c-4.4-3-9-3.7-13.9-1.2c-2.9,1.5-4,4.2-3.2,7.4c0.7,2.8,2.7,4.3,5.8,4.6c1.5,0.1,3,0.2,4.5,0.4c1.2,0.1,2.4,0.5,2.3,2
		c-0.1,1.4-1.1,2-2.4,2.1c-1.8,0.1-3.7,0.2-5.3-0.9c-2.3-1.6-2.9,0.7-3.7,1.9c-1,1.5,0.9,1.6,1.6,2.1
		C1174.9,222.9,1176.9,223.3,1179,223.3z M1206.8,211.2c0,3-1.2,4.6-3.3,4.9c-2.4,0.4-4.3-0.8-4.8-3.3c-0.7-3.7-1.3-7.3-2-11
		c-0.2-1.1,0-2.5-1.9-2c-1.6,0.4-3.3,0.3-2.7,2.9c0.9,4,1.3,8,2.1,12c1.2,6.1,7.5,8.3,12.5,4.5c0.5-0.4,0.8-1.6,1.7,0
		c0.7,1.3,2.4,0,3.6-0.1c1.1-0.1,0.7-1.2,0.6-1.8c-1-6-2.1-11.9-3-17.9c-0.4-2.2-1.7-1.7-3.1-1.5c-1.7,0.2-1.9,1.1-1.6,2.6
		C1205.6,204.2,1206.2,208,1206.8,211.2z M1166.1,210.1c0-4.1-1.5-7.3-5.2-9.3c-3.5-1.9-7.1-1.6-10.4,0.6c-0.6,0.4-2.1,0.9-0.9,2
		c0.9,0.8,1.2,2.8,3.2,1.9c5.6-2.5,8.9-0.1,8.4,6c-0.2,2.3-0.7,4.6-3.1,5.6c-2.4,0.9-4.7,0.5-6.6-1.5c-1.5-1.5-2.1,0.6-3.2,1.1
		c-1.1,0.4-0.8,1.2-0.1,2c2.6,2.9,5.8,4.2,9.6,3.5C1163.1,220.9,1166,216.6,1166.1,210.1z M1119.3,190.6c-0.5-1.2-1.8-1.3-2.7-1.8
		c-1-0.5-1.5,0-1.9,0.9c-1.6,3.5-3.1,7-4.7,10.4c-1.3,2.7-4.3,3.8-6.1,1.9c-2-2.1-3.4-1-5.2-0.1c-1.1,0.5-1.1,1.1-0.4,1.9
		c1.7,2.1,3.8,3.1,6.5,3c0.9,0,1.7-0.7,2,1.1c0.2,1.3,2.2,1.7,3.5,1.9c0.8,0.2,0.9-1.2,1.2-1.9c2.4-5.2,4.7-10.4,7.1-15.7
		C1118.8,191.9,1119,191.3,1119.3,190.6z M1218.3,194.7c-2.7,0.1-3.4,1.1-2.7,3.7c1.6,5.6,3.3,11.1,4.8,16.7
		c0.4,1.7,1.2,1.6,2.4,1.1c1.2-0.4,2.8-0.3,2.1-2.4c-1.8-5.9-3.5-11.9-5.3-17.8C1219.5,195.2,1219.4,194.5,1218.3,194.7z
		 M1121.5,214.2c1.3,0,1.5-0.8,1.7-1.6c1.9-5.6,3.8-11.3,5.9-16.9c0.6-1.6,0.1-2.1-1.3-2.5s-2.5-1.2-3.2,1.1
		c-1.7,5.5-3.7,10.8-5.5,16.3C1118.2,212.9,1119.1,214.3,1121.5,214.2z M1239.6,218.8c-0.6-1.5-1.3-3.1-1.8-4.8
		c-0.4-1.5-1.1-1.4-2.4-1c-1.2,0.4-1.6,1-1.1,2.2c0.6,1.5,1.2,3.1,1.8,4.6c0.4,1.1,1.1,1,2,0.6
		C1238.8,220.1,1239.8,220.2,1239.6,218.8z M1232.2-117.9c-2,0.5-2.1,2.4-2.1,3.5c-0.1,1.8,2.1,1.7,3.2,1.8c2,0.1,1.9-2.1,2-3.3
		C1235.4-117.8,1233-116.8,1232.2-117.9z M1121.1,219c-0.9-1.3-2.5-1.7-3.6-1.6c-1.8,0.1-2,2.3-1.9,3.5c0.1,1.6,2.3,1.7,3.3,1.7
		C1120.8,222.4,1120.1,220.1,1121.1,219z M1227.8,222.9c-0.9-0.9,0-3.3-2.1-3.1c-1.1,0.1-3.3-0.2-3.2,1.6c0,1.1-0.2,3.4,1.8,3.4
		C1225.4,224.9,1227.2,224.9,1227.8,222.9z"/>
	<path class="st2" d="M1214.2-112.3c2.8-0.8,5.5-1.1,8.1,0.8c1.2,0.9,1.8,1.6,0.1,2.7c-1.5,0.9-2.6,2.5-4.6,0.5
		c-1.2-1.2-3.1-0.6-4.3,0.6c-1.4,1.3-1.7,3.2-1.7,5c0,0.3,0.7,0.7,1.1,0.9c3,1.8,6.1,3.5,9,5.4c1.4,0.9,1.8,0.3,2.2-0.9
		c1.2-3.7,2.6-7.4,3.7-11.1c0.6-1.9,1.6-1.2,2.6-0.8c1,0.4,2.6,0.2,1.8,2.3c-1.4,3.7-2.5,7.6-3.9,11.3c-0.8,2-0.6,3.2,1.3,4.5
		c3.3,2.2,3.2,2.3,4.8-1.3c1.7-3.8,3.4-7.6,5.2-11.3c0.3-0.6,0.3-1.8,1.3-1.5c1.2,0.5,3.4,0.7,3.4,2c-0.1,2,0.9,1,1.6,1
		c2.7-0.2,4.9,0.8,6.6,2.8c0.8,0.9,1,1.6-0.4,2.2c-1.7,0.7-3,2-4.9-0.2c-1.6-1.8-4.5-1-5.7,1.2c-1.6,3.1-2.9,6.4-4.4,9.5
		c-0.4,0.9,0,1.4,0.6,1.9c9.4,8,17.6,17.2,24.9,27.3c2.1,2.9,5.4,5,8,7.5c22.4,21,37,46.5,42.1,76.8c8.3,49.4-5.8,92-41.8,126.8
		c-20.6,19.9-45.4,31.9-73.7,36.1c-41,6.1-77.7-4.1-110-30c-6.8-5.4-12.9-11.6-18.4-18.3c-1.1-1.3-2.3-2.4-3.6-3.4
		c-31-22.4-50.5-52.3-57.5-89.8c-10.8-58.4,15.8-116.3,66.9-146.9c10.9-6.5,22.5-11.5,34.8-14.8c0.8-0.2,1.6-0.4,2.2-1.3
		s2-1.9,3.4-0.6c0.5,0.5,0.9,0.2,1.4,0.1c2-0.4,4.1-0.8,6.1-1.2c0.6-0.1,1.3-0.2,1.2-1c-0.7-3.2,2.2-2.1,3.5-2.9
		c0.7-0.4,0.9,0.6,1,1.1c0.3,1.6,1.2,1.8,2.7,1.6c10.5-1.3,21.1-1.3,31.6,0c2.2,0.3,4.2,0.2,6.4-0.4c3.7-1.1,7.9-1.1,10.5,1.9
		c1.7,2,3.7,2.1,5.6,3c1.3,0.5,2.1,0.2,3-0.9c3.8-4.4,10.2-4.5,14.4-0.4c0.6,0.6,2.2,1.4,0.7,2.5c-1,0.7-1.9,3.1-3.9,0.8
		c-2-2.3-5.1-2.1-7.4,0c5,1.8,9.8,3.7,14.5,5.9c1.2,0.6,1.4-0.1,1.7-1c0.5-2.3,1-4.5,1.6-6.8c0.2-0.7,0.1-2.1,1.2-1.7
		c1.3,0.5,3.6-0.4,3.7,2.2C1214.4-112.5,1214.3-112.4,1214.2-112.3l0.1,0.1C1214-112.1,1214.1-112.2,1214.2-112.3z M1146.2,154.7
		C1218.8,154.4,1278,96,1278,22.9c0.1-74.4-60.8-131.9-131.8-132c-70.6,0-131.8,56.9-131.8,131.7
		C1014.3,96,1073.4,154.4,1146.2,154.7z M1097.1,155.6c47,37.7,128.4,39.3,178.5-20.6c44.6-53.3,34.5-124.1,3.6-161
		c17.3,55.4,8.4,106.3-33.4,148.1C1203.9,164.2,1153,173,1097.1,155.6z"/>
	<path class="st2" d="M1252,182.2c0.2,0,0.5,0,0.7,0c3.5,0,4.1,1.3,2.4,4.4c-0.5,1-1.3,0.6-1.9,0.5c-3-0.2-5.8,0.4-8.3,2.1
		c-2.5,1.6-3.3,3.5-2.4,5.6c1,2.1,2.8,2.7,5.8,1.7c2.3-0.7,4.5-1.8,7-1.7c3.8,0.1,6.6,1.9,8,5.6c1.3,3.3,0.6,6.9-2.1,9.4
		c-3.4,3.1-7.6,4.3-12.2,4.1c-1.1,0-1.4-0.5-1.3-1.5c0.2-2.2,0.5-3.9,3.5-3.5c1.9,0.3,3.8-0.6,5.4-1.7c2-1.3,2.8-3.4,1.9-5.4
		c-1-2.2-3-2.3-4.9-1.8c-1.7,0.4-3.3,1.2-5,1.6c-6.3,1.7-11.9-2.8-11.6-9.3c0.1-1.9,0.9-3.5,2.3-4.9
		C1242.9,183.9,1247.1,182.1,1252,182.2z"/>
	<path class="st2" d="M1092.4,177.2c7,0.1,11.5,6.4,9.1,12.9c-1,2.8-2.6,5.2-4.9,7.1c-3.4,2.9-7.7,3-11.2,0.2
		c-3.3-2.5-4.4-6.9-2.6-10.8c2.2-4.7,2.2-4.7,6.5-2.1c2.1,1.3,4.2,2.5,6.2,3.8c1.5,1,2,0.4,2.2-1.1c0.5-3.2-1.9-5.7-5.6-5.8
		c-0.9,0-1.7,0.4-2.3-0.8C1088.4,177.8,1088.9,177.1,1092.4,177.2z M1090.8,195.2c1.6-0.1,3.1-0.7,3.6-2c0.6-1.4-1.2-1.4-2-2
		c-0.8-0.7-1.8-1.2-2.7-1.7c-0.8-0.4-1.6-1.5-2.3-0.9c-0.9,0.7-0.9,2.1-0.6,3.3C1087.3,193.9,1089,194.7,1090.8,195.2z"/>
	<path class="st2" d="M1258.5-72.3c-7.3-0.1-11.8-6.9-9-13.6c1.1-2.7,2.7-5.1,5.1-7c3.3-2.5,7.4-2.5,10.6,0.1
		c3.3,2.6,4.5,6.7,2.9,10.5c-2.1,5-2.3,5.1-6.9,2.3c-2-1.2-4-2.4-5.9-3.7c-1.6-1.1-2-0.3-2.2,1.1c-0.4,3.1,1.9,5.6,5.4,5.7
		c0.9,0,1.9-0.4,2.5,0.9C1262.4-73,1261.9-72.3,1258.5-72.3z M1264.1-86c0.2-1.9-0.9-3.1-2.5-3.9c-1.7-0.8-3.2-0.6-4.6,0.6
		c-0.9,0.8-1.4,1.4,0.1,2.1c1.5,0.8,2.9,1.8,4.4,2.7c0.6,0.3,1.2,1.2,1.9,0.7C1264.1-84.1,1264.2-85.1,1264.1-86z"/>
	<path class="st2" d="M1179,223.3c-2.1,0-4.2-0.4-6-1.5c-0.8-0.5-2.6-0.7-1.6-2.1c0.8-1.1,1.4-3.4,3.7-1.9c1.6,1.1,3.5,1,5.3,0.9
		c1.3-0.1,2.3-0.7,2.4-2.1c0.1-1.6-1.1-1.9-2.3-2c-1.5-0.2-3-0.2-4.5-0.4c-3.1-0.2-5.2-1.8-5.8-4.6c-0.8-3.2,0.3-5.9,3.2-7.4
		c4.8-2.5,9.5-1.8,13.9,1.2c0.6,0.4,1.9,0.9,0.8,1.8c-1,0.7-1.3,3.2-3.4,1.8c-1.9-1.3-4-1.9-6.4-1.8c-1,0.1-1.8,0.3-2.6,0.8
		c-0.9,0.6-1.3,1.3-1,2.3c0.2,0.9,1,1.3,1.9,1.4c1.5,0.1,3,0.2,4.5,0.4c4.1,0.5,6.3,2.5,6.5,5.9c0.2,3.5-1.9,6.1-5.9,6.9
		C1180.9,223.1,1180,223.2,1179,223.3z"/>
	<path class="st2" d="M1206.8,211.2c-0.5-3.2-1.1-7-1.9-10.9c-0.3-1.5-0.2-2.4,1.6-2.6c1.4-0.1,2.8-0.7,3.1,1.5
		c0.9,6,2.1,11.9,3,17.9c0.1,0.7,0.5,1.7-0.6,1.8c-1.2,0.1-2.9,1.4-3.6,0.1c-0.9-1.7-1.2-0.4-1.7,0c-5,3.9-11.2,1.7-12.5-4.5
		c-0.8-4-1.3-8-2.1-12c-0.6-2.6,1.1-2.5,2.7-2.9c1.9-0.5,1.7,0.9,1.9,2c0.6,3.7,1.2,7.4,2,11c0.5,2.5,2.3,3.7,4.8,3.3
		C1205.6,215.8,1206.8,214.3,1206.8,211.2z"/>
	<path class="st2" d="M1166.1,210.1c-0.1,6.5-3,10.8-8.2,11.8c-3.8,0.7-7-0.5-9.6-3.5c-0.7-0.8-0.9-1.5,0.1-2c1-0.4,1.7-2.6,3.2-1.1
		c1.9,2,4.2,2.4,6.6,1.5s2.9-3.3,3.1-5.6c0.5-6.2-2.7-8.5-8.4-6c-2,0.9-2.3-1.1-3.2-1.9c-1.2-1.1,0.3-1.6,0.9-2
		c3.3-2.2,6.8-2.5,10.4-0.6C1164.6,202.8,1166.1,206.1,1166.1,210.1z"/>
	<path class="st2" d="M1136.5,217.1c-2.8,0.9-5.5,1-8-0.9c-1.1-0.8-1.7-1.6,0-2.6c1.5-0.9,2.5-2.4,4.7-0.7c2.1,1.6,4.8,0.1,5.5-2.7
		c1-3.7,1.9-7.4,2.7-11.1c0.4-2,1.4-1.7,2.8-1.4s2.4,0.6,1.8,2.6c-1.6,5.8-2.9,11.6-4.3,17.4c-0.2,0.7,0,2.1-1.3,1.6
		c-1.3-0.4-3.4,0.4-3.6-2c0.2-0.2,0.3-0.4,0-0.6C1136.8,216.8,1136.7,217,1136.5,217.1z"/>
	<path class="st2" d="M1119.3,190.6c-0.3,0.7-0.5,1.2-0.7,1.7c-2.4,5.2-4.7,10.5-7.1,15.7c-0.3,0.7-0.4,2.1-1.2,1.9
		c-1.3-0.3-3.3-0.6-3.5-1.9c-0.3-1.8-1.1-1.1-2-1.1c-2.7,0.1-4.8-0.9-6.5-3c-0.7-0.8-0.7-1.4,0.4-1.9c1.8-0.8,3.2-2,5.2,0.1
		c1.8,1.9,4.8,0.7,6.1-1.9c1.6-3.5,3.2-7,4.7-10.4c0.4-0.9,0.9-1.4,1.9-0.9C1117.5,189.4,1118.8,189.5,1119.3,190.6z"/>
	<path class="st2" d="M1218.3,194.7c1-0.2,1.2,0.5,1.5,1.2c1.7,6,3.4,11.9,5.3,17.8c0.6,2.1-1,2-2.1,2.4c-1.3,0.5-2,0.5-2.4-1.1
		c-1.5-5.6-3.2-11.1-4.8-16.7C1214.9,195.8,1215.6,194.9,1218.3,194.7z"/>
	<path class="st2" d="M1121.5,214.2c-2.3,0-3.3-1.3-2.4-3.7c1.9-5.4,3.8-10.8,5.5-16.3c0.7-2.2,1.9-1.4,3.2-1.1
		c1.4,0.4,1.9,0.9,1.3,2.5c-2.1,5.6-3.9,11.3-5.9,16.9C1122.9,213.4,1122.8,214.3,1121.5,214.2z"/>
	<path class="st2" d="M1239.6,218.8c0.2,1.3-0.8,1.3-1.5,1.6c-0.8,0.4-1.6,0.6-2-0.6c-0.6-1.6-1.1-3.1-1.8-4.6
		c-0.5-1.2-0.1-1.8,1.1-2.2s2-0.5,2.4,1C1238.3,215.7,1239,217.3,1239.6,218.8z"/>
	<path class="st2" d="M1232.2-117.9c0.8,1,3.2,0.1,3,2c-0.1,1.2,0,3.4-2,3.3c-1.1-0.1-3.3,0-3.2-1.8
		C1230.1-115.5,1230.2-117.4,1232.2-117.9z"/>
	<path class="st2" d="M1121.1,219c-1,1.1-0.3,3.4-2.2,3.5c-1.1,0-3.2-0.1-3.3-1.7c-0.1-1.2,0.1-3.3,1.9-3.5
		C1118.6,217.2,1120.2,217.6,1121.1,219z"/>
	<path class="st2" d="M1227.8,222.9c-0.5,2-2.4,2-3.5,2c-1.9,0-1.7-2.3-1.8-3.4c0-1.8,2.1-1.6,3.2-1.6
		C1227.7,219.6,1226.8,222,1227.8,222.9z"/>
	<path class="st5" d="M1146.2,154.7c-72.8-0.3-131.9-58.7-131.9-132c0.1-74.8,61.3-131.7,131.8-131.7c71.1,0,131.9,57.5,131.8,132
		C1278,96,1218.8,154.4,1146.2,154.7z"/>
	<path class="st4" d="M1097.1,155.6c56,17.4,106.8,8.6,148.7-33.4c41.8-41.9,50.7-92.7,33.4-148.1c30.9,36.9,41,107.6-3.6,161
		C1225.5,194.9,1144.1,193.3,1097.1,155.6z"/>
	<path class="st3" d="M1214.2-112.3c-0.1,0.1-0.2,0.2-0.2,0.3c0-0.1-0.1-0.1-0.1-0.1C1214-112.2,1214.1-112.3,1214.2-112.3
		C1214.1-112.4,1214.2-112.3,1214.2-112.3z"/>
	<path class="st3" d="M1090.8,195.2c-1.8-0.4-3.5-1.3-4-3.4c-0.3-1.1-0.3-2.5,0.6-3.3c0.8-0.6,1.6,0.5,2.3,0.9c1,0.5,1.9,1,2.7,1.7
		c0.7,0.6,2.5,0.6,2,2C1093.9,194.5,1092.4,195.1,1090.8,195.2z"/>
	<path class="st3" d="M1264.1-86c0.1,0.9,0,1.8-0.7,2.3s-1.3-0.4-1.9-0.7c-1.5-0.9-2.9-1.9-4.4-2.7c-1.5-0.8-1-1.4-0.1-2.1
		c1.4-1.2,2.9-1.4,4.6-0.6C1263.3-89,1264.3-87.9,1264.1-86z"/>
	<path class="st3" d="M1136.5,217.1c0.1-0.1,0.3-0.3,0.4-0.3c0.3,0.2,0.2,0.4,0,0.6C1136.7,217.3,1136.6,217.2,1136.5,217.1z"/>
</g>
<g>
	<circle class="st6" cx="102.1" cy="101.7" r="30.7"/>
	<line class="st6" x1="80.4" y1="80" x2="123.7" y2="123.3"/>
	<line class="st6" x1="80.6" y1="123.2" x2="123.6" y2="80.2"/>
</g>
<g>
	<circle class="st6" cx="102.1" cy="506.7" r="30.7"/>
	<line class="st6" x1="80.4" y1="485.1" x2="123.7" y2="528.3"/>
	<line class="st6" x1="80.6" y1="528.2" x2="123.6" y2="485.2"/>
</g>
<g>
	<circle class="st6" cx="506.7" cy="506.7" r="30.7"/>
	<line class="st6" x1="485.1" y1="485.1" x2="528.3" y2="528.3"/>
	<line class="st6" x1="485.2" y1="528.2" x2="528.2" y2="485.2"/>
</g>
<g>
	<circle class="st6" cx="506.7" cy="101.7" r="30.7"/>
	<line class="st6" x1="485.1" y1="80" x2="528.3" y2="123.3"/>
	<line class="st6" x1="485.2" y1="123.2" x2="528.2" y2="80.2"/>
</g>
</svg>
