<?xml version="1.0" encoding="utf-8"?>
<!-- Generator: Adobe Illustrator 21.0.0, SVG Export Plug-In . SVG Version: 6.00 Build 0)  -->
<svg version="1.1" xmlns="http://www.w3.org/2000/svg" xmlns:xlink="http://www.w3.org/1999/xlink" x="0px" y="0px"
	 viewBox="0 0 566.9 566.9" style="enable-background:new 0 0 566.9 566.9;" xml:space="preserve">
<style type="text/css">
	.st0{display:none;}
	.st1{display:inline;fill:#FFD910;}
	.st2{fill:#373632;}
</style>
<g id="Calque_1" class="st0">
	<circle class="st1" cx="283.5" cy="283.5" r="283.5"/>
</g>
<g id="Calque_2">
	<path class="st2" d="M278.4,390.4c-47.2,0-94.5,0.1-141.7,0c-8.6,0-20.3,1.6-20.4-10.8c-0.1-12,11.1-11.6,20-11.6
		c96.7,0,193.3,0,290,0c9,0,19.8,0,19.3,12.3c-0.4,10.8-10.8,10.1-18.9,10.1C377.3,390.4,327.8,390.4,278.4,390.4z"/>
	<path class="st2" d="M409.7,185.9c0,23.5-20.3,44-43.7,44.1c-23.6,0.1-43.9-19.8-44.4-43.4c-0.5-24.8,19.9-45.4,44.7-45
		C390.1,142.1,409.7,162.1,409.7,185.9z"/>
	<path class="st2" d="M241.4,185.4c0.3,23.5-19.7,44.2-43.2,44.6c-23.5,0.5-44.1-19.2-44.9-42.8c-0.8-24.8,19.5-45.6,44.1-45.5
		C221.3,141.8,241.1,161.5,241.4,185.4z"/>
</g>
</svg>
