<?xml version="1.0" encoding="utf-8"?>
<!-- Generator: Adobe Illustrator 21.0.0, SVG Export Plug-In . SVG Version: 6.00 Build 0)  -->
<svg version="1.1" id="Calque_1" xmlns="http://www.w3.org/2000/svg" xmlns:xlink="http://www.w3.org/1999/xlink" x="0px" y="0px"
	 viewBox="0 0 566.9 566.9" style="enable-background:new 0 0 566.9 566.9;" xml:space="preserve">
<style type="text/css">
	.st0{display:none;}
	.st1{display:inline;fill:#FFD910;}
	.st2{fill:#373632;}
	.st3{fill:#6782CE;}
</style>
<g id="Calque_1_1_" class="st0">
	<circle class="st1" cx="283.5" cy="283.5" r="283.5"/>
</g>
<path class="st2" d="M283.1,363.3c53.7,1.8,97.9,19.3,135.3,53.4c6.1,5.6,16.4,11.2,7.3,21.3c-9,10-16.3,0.4-22.4-4.9
	c-53.6-46.3-113.7-58.8-180.9-36c-22.7,7.7-41.8,21-59.8,36.6c-6.2,5.4-13.6,14.9-22.4,5c-8.6-9.7,1.1-15.7,7.4-21.6
	C186.9,380.9,233.5,364,283.1,363.3z"/>
<path class="st2" d="M366.4,141.7c23.8,0.4,43.4,20.4,43.3,44.2c-0.1,23.4-20.5,44.1-43.7,44.1c-24.5,0-45.1-21.2-44.3-45.6
	C322.4,160.4,342.5,141.3,366.4,141.7z"/>
<path class="st2" d="M198.5,229.9c-23.5,0.6-44.3-18.9-45.2-42.5c-0.9-24.7,19.2-45.8,43.8-45.8c23.7-0.1,43.7,19.6,44.2,43.4
	C241.8,208.4,221.9,229.3,198.5,229.9z"/>
<path class="st3" d="M410.3,226.8c14,22.9,23.9,45.7,31,69.6c4.4,14.8,1.5,27.9-11.3,37.4c-11,8.2-22.9,9.7-35.2,2.7
	c-13.8-7.8-19-20.7-17.3-35.5C380.6,274.2,392,250.5,410.3,226.8z"/>
</svg>
