<?xml version="1.0" encoding="utf-8"?>
<!-- Generator: Adobe Illustrator 21.0.0, SVG Export Plug-In . SVG Version: 6.00 Build 0)  -->
<svg version="1.1" id="Calque_1" xmlns="http://www.w3.org/2000/svg" xmlns:xlink="http://www.w3.org/1999/xlink" x="0px" y="0px"
	 viewBox="0 0 566.9 566.9" style="enable-background:new 0 0 566.9 566.9;" xml:space="preserve">
<style type="text/css">
	.st0{display:none;}
	.st1{display:inline;fill:#FFD910;}
	.st2{fill:#373632;}
</style>
<g id="Calque_1_1_" class="st0">
	<circle class="st1" cx="283.5" cy="283.5" r="283.5"/>
</g>
<g>
	<path class="st2" d="M479.9,287.2c-4.7,97.8-82.3,182.2-167.6,191.6c-111.7,12.2-200.1-60.6-221.7-156.6
		c-2.6-11.4-3.2-23.4-3.9-35.1c-0.4-6,1.1-12,9-12.9c7.3-0.9,10.9,3.4,12.4,9.7c1,4.3,1.8,8.6,2.3,13c9.1,84.9,74.9,154,151.9,159.3
		c94.4,6.6,168.3-45.7,190.8-135.4c2.7-10.6,2.6-21.9,4.7-32.7c1.4-7.2,3.3-15.3,13.6-13.9C481.9,275.9,479.6,284.5,479.9,287.2z"/>
	<path class="st2" d="M366.5,229.9c-23.4,0.6-44.1-19.3-44.8-42.8c-0.7-23.9,18.2-44.3,42-45.4c24.7-1.1,45.8,18.9,46.1,43.6
		C410,208.7,389.9,229.4,366.5,229.9z"/>
	<path class="st2" d="M241.4,184.8c0.6,23.4-19.1,44.1-42.7,45.1c-23.3,1-44.4-18.7-45.4-42.2c-1-24.7,19-45.9,43.6-46.1
		C220.7,141.5,240.8,161,241.4,184.8z"/>
</g>
</svg>
