<?xml version="1.0" encoding="utf-8"?>
<!-- Generator: Adobe Illustrator 21.0.0, SVG Export Plug-In . SVG Version: 6.00 Build 0)  -->
<svg version="1.1" id="Calque_1" xmlns="http://www.w3.org/2000/svg" xmlns:xlink="http://www.w3.org/1999/xlink" x="0px" y="0px"
	 viewBox="0 0 166.1 785.5" style="enable-background:new 0 0 166.1 785.5;" xml:space="preserve">
<style type="text/css">
	.st0{fill:#EEEEEF;}
	.st1{fill:#131212;}
	.st2{fill:#1A233B;}
	.st3{fill:none;}
</style>
<image style="overflow:visible;enable-background:new    ;" width="204" height="160" xlink:href="../../../Capture d’écran 2019-05-11 à 14.21.35.png"  transform="matrix(0.5378 0 0 0.5378 -154.617 -15.0567)">
</image>
<g>
	<g>
		<path class="st0" d="M-252.4,0c2.3,2.2,5.1,3.6,7.2,6.1c3.1,3.7,5.2,7.9,7.4,12.1c4.2,8.1,10.7,13.4,18.9,16.5
			c6.7,2.5,13.6,2.2,20.1-0.8c4.9-2.3,4.9-8.7,0.3-11.9c-9.8-6.9-20-6.4-30.6-2.3c-0.7,0.3-1.4,0.5-2.1,0.8
			c-0.9,0.5-1.7,0.9-2.1-0.4c-0.5-1.3,0.8-1.2,1.4-1.6c3.2-1.8,6.7-2.4,10.2-3c6.5-1.1,13.1-1.5,19.5,0.7c6,2,9.9,7.3,9.9,13.2
			c0,3.4-1.6,5.3-4.5,6.8c-4.7,2.4-9.8,2.4-14.8,2.4c-5.1,0-9.9-1.7-14.6-3.8c-6.7-3-10.7-8.5-14.4-14.4c-1.7-2.7-3-5.5-4.5-8.3
			c-2.5-5-6.8-8.1-11.5-10.7c-0.7-0.4-1.6-0.5-2-1.4C-256.4,0.1-254.4,0-252.4,0z"/>
		<path class="st0" d="M-191.7,738.5c2.1-6.1,4.8-12,7.4-17.9c2.6-5.8,5.2-11.7,7.8-17.5c0.6-1.4,1.2-2.2,2.9-1
			c1.3,0.9,2.7,1.6,4.3,1.8c1.6,0.3,1.8,1.1,1.1,2.4c-1.5,3.1-2.8,6.2-4.3,9.3c-3.6,7.8-7.2,15.5-9.9,23.7c-1,3.1-0.1,4.2,3.1,3.8
			c2.3-0.3,4.7-0.7,7.1,0.1c3.6,1.1,5.7,3.9,7.6,6.8c1.5,2.3,2.6,4.6,2.2,7.4c-1,7.1-6,11.9-13.4,13c-4,0.6-7.9,0.7-10.9-2.5
			c-2.9-3-5.3-6.5-5.7-10.8c-0.5-4.9-0.9-9.7-0.3-14.7C-192.1,741.1-192.1,739.8-191.7,738.5z M-179.9,758.9c-0.3,2.3,1.6,2.6,3.2,3
			c1.6,0.4,3,0,3.3-1.7c0.4-2.7-2.2-2.1-3.5-2.8C-178.4,757-179.7,757.5-179.9,758.9z"/>
		<path class="st0" d="M-195.2,776.9c-3,4.5-5.7,5.8-9.7,4.1c-4.6-1.9-8.4-5-10.8-9.2c-3.5-6.1-5-12.9-6.7-19.7
			c-2.6-10.7-4-21.5-5.7-32.3c-0.3-1.6-0.3-2.9,2.1-2.3c1.5,0.4,3.1,0,4.6-0.6c0.6-0.2,1.3-0.5,1.4,0.6c0.3,6.2,2.2,12.2,3,18.4
			c0.7,6,2.2,11.9,3.7,17.8c0.5,2,1.7,2.3,3.3,0.9c1.4-1.3,2.9-2.5,4.7-3.3c3.7-1.5,8.6,1.3,9.1,5.2c0.4,3.4,1.1,6.7,3.3,9.6
			c0.8,1,1,2.1,0.7,3C-192.8,771.9-193.7,774.6-195.2,776.9z M-199.5,765.3c-0.6-1.7-1.9-2.9-3.8-2.7c-2,0.2-4.2,0.8-4.6,3.1
			c-0.8,3.6-0.2,7.1,2,10.2c1.1,1.6,2.5,2.3,4.5,1.6c1.9-0.6,3.1-1.8,3.2-3.9C-198.1,770.7-198.6,768-199.5,765.3z"/>
		<path class="st0" d="M-225.8,704.1c0.8-8.4,3.2-16.3,7.1-23.9c5-9.7,11.3-18.6,16.5-28.1c3.2-5.9,6.3-11.9,8.1-18.4
			c2.5-9.2,5-18.5,6.4-28c1.1-7.2,2.6-14.3,4.7-21.3c2.6-8.6,3-17.5,3.7-26.4c0.3-4.1,0.3-8,2.2-11.8c0.2-0.4,0.2-1,0.2-1.5
			c-0.9-8.2,0.3-16.3,0.6-24.4c0.4-10.2,0.3-20.4-1.3-30.6c-0.7-4.4,0.3-8.8,0.5-13.2c0.2-4.2-1.2-8.2-1.5-12.4
			c0-0.4-0.2-0.7-0.6-0.6c-0.6,0.1-1.1,0.4-1,1.2c0.3,1.7,0.5,3.4,0.7,5.2c0.7,5.1,0.1,10.3,0,15.4c0,3.7,0.2,7.3,0.7,10.9
			c1.1,8.2,0.1,16.4,0.3,24.6c0.2,7.5-1.7,14.9-0.6,22.4c0.3,2-0.9,3.8-1.6,5.7c-0.8,2.1-1.4,4.3-0.8,6.6c0.5,2,0,4-0.2,5.9
			c-0.7,5.8-1.4,11.6-2,17.3c-0.2,1.8-1.1,3.3-1.7,4.9c-2.9,7.1-3.8,14.6-5.3,22c-2.9,13.3-5,26.9-10.8,39.3
			c-2.6,5.5-5.6,10.9-9.1,16c-4.5,6.7-8.6,13.6-12,20.9c-3.1,6.7-4.6,13.9-5.2,21.2c0,0.4,0,0.8,0.1,1.2c0.2,0.6,0.1,1.4,1.2,1.2
			C-225.9,705.4-225.7,705.2-225.8,704.1z"/>
		<path class="st0" d="M-174.1,571.7c-2.8,9.9-5.2,20-4.7,30.4c0.4,9.2,2.6,17.9,6.1,26.5c3,7.3,5.1,15.1,5.7,23.1
			c0.4,5.4,2,10.6,2.3,16c0.4,7.9-0.1,15.6-2,23.2c-0.2,0.7-0.9,1.5,0.2,1.8c1.1,0.3,1-0.8,1.3-1.4c2.8-6,3.5-12.3,3.3-18.9
			c-0.4-8.5-1.3-16.9-2.9-25.2c-1.6-8.3-4.8-16.2-7.2-24.3c-3.5-12-6-24.1-2.9-36.8c1.5-6.4,2.4-12.9,4.2-19.2
			c1.6-5.7,2.8-11.6,5.9-17c2.3-3.9,3-8.7,4.3-13.2c2.4-8.8,4.3-17.8,5.3-26.9c0.8-6.4-0.1-12.5-1.8-18.7c-1.6-6.2-4-12.1-6.8-17.9
			c-1.8-3.7-4-7.1-6.8-10.1c-0.5-0.5-1-1.5-1.8-0.9c-1,0.8,0.2,1.5,0.6,2c3.2,4,6.2,8.1,8,12.9c3.8,10,7.9,20.1,6.7,31.1
			c-0.8,7.4-2.4,14.6-4,21.8c-1.2,5.3-3.4,10.3-4.3,15.6c-0.3,1.6-0.9,3.3-2,4.5c-2.2,2.4-2.9,5.4-3.5,8.4c-0.4,2-1.1,3.8-1.9,5.6
			C-173.3,566.6-173.2,569.2-174.1,571.7z"/>
		<path class="st0" d="M-180.2,386.9c-0.4,9.9,0.7,19.9-0.6,29.8c-0.9,7.1-1.6,14.4-1.6,21.6c0,0.6-0.8,1.8,0.8,1.7
			c1-0.1,2,0.1,2.1-1.6c0.5-9.7,0.8-19.4,1.7-29.1c0.6-6.2,0.3-12.4,0.2-18.6c0-4.8,1.7-9.6,3.3-14.2c0.9-2.8,1-2.8-1.6-4.5
			c-1.6,3.5-2.5,7.3-3.8,10.9C-179.8,384.2-180,385.5-180.2,386.9z"/>
		<path class="st0" d="M-185.8,452.9c0,2.2-0.1,4.3,0,6.5c0,0.9,0.1,1.7,1.6,1.4c4-1,8.1-1.6,12.1-2.7c1.8-0.5,2.2-1.5,1.4-3.1
			c-1.6-3.6-3.7-6.9-6.7-9.5c-2.7-2.4-4.6-2-6.3,1.2C-184.7,448.5-185.6,450.6-185.8,452.9z"/>
		<path class="st0" d="M-225.5,713.6c0.7-0.3,2,0.2,1.7-0.8c-0.4-1.2,0.2-3.2-1.9-3.4c-0.6-0.1-1.7,0-1.5,1.1
			C-226.9,711.6-227.4,713.4-225.5,713.6z"/>
		<path class="st0" d="M-170.6,698c-0.6,1-0.1,1.4,0.5,1.5c1.4,0.1,1.4-1.4,2-2.1c0.5-0.7-0.2-1.4-0.8-1.5
			C-170.6,695.6-169.9,697.6-170.6,698z"/>
		<path class="st1" d="M-174.1,571.7c0.8-2.4,0.7-5,1.2-7.6c-1.3,0.2-0.7,1.4-0.8,2C-173.8,567.9-174.7,569.7-174.1,571.7z"/>
		<path class="st1" d="M-180.2,386.9c0.2-1.3,0.4-2.7,0.6-4c0-0.1-0.1-0.2-0.1-0.2c-0.1-0.2-0.3-0.5-0.4-0.2
			c-0.4,2.1-0.6,4.2-0.7,6.3C-180.6,388.1-180.4,387.5-180.2,386.9z"/>
		<path class="st2" d="M-176.9,757.3c-1.6-0.3-2.8,0.2-3,1.6c-0.3,2.3,1.6,2.6,3.2,3c1.6,0.4,3,0,3.3-1.7
			C-173,757.5-175.6,758-176.9,757.3z"/>
		<path class="st2" d="M-201.5,777.5c-2,0.7-3.4,0-4.5-1.6c-2.2-3.1-2.7-6.6-2-10.2c0.5-2.2,2.7-2.9,4.6-3.1c1.8-0.2,3.2,1,3.8,2.7
			c0.9,2.7,1.4,5.4,1.3,8.3C-198.3,775.7-199.5,776.8-201.5,777.5z M-202.1,767.1c-0.1-0.7-0.3-1.4-1.1-1.4
			c-0.8-0.1-1.4,0.5-1.8,1.2c-0.6,1.3,0.3,6.1,1.4,7.1c0.4,0.3,0.8,0.7,1.3,0.4c0.9-0.4,0.8-1.4,1-2.6
			C-201.4,770.6-201.8,768.8-202.1,767.1z"/>
		<path class="st1" d="M-201.2,771.9c-0.2-1.3-0.6-3-0.9-4.7c-0.1-0.7-0.3-1.4-1.1-1.4c-0.8-0.1-1.4,0.5-1.8,1.2
			c-0.6,1.3,0.3,6.1,1.4,7.1c0.4,0.3,0.8,0.7,1.3,0.4C-201.3,774-201.5,773.1-201.2,771.9z"/>
	</g>
	<path class="st3" d="M-172.1,551.9c6-9.4,7.3-20.3,9.8-30.8c1.8-7.2,2.8-14.5,2.1-22c-0.2-2.6-0.7-5.1-1.6-7.5
		c-2.1-6-3.7-12.3-6.7-17.9c-1.8-3.3-4.2-6.1-6.4-9.1c-0.2,0.1-0.5,0.2-0.7,0.3c0.3,1.7,0.4,3.4,0.8,5.1c1.3,5.4-0.1,10.8,0,16.1
		c0.1,5.2,1.1,10.2,1.4,15.4c0.3,6.6,0.3,13.3,0,19.9c-0.3,7.7-1.4,15.4-0.5,23.1c0.1,1.2-0.1,2.3-0.6,3.4c-1.4,2.8-2.5,5.6-1.5,8.9
		c0.2,0.7-0.1,1.6-0.2,2.5c-0.5,4.1-1.4,8.2-1.1,12.8c0.4-1.1,1-2,1-2.8c-0.3-5.4,2.6-10.1,3.4-15.2
		C-172.8,553.2-172.5,552.5-172.1,551.9z"/>
	<path class="st3" d="M-226.6,705.6c0.7-0.2,0.9-0.3,0.8-1.5c0.8-8.4,3.2-16.3,7.1-23.9c5-9.7,11.3-18.6,16.5-28.1
		c3.2-5.9,6.3-11.9,8.1-18.4c2.5-9.2,5-18.5,6.4-28c1.1-7.2,2.6-14.3,4.7-21.3c2.6-8.6,3-17.5,3.7-26.4c0.3-4.1,0.3-8,2.2-11.8
		c0.2-0.4,0.2-1,0.2-1.5c-0.9-8.2,0.3-16.3,0.6-24.4c0.4-10.2,0.3-20.4-1.3-30.6c-0.7-4.4,0.3-8.8,0.5-13.2
		c0.2-4.2-1.2-8.2-1.5-12.4c0-0.4-0.2-0.7-0.6-0.6c-0.6,0.1-1.1,0.4-1,1.2c0.3,1.7,0.5,3.4,0.7,5.2c0.7,5.1,0.1,10.3,0,15.4
		c0,3.7,0.2,7.3,0.7,10.9c1.1,8.2,0.1,16.4,0.3,24.6c0.2,7.5-1.7,14.9-0.6,22.4c0.3,2-0.9,3.8-1.6,5.7c-0.8,2.1-1.4,4.3-0.8,6.6
		c0.5,2,0,4-0.2,5.9c-0.7,5.8-1.4,11.6-2,17.3c-0.2,1.8-1.1,3.3-1.7,4.9c-2.9,7.1-3.8,14.6-5.3,22c-2.9,13.3-5,26.9-10.8,39.3
		c-2.6,5.5-5.6,10.9-9.1,16c-4.5,6.7-8.6,13.6-12,20.9c-3.1,6.7-4.6,13.9-5.2,21.2c0,0.4,0,0.8,0.1,1.2
		C-227.6,705-227.7,705.8-226.6,705.6z"/>
	<path class="st3" d="M-173.1,636.9c-1.9-6.8-5.3-13.1-6.6-20.1c-1.6-8.1-2.9-16.2-1.7-24.5c0.1-0.4,0.1-0.8,0.2-1.2
		c-1,1.2-1.4,2.4-1.6,3.7c-0.8,9-2.8,17.8-4.9,26.5c-2,8.5-3.9,17.2-8,25.1c-3.7,7.1-7.6,14-11.9,20.7c-4.7,7.3-9,14.8-12,23
		c-1.3,3.5-1.9,7.2-2.8,10.8c-0.5,2.1-0.4,4.1,1.1,5.9c0.7,0.8,0.6,1.9,0.9,2.8c0.4,1.4,0.7,2.7,2.5,3c1.3,0.2,1.8,1.5,1.8,2.7
		c0.5,8.3,2.7,16.4,3.8,24.6c0.3,2.5,1,5,1.5,7.6c0.3,1.4,0.9,1.9,2.3,1c3.3-2.2,6.8-2,10.2-0.3c2.1,1,1.6-0.9,1.6-1.6
		c-0.1-2.8,0.5-5.4,1.1-8.1c1.3-5.4,3.9-10.3,5.9-15.3c3-7.3,6.3-14.4,9.6-21.6c0.9-2,2.1-3.8,4.5-4.2c0.2,0,0.7-0.1,0.7-0.2
		c0.9-3.6,5-5.2,5.7-9c1.4-7.7,2.4-15.6,1.1-23.3C-169.7,655.5-170.5,646.1-173.1,636.9z"/>
	<path class="st3" d="M-228.9,22.7c4.8-1.8,9.6-3.1,14.1-2.9c6.1-0.2,10.7,1.7,15,4.9c2.7,2.1,2.3,5.6-0.9,6.8
		c-7.5,3-14.7,2-21.8-1.7c-2.5-1.3-4.5-3.1-6.7-4.6C-230.7,24.1-230.6,23.4-228.9,22.7z"/>
	<path class="st3" d="M-170.6,698c-0.6,1-0.1,1.4,0.5,1.5c1.4,0.1,1.4-1.4,2-2.1c0.5-0.7-0.2-1.4-0.8-1.5
		C-170.6,695.6-169.9,697.6-170.6,698z"/>
	<path class="st3" d="M-166.8,368.9c7.2,6,14.8,11,24.3,13.1c5.9,1.3,11.8,1.9,17.7,0.9c6.6-1.1,14.4-9.4,15.5-16
		c2-12.1-5.5-22.4-17.7-24.3c-1.4-0.2-2.8-0.4-4.2-0.6c-5.8-1.2-11.5-1.2-17.1,1.1c-5.6,2.3-9.9,6.2-13.3,11.2
		c-2.6,3.8-4.1,8.1-5.8,12.4C-167.9,367.6-167.6,368.2-166.8,368.9z"/>
	<path class="st3" d="M-180.8,416.7c-0.9,7.1-1.6,14.4-1.6,21.6c0,0.6-0.8,1.8,0.8,1.7c1-0.1,2,0.1,2.1-1.6
		c0.5-9.7,0.8-19.4,1.7-29.1c0.6-6.2,0.3-12.4,0.2-18.6c0-4.8,1.7-9.6,3.3-14.2c0.9-2.8,1-2.8-1.6-4.5c-1.6,3.5-2.5,7.3-3.8,10.9
		c0-0.1-0.1-0.2-0.1-0.2c-0.1-0.2-0.3-0.5-0.4-0.2c-0.4,2.1-0.6,4.2-0.7,6.3c0.2-0.6,0.4-1.3,0.6-1.9
		C-180.6,396.8-179.6,406.7-180.8,416.7z"/>
	<path class="st3" d="M-225.7,709.4c-0.6-0.1-1.7,0-1.5,1.1c0.3,1.2-0.2,2.9,1.7,3.2c0.7-0.3,2,0.2,1.7-0.8
		C-224.2,711.6-223.6,709.6-225.7,709.4z"/>
	<path class="st3" d="M-183.6,446.5c-1,2-2,4-2.2,6.4c0,2.2-0.1,4.3,0,6.5c0,0.9,0.1,1.7,1.6,1.4c4-1,8.1-1.6,12.1-2.7
		c1.8-0.5,2.2-1.5,1.4-3.1c-1.6-3.6-3.7-6.9-6.7-9.5C-180,443-181.9,443.4-183.6,446.5z"/>
	<path class="st3" d="M-196.2,756.4c-0.5-3.9-5.4-6.7-9.1-5.2c-1.8,0.7-3.2,2-4.7,3.3c-1.5,1.4-2.8,1.1-3.3-0.9
		c-1.5-5.9-3-11.7-3.7-17.8c-0.7-6.2-2.6-12.2-3-18.4c-0.1-1.1-0.7-0.9-1.4-0.6c-1.5,0.6-3.1,1-4.6,0.6c-2.5-0.6-2.4,0.7-2.1,2.3
		c1.7,10.8,3.1,21.6,5.7,32.3c1.6,6.8,3.2,13.6,6.7,19.7c2.4,4.2,6.2,7.3,10.8,9.2c4,1.7,6.7,0.4,9.7-4.1c1.5-2.3,2.4-4.9,2.9-7.9
		c0.3-1,0.1-2-0.7-3C-195.1,763.2-195.8,759.8-196.2,756.4z"/>
	<path class="st3" d="M-169.3,703.8c-1.6-0.3-3.1-0.9-4.3-1.8c-1.7-1.2-2.3-0.4-2.9,1c-2.6,5.9-5.1,11.7-7.8,17.5
		c-2.7,5.9-5.4,11.8-7.4,17.9c-0.4,1.3-0.5,2.6-0.9,3.8c-0.6,4.9-0.2,9.8,0.3,14.7c0.4,4.4,2.8,7.8,5.7,10.8c3,3.2,6.9,3.1,10.9,2.5
		c7.4-1.1,12.4-5.9,13.4-13c0.4-2.9-0.7-5.2-2.2-7.4c-1.9-2.9-4-5.7-7.6-6.8c-2.4-0.7-4.7-0.4-7.1-0.1c-3.2,0.4-4.2-0.7-3.1-3.8
		c2.7-8.2,6.3-15.9,9.9-23.7c1.4-3.1,2.8-6.2,4.3-9.3C-167.5,704.9-167.7,704.1-169.3,703.8z"/>
	<path class="st3" d="M-172.3,462.2c-1,0.8,0.2,1.5,0.6,2c3.2,4,6.2,8.1,8,12.9c3.8,10,7.9,20.1,6.7,31.1c-0.8,7.4-2.4,14.6-4,21.8
		c-1.2,5.3-3.4,10.3-4.3,15.6c-0.3,1.6-0.9,3.3-2,4.5c-2.2,2.4-2.9,5.4-3.5,8.4c-0.4,2-1.1,3.8-1.9,5.6c-1.3,0.2-0.7,1.4-0.8,2
		c-0.2,1.8-1,3.7-0.5,5.6c-2.8,9.9-5.2,20-4.7,30.4c0.4,9.2,2.6,17.9,6.1,26.5c3,7.3,5.1,15.1,5.7,23.1c0.4,5.4,2,10.6,2.3,16
		c0.4,7.9-0.1,15.6-2,23.2c-0.2,0.7-0.9,1.5,0.2,1.8c1.1,0.3,1-0.8,1.3-1.4c2.8-6,3.5-12.3,3.3-18.9c-0.4-8.5-1.3-16.9-2.9-25.2
		c-1.6-8.3-4.8-16.2-7.2-24.3c-3.5-12-6-24.1-2.9-36.8c1.5-6.4,2.4-12.9,4.2-19.2c1.6-5.7,2.8-11.6,5.9-17c2.3-3.9,3-8.7,4.3-13.2
		c2.4-8.8,4.3-17.8,5.3-26.9c0.8-6.4-0.1-12.5-1.8-18.7c-1.6-6.2-4-12.1-6.8-17.9c-1.8-3.7-4-7.1-6.8-10.1
		C-171,462.5-171.5,461.5-172.3,462.2z"/>
	<path class="st2" d="M-104.5,348.1c-7.5-11.3-18.4-15.1-31.2-15.5c-3.1-0.1-6.1,0.5-9.2,0.5c-3.1,0.1-5.8,1.4-8.4,2.9
		c-8.8,5-15.7,11.9-20.1,21.2c-0.4,0.9-0.6,2.4-1.7,2.5c-1.1,0.1-1.6-1.4-2.1-2.3c-2.7-4.7-4.3-10-5.3-15.3c-1-4.8-1.3-9.7-2.1-14.5
		c-0.7-4.8-0.3-9.6,0.1-14.4c0.6-9,0.4-17.9,0.2-26.9c-0.2-9.2,0.1-18.4-0.3-27.6c-0.3-8.2-0.6-16.4-0.2-24.6c0.4-7.8,0-15.6,1-23.4
		c0.2-1.9,0.4-3.9,0.6-5.8l-3.1-0.2c-0.6,6-1,12.1-1.2,18.1c-0.3,9.2-0.4,18.5-0.3,27.7c0,8.2,0.4,16.4,0.5,24.7
		c0.1,4.3,0,8.6,0.1,13c0.1,6.6,0.4,13.1-0.1,19.7c-0.3,4.1-0.4,8.3-0.6,12.4c-0.4,5.6,1.1,11.1,1.7,16.6c1.4,12.8,5.7,24,15.8,32.8
		c9.3,8,19.2,14.3,31.5,16.1c9.1,1.3,17.8,1.4,25.1-5.9c5-5,8.3-10.6,8.4-17.7c0.1-8.8-5.9-14-11.8-19.2c-1.3-1.1-2.9-1.9-4.6-2.3
		c-4.5-1.3-9.1-1.7-13.7-2.3c-12.6-1.6-23.5,6.3-29.4,15.6c-2.3,3.6-3.8,7.5-5.2,11.5c-2.2-1-2.6-2.5-1.7-4.6
		c3.1-6.8,7.2-13,13.1-17.6c4-3.2,8.2-6.4,13.6-7.1c6.2-0.8,12.4-0.8,18.6,0.4c11.1,2.2,19.1,8.5,22.7,19.2
		c4.4,13-3.2,27.1-16.9,32.1c-6,2.2-12.1,1.9-18.2,1c-11.3-1.6-21.1-6.3-29.3-14.3c-3.4-3.4-7-6.6-10.6-9.8
		c-0.9-0.8-1.7-1.6-2.3-2.6c-1.9-3.8-3.9-7.4-5.3-11.5c-3.1-9.4-3.5-19.2-3.6-28.8c-0.1-14.1,0.1-28.2,0-42.3
		c-0.1-10-0.7-19.9-0.8-29.9c-0.2-15,0.4-30.1,2-45l-3-0.2c-1,7.9-0.9,16-1.6,23.9c-0.6,7.6-0.4,15.3-0.5,22.9
		c-0.1,5.5,0.5,10.9,0.6,16.4c0.2,7.5,0,15.1,0.4,22.6c0.6,11.2-0.8,22.4-0.2,33.6c0.6,10.7,1,21.5,5.1,31.6
		c1.9,4.7,4.3,9.2,8.3,12.5c1,0.8,1.3,1.6,0.8,3c-1.4,3.9-3,7.8-3.7,11.9c-0.7,4.3-1.3,8.7-0.9,13.1c0.7,7.2,0.1,14.2-0.6,21.4
		c-0.7,7.7-2,15.3-1.4,23.1c0.2,2.4-1.5,3.8-2.4,5.6c-2.3,4.9-2.1,10-1.6,15.2c0.2,2,1.3,3.3,3.4,3.3c2.4-0.1,3,1.3,3.3,3.4
		c0.8,5.6,0.3,11.3,0.2,16.9c0,4.3,0.2,8.6,0.8,12.9c0.7,5.4,0,10.8,0.3,16.1c0.5,9.6-1.8,19.2-0.8,28.8c0.2,2.1-0.8,4.1-1.6,5.9
		c-0.9,2-1.4,4-0.8,6.1c0.7,2.4,0.2,4.8-0.1,7.2c-0.7,5.6-1.4,11.2-2.1,16.8c-0.4,3.1-2.1,6.1-3.1,9.2c-0.7,2.3-1.5,4.6-1.8,7
		c-1.6,10.3-4.1,20.5-6.4,30.7c-1.9,8-4.6,15.7-8.6,23c-4,7.5-9,14.4-13.1,21.8c-4.5,8.2-8.8,16.3-10.1,25.8
		c-0.4,3.3-0.2,6.7-0.8,9.8c-0.6,3.3,0.9,6.7-1.1,9.9c-0.8,1.2-0.3,3.4,0,5.1c1.1,7.6,2,15.2,3.7,22.6c2.1,9.3,3.4,18.9,7.6,27.6
		c3.2,6.6,8.3,11.5,15.3,13.7c6.8,2.1,11.3-1.5,14.3-7.3c0.8-1.5,1.2-3.1,1.7-4.7c0.3-1.1,0.8-1.3,1.8-0.7c8.2,4.8,16,2.4,23.1-2.3
		c6.4-4.3,7.9-15.3,3.5-21.6c-0.8-1.1-1.6-2.1-2.4-3.2c-3.1-4.4-7.4-6.4-12.6-6.2c-2.1,0.1-2-0.6-1.4-2.1c3.4-9.2,7.9-18,11.9-26.9
		c0.6-1.3,1.2-2.6,1.7-3.9c0.4-1.2,0.5-2.4-0.5-3.2c-1.4-1.1-0.7-2.1-0.4-3.5c1.2-5.5,4.4-10.3,5.3-16c1.2-8,0.2-15.9-0.5-23.8
		c-1-10.7-3.4-21.3-7.2-31.3c-2.7-7.2-4.3-14.6-5.8-22.1c-1.3-6.4-0.4-12.7,0.9-19c0.9-4.5,1.5-9,2.7-13.4c1-3.8,1.9-7.7,3-11.5
		c1.4-4.6,3.4-8.9,5.1-13.4c2.7-7.3,4.5-14.9,6.2-22.5c1.1-4.6,1.5-9.4,2.4-14c1.4-8.1,0.2-15.8-2.1-23.6c-1.8-6-4.2-11.7-6.9-17.4
		c-1.4-3.1-3.5-5.9-5.6-8.5c-0.8-1-1.1-1.7,0.1-2.7c1.4-1.2,1.1-2.8,0.6-4.4c-1.3-4.4-3.4-8.5-6.9-11.4c-3.3-2.6-3.5-5.7-3.2-9.3
		c0.9-10.3,1.1-20.6,2.2-30.8c0.3-2.6,0.4-5.3,0-7.9c-1.1-6.5,1.1-12.4,2.8-18.5c0.3-1.2,0.7-1.3,1.6-0.4
		c10.4,10.4,23.4,14.9,37.6,15.5c13.6,0.5,26.2-7,30.8-20.2C-98.5,363.9-99.3,355.9-104.5,348.1z M-167.4,366.5
		c1.7-4.2,3.2-8.5,5.8-12.4c3.4-5,7.7-8.8,13.3-11.2c5.6-2.3,11.3-2.3,17.1-1.1c1.4,0.2,2.8,0.4,4.2,0.6
		c12.2,1.9,19.7,12.2,17.7,24.3c-1.1,6.6-9,14.9-15.5,16c-5.9,1-11.8,0.4-17.7-0.9c-9.4-2.1-17.1-7.1-24.3-13.1
		C-167.6,368.2-167.9,367.6-167.4,366.5z M-180.1,382.4c0.1-0.3,0.3,0,0.4,0.2c0,0.1,0.1,0.2,0.1,0.2c1.3-3.6,2.1-7.4,3.8-10.9
		c2.6,1.8,2.6,1.7,1.6,4.5c-1.6,4.6-3.3,9.5-3.3,14.2c0,6.2,0.3,12.4-0.2,18.6c-0.9,9.7-1.2,19.4-1.7,29.1c-0.1,1.7-1.1,1.6-2.1,1.6
		c-1.6,0.1-0.8-1.1-0.8-1.7c0-7.2,0.7-14.5,1.6-21.6c1.3-9.9,0.3-19.9,0.6-29.8c-0.2,0.6-0.4,1.3-0.6,1.9
		C-180.7,386.6-180.4,384.5-180.1,382.4z M-227.7,704.4c-0.1-0.4-0.2-0.8-0.1-1.2c0.6-7.4,2-14.5,5.2-21.2c3.4-7.3,7.5-14.3,12-20.9
		c3.4-5.1,6.5-10.5,9.1-16c5.9-12.4,8-26,10.8-39.3c1.6-7.4,2.4-14.9,5.3-22c0.7-1.6,1.5-3.1,1.7-4.9c0.6-5.8,1.3-11.6,2-17.3
		c0.2-2,0.7-4,0.2-5.9c-0.6-2.3,0-4.4,0.8-6.6c0.7-1.8,1.9-3.7,1.6-5.7c-1.1-7.5,0.8-14.9,0.6-22.4c-0.2-8.2,0.8-16.4-0.3-24.6
		c-0.5-3.6-0.7-7.3-0.7-10.9c0-5.1,0.7-10.3,0-15.4c-0.2-1.7-0.5-3.4-0.7-5.2c-0.1-0.8,0.4-1,1-1.2c0.4-0.1,0.6,0.2,0.6,0.6
		c0.3,4.1,1.6,8.2,1.5,12.4c-0.2,4.4-1.1,8.8-0.5,13.2c1.5,10.2,1.7,20.4,1.3,30.6c-0.4,8.1-1.6,16.2-0.6,24.4c0.1,0.5,0,1-0.2,1.5
		c-1.8,3.7-1.9,7.7-2.2,11.8c-0.6,8.8-1.1,17.8-3.7,26.4c-2.1,7-3.6,14.1-4.7,21.3c-1.4,9.5-3.9,18.7-6.4,28
		c-1.8,6.5-4.9,12.5-8.1,18.4c-5.2,9.6-11.5,18.4-16.5,28.1c-3.9,7.6-6.3,15.5-7.1,23.9c0.1,1.1-0.1,1.3-0.8,1.5
		C-227.7,705.8-227.6,705-227.7,704.4z M-176.4,569.2c0,0.8-0.6,1.6-1,2.8c-0.4-4.6,0.6-8.7,1.1-12.8c0.1-0.8,0.4-1.7,0.2-2.5
		c-1-3.2,0.1-6.1,1.5-8.9c0.5-1.1,0.8-2.2,0.6-3.4c-0.9-7.7,0.2-15.4,0.5-23.1c0.3-6.6,0.3-13.2,0-19.9c-0.2-5.1-1.2-10.2-1.4-15.4
		c-0.1-5.4,1.3-10.7,0-16.1c-0.4-1.7-0.5-3.4-0.8-5.1c0.2-0.1,0.5-0.2,0.7-0.3c2.2,3,4.6,5.7,6.4,9.1c3.1,5.7,4.6,11.9,6.7,17.9
		c0.9,2.4,1.3,4.9,1.6,7.5c0.7,7.5-0.3,14.7-2.1,22c-2.6,10.5-3.9,21.4-9.8,30.8c-0.4,0.6-0.7,1.4-0.8,2.1
		C-173.7,559.1-176.6,563.8-176.4,569.2z M-169.2,688.1c-0.7,3.8-4.8,5.4-5.7,9c0,0.1-0.4,0.1-0.7,0.2c-2.5,0.4-3.6,2.2-4.5,4.2
		c-3.2,7.2-6.6,14.3-9.6,21.6c-2.1,5.1-4.6,9.9-5.9,15.3c-0.6,2.7-1.2,5.3-1.1,8.1c0,0.7,0.5,2.6-1.6,1.6c-3.4-1.6-6.9-1.9-10.2,0.3
		c-1.3,0.9-2,0.4-2.3-1c-0.5-2.5-1.2-5-1.5-7.6c-1-8.2-3.3-16.3-3.8-24.6c-0.1-1.2-0.5-2.5-1.8-2.7c-1.8-0.3-2.2-1.6-2.5-3
		c-0.3-1-0.2-2.1-0.9-2.8c-1.6-1.8-1.6-3.8-1.1-5.9c0.9-3.6,1.5-7.3,2.8-10.8c3-8.2,7.3-15.7,12-23c4.3-6.7,8.3-13.6,11.9-20.7
		c4.1-7.9,6-16.6,8-25.1c2.1-8.7,4.1-17.5,4.9-26.5c0.1-1.3,0.5-2.6,1.6-3.7c-0.1,0.4-0.1,0.8-0.2,1.2c-1.2,8.3,0.1,16.3,1.7,24.5
		c1.4,7,4.7,13.3,6.6,20.1c2.6,9.2,3.4,18.6,5,27.9C-166.7,672.5-167.8,680.4-169.2,688.1z M-168.9,695.8c0.6,0.1,1.3,0.7,0.8,1.5
		c-0.6,0.8-0.6,2.2-2,2.1c-0.6,0-1.1-0.4-0.5-1.5C-169.9,697.6-170.6,695.6-168.9,695.8z M-225.5,713.6c-1.9-0.3-1.4-2-1.7-3.2
		c-0.2-1.1,0.8-1.1,1.5-1.1c2.1,0.2,1.5,2.2,1.9,3.4C-223.4,713.9-224.8,713.4-225.5,713.6z M-192.3,769c-0.5,2.9-1.4,5.6-2.9,7.9
		c-3,4.5-5.7,5.8-9.7,4.1c-4.6-1.9-8.4-5-10.8-9.2c-3.5-6.1-5-12.9-6.7-19.7c-2.6-10.7-4-21.5-5.7-32.3c-0.3-1.6-0.3-2.9,2.1-2.3
		c1.5,0.4,3.1,0,4.6-0.6c0.6-0.2,1.3-0.5,1.4,0.6c0.3,6.2,2.2,12.2,3,18.4c0.7,6,2.2,11.9,3.7,17.8c0.5,2,1.7,2.3,3.3,0.9
		c1.4-1.3,2.9-2.5,4.7-3.3c3.7-1.5,8.6,1.3,9.1,5.2c0.4,3.4,1.1,6.7,3.3,9.6C-192.1,767-192,768-192.3,769z M-168.1,706.2
		c-1.5,3.1-2.8,6.2-4.3,9.3c-3.6,7.8-7.2,15.5-9.9,23.7c-1,3.1-0.1,4.2,3.1,3.8c2.3-0.3,4.7-0.7,7.1,0.1c3.6,1.1,5.7,3.9,7.6,6.8
		c1.5,2.3,2.6,4.6,2.2,7.4c-1,7.1-6,11.9-13.4,13c-4,0.6-7.9,0.7-10.9-2.5c-2.9-3-5.3-6.5-5.7-10.8c-0.5-4.9-0.9-9.7-0.3-14.7
		c0.4-1.2,0.4-2.6,0.9-3.8c2.1-6.1,4.8-12,7.4-17.9c2.6-5.8,5.2-11.7,7.8-17.5c0.6-1.4,1.2-2.2,2.9-1c1.3,0.9,2.7,1.6,4.3,1.8
		C-167.7,704.1-167.5,704.9-168.1,706.2z M-163.7,473.1c2.8,5.8,5.2,11.7,6.8,17.9c1.6,6.2,2.5,12.3,1.8,18.7
		c-1.1,9.1-2.9,18-5.3,26.9c-1.2,4.5-2,9.3-4.3,13.2c-3.1,5.4-4.3,11.3-5.9,17c-1.8,6.3-2.7,12.8-4.2,19.2
		c-3,12.7-0.6,24.8,2.9,36.8c2.4,8.1,5.6,16,7.2,24.3c1.6,8.3,2.5,16.7,2.9,25.2c0.3,6.6-0.5,12.9-3.3,18.9
		c-0.3,0.6-0.3,1.7-1.3,1.4c-1.2-0.3-0.4-1.2-0.2-1.8c1.9-7.6,2.4-15.3,2-23.2c-0.3-5.4-1.9-10.6-2.3-16c-0.6-8-2.7-15.8-5.7-23.1
		c-3.5-8.6-5.7-17.3-6.1-26.5c-0.4-10.4,1.9-20.4,4.7-30.4c-0.6-1.9,0.2-3.7,0.5-5.6c0.1-0.6-0.5-1.8,0.8-2c0.8-1.8,1.5-3.7,1.9-5.6
		c0.6-3,1.4-6,3.5-8.4c1.1-1.2,1.8-2.9,2-4.5c0.9-5.4,3.1-10.3,4.3-15.6c1.7-7.2,3.3-14.5,4-21.8c1.2-11-2.9-21.1-6.7-31.1
		c-1.8-4.8-4.8-8.9-8-12.9c-0.4-0.5-1.6-1.2-0.6-2c0.8-0.6,1.3,0.3,1.8,0.9C-167.7,466-165.5,469.4-163.7,473.1z M-177.3,445.4
		c3,2.6,5.1,5.9,6.7,9.5c0.7,1.6,0.4,2.6-1.4,3.1c-4,1.2-8.1,1.7-12.1,2.7c-1.5,0.4-1.6-0.5-1.6-1.4c-0.1-2.2,0-4.3,0-6.5
		c0.2-2.3,1.2-4.4,2.2-6.4C-181.9,443.4-180,443-177.3,445.4z"/>
	<path class="st2" d="M-186.2,205.2l3,0.2v-0.1c0-15-0.2-30.1-0.7-45.1c-0.2-6.2,0.2-12.5,0-18.7c-0.2-7.7-0.3-15.5-0.6-23.2
		c-0.5-11.9-5-22.3-10.3-32.5c-2.6-5-6.1-9.5-10.1-13.2c-3.4-3.2-6.9-6.4-12-7.2c-3.4-0.6-6.9-1.6-9.8-3.5
		c-6.8-4.4-11.7-10.3-12.8-18.6c-0.5-3.8-1-7.6,1-11.2c0.8-1.4,1.4-1.7,2.6-0.5c1,1,2,2,3.1,2.9c9.4,7,20,8.5,31.3,6.7
		c2.6-0.4,5.2-1.5,7.4-2.9c2.9-2,4.8-4.5,5-8.4c0.4-8.9-7.6-16.1-15.1-17.3c-9.9-1.6-19.7-0.8-28.9,3.5c-1.3,0.6-2.1,0.5-2.8-0.8
		c-3.1-5.7-6.4-10.9-11-15.3c-1.8,0-3.7,0-5.5,0c2.3,2.2,5.1,3.6,7.2,6.1c3.1,3.7,5.2,7.9,7.4,12.1c4.2,8.1,10.7,13.4,18.9,16.5
		c6.7,2.5,13.6,2.2,20.1-0.8c4.9-2.3,4.9-8.7,0.3-11.9c-9.8-6.9-20-6.4-30.6-2.3c-0.7,0.3-1.4,0.5-2.1,0.8c-0.9,0.5-1.7,0.9-2.1-0.4
		c-0.5-1.3,0.8-1.2,1.4-1.6c3.2-1.8,6.7-2.4,10.2-3c6.5-1.1,13.1-1.5,19.5,0.7c6,2,9.9,7.3,9.9,13.2c0,3.4-1.6,5.3-4.5,6.8
		c-4.7,2.4-9.8,2.4-14.8,2.4c-5.1,0-9.9-1.7-14.6-3.8c-6.7-3-10.7-8.5-14.4-14.4c-1.7-2.7-3-5.5-4.5-8.3c-2.5-5-6.8-8.1-11.5-10.7
		c-0.7-0.4-1.6-0.5-2-1.4c-2.5,0-5,0-7.5,0c0.2,0.1,0.4,0.3,0.6,0.4c9.1,3.4,16.4,8.6,20.5,18c1.5,3.5,1.5,5.4-0.7,8.4
		c-3.8,5.2-4.4,11.3-3.2,17.7c1.4,7.8,5,14.4,10.9,19.7c5.1,4.6,10.9,8.1,17.6,9.9c2.6,0.7,5.3,1.5,7.4,3.4
		c8.2,7.4,13,16.9,16.5,27.2c2.7,8.2,2.6,16.9,3.1,25.4c0.4,7.2,0.1,14.5,0.5,21.7c0.6,11.4,0,22.8,0.8,34.2
		c0.4,6.2,0.1,12.4-0.1,18.6l3.1,0.2c0.3-8.9,0.2-17.8-0.4-26.7c-0.5-6.8,0.1-13.6-0.2-20.5c-0.4-9.1-0.4-18.3-0.6-27.4
		c-0.2-8.6-0.9-17.3-3.2-25.7c-1.9-6.9-5.4-13-9.1-19c-1.3-2.2-2.8-4.3-4.5-6.3c-4.9-6-12.1-7.6-18.7-10.4
		c-7.1-3.1-12.9-7.8-16.7-14.7c-2.5-4.6-4.2-9.6-4-15c0.2-4.6,1.2-8.9,4.2-12.5c0.4-0.4,0.7-1.5,1.4-0.8c0.6,0.6,1.7,1.3,0.7,2.5
		c-4.5,5.4-3.8,11.7-2.3,17.6s4.8,10.9,9.7,15.1c4.6,3.9,9.8,5.8,15.4,7.1c4.2,1,7.4,3.5,10.2,6.4c5.7,5.8,9.6,12.7,13.2,20.1
		c5.5,11.4,6.3,23.5,6.5,35.7c0.1,9.9,0.1,19.8,0.3,29.7c0.2,14,0.9,27.9,0.7,41.9C-186.2,203.1-186.2,204.1-186.2,205.2z
		 M-228.9,22.7c4.8-1.8,9.6-3.1,14.1-2.9c6.1-0.2,10.7,1.7,15,4.9c2.7,2.1,2.3,5.6-0.9,6.8c-7.5,3-14.7,2-21.8-1.7
		c-2.5-1.3-4.5-3.1-6.7-4.6C-230.7,24.1-230.6,23.4-228.9,22.7z"/>
	<path class="st0" d="M-189.5,157.8c-0.4-9.1-0.4-18.3-0.6-27.4c-0.2-8.6-0.9-17.3-3.2-25.7c-1.9-6.9-5.4-13-9.1-19
		c-1.3-2.2-2.8-4.3-4.5-6.3c-4.9-6-12.1-7.6-18.7-10.4c-7.1-3.1-12.9-7.8-16.7-14.7c-2.5-4.6-4.2-9.6-4-15c0.2-4.6,1.2-8.9,4.2-12.5
		c0.4-0.4,0.7-1.5,1.4-0.8c0.6,0.6,1.7,1.3,0.7,2.5c-4.5,5.4-3.8,11.7-2.3,17.6s4.8,10.9,9.7,15.1c4.6,3.9,9.8,5.8,15.4,7.1
		c4.2,1,7.4,3.5,10.2,6.4c5.7,5.8,9.6,12.7,13.2,20.1c5.5,11.4,6.3,23.5,6.5,35.7c0.1,9.9,0.1,19.8,0.3,29.7
		c0.2,14,0.9,27.9,0.7,41.9c0,1-0.1,2.1-0.1,3.1l-2.6-0.2c0.3-8.9,0.2-17.8-0.4-26.7C-189.7,171.4-189.2,164.6-189.5,157.8z"/>
	<path class="st0" d="M-190.9,249.6c0.1,10,0.7,19.9,0.8,29.9c0.1,14.1-0.1,28.2,0,42.3c0.1,9.6,0.5,19.4,3.6,28.8
		c1.4,4.1,3.4,7.7,5.3,11.5c0.5,1.1,1.4,1.8,2.3,2.6c3.5,3.3,7.1,6.5,10.6,9.8c8.2,8,17.9,12.7,29.3,14.3c6.2,0.9,12.3,1.2,18.2-1
		c13.7-4.9,21.3-19,16.9-32.1c-3.6-10.7-11.6-17-22.7-19.2c-6.2-1.2-12.4-1.3-18.6-0.4c-5.4,0.7-9.6,3.9-13.6,7.1
		c-5.8,4.7-10,10.8-13.1,17.6c-1,2.1-0.5,3.6,1.7,4.6c1.4-4,2.9-7.9,5.2-11.5c5.9-9.3,16.8-17.2,29.4-15.6c4.6,0.6,9.2,1,13.7,2.3
		c1.7,0.5,3.3,1.2,4.6,2.3c5.9,5.2,12,10.4,11.8,19.2c-0.1,7.1-3.5,12.7-8.4,17.7c-7.2,7.3-16,7.3-25.1,5.9
		c-12.3-1.8-22.2-8.1-31.5-16.1c-10.1-8.8-14.4-20-15.8-32.8c-0.6-5.5-2.1-10.9-1.7-16.6c0.3-4.1,0.3-8.3,0.6-12.4
		c0.5-6.6,0.2-13.1,0.1-19.7c-0.1-4.3,0-8.6-0.1-13c-0.2-8.2-0.5-16.4-0.5-24.7c0-9.2,0-18.5,0.3-27.7c0.2-6.1,0.6-12.1,1.2-18.1
		l-2.6-0.2C-190.5,219.5-191.1,234.6-190.9,249.6z"/>
</g>
<g>
	<path class="st3" d="M18.1,30.7c0,0.1,0,0.1-0.1,0.1C18,30.8,18.1,30.8,18.1,30.7z"/>
	<path class="st3" d="M94.1,622.9c2.4,8.1,5.6,16,7.2,24.3c1.6,8.3,2.5,16.7,2.9,25.2c0.1,4.1-0.1,8.1-1,12c0.9-3.9,1.2-8,1-12.1
		c-0.4-8.5-1.3-16.9-2.9-25.2C99.7,638.8,96.5,630.9,94.1,622.9c-3.3-11.3-5.6-22.6-3.4-34.4C88.4,600.3,90.8,611.6,94.1,622.9z"/>
	<path class="st3" d="M84.2,553.8c0,0.6,0.1,1.2,0.2,1.9c0.2,0.7,0.2,1.4,0.2,2c0-0.7,0-1.5-0.2-2.2
		C84.3,554.9,84.3,554.4,84.2,553.8z"/>
	<path class="st3" d="M38.3,704.4c0.1,0.6,0,1.4,1.1,1.4c0.6-0.2,0.8-0.4,0.8-1.2c0,0,0,0.1,0,0.1c0,0.6-0.3,0.7-0.8,0.8
		c-1.1,0.2-1-0.6-1.1-1.4c-0.1-0.3-0.1-0.7-0.1-1c0,0,0,0,0,0C38.1,703.6,38.2,704,38.3,704.4z"/>
	<path class="st3" d="M93.1,564.2c0,0,0.1,0,0.1,0c0,0,0,0,0,0c0,0,0-0.1,0-0.1c-0.2,0-0.3,0.1-0.4,0.2
		C92.9,564.2,93,564.1,93.1,564.2C93.1,564.1,93.1,564.1,93.1,564.2z"/>
	<path class="st3" d="M93.4,467.6c0.9,1.2,1.8,2.3,2.6,3.5C95.1,469.9,94.2,468.8,93.4,467.6z"/>
	<path class="st3" d="M97.9,706c0,0,0,0.1-0.1,0.1c-0.5,1-0.9,1.9-1.4,2.9c-0.9,2-1.8,4-2.8,6c-0.1,0.1-0.1,0.2-0.2,0.4
		c-3.6,7.8-7.2,15.5-9.9,23.7c-0.4,1.2-0.5,2.1-0.3,2.7c-0.2-0.6-0.1-1.5,0.3-2.6c2.7-8.2,6.3-15.9,9.9-23.7
		c1.5-3.1,2.8-6.2,4.3-9.3c0.1-0.3,0.2-0.6,0.3-0.8c0,0.1-0.1,0.3-0.1,0.4C98,705.8,98,705.9,97.9,706z"/>
	<path class="st3" d="M86.7,558c-0.7,8.9-1.1,17.8-3.7,26.4c-2.1,7-3.6,14.1-4.7,21.3c-1.4,9.5-3.9,18.8-6.4,28
		c-1.8,6.5-4.9,12.5-8.1,18.4c-5.2,9.5-11.5,18.4-16.5,28.1c-3.9,7.6-6.3,15.5-7.1,23.9c0,0,0,0.1,0,0.1c0.8-8.4,3.2-16.3,7.1-23.8
		c5-9.7,11.3-18.5,16.5-28.1c3.2-5.9,6.3-11.9,8.1-18.4c2.5-9.3,5-18.5,6.4-28c1.1-7.2,2.6-14.3,4.7-21.3c2.6-8.6,3.1-17.6,3.7-26.4
		c0.3-4.1,0.4-8.1,2.2-11.8c0.2-0.5,0.3-1,0.2-1.5c0,0,0,0,0,0c0,0.5,0,1-0.2,1.3C87,550,87,553.9,86.7,558z"/>
	<path class="st3" d="M89.6,521.4c0-0.3,0-0.6,0.1-0.9c0.1-1.3,0.1-2.6,0.1-4c0,1.3-0.1,2.5-0.1,3.8C89.7,520.7,89.6,521,89.6,521.4
		z"/>
	<path class="st3" d="M83.7,444.7c1.4-1.3,2.9-1,4.9,0.8c3,2.6,5.1,5.9,6.7,9.5c0.5,1,0.5,1.7,0.1,2.2c0.5-0.6,0.4-1.3,0-2.3
		c-1.6-3.6-3.7-6.9-6.7-9.5C86.6,443.6,85.1,443.4,83.7,444.7z"/>
	<path class="st3" d="M93.7,462.1C93.6,462.1,93.6,462.2,93.7,462.1c0,0,0.1,0,0.2-0.1c0.7-0.3,1.1,0.5,1.6,1.1
		c2.8,3,5,6.4,6.8,10.1c2.8,5.8,5.2,11.7,6.8,17.9c0.2,0.6,0.3,1.1,0.4,1.7c-0.1-0.6-0.3-1.2-0.4-1.8c-1.6-6.2-4-12.1-6.8-17.9
		c-1.8-3.7-4-7.1-6.8-10.1C95,462.4,94.5,461.5,93.7,462.1z"/>
	<path class="st3" d="M86.5,485.4C86.5,485.4,86.5,485.5,86.5,485.4c0,3.7,0.2,7.4,0.7,11c0.4,3,0.5,6.1,0.5,9.1
		c0-3.1-0.1-6.2-0.5-9.3C86.7,492.6,86.5,489.1,86.5,485.4z"/>
	<path class="st3" d="M88.3,488.6c-0.3-4,0.4-7.9,0.6-11.9c0-0.1,0-0.1,0-0.2C88.7,480.6,87.9,484.6,88.3,488.6z"/>
	<path class="st3" d="M86.5,469.9c-0.2-1.8-0.4-3.5-0.7-5.1c0,0.1,0,0.1,0,0.1c0.2,1.8,0.5,3.5,0.7,5.2c0.7,5,0,10,0,15
		C86.6,480.1,87.2,474.9,86.5,469.9z"/>
	<path class="st3" d="M86.5,537.8c0,1.9,0.1,3.8,0.3,5.6c0,0.2,0,0.4,0,0.6c0-0.3,0-0.5,0-0.8C86.6,541.4,86.5,539.6,86.5,537.8z"/>
	<path class="st3" d="M49.9,715.1c0-0.4-0.1-0.8-0.3-1.2C49.8,714.3,49.8,714.7,49.9,715.1z"/>
	<path class="st3" d="M102.1,762.2c-0.7,1.5-1.7,2.8-2.8,3.9c2.3-2.2,3.8-5.2,4.3-8.8c0.1-0.4,0.1-0.7,0.1-1.1c0,0.3,0,0.7-0.1,1
		C103.4,759,102.9,760.7,102.1,762.2z"/>
	<path class="st3" d="M43.6,700.9c0.9-3.6,1.5-7.3,2.8-10.8c3-8.2,7.3-15.7,12-23c4.3-6.7,8.2-13.6,11.9-20.7c4.1-7.9,6-16.6,8-25.1
		c2.1-8.7,4.1-17.5,4.9-26.5c0.2-1.3,0.6-2.5,1.6-3.7c0,0,0-0.1,0-0.1c-1.1,1.1-1.5,2.4-1.6,3.7c-0.8,9-2.8,17.8-4.9,26.5
		c-2,8.5-3.9,17.2-8,25.1c-3.6,7.1-7.6,14-11.9,20.7c-4.7,7.3-9,14.8-12,23c-1.3,3.5-1.9,7.2-2.8,10.8c-0.4,1.6-0.5,3.1,0.2,4.5
		C43.2,703.9,43.2,702.4,43.6,700.9z"/>
	<path class="st3" d="M97.1,695.9c0.4,0.1,0.9,0.5,1,0.9c0-0.6-0.5-0.9-1-1c-1.7-0.2-1,1.8-1.7,2.1c-0.2,0.4-0.3,0.7-0.3,1
		c0-0.2,0-0.5,0.3-0.9C96.1,697.6,95.4,695.6,97.1,695.9z"/>
	<path class="st3" d="M73.8,767.5c-0.1-0.4-0.2-0.8-0.5-1.1c0.1,0.2,0.2,0.3,0.3,0.5C73.6,767,73.7,767.2,73.8,767.5z"/>
	<path class="st3" d="M89.9,556.7c0.2,0.8-0.1,1.7-0.2,2.5c-0.5,4.1-1.5,8.2-1.1,12.8c0-0.1,0.1-0.1,0.1-0.2
		c-0.2-4.5,0.6-8.5,1.1-12.5c0.1-0.9,0.4-1.8,0.2-2.5c-1-3.3,0.1-6.1,1.5-8.9c0.5-1.1,0.7-2.2,0.6-3.4c-0.9-7.7,0.2-15.4,0.5-23.1
		c0.3-6.6,0.3-13.3,0-19.9c-0.3-5.2-1.3-10.2-1.4-15.4c-0.1-5.3,1.3-10.7,0-16.1c-0.4-1.7-0.5-3.4-0.8-5.1c0.2-0.1,0.5-0.2,0.7-0.3
		c0,0-0.1-0.1-0.1-0.1c-0.2,0.1-0.5,0.2-0.7,0.3c0.3,1.7,0.4,3.4,0.8,5.1c1.3,5.4-0.1,10.7,0,16.1c0.2,5.2,1.2,10.3,1.4,15.4
		c0.3,6.7,0.3,13.3,0,19.9c-0.3,7.7-1.4,15.4-0.5,23.1c0.2,1.2-0.1,2.3-0.6,3.4C90,550.6,88.9,553.5,89.9,556.7z"/>
	<path class="st3" d="M40.3,709.3c-0.6,0-1.5,0-1.5,0.8C38.9,709.4,39.8,709.3,40.3,709.3c2.1,0.3,1.5,2.3,1.9,3.5
		c0,0.1,0,0.2,0,0.3c0,0,0,0,0,0.1c0-0.1,0-0.3,0-0.5C41.8,711.5,42.4,709.5,40.3,709.3z"/>
	<path class="st3" d="M69.3,747.4c0-0.3-0.1-0.7-0.1-0.9c0-0.3,0-0.6,0-1c0,0.3,0,0.7,0,1.1C69.3,746.8,69.3,747.1,69.3,747.4z"/>
	<path class="st3" d="M73.6,741.2c0.2-0.7,0.3-1.5,0.5-2.3C73.9,739.7,73.8,740.5,73.6,741.2z"/>
	<path class="st3" d="M105.2,538.2c-0.6,2.1-1.1,4.3-1.7,6.4C104.1,542.5,104.6,540.3,105.2,538.2z"/>
	<path class="st3" d="M92.9,636.8c-1.9-6.8-5.2-13.1-6.6-20.1c-1.2-6.1-2.2-12.1-2.2-18.2c-0.1,6.2,1,12.2,2.2,18.3
		c1.3,7,4.7,13.3,6.6,20.1c2.6,9.2,3.4,18.6,5,28c1,5.8,0.7,11.6-0.1,17.5c0.8-5.9,1.2-11.8,0.1-17.7
		C96.3,655.4,95.5,646,92.9,636.8z"/>
	<path class="st3" d="M87.5,517.9c0,1,0,2.1,0,3.1c0,0.4,0,0.8,0,1.3c0-0.5,0-1,0-1.5C87.5,519.8,87.5,518.8,87.5,517.9z"/>
	<path class="st3" d="M86.9,364.5c0.1,0.1,0.2,0.2,0.3,0.3c0.1,0.1,0.2,0.1,0.2,0.2c-0.1-0.1-0.2-0.2-0.3-0.3
		C87,364.6,86.9,364.6,86.9,364.5z"/>
	<path class="st3" d="M86.3,382.7C86.3,382.7,86.3,382.7,86.3,382.7C86.3,382.8,86.3,382.7,86.3,382.7
		C86.3,382.7,86.3,382.7,86.3,382.7c-0.1-0.3-0.3-0.6-0.4-0.3c0,0,0,0,0.1,0C86.1,382.3,86.2,382.5,86.3,382.7z"/>
	<path class="st3" d="M145.2,387.8c-5.9,2.2-12,1.9-18.2,1c-11.4-1.6-21.1-6.3-29.3-14.3c0,0,0,0-0.1-0.1c0.1,0.1,0.1,0.1,0.2,0.2
		c8.2,8,18,12.7,29.3,14.3c6.1,0.9,12.2,1.2,18.2-1c13.7-5,21.3-19.1,16.9-32.1c-1.6-4.7-4-8.5-7.2-11.6c3.1,3,5.5,6.8,7.1,11.5
		C166.5,368.8,158.9,382.9,145.2,387.8z"/>
	<path class="st3" d="M79.6,205.2L79.6,205.2c-0.6,5.8-1,11.6-1.2,17.5c-0.3,9.2-0.3,18.5-0.3,27.7c0,8.3,0.3,16.5,0.5,24.7
		c0.1,4.4,0,8.7,0.1,13c0.1,6.6,0.4,13.1-0.1,19.7c-0.3,4.1-0.3,8.3-0.6,12.4c-0.4,5.7,1.1,11.1,1.7,16.6c1.3,12,5.2,22.6,14,31.1
		c-8.7-8.5-12.6-19.1-13.9-31c-0.6-5.5-2.1-11-1.7-16.6c0.2-4.1,0.3-8.3,0.6-12.4c0.5-6.6,0.2-13.1,0.1-19.7c-0.1-4.4,0-8.7-0.1-13
		c-0.1-8.3-0.5-16.5-0.5-24.7c-0.1-9.2,0-18.5,0.3-27.7c0.2-6,0.6-12.1,1.2-18.1l0.1,0c0-0.6,0-1.2-0.1-1.9
		C79.6,203.6,79.6,204.4,79.6,205.2z"/>
	<path class="st3" d="M104.4,354.3c3.4-5,7.7-8.9,13.3-11.2c5.6-2.3,11.3-2.3,17.1-1.1c1.4,0.2,2.8,0.4,4.2,0.6
		c10.7,1.7,17.7,9.7,18,19.8c-0.2-10.2-7.3-18.3-18-20c-1.4-0.2-2.8-0.4-4.2-0.6c-5.8-1.2-11.5-1.2-17.1,1.1
		c-5.6,2.4-9.9,6.2-13.3,11.2c-2.6,3.9-4.1,8.2-5.8,12.4c-0.2,0.4-0.3,0.8-0.2,1.1c0-0.3,0.1-0.5,0.2-0.9
		C100.3,362.4,101.8,358.1,104.4,354.3z"/>
	<path class="st3" d="M77,204.4c0.3-8.7,0.2-17.4-0.4-26.1c-0.3-6.9,0.2-13.7-0.1-20.5c-0.4-9.1-0.4-18.3-0.6-27.4
		c-0.2-8.6-0.9-17.3-3.2-25.7c-1.9-6.9-5.4-13-9.1-19c-1.3-2.2-2.8-4.3-4.5-6.3c-0.4-0.4-0.7-0.9-1.1-1.3c0.3,0.3,0.6,0.7,0.9,1.1
		c1.7,2,3.2,4.1,4.5,6.3c3.7,6,7.2,12.1,9.1,19c2.3,8.4,3,17.1,3.2,25.7c0.2,9.1,0.2,18.3,0.6,27.4c0.3,6.9-0.3,13.7,0.2,20.5
		c0.6,8.9,0.7,17.7,0.4,26.6l0.1,0C77,204.6,77,204.5,77,204.4L77,204.4z"/>
	<path class="st3" d="M85.3,388.4c0,0.1,0,0.2,0,0.3c0.1-0.4,0.3-0.8,0.4-1.2c0-0.1,0-0.2,0-0.2C85.5,387.6,85.4,388,85.3,388.4z"/>
	<path class="st3" d="M148.7,342.9c-1.3-1.1-2.9-1.8-4.6-2.3c-4.5-1.3-9.1-1.7-13.7-2.3c-12.6-1.6-23.5,6.3-29.4,15.6
		c-2.3,3.6-3.8,7.5-5.2,11.5c-0.5-0.2-0.9-0.5-1.3-0.8c0.3,0.3,0.8,0.6,1.4,0.9c1.4-4,2.9-7.9,5.2-11.5c5.9-9.3,16.8-17.2,29.4-15.6
		c4.6,0.6,9.2,1,13.7,2.3c1.7,0.4,3.3,1.2,4.6,2.3c3.7,3.2,7.4,6.5,9.6,10.6C156.2,349.4,152.4,346.2,148.7,342.9z"/>
	<path class="st3" d="M48.8,68.3c4.1,1,7.3,3.4,10,6.2c0,0,0,0,0,0c-2.8-2.9-6-5.4-10.2-6.4C43,66.8,37.8,64.9,33.2,61
		c-0.6-0.5-1.1-1-1.7-1.5c0.6,0.6,1.2,1.2,1.9,1.7C38,65.1,43.2,67,48.8,68.3z"/>
	<path class="st3" d="M90.2,371.9c0,0,0,0.1-0.1,0.1c0.4,0.3,0.8,0.5,1,0.7c0.2,0.2,0.4,0.3,0.6,0.4c0.1,0.1,0.2,0.2,0.3,0.3
		c0.2,0.2,0.3,0.5,0.2,0.8c0,0.1,0,0.3,0,0.4c-0.1,0.3-0.2,0.6-0.3,1.1c-0.1,0.2-0.1,0.5-0.2,0.7c-1.6,4.6-3.3,9.4-3.3,14.2
		c0,2.3,0.1,4.6,0.1,7c0,0.8,0,1.5,0,2.3c0,1.6,0,3.1-0.1,4.6c-0.1,1.5-0.1,3.1-0.3,4.7c-0.5,4.8-0.8,9.7-1,14.5
		c-0.2,4.9-0.5,9.7-0.7,14.6c0,0.5-0.1,0.8-0.3,1c0,0.1-0.1,0.1-0.2,0.2c0.3-0.2,0.5-0.6,0.5-1.3c0.5-9.7,0.8-19.4,1.7-29.1
		c0.5-6.2,0.2-12.4,0.2-18.6c0-4.7,1.7-9.6,3.3-14.2C92.8,373.6,92.8,373.7,90.2,371.9z"/>
	<path class="st3" d="M19.7,39.3c0.2-4.6,1.2-8.9,4.2-12.5c0.4-0.4,0.7-1.5,1.4-0.8c0.1,0.1,0.3,0.2,0.4,0.4
		c-0.2-0.2-0.4-0.4-0.6-0.6c-0.7-0.7-1,0.4-1.4,0.8c-3,3.6-4,7.9-4.2,12.5c-0.2,5.4,1.5,10.4,4,15c1.5,2.6,3.2,5,5.2,7
		c-1.9-2-3.6-4.2-5-6.8C21.2,49.7,19.5,44.7,19.7,39.3z"/>
	<path class="st0" d="M69.2,36.2c2.9-1.5,4.5-3.4,4.5-6.8c0-5.9-3.9-11.2-9.9-13.2c-6.4-2.2-13-1.8-19.5-0.7c-3.5,0.6-7,1.2-10.2,3
		c-0.6,0.4-1.9,0.3-1.4,1.6c0.4,1.3,1.2,0.9,2.1,0.4c0.7-0.3,1.4-0.5,2.1-0.8c10.6-4.1,20.8-4.6,30.6,2.3c4.6,3.2,4.6,9.6-0.3,11.9
		c-5.5,2.5-11.2,3.1-16.9,1.8l-0.3,2.5c1.5,0.3,3,0.4,4.5,0.4C59.4,38.6,64.5,38.6,69.2,36.2z"/>
	<path class="st2" d="M25.8,21c1.5,2.4,3.1,4.7,4.9,6.7c0.8-0.8,1.6-1.7,2.5-2.4c-1.7-1.9-3.2-4.1-4.5-6.5
		C27.6,19.6,26.6,20.3,25.8,21z"/>
	<path class="st0" d="M96.5,709c-0.9,2-1.9,4-2.8,6C94.7,713,95.6,711,96.5,709z"/>
	<path class="st0" d="M90.3,770.2c-4,0.6-7.9,0.7-10.9-2.5c-2.9-3-5.3-6.4-5.7-10.8c-0.3-3-0.6-6.1-0.6-9.1c0,3.1,0.3,6.1,0.6,9.2
		c0.4,4.3,2.8,7.8,5.7,10.8C82.4,771,86.3,770.9,90.3,770.2c3.7-0.4,6.8-1.9,9.1-4.1c1.1-1.1,2.1-2.4,2.8-3.9
		C100,766.5,95.8,769.4,90.3,770.2z"/>
	<path class="st0" d="M37.9,719.7c0-0.2-0.1-0.5-0.1-0.7c0,0.2,0.1,0.5,0.1,0.8c1.7,10.8,3.1,21.6,5.7,32.3c0.2,0.7,0.3,1.4,0.5,2.1
		c-0.2-0.7-0.3-1.5-0.5-2.2C41,741.3,39.6,730.5,37.9,719.7z"/>
	<path class="st0" d="M73.8,767.5c-0.1-0.2-0.1-0.4-0.3-0.7c0.3,0.7,0.4,1.4,0.2,2.1c-0.5,3-1.4,5.6-2.9,7.9c-3,4.5-5.7,5.8-9.7,4.1
		c-4.6-1.9-8.4-5-10.8-9.2c-1.6-2.7-2.8-5.6-3.7-8.6c1,3,2.1,5.9,3.7,8.7c2.4,4.2,6.2,7.3,10.8,9.2c4,1.7,6.7,0.4,9.7-4.1
		c1.5-2.3,2.4-5,2.9-7.9C73.8,768.5,73.9,768,73.8,767.5z"/>
	<path class="st0" d="M40.2,704.8c0,0,0-0.1,0-0.1c0,0,0,0,0,0C40.2,704.7,40.2,704.7,40.2,704.8z"/>
	<path class="st0" d="M40.2,704.2C40.2,704.2,40.2,704.2,40.2,704.2c0,0,0-0.1,0-0.1C40.2,704.2,40.2,704.2,40.2,704.2z"/>
	<path class="st0" d="M92,571.6c-0.7,2.5-1.4,5-2,7.5C90.6,576.6,91.3,574.2,92,571.6C92,571.7,92,571.7,92,571.6z"/>
	<path class="st0" d="M105,530c0.1-0.7,0.3-1.3,0.4-2C105.3,528.6,105.1,529.3,105,530c-1.2,5.2-3.4,10.1-4.3,15.5
		c0,0.2-0.1,0.4-0.1,0.7c0-0.2,0.1-0.4,0.1-0.6C101.6,540.3,103.8,535.3,105,530z"/>
	<path class="st0" d="M93.2,564.1c0,0,0.1,0,0.1,0c0.8-1.8,1.5-3.6,1.9-5.6c0.2-0.9,0.4-1.7,0.6-2.5c-0.2,0.8-0.4,1.6-0.6,2.4
		c-0.4,1.9-1.1,3.8-1.9,5.6c0,0,0,0-0.1,0C93.2,564,93.2,564.1,93.2,564.1C93.2,564.1,93.2,564.1,93.2,564.1z"/>
	<path class="st0" d="M100,547.9c-0.3,0.8-0.8,1.5-1.3,2.1c-0.8,0.9-1.4,1.9-1.9,3c0.5-1,1.1-2,1.9-2.9
		C99.2,549.5,99.7,548.7,100,547.9z"/>
	<path class="st0" d="M109.2,504.1c0,1.3-0.1,2.7-0.2,4c0,0.4-0.1,0.8-0.1,1.1c0-0.3,0.1-0.7,0.1-1
		C109.1,506.8,109.2,505.4,109.2,504.1z"/>
	<path class="st0" d="M93.7,462.2c0.1-0.1,0.2-0.1,0.2-0.2C93.8,462.1,93.7,462.1,93.7,462.2c-0.3,0.2-0.4,0.4-0.4,0.6
		C93.3,462.6,93.4,462.4,93.7,462.2z"/>
	<path class="st0" d="M101.5,673.5c-0.1,5.8-0.7,11.6-2.1,17.3c-0.1,0.4-0.6,1-0.4,1.4c0-0.4,0.3-0.8,0.4-1.3
		C100.8,685.2,101.4,679.4,101.5,673.5z"/>
	<path class="st0" d="M91.2,372.7c-0.3-0.2-0.6-0.4-1-0.7c0,0,0,0,0,0C90.5,372.3,90.9,372.5,91.2,372.7z"/>
	<path class="st0" d="M40.3,709.4c2.1,0.2,1.5,2.2,1.9,3.5c0,0.1,0,0.2,0,0.2c0-0.1,0-0.2,0-0.3C41.8,711.6,42.4,709.6,40.3,709.4
		c-0.5-0.1-1.4,0-1.5,0.7c0,0,0,0,0,0C38.9,709.4,39.8,709.3,40.3,709.4z"/>
	<path class="st1" d="M92.5,566.1c0-0.1,0-0.2,0-0.3C92.5,565.9,92.5,565.9,92.5,566.1c-0.3,1.7-1,3.4-0.6,5.1
		C91.6,569.5,92.3,567.7,92.5,566.1z"/>
	<path class="st1" d="M92.4,564.9c0-0.3,0.2-0.6,0.6-0.8c0,0,0,0,0-0.1c-0.1,0-0.2,0.1-0.3,0.1C92.5,564.4,92.4,564.6,92.4,564.9z"
		/>
	<path class="st1" d="M86,382.4c0.1,0.1,0.2,0.2,0.2,0.3c0,0,0.1,0.1,0.1,0.2c0,0,0-0.1,0-0.1c0,0,0-0.1,0-0.1
		C86.2,382.5,86.1,382.3,86,382.4z"/>
	<path class="st1" d="M85.7,386.9c-0.1,0.4-0.3,0.8-0.4,1.2c0,0.1,0,0.2,0,0.3c0.1-0.4,0.3-0.8,0.4-1.2
		C85.7,387.1,85.7,387,85.7,386.9z"/>
	<path class="st3" d="M91.2,470c1.3,5.4-0.1,10.8,0,16.1c0.1,5.2,1.1,10.2,1.4,15.4c0.3,6.6,0.3,13.3,0,19.9
		c-0.3,7.7-1.4,15.4-0.5,23.1c0.1,1.2-0.1,2.3-0.6,3.4c-1.4,2.8-2.5,5.6-1.5,8.9c0.2,0.7-0.1,1.6-0.2,2.5c-0.5,4-1.3,8-1.1,12.5
		c0.4-1.1,0.9-1.8,0.9-2.6c-0.2-5.4,2.7-10.1,3.4-15.3c0.1-0.7,0.4-1.5,0.8-2.1c5.9-9.4,7.2-20.3,9.8-30.8c1.8-7.3,2.8-14.5,2.1-22
		c-0.3-2.6-0.7-5.1-1.6-7.5c-2.1-6-3.6-12.2-6.7-17.9c-0.2-0.3-0.3-0.6-0.5-0.9c-0.2-0.3-0.4-0.6-0.5-0.9c-0.1-0.2-0.2-0.4-0.4-0.6
		c-0.8-1.2-1.7-2.4-2.6-3.5c-0.8-1-1.5-2-2.3-3c-0.2,0.1-0.5,0.2-0.7,0.3C90.7,466.6,90.8,468.3,91.2,470z"/>
	<path class="st3" d="M39.5,705.4c-1.1,0.2-1-0.6-1.2-1.2c0.1,0.8,0,1.6,1.1,1.4c0.5-0.2,0.8-0.3,0.8-0.8
		C40.2,705.3,39.9,705.4,39.5,705.4z"/>
	<path class="st0" d="M39.5,705.4c0.4,0,0.7-0.1,0.7-0.6c0,0,0-0.1,0-0.1c0-0.1,0-0.2,0-0.3c0,0,0,0,0-0.1c0,0,0-0.1,0-0.1
		c0.8-8.4,3.2-16.3,7.1-23.9c5-9.7,11.3-18.6,16.5-28.1c3.2-5.9,6.3-11.9,8.1-18.4c2.5-9.2,5-18.5,6.4-28c1.1-7.2,2.6-14.3,4.7-21.3
		c2.6-8.6,3-17.5,3.7-26.4c0.3-4.1,0.3-8,2.2-11.8c0.2-0.4,0.2-0.9,0.2-1.3c-1-7.9,0.1-15.7,0.5-23.5c0-0.4,0-0.7,0.1-1.1
		c0-1.3,0.1-2.5,0.1-3.8c0.2-8.9-0.1-17.8-1.4-26.6c-0.1-0.4-0.1-0.9-0.1-1.3c-0.4-4,0.4-8,0.6-12.1c0.1-4.1-1.2-8.2-1.5-12.2
		c0-0.4-0.2-0.7-0.6-0.6c-0.6,0.2-1,0.4-1,1.1c0.3,1.7,0.5,3.4,0.7,5.1c0.7,5,0.1,10.2,0,15.2c0,0.1,0,0.2,0,0.3
		c0,3.7,0.2,7.2,0.7,10.8c0.4,3.1,0.5,6.2,0.5,9.3c0,4.1-0.2,8.2-0.2,12.3c0,1,0,2,0,2.9c0,0.5,0,1,0,1.5c0,5.2-0.9,10.3-1,15.5
		c0,1.8,0.1,3.6,0.3,5.4c0,0.3,0,0.5,0,0.8c0,1.8-1,3.5-1.6,5.1c-0.6,1.6-1,3.1-1,4.7c0,0.5,0.1,1.1,0.2,1.7
		c0.2,0.8,0.2,1.5,0.2,2.2c0,1.3-0.3,2.6-0.4,3.9c-0.7,5.7-1.4,11.5-2,17.3c-0.2,1.8-1,3.3-1.7,4.9c-2.9,7.1-3.7,14.6-5.3,22
		c-2.8,13.3-4.9,26.9-10.8,39.3c-2.6,5.5-5.7,10.9-9.1,16c-4.5,6.6-8.6,13.6-12,20.9c-1.6,3.3-2.7,6.8-3.6,10.3
		c-0.1,0.3-0.1,0.5-0.2,0.8c-0.7,3.3-1.2,6.6-1.5,10.1c0,0.3,0,0.7,0.1,1C38.5,704.8,38.4,705.6,39.5,705.4z"/>
	<path class="st3" d="M97.9,664.9c-1.6-9.4-2.4-18.8-5-28c-1.9-6.8-5.3-13.1-6.6-20.1c-1.2-6.1-2.2-12.2-2.2-18.3
		c0-2.1,0.2-4.2,0.5-6.3c0.1-0.4,0.1-0.7,0.2-1.1c-1,1.2-1.4,2.4-1.6,3.7c-0.8,9-2.8,17.8-4.9,26.5c-2,8.5-3.9,17.2-8,25.1
		c-3.7,7.1-7.6,14-11.9,20.7c-4.7,7.3-9,14.8-12,23c-1.3,3.5-1.9,7.2-2.8,10.8c-0.4,1.5-0.4,3,0.2,4.4c0.2,0.5,0.5,0.9,0.9,1.4
		c0.7,0.7,0.6,1.8,0.9,2.8c0,0.2,0.1,0.3,0.1,0.5c0,0,0,0,0,0c0,0,0,0.1,0,0.1c0.1,0.3,0.2,0.6,0.3,0.9c0.3,0.7,0.9,1.3,2,1.5
		c0.8,0.1,1.3,0.7,1.5,1.4c0.2,0.4,0.2,0.8,0.3,1.2c0,0,0,0.1,0,0.1c0.5,8.3,2.8,16.4,3.8,24.6c0.3,2.6,1,5.1,1.5,7.6
		c0.3,1.4,1,1.9,2.3,1c3.3-2.2,6.8-1.9,10.2-0.3c1.4,0.7,1.6,0,1.7-0.7c0-0.3-0.1-0.6-0.1-0.8c0-0.4,0-0.7,0-1.1
		c0-2.4,0.6-4.8,1.1-7.1c1.3-5.4,3.8-10.2,5.9-15.3c3-7.3,6.4-14.4,9.6-21.6c0.9-2,2-3.8,4.5-4.2c0.3-0.1,0.7-0.1,0.7-0.2
		c0.9-3.6,5-5.2,5.7-9c0.2-1.4,0.5-2.7,0.7-4.1c0.1-0.4,0.1-0.8,0.2-1.2c0-0.2,0-0.3,0.1-0.5C98.5,676.5,98.9,670.7,97.9,664.9z"/>
	<path class="st0" d="M95.9,699.4c1.4,0.1,1.4-1.3,2-2.1c0.1-0.2,0.1-0.3,0.2-0.5c-0.1-0.5-0.5-0.9-1-0.9c-1.7-0.3-1,1.7-1.7,2.1
		c-0.2,0.4-0.3,0.6-0.3,0.9C95.2,699.2,95.5,699.4,95.9,699.4z"/>
	<path class="st3" d="M99.2,368.7c7.2,6,14.9,11,24.3,13.1c5.9,1.3,11.8,1.9,17.7,0.9c6.5-1.1,14.4-9.4,15.5-16
		c0.2-1.5,0.3-2.9,0.3-4.3c-0.3-10.1-7.4-18.2-18-19.8c-1.4-0.2-2.8-0.4-4.2-0.6c-5.8-1.2-11.5-1.2-17.1,1.1
		c-5.6,2.3-9.9,6.2-13.3,11.2c-2.6,3.8-4.1,8.1-5.8,12.4c-0.2,0.3-0.2,0.6-0.2,0.9C98.4,368,98.7,368.4,99.2,368.7z"/>
	<path class="st3" d="M85.8,383c0-0.2,0.1-0.3,0.1-0.5c0-0.1,0-0.1,0.1-0.1c0,0,0,0-0.1,0c0,0,0,0,0,0
		C85.9,382.6,85.8,382.8,85.8,383z"/>
	<path class="st3" d="M85.9,439.7C85.9,439.7,85.9,439.7,85.9,439.7C85.9,439.7,85.9,439.7,85.9,439.7L85.9,439.7z"/>
	<path class="st3" d="M88.5,400c0,1.5,0,3.1-0.1,4.6C88.5,403.1,88.5,401.6,88.5,400z"/>
	<path class="st3" d="M88.4,390.7L88.4,390.7c0-4.8,1.7-9.6,3.3-14.2c0.1-0.3,0.2-0.5,0.2-0.7c-0.1,0.2-0.1,0.5-0.2,0.7
		C90.1,381.1,88.4,385.9,88.4,390.7z"/>
	<path class="st3" d="M86.2,439.4c0.1-0.2,0.2-0.5,0.3-1c0.2-4.9,0.5-9.7,0.7-14.6c-0.2,4.9-0.5,9.7-0.7,14.5
		C86.5,438.9,86.4,439.2,86.2,439.4z"/>
	<path class="st3" d="M85.8,386.9c0,0.1-0.1,0.2-0.1,0.3c0,0.1,0,0.2,0,0.2c0-0.1,0.1-0.2,0.1-0.3C85.8,387.1,85.8,387,85.8,386.9z"
		/>
	<path class="st0" d="M86.5,438.4c0.2-4.9,0.5-9.7,0.7-14.5c0.2-4.8,0.5-9.7,1-14.5c0.2-1.5,0.2-3.1,0.3-4.7
		c0.1-1.5,0.1-3.1,0.1-4.6c0-0.8,0-1.5,0-2.3c0-2.3-0.1-4.6-0.1-7v0c0-4.8,1.7-9.6,3.3-14.2c0.1-0.3,0.2-0.5,0.2-0.7
		c0.1-0.4,0.2-0.8,0.3-1.1c0-0.1,0-0.3,0-0.4c0-0.3-0.1-0.6-0.2-0.8c-0.1-0.1-0.2-0.2-0.3-0.3c-0.1-0.1-0.3-0.3-0.6-0.4
		c-0.3-0.2-0.6-0.4-1-0.7c-1.7,3.5-2.5,7.2-3.7,10.8c0,0,0,0,0-0.1c0,0,0,0,0,0c0,0,0.1,0.1,0.1,0.1c-0.2,1.3-0.4,2.7-0.6,4
		c0,0.1,0,0.2,0,0.2c0-0.1,0.1-0.2,0.1-0.3c-0.3,9.9,0.7,19.9-0.6,29.8c-0.9,7.1-1.6,14.4-1.6,21.6c0,0.6-0.8,1.8,0.8,1.7
		c0.4,0,0.7,0,1.1-0.1c0,0,0,0,0.1,0c0.1,0,0.2,0,0.2-0.1c0,0,0,0,0,0c0,0,0,0,0,0c0,0,0,0,0,0c0,0,0,0,0,0c0,0,0.1-0.1,0.1-0.1
		c0.1-0.1,0.1-0.1,0.2-0.2C86.4,439.2,86.5,438.9,86.5,438.4z"/>
	<path class="st0" d="M91.2,372.7c0.2,0.2,0.4,0.3,0.6,0.4C91.6,373,91.4,372.9,91.2,372.7z"/>
	<path class="st1" d="M86.2,382.7c-0.1-0.1-0.1-0.2-0.2-0.3c0,0-0.1,0-0.1,0.1c0,0.2-0.1,0.3-0.1,0.5c-0.2,1.7-0.5,3.4-0.5,5.1
		c0.1-0.4,0.3-0.8,0.4-1.2c0,0.1,0,0.2,0,0.3c0-0.1,0.1-0.2,0.1-0.3c0.2-1.4,0.4-2.7,0.5-4C86.3,382.8,86.2,382.7,86.2,382.7z"/>
	<path class="st1" d="M85.8,386.9c0.2-1.3,0.4-2.7,0.6-4c0-0.1,0-0.1-0.1-0.1c0,0,0,0.1,0,0.1C86.2,384.2,86,385.5,85.8,386.9z"/>
	<path class="st3" d="M40.5,713.6c0.5-0.1,1.4,0.1,1.7-0.3c0,0,0,0,0-0.1c0,0,0-0.1,0-0.1c0,0,0,0,0-0.1
		C42.1,713.7,41.1,713.3,40.5,713.6z"/>
	<path class="st0" d="M40.3,709.4c-0.5-0.1-1.4,0-1.5,0.7c0,0.1,0,0.2,0,0.3c0.3,1.2-0.2,2.9,1.7,3.2c0.6-0.3,1.6,0.1,1.7-0.5
		c0-0.1,0-0.1,0-0.2C41.8,711.6,42.4,709.6,40.3,709.4z"/>
	<path class="st3" d="M88.6,445.5c-1.9-1.9-3.5-2.1-4.9-0.8c-0.2,0.2-0.5,0.5-0.7,0.8C84.5,443.4,86.3,443.4,88.6,445.5z"/>
	<path class="st0" d="M95.3,455c-1.6-3.6-3.7-6.9-6.7-9.5c-2.3-2.1-4-2.1-5.6,0c-0.2,0.3-0.4,0.6-0.5,0.9c-1,2-2,4.1-2.2,6.4
		c0,2.2-0.1,4.3,0,6.5c0,0.9,0.1,1.8,1.6,1.4c4-1,8.1-1.5,12.1-2.7c0.7-0.2,1.1-0.4,1.4-0.8C95.8,456.7,95.8,456,95.3,455z"/>
	<path class="st3" d="M73.5,766.8c-0.1-0.2-0.2-0.3-0.3-0.5c-0.1-0.1-0.1-0.2-0.2-0.2C73.3,766.3,73.4,766.6,73.5,766.8z"/>
	<path class="st3" d="M58.7,764.2c0.7-0.8,1.7-1.2,2.7-1.4C60.3,763,59.4,763.4,58.7,764.2z"/>
	<path class="st3" d="M66.4,765.3c0.9,2.7,1.4,5.4,1.3,8.3c0,2.1-1.2,3.2-3.2,3.9c-0.5,0.2-0.9,0.3-1.4,0.3c0.4,0,0.9-0.1,1.5-0.3
		c1.9-0.6,3.1-1.8,3.2-3.9C67.9,770.7,67.4,768,66.4,765.3c-0.4-1.5-1.5-2.6-3.1-2.7C64.7,762.7,65.9,763.8,66.4,765.3z"/>
	<path class="st3" d="M62.8,765.8c0.8,0,1,0.7,1.1,1.4c0.1,0.8,0.3,1.7,0.5,2.4c-0.2-0.8-0.3-1.7-0.5-2.5c-0.1-0.7-0.3-1.4-1.1-1.4
		c-0.8-0.1-1.4,0.5-1.8,1.2c-0.2,0.3-0.2,0.9-0.2,1.5c0-0.6,0-1.1,0.2-1.4C61.4,766.3,62,765.7,62.8,765.8z"/>
	<path class="st0" d="M61.1,780.9c4,1.7,6.7,0.4,9.7-4.1c1.5-2.3,2.4-4.9,2.9-7.9c0.2-0.7,0.2-1.4-0.2-2.1c-0.1-0.2-0.3-0.5-0.4-0.7
		c-2.2-2.9-2.9-6.2-3.3-9.6c-0.5-3.9-5.4-6.7-9.1-5.2c-1.8,0.8-3.3,2-4.7,3.3c-1.6,1.4-2.8,1.1-3.3-0.9c-1.5-5.9-3-11.8-3.7-17.8
		c-0.8-6.2-2.7-12.2-3-18.4c-0.1-1.1-0.8-0.8-1.4-0.6c-1.5,0.6-3.1,1-4.6,0.6c-2-0.5-2.3,0.3-2.2,1.5c0,0.2,0.1,0.4,0.1,0.7
		c1.7,10.8,3.1,21.6,5.7,32.3c0.2,0.7,0.3,1.5,0.5,2.2c0.7,3,1.5,6,2.4,8.9c1,3,2.2,5.9,3.7,8.6C52.7,775.9,56.5,779,61.1,780.9z
		 M58,765.7c0.1-0.6,0.4-1.1,0.8-1.5c0.6-0.8,1.6-1.2,2.7-1.4c0.4-0.1,0.8-0.2,1.2-0.2c0.2,0,0.5,0,0.7,0c1.6,0.1,2.7,1.2,3.2,2.7
		c0.9,2.7,1.4,5.4,1.3,8.3c-0.1,2.1-1.3,3.3-3.2,3.9c-0.5,0.2-1,0.3-1.5,0.3c-1.3,0-2.3-0.7-3.1-1.9C57.8,772.8,57.3,769.3,58,765.7
		z"/>
	<path class="st2" d="M60.1,775.9c0.8,1.2,1.8,1.9,3,1.9c0.4,0,0.9-0.1,1.4-0.3c2-0.7,3.2-1.8,3.2-3.9c0.1-2.9-0.4-5.6-1.3-8.3
		c-0.5-1.5-1.7-2.6-3.1-2.7c-0.2,0-0.4,0-0.6,0c-0.4,0-0.9,0.1-1.3,0.2c-1,0.2-2,0.7-2.7,1.4c-0.3,0.4-0.5,0.9-0.7,1.5
		C57.3,769.3,57.9,772.8,60.1,775.9z M61,766.9c0.4-0.7,1-1.3,1.8-1.2c0.8,0,1,0.7,1.1,1.4c0.2,0.9,0.3,1.7,0.5,2.5
		c0.2,0.8,0.3,1.6,0.4,2.3c-0.3,1.2-0.1,2.1-1.1,2.6c-0.5,0.3-0.9-0.1-1.3-0.4c-0.8-0.8-1.6-3.7-1.6-5.7
		C60.8,767.8,60.8,767.2,61,766.9z"/>
	<path class="st2" d="M63.2,762.6c-0.2,0-0.4,0-0.7,0c-0.4,0-0.8,0.1-1.2,0.2c0.4-0.1,0.9-0.2,1.3-0.2
		C62.9,762.6,63.1,762.6,63.2,762.6z"/>
	<path class="st2" d="M63.1,777.8c-1.3,0-2.2-0.7-3-1.9c-2.2-3.1-2.8-6.6-2-10.2c0.1-0.6,0.3-1.1,0.7-1.5c-0.3,0.4-0.6,0.9-0.8,1.5
		c-0.7,3.6-0.2,7.1,2,10.2C60.8,777.1,61.8,777.8,63.1,777.8z"/>
	<path class="st1" d="M63.7,774.4c0.9-0.4,0.8-1.4,1-2.6c0-0.6-0.2-1.3-0.3-2.2c-0.2-0.8-0.3-1.6-0.5-2.4c-0.1-0.7-0.3-1.4-1.1-1.4
		c-0.8-0.1-1.4,0.5-1.8,1.2c-0.1,0.3-0.2,0.8-0.2,1.4c0.1,1.9,0.8,4.8,1.6,5.6C62.8,774.3,63.2,774.7,63.7,774.4z"/>
	<path class="st1" d="M63.7,774.5c1-0.5,0.8-1.4,1.1-2.6c-0.1-0.7-0.3-1.4-0.4-2.3c0.1,0.8,0.3,1.6,0.3,2.2c-0.2,1.2-0.1,2.2-1,2.6
		c-0.5,0.3-0.9-0.1-1.3-0.4c-0.8-0.7-1.5-3.6-1.6-5.6c0,1.9,0.7,4.9,1.6,5.7C62.8,774.4,63.2,774.8,63.7,774.5z"/>
	<path class="st3" d="M96.5,709c0.4-1,0.9-1.9,1.4-2.9c0,0,0-0.1,0.1-0.1c0,0.1-0.1,0.2-0.2,0.3C97.3,707.2,96.9,708.1,96.5,709z"/>
	<path class="st3" d="M74.3,738.5c-0.1,0.1-0.1,0.3-0.1,0.5c-0.2,0.8-0.3,1.5-0.5,2.3c0,0.2-0.1,0.3-0.1,0.5
		C73.9,740.6,74,739.6,74.3,738.5z"/>
	<path class="st3" d="M89.3,761.9c-1.2-0.3-2.6-0.6-3.1-1.7C86.7,761.3,88.1,761.6,89.3,761.9c1.6,0.4,3,0,3.3-1.7
		c0-0.2,0-0.3,0-0.5c0,0.1,0,0.3,0,0.5C92.3,761.9,90.9,762.3,89.3,761.9z"/>
	<path class="st3" d="M83.7,739.1c2.7-8.2,6.3-15.9,9.9-23.7c0.1-0.1,0.1-0.2,0.2-0.4c-0.1,0.2-0.2,0.4-0.3,0.6
		c-3.6,7.8-7.2,15.5-9.9,23.7c-1,3.1-0.1,4.2,3.1,3.8c2.3-0.3,4.7-0.7,7.1,0.1c3.6,1.1,5.7,3.9,7.6,6.8c1.5,2.3,2.6,4.6,2.2,7.4
		c-0.2,1.7-0.7,3.3-1.4,4.8c0.8-1.5,1.3-3.2,1.5-5c0-0.3,0.1-0.7,0.1-1c0-2.3-1-4.3-2.3-6.3c-1.9-2.9-4-5.7-7.6-6.8
		c-2.4-0.8-4.8-0.4-7.1-0.1c-2,0.3-3.1-0.1-3.4-1.2C83.2,741.2,83.2,740.3,83.7,739.1z"/>
	<path class="st3" d="M96.7,703.9c1.4,0.3,1.7,0.9,1.3,1.9c0.1-0.1,0.1-0.3,0.1-0.4c0-0.2,0.1-0.3,0-0.4
		C98.1,704.4,97.7,704,96.7,703.9z"/>
	<path class="st0" d="M79.7,725c-1,2.2-1.9,4.4-2.9,6.7c-0.9,2.2-1.8,4.5-2.6,6.8c0,0,0,0,0,0c-0.3,1.1-0.4,2.1-0.7,3.2
		c0,0.2-0.1,0.4-0.2,0.6c-0.2,1.8-0.3,3.7-0.3,5.5c0,3,0.3,6.1,0.6,9.1c0.4,4.4,2.8,7.8,5.7,10.8c3,3.2,6.9,3.1,10.9,2.5
		c5.5-0.8,9.7-3.7,11.9-8c0.7-1.4,1.2-3,1.4-4.8c0.4-2.8-0.7-5.1-2.2-7.4c-1.9-2.9-4-5.7-7.6-6.8c-2.4-0.8-4.8-0.4-7.1-0.1
		c-3.2,0.4-4.1-0.7-3.1-3.8c2.7-8.2,6.3-15.9,9.9-23.7c0.1-0.2,0.2-0.4,0.3-0.6c0.9-2,1.8-4,2.8-6c0.4-0.9,0.8-1.8,1.3-2.7
		c0.1-0.1,0.1-0.2,0.2-0.3c0-0.1,0.1-0.1,0.1-0.2c0.4-1,0-1.6-1.3-1.9c-1.6-0.2-3-0.9-4.3-1.8c-1.7-1.2-2.3-0.4-2.9,1
		c-1,2.3-2.1,4.7-3.1,7c-1,2.2-2,4.5-3,6.7c-0.6,1.3-1.1,2.5-1.7,3.8C81,722.1,80.4,723.5,79.7,725z M86.1,758.9
		c0.2-1.4,1.4-1.9,3-1.6c1.2,0.7,3.6,0.3,3.5,2.4c0,0.1,0,0.3,0,0.5c-0.3,1.7-1.7,2.1-3.3,1.7c-1.2-0.3-2.6-0.6-3.1-1.7
		c-0.1-0.2-0.1-0.3-0.1-0.5C86,759.4,86,759.2,86.1,758.9z"/>
	<path class="st2" d="M89.3,761.9c1.6,0.4,3,0,3.3-1.7c0-0.2,0-0.3,0-0.5c0-2.2-2.3-1.7-3.5-2.3c-1.5-0.4-2.8,0.1-3,1.5
		c0,0.3,0,0.5,0,0.8c0,0.2,0.1,0.4,0.1,0.5C86.7,761.3,88.1,761.6,89.3,761.9z"/>
	<path class="st2" d="M89.1,757.4c1.2,0.7,3.6,0.2,3.5,2.3c0-2.2-2.3-1.8-3.5-2.4c-1.6-0.3-2.8,0.2-3,1.6c0,0.3,0,0.5,0,0.8
		c0-0.2,0-0.5,0-0.8C86.3,757.5,87.6,757,89.1,757.4z"/>
	<path class="st3" d="M92,571.5c0.8-2.4,0.7-4.9,1.2-7.3c0,0-0.1,0-0.1,0C92.6,566.7,92.7,569.1,92,571.5
		C91.9,571.5,91.9,571.5,92,571.5z"/>
	<path class="st3" d="M102.3,473.2c-1.8-3.7-4-7.1-6.8-10.1c-0.4-0.5-0.9-1.4-1.6-1.1c0.6-0.1,1,0.6,1.5,1.1c2.8,3,5,6.4,6.8,10.1
		c2.8,5.8,5.2,11.7,6.8,17.9c1.7,6.2,2.6,12.3,1.8,18.7c-1,9.1-2.9,18.1-5.3,26.9c-1.3,4.5-2,9.3-4.3,13.2c-3.1,5.4-4.3,11.3-5.9,17
		c-1.8,6.3-2.7,12.8-4.2,19.2c-3.1,12.7-0.6,24.8,2.9,36.8c2.4,8.1,5.6,16,7.2,24.3s2.5,16.7,2.9,25.2c0.2,6.6-0.5,12.9-3.3,18.9
		c-0.1,0.3-0.2,0.7-0.3,1c0.2-0.3,0.3-0.8,0.4-1.1c1-2.2,1.8-4.5,2.3-6.8c0.9-3.9,1.1-7.9,1-12c-0.4-8.5-1.3-16.9-2.9-25.2
		c-1.6-8.3-4.8-16.2-7.2-24.3c-3.3-11.3-5.7-22.6-3.4-34.4c0.2-0.8,0.3-1.6,0.5-2.5c1.5-6.4,2.4-12.9,4.2-19.2
		c1.6-5.7,2.8-11.6,5.9-17c0.9-1.6,1.6-3.4,2.2-5.2c0.6-2.1,1.1-4.3,1.7-6.4c0.1-0.5,0.3-1.1,0.4-1.6c2.4-8.9,4.2-17.8,5.3-26.9
		c0.6-5.8,0-11.3-1.4-16.9c-0.1-0.6-0.3-1.1-0.4-1.7C107.5,484.9,105.1,479,102.3,473.2z"/>
	<path class="st0" d="M93.3,462.8c0,0.5,0.7,1,1,1.3c3.2,4,6.2,8.1,8,12.9c3.3,8.8,6.9,17.6,6.9,27.1c0,1.4-0.1,2.7-0.2,4.1
		c0,0.3-0.1,0.7-0.1,1c-0.7,6.3-2,12.6-3.4,18.8c-0.1,0.7-0.3,1.3-0.4,2c-1.2,5.3-3.4,10.3-4.3,15.6c0,0.2-0.1,0.4-0.1,0.6
		c-0.1,0.6-0.3,1.2-0.5,1.7c-0.3,0.8-0.8,1.6-1.3,2.2c-0.8,0.9-1.4,1.9-1.9,2.9c-0.1,0.1-0.1,0.3-0.2,0.4c-0.1,0.2-0.2,0.4-0.3,0.6
		c0,0.1-0.1,0.2-0.1,0.4c-0.2,0.5-0.3,1-0.5,1.6c-0.2,0.8-0.4,1.7-0.6,2.5c-0.4,2-1.1,3.8-1.9,5.6c0,0-0.1,0-0.1,0
		c-0.5,2.4-0.4,4.9-1.2,7.3c0,0,0,0.1,0,0.1c0,0,0,0,0,0c0,0,0,0,0,0.1c-0.7,2.5-1.4,4.9-2,7.4c-1.8,7.5-3,15.1-2.7,22.9
		c0.4,9.2,2.6,17.9,6.1,26.5c3,7.3,5.1,15.1,5.7,23.1c0.4,5.4,2,10.6,2.3,16c0.1,2,0.1,3.9,0.1,5.9c-0.1,5.9-0.7,11.7-2.1,17.4
		c-0.1,0.4-0.4,0.9-0.4,1.3c0,0,0,0,0,0.1c0,0,0,0,0,0c0.1,0.1,0.3,0.2,0.6,0.3c0.5,0.1,0.7,0,0.9-0.3c0.1-0.3,0.2-0.7,0.3-1
		c2.8-6,3.5-12.3,3.3-18.9c-0.4-8.5-1.3-16.9-2.9-25.2S96.4,631,94,622.9c-3.5-12-6-24.1-2.9-36.8c1.5-6.4,2.4-12.9,4.2-19.2
		c1.6-5.7,2.8-11.6,5.9-17c2.3-3.9,3-8.7,4.3-13.2c2.4-8.8,4.3-17.8,5.3-26.9c0.8-6.4-0.1-12.5-1.8-18.7c-1.6-6.2-4-12.1-6.8-17.9
		c-1.8-3.7-4-7.1-6.8-10.1c-0.4-0.4-0.8-1.2-1.5-1.1c-0.1,0-0.2,0.1-0.2,0.2C93.4,462.4,93.3,462.6,93.3,462.8z"/>
	<path class="st1" d="M93.1,564.2c-0.5,0.1-0.6,0.4-0.6,0.8c0,0.3,0.1,0.6,0.1,0.9c0,0.1,0,0.2,0,0.3c-0.2,1.6-0.9,3.4-0.6,5.1
		c0,0.1,0,0.2,0.1,0.2C92.7,569.1,92.6,566.7,93.1,564.2z"/>
	<path class="st2" d="M161.5,348.1c-7.5-11.3-18.4-15.1-31.2-15.5c-3.1-0.1-6.1,0.5-9.2,0.5c-3.1,0.1-5.8,1.4-8.4,2.9
		c-8.8,5-15.7,11.9-20.1,21.2c-0.4,0.9-0.6,2.4-1.7,2.5c-1.1,0.1-1.6-1.4-2.1-2.3c-2.7-4.7-4.3-10-5.3-15.3c-1-4.8-1.3-9.7-2.1-14.5
		c-0.7-4.8-0.3-9.6,0.1-14.4c0.6-9,0.4-17.9,0.2-26.9c-0.2-9.2,0.1-18.4-0.3-27.6c-0.3-8.2-0.6-16.4-0.2-24.6c0.4-7.8,0-15.6,1-23.4
		c0.2-1.7,0.4-3.6,0.5-5.3l-2.9-0.2c0-0.2,0-0.3,0-0.5l-0.1,0c-0.6,6-1,12.1-1.2,18.1c-0.3,9.2-0.4,18.5-0.3,27.7
		c0,8.2,0.4,16.4,0.5,24.7c0.1,4.3,0,8.6,0.1,13c0.1,6.6,0.4,13.1-0.1,19.7c-0.3,4.1-0.4,8.3-0.6,12.4c-0.4,5.6,1.1,11.1,1.7,16.6
		c1.3,12,5.2,22.5,13.9,31c0.6,0.6,1.2,1.1,1.8,1.7c9.3,8,19.2,14.3,31.5,16.1c9.1,1.4,17.9,1.4,25.1-5.9c4.9-5,8.3-10.6,8.4-17.7
		c0.1-3.3-0.7-6.1-2.1-8.5c-2.3-4.1-6-7.3-9.6-10.6c-1.3-1.1-2.9-1.9-4.6-2.3c-4.5-1.3-9.1-1.7-13.7-2.3
		c-12.6-1.6-23.5,6.3-29.4,15.6c-2.3,3.6-3.8,7.5-5.2,11.5c-0.6-0.3-1-0.6-1.4-0.9c-1.1-1-1.2-2.2-0.4-3.8
		c3.1-6.8,7.3-12.9,13.1-17.6c4-3.2,8.2-6.4,13.6-7.1c6.2-0.9,12.4-0.8,18.6,0.4c6.3,1.2,11.6,3.8,15.6,7.7c3.2,3,5.6,6.9,7.2,11.6
		c4.4,13-3.2,27.1-16.9,32.1c-6,2.2-12.1,1.9-18.2,1c-11.3-1.6-21.1-6.3-29.3-14.3c-0.1-0.1-0.1-0.1-0.2-0.2
		c-3.4-3.2-6.8-6.3-10.2-9.4c-0.1-0.1-0.2-0.1-0.2-0.2c-0.1-0.1-0.2-0.2-0.3-0.3c-0.8-0.7-1.6-1.4-2.1-2.4
		c-1.9-3.8-3.9-7.4-5.3-11.5c-3.1-9.4-3.5-19.2-3.6-28.8c-0.1-14.1,0.1-28.2,0-42.3c-0.1-10-0.7-19.9-0.8-29.9
		c-0.2-14.9,0.4-29.9,1.9-44.9l-0.1,0c0,0,0,0.1,0,0.1l-2.7-0.2c-1,7.9-0.9,15.9-1.6,23.8c-0.6,7.6-0.4,15.3-0.5,22.9
		c-0.1,5.5,0.5,10.9,0.6,16.4c0.2,7.5,0,15.1,0.4,22.6c0.6,11.2-0.8,22.4-0.2,33.6c0.6,10.7,1,21.5,5.1,31.6
		c1.9,4.7,4.3,9.2,8.3,12.5c1,0.8,1.3,1.6,0.8,3c-1.4,3.9-3,7.8-3.7,11.9c-0.7,4.3-1.3,8.7-0.9,13.1c0.7,7.2,0.1,14.2-0.6,21.4
		c-0.7,7.7-2,15.3-1.4,23.1c0.2,2.4-1.5,3.8-2.4,5.6c-2.3,4.9-2.1,10-1.6,15.2c0.2,2,1.3,3.3,3.4,3.3c2.4-0.1,3,1.3,3.3,3.4
		c0.8,5.6,0.3,11.3,0.2,16.9c0,4.3,0.2,8.6,0.8,12.9c0.7,5.4,0,10.8,0.3,16.1c0.5,9.6-1.8,19.2-0.8,28.8c0.2,2.1-0.8,4.1-1.6,5.9
		c-0.9,2-1.4,4-0.8,6.1c0.7,2.4,0.2,4.8-0.1,7.2c-0.7,5.6-1.4,11.2-2.1,16.8c-0.4,3.1-2.1,6.1-3.1,9.2c-0.7,2.3-1.5,4.6-1.8,7
		c-1.6,10.3-4.1,20.5-6.4,30.7c-1.9,8-4.6,15.7-8.6,23c-4,7.5-9,14.4-13.1,21.8c-4.5,8.2-8.8,16.3-10.1,25.8
		c-0.4,3.3-0.2,6.7-0.8,9.8c-0.6,3.3,0.9,6.7-1.1,9.9c-0.8,1.2-0.3,3.4,0,5.1c1.1,7.6,2,15.2,3.7,22.6c2.1,9.3,3.4,18.9,7.6,27.6
		c3.2,6.6,8.3,11.5,15.3,13.7c6.8,2.1,11.3-1.5,14.3-7.3c0.8-1.5,1.2-3.1,1.7-4.7c0.3-1.1,0.8-1.3,1.8-0.7c8.2,4.8,16,2.4,23.1-2.3
		c6.4-4.3,7.9-15.3,3.5-21.6c-0.8-1.1-1.6-2.1-2.4-3.2c-3.1-4.4-7.4-6.4-12.6-6.2c-2.1,0.1-2-0.6-1.4-2.1c3.4-9.2,7.9-18,11.9-26.9
		c0.6-1.3,1.2-2.6,1.7-3.9c0.4-1.2,0.5-2.4-0.5-3.2c-1.4-1.1-0.7-2.1-0.4-3.5c1.2-5.5,4.4-10.3,5.3-16c1.2-8,0.2-15.9-0.5-23.8
		c-1-10.7-3.4-21.3-7.2-31.3c-2.7-7.2-4.3-14.6-5.8-22.1c-1.3-6.4-0.4-12.7,0.9-19c0.9-4.5,1.5-9,2.7-13.4c1-3.8,1.9-7.7,3-11.5
		c1.4-4.6,3.4-8.9,5.1-13.4c2.7-7.3,4.5-14.9,6.2-22.5c1.1-4.6,1.5-9.4,2.4-14c1.4-8.1,0.2-15.8-2.1-23.6c-1.8-6-4.2-11.7-6.9-17.4
		c-1.4-3.1-3.5-5.9-5.6-8.5c-0.8-1-1.1-1.7,0.1-2.7c1.4-1.2,1.1-2.8,0.6-4.4c-1.3-4.4-3.4-8.5-6.9-11.4c-3.3-2.6-3.5-5.7-3.2-9.3
		c0.9-10.3,1.1-20.6,2.2-30.8c0.3-2.6,0.4-5.3,0-7.9c-1.1-6.5,1.1-12.4,2.8-18.5c0.3-1.2,0.7-1.3,1.6-0.4
		c10.4,10.4,23.4,14.9,37.6,15.5c13.6,0.5,26.2-7,30.8-20.2C167.5,363.9,166.7,355.9,161.5,348.1z M98.6,366.5
		c1.7-4.2,3.2-8.5,5.8-12.4c3.4-5,7.7-8.8,13.3-11.2c5.6-2.3,11.3-2.3,17.1-1.1c1.4,0.2,2.8,0.4,4.2,0.6c10.7,1.7,17.8,9.8,18,20
		c0,1.5-0.1,3-0.3,4.5c-1.1,6.6-8.9,14.9-15.5,16c-5.9,1-11.8,0.4-17.7-0.9c-9.5-2.1-17.1-7.1-24.3-13.1c-0.5-0.5-0.8-0.9-0.8-1.3
		C98.3,367.3,98.4,366.9,98.6,366.5z M38.2,703c0.3-3.3,0.7-6.6,1.5-9.9c0.1-0.3,0.1-0.6,0.2-0.8c0.8-3.6,2-7.1,3.6-10.5
		c3.4-7.3,7.5-14.2,12-20.9c3.5-5.1,6.5-10.5,9.1-16c5.8-12.4,7.9-26,10.8-39.3c1.5-7.4,2.4-14.9,5.3-22c0.6-1.6,1.5-3.1,1.7-4.9
		c0.6-5.7,1.3-11.5,2-17.3c0.1-1.2,0.4-2.4,0.4-3.7c0-0.7,0-1.4-0.2-2c-0.2-0.6-0.2-1.2-0.2-1.9c-0.1-1.7,0.4-3.4,1-4.9
		c0.6-1.6,1.6-3.2,1.6-4.9c0-0.2,0-0.4,0-0.6c-0.3-1.9-0.4-3.8-0.3-5.6c0-5.2,0.9-10.3,1-15.5c0-0.4,0-0.8,0-1.3c0-1,0-2.1,0-3.1
		c0-4.1,0.2-8.2,0.2-12.3c0-3-0.1-6.1-0.5-9.1c-0.5-3.6-0.7-7.3-0.7-10.9c0,0,0-0.1,0-0.1c0,0,0-0.1,0-0.1c0-0.1,0-0.1,0-0.2
		c0-5,0.7-10,0-15c-0.2-1.7-0.5-3.4-0.7-5.2c0-0.1,0-0.1,0-0.1c0,0,0,0,0-0.1c-0.1-0.8,0.4-1.1,1-1.2c0.4-0.1,0.6,0.2,0.6,0.6
		c0.3,4.2,1.7,8.2,1.5,12.4c0,0,0,0,0,0c0,0.1,0,0.1,0,0.2c-0.2,4-0.9,7.9-0.6,11.9c0,0.4,0.1,0.7,0.1,1.1
		c1.4,8.9,1.7,17.9,1.4,26.8c0,1.3-0.1,2.6-0.1,4c0,0.3,0,0.6-0.1,0.9c-0.4,7.7-1.4,15.5-0.5,23.3c0,0.1,0,0.1,0,0.2c0,0,0,0,0,0
		c0.1,0.5,0,1-0.2,1.5c-1.8,3.7-1.9,7.7-2.2,11.8c-0.6,8.8-1.1,17.8-3.7,26.4c-2.1,7-3.6,14.1-4.7,21.3c-1.4,9.5-3.9,18.7-6.4,28
		c-1.8,6.5-4.9,12.5-8.1,18.4c-5.2,9.6-11.5,18.4-16.5,28.1c-3.9,7.6-6.3,15.5-7.1,23.8c0,0.1,0,0.2,0,0.3c0,0,0,0.1,0,0.1
		c0,0,0,0,0,0c0,0.8-0.2,1-0.8,1.2c-1.1,0-1-0.8-1.1-1.4c-0.1-0.4-0.2-0.8-0.1-1.2c0,0,0,0,0,0C38.2,703.1,38.2,703.1,38.2,703z
		 M92,544.4c-0.9-7.7,0.2-15.4,0.5-23.1c0.3-6.6,0.3-13.2,0-19.9c-0.2-5.1-1.2-10.2-1.4-15.4c-0.1-5.4,1.3-10.7,0-16.1
		c-0.4-1.7-0.5-3.4-0.8-5.1c0.2-0.1,0.5-0.2,0.7-0.3c0,0,0.1,0.1,0.1,0.1c0,0,0,0,0,0c0.8,1,1.5,2,2.3,3c0.9,1.2,1.8,2.3,2.6,3.5
		c0.1,0.2,0.3,0.4,0.4,0.6c0.2,0.3,0.4,0.6,0.5,0.9c0.2,0.3,0.4,0.7,0.6,1c3,5.6,4.6,11.9,6.7,17.9c0.9,2.4,1.4,4.9,1.6,7.5
		c0.7,7.5-0.3,14.8-2.1,22c-2.5,10.5-3.8,21.4-9.8,30.8c-0.4,0.6-0.7,1.3-0.8,2.2c-0.8,5.1-3.7,9.8-3.4,15.2c0,0.8-0.6,1.7-1,2.8
		c0-0.1,0-0.2,0-0.3c0,0.1-0.1,0.1-0.1,0.2c-0.4-4.6,0.6-8.7,1.1-12.8c0.1-0.8,0.4-1.7,0.2-2.5c-1-3.2,0.1-6.1,1.5-8.9
		C91.9,546.7,92.2,545.6,92,544.4z M42.2,713.2C42.2,713.2,42.2,713.3,42.2,713.2c0,0.1,0,0.1,0,0.1c-0.2,0.4-1.1,0.1-1.7,0.4
		c-1.9-0.3-1.4-2-1.7-3.2c0-0.1,0-0.3,0-0.4c0,0,0,0,0,0c0-0.8,0.9-0.8,1.5-0.8c2.1,0.2,1.5,2.2,1.9,3.4
		C42.3,712.9,42.2,713.1,42.2,713.2z M73.8,769.1c-0.6,2.8-1.5,5.5-3,7.8c-3,4.5-5.7,5.8-9.7,4.1c-4.6-1.9-8.4-5-10.8-9.2
		c-1.6-2.8-2.8-5.7-3.7-8.7c-1-2.9-1.7-5.9-2.4-8.9c-0.2-0.7-0.3-1.4-0.5-2.1c-2.6-10.7-4-21.5-5.7-32.3c-0.1-0.3-0.1-0.5-0.1-0.8
		c-0.2-1.3,0.1-2.1,2.2-1.6c1.5,0.4,3.1,0,4.6-0.6c0.7-0.3,1.3-0.5,1.4,0.6c0.4,6.2,2.3,12.2,3,18.4c0.7,6.1,2.2,11.9,3.7,17.8
		c0.5,2,1.8,2.3,3.3,0.9c1.5-1.3,2.9-2.6,4.7-3.3c3.7-1.5,8.6,1.3,9.1,5.2c0.4,3.4,1.1,6.8,3.2,9.5c0.1,0.1,0.2,0.3,0.3,0.4
		c0.3,0.4,0.4,0.7,0.5,1.1C73.9,768,73.9,768.6,73.8,769.1z M98.1,705.4c0,0.2-0.1,0.5-0.3,0.8c-1.5,3.1-2.8,6.2-4.3,9.3
		c-3.6,7.8-7.2,15.5-9.9,23.7c-0.4,1.2-0.5,2-0.3,2.6c0.3,1,1.5,1.3,3.4,1.1c2.4-0.3,4.7-0.6,7.1,0.1c3.6,1.1,5.7,3.9,7.6,6.8
		c1.3,1.9,2.3,4,2.3,6.4c0,0.4,0,0.7-0.1,1.1c-0.5,3.6-2,6.6-4.3,8.8c-2.3,2.3-5.4,3.8-9.2,4.3c-4,0.6-7.9,0.7-10.9-2.5
		c-2.9-3-5.3-6.5-5.7-10.8c-0.5-4.9-0.9-9.7-0.3-14.7c0.1-0.2,0.1-0.3,0.2-0.5c0.1-0.2,0.1-0.4,0.2-0.6c0.1-0.8,0.3-1.5,0.5-2.3
		c0-0.2,0.1-0.4,0.1-0.6c2-6.1,4.7-12,7.4-17.9c0.6-1.2,1.1-2.5,1.7-3.7c1-2.2,2-4.5,3-6.7c1-2.4,2.1-4.7,3.1-7.1
		c0.6-1.4,1.2-2.2,2.9-1c1.2,0.9,2.7,1.5,4.3,1.8c1,0.2,1.5,0.6,1.5,1.1C98.2,705.1,98.2,705.2,98.1,705.4z M95.4,697.9
		c0.7-0.3,0-2.3,1.7-2.1c0.5,0.1,1,0.5,1,1c0,0.2,0,0.4-0.2,0.6c-0.6,0.7-0.6,2.2-2,2.1c-0.4-0.1-0.7-0.3-0.8-0.6
		C95.1,698.6,95.2,698.3,95.4,697.9z M97.7,682.4c0,0.2,0,0.3-0.1,0.5c-0.1,0.4-0.1,0.8-0.2,1.2c-0.2,1.4-0.4,2.8-0.7,4.2
		c-0.7,3.8-4.8,5.4-5.7,9c0,0.1-0.5,0.2-0.7,0.2c-2.4,0.4-3.6,2.2-4.5,4.2c-3.3,7.2-6.6,14.3-9.6,21.6c-2,5-4.6,9.9-5.9,15.3
		c-0.5,2.4-1,4.6-1.1,7c0,0.3,0,0.6,0,1c0,0.2,0.1,0.6,0.1,0.9c0,0.7-0.2,1.5-1.7,0.8c-3.4-1.7-6.9-1.9-10.2,0.3
		c-1.4,0.9-2,0.4-2.3-1c-0.5-2.6-1.2-5.1-1.5-7.6c-1.1-8.2-3.3-16.3-3.8-24.6c0-0.1,0-0.1,0-0.2c0-0.4-0.1-0.8-0.3-1.2
		c-0.3-0.7-0.8-1.2-1.5-1.3c-1.2-0.2-1.7-0.8-2-1.6c-0.1-0.3-0.2-0.6-0.3-0.9c0,0,0-0.1,0-0.1c0,0,0,0,0,0c0-0.1-0.1-0.3-0.1-0.4
		c-0.3-0.9-0.2-2-0.9-2.8c-0.4-0.5-0.7-1-0.9-1.5c-0.7-1.4-0.6-3-0.2-4.5c0.9-3.6,1.5-7.3,2.8-10.8c3-8.2,7.3-15.7,12-23
		c4.3-6.7,8.3-13.6,11.9-20.7c4.1-7.9,6-16.6,8-25.1c2.1-8.7,4.1-17.5,4.9-26.5c0.1-1.3,0.5-2.6,1.6-3.7c0,0,0,0.1,0,0.1
		c0,0,0,0,0,0c-0.1,0.4-0.1,0.8-0.2,1.2c-0.3,2.1-0.4,4.1-0.5,6.2c-0.1,6.1,1,12.1,2.2,18.2c1.4,7,4.7,13.3,6.6,20.1
		c2.6,9.2,3.4,18.6,5,27.9C98.9,670.6,98.6,676.5,97.7,682.4z M102.3,473.1c2.8,5.8,5.2,11.7,6.8,17.9c0.2,0.6,0.3,1.2,0.4,1.8
		c1.4,5.6,2.1,11.2,1.4,17c-1,9.1-2.9,18.1-5.3,26.9c-0.1,0.5-0.3,1-0.4,1.5c-0.5,2.1-1,4.3-1.7,6.4c-0.6,1.9-1.2,3.7-2.2,5.3
		c-3.1,5.4-4.3,11.3-5.9,17c-1.8,6.3-2.7,12.8-4.2,19.2c-0.2,0.8-0.4,1.6-0.5,2.4c-2.2,11.8,0.1,23.1,3.4,34.3
		c2.4,8.1,5.6,16,7.2,24.3c1.6,8.3,2.5,16.7,2.9,25.2c0.2,4.2-0.1,8.2-1,12.1c-0.5,2.3-1.3,4.6-2.3,6.9c-0.3,0.5-0.2,1.5-1,1.4
		c-0.1,0-0.2,0-0.4,0c-1.1-0.3-0.4-1.1-0.2-1.8c1.9-7.6,2.4-15.3,2-23.2c-0.3-5.4-1.9-10.6-2.3-16c-0.6-8-2.7-15.8-5.7-23.1
		c-3.5-8.6-5.7-17.3-6.1-26.5c-0.5-10.4,1.9-20.5,4.7-30.4c-0.6-2,0.3-3.8,0.4-5.6c0.1-0.5-0.4-1.6,0.5-1.9c0.1-0.1,0.2-0.1,0.4-0.2
		c0.8-1.8,1.5-3.5,1.9-5.5c0.6-3,1.3-6,3.5-8.4c1.1-1.2,1.7-2.9,2-4.5c0.9-5.3,3.1-10.3,4.3-15.6c1.6-7.2,3.2-14.4,4-21.8
		c1.2-11-2.9-21.1-6.7-31.1c-1.8-4.8-4.8-8.9-8-12.9c-0.4-0.5-1.6-1.2-0.6-2c0,0,0,0,0,0c0,0,0-0.1,0.1-0.1c0.8-0.6,1.3,0.3,1.8,0.9
		C98.3,466,100.5,469.4,102.3,473.1z M95.4,454.9c0.4,1,0.5,1.8,0,2.3c-0.3,0.4-0.8,0.7-1.5,0.9c-4,1.1-8.1,1.7-12.1,2.7
		c-1.5,0.3-1.6-0.5-1.6-1.4c-0.1-2.2,0-4.3,0-6.5c0-0.3,0.1-0.6,0.1-0.9c0-0.1,0-0.1,0-0.2c0.3-1.9,1.1-3.6,2-5.2c0,0,0,0,0,0
		c0-0.1,0.1-0.1,0.1-0.2c0.4-0.8,0.9-1.4,1.3-1.8c1.3-1.3,2.9-1.1,5,0.7C91.7,448,93.8,451.3,95.4,454.9z M91.8,376.4
		c-1.6,4.6-3.3,9.5-3.3,14.2c0,6.2,0.3,12.4-0.2,18.6c-0.9,9.7-1.2,19.4-1.7,29.1c0,0.7-0.2,1.1-0.5,1.3c0,0,0,0,0,0
		c0,0-0.1,0-0.1,0.1c0,0,0,0,0,0c0,0,0,0,0,0c0,0,0,0,0,0c0,0,0,0-0.1,0c-0.1,0-0.1,0-0.2,0.1c0,0,0,0-0.1,0
		c-0.2,0.1-0.5,0.1-0.8,0.1c-0.1,0-0.3,0-0.4,0c-1,0.1-1.1-0.4-1-0.9c0.1-0.3,0.2-0.6,0.2-0.8c0-1.8,0-3.6,0.1-5.4
		c0.1-1.8,0.2-3.6,0.3-5.4c0.2-2.7,0.5-5.4,0.8-8.1c0.1-0.9,0.2-1.8,0.3-2.7c0,0,0,0,0,0c1.2-9.8,0.2-19.5,0.5-29.2
		c-0.1,0.4-0.3,0.8-0.4,1.2c0-0.1,0-0.2,0-0.3c0,0.1-0.1,0.2-0.1,0.4c0-0.1,0-0.3,0-0.4c0,0.1-0.1,0.3-0.1,0.4
		c0.1-2.1,0.3-4.2,0.7-6.3c0-0.1,0.1-0.1,0.1-0.1c0.1-0.3,0.3,0,0.4,0.2c0,0.1,0,0.1,0.1,0.1c0.1-0.4,0.3-0.8,0.4-1.2
		c1.1-3.2,1.9-6.5,3.3-9.5c0,0,0,0,0,0c0,0,0-0.1,0.1-0.1C92.8,373.7,92.8,373.6,91.8,376.4z"/>
	<path class="st2" d="M85.9,439.7C85.9,439.7,85.9,439.7,85.9,439.7C85.9,439.7,85.9,439.7,85.9,439.7
		C85.9,439.7,85.9,439.7,85.9,439.7z"/>
	<path class="st2" d="M98.2,704.9c0,0.1,0,0.3,0,0.4C98.2,705.2,98.2,705.1,98.2,704.9z"/>
	<path class="st2" d="M82.8,204.9L82.8,204.9C82.8,204.9,82.8,204.9,82.8,204.9C82.8,204.9,82.8,204.9,82.8,204.9z"/>
	<path class="st2" d="M91.9,571.5c0,0.1,0,0.1-0.1,0.2C91.9,571.6,91.9,571.6,91.9,571.5C91.9,571.5,91.9,571.5,91.9,571.5z"/>
	<path class="st2" d="M79.4,767.8c-2.9-3-5.3-6.5-5.7-10.8c-0.3-3.1-0.6-6.1-0.6-9.2c0-1.9,0.1-3.7,0.3-5.6c0-0.1,0.1-0.2,0.1-0.3
		c-0.1,0.2-0.1,0.3-0.2,0.5c-0.6,5-0.2,9.8,0.3,14.7C74,761.4,76.4,764.9,79.4,767.8c2.9,3.3,6.8,3.2,10.8,2.6
		c3.7-0.6,6.9-2.1,9.2-4.3c-2.3,2.2-5.4,3.7-9.1,4.2C86.3,770.9,82.4,771,79.4,767.8z"/>
	<path class="st2" d="M73.7,769c-0.5,2.9-1.4,5.6-2.9,7.9c1.5-2.3,2.4-5,3-7.8c0.2-0.5,0.2-1.1,0-1.6C73.9,768,73.8,768.5,73.7,769z
		"/>
	<path class="st2" d="M40.2,704.5c0-0.1,0-0.2,0-0.3c0,0,0,0,0,0C40.2,704.3,40.2,704.4,40.2,704.5z"/>
	<polygon class="st2" points="40.2,704.6 40.2,704.6 40.2,704.6 	"/>
	<path class="st2" d="M99,692.3C99,692.3,99,692.3,99,692.3C99,692.2,99,692.2,99,692.3c-0.2-0.5,0.2-1.1,0.4-1.5
		c1.4-5.7,2.1-11.4,2.1-17.3c0-1.9,0-3.9-0.1-5.8c-0.3-5.4-1.9-10.6-2.3-16c-0.6-8-2.7-15.8-5.7-23.1c-3.5-8.6-5.7-17.3-6.1-26.5
		c-0.4-7.8,0.9-15.5,2.7-23c0.6-2.5,1.3-5,2-7.5c0,0,0-0.1,0-0.1c0,0.1,0,0.1-0.1,0.2c-2.8,9.9-5.2,20-4.7,30.4
		c0.4,9.2,2.6,17.9,6.1,26.5c3,7.3,5.1,15.1,5.7,23.1c0.4,5.4,2,10.6,2.3,16c0.4,7.9-0.1,15.6-2,23.2c-0.2,0.7-0.9,1.5,0.2,1.8
		c0.2,0,0.3,0.1,0.4,0c-0.1,0-0.2,0-0.3,0C99.2,692.6,99.1,692.5,99,692.3z"/>
	<path class="st2" d="M95.2,558.4c0.2-0.8,0.4-1.6,0.6-2.4c0.1-0.5,0.3-1.1,0.5-1.6c0-0.1,0.1-0.3,0.1-0.4c0.1-0.2,0.2-0.4,0.3-0.6
		c0.1-0.1,0.1-0.3,0.2-0.4c0.5-1.1,1.1-2.1,1.9-3c0.5-0.6,1-1.3,1.3-2.1c0.2-0.6,0.4-1.2,0.5-1.7c0-0.2,0.1-0.5,0.1-0.7
		c0.9-5.4,3.1-10.3,4.3-15.6c0.1-0.6,0.3-1.3,0.4-1.9c1.4-6.2,2.7-12.4,3.4-18.8c0-0.4,0.1-0.8,0.1-1.1c0.1-1.4,0.2-2.7,0.2-4
		c0-9.4-3.6-18.2-6.9-27c-1.8-4.8-4.8-8.9-8-12.9c-0.3-0.4-1.1-0.9-1-1.4c0-0.2,0.1-0.4,0.3-0.6c0,0,0,0,0,0c-1,0.8,0.2,1.5,0.6,2
		c3.2,4,6.2,8.1,8,12.9c3.8,10,7.9,20.1,6.7,31.1c-0.8,7.4-2.4,14.6-4,21.8c-1.2,5.3-3.4,10.3-4.3,15.6c-0.3,1.6-0.9,3.3-2,4.5
		C96.4,552.5,95.7,555.5,95.2,558.4c-0.5,2.1-1.2,3.8-2,5.6c0,0,0,0,0.1,0C94.1,562.2,94.8,560.3,95.2,558.4z"/>
	<path class="st2" d="M85.2,416.7C85.2,416.7,85.2,416.7,85.2,416.7c-0.1,0.9-0.2,1.8-0.3,2.7C85,418.5,85.1,417.6,85.2,416.7
		C85.2,416.7,85.2,416.7,85.2,416.7z"/>
	<path class="st2" d="M90.1,372C90.1,372,90.1,372,90.1,372C90.1,372,90.1,372,90.1,372c-1.4,3-2.3,6.3-3.4,9.5
		C87.8,378.4,88.7,375.1,90.1,372C90.1,372,90.1,372,90.1,372z"/>
	<path class="st2" d="M82.3,446.7c-0.8,1.5-1.6,3.3-2,5.2C80.7,450,81.5,448.3,82.3,446.7C82.3,446.7,82.3,446.7,82.3,446.7z"/>
	<polygon class="st2" points="38.8,710.1 38.8,710.1 38.8,710.1 	"/>
	<path class="st2" d="M91.9,571.2c-0.4-1.8,0.3-3.4,0.6-5.2c0-0.1,0-0.1,0-0.2c0-0.3-0.1-0.6-0.1-0.9c0-0.3,0.1-0.6,0.4-0.8
		c-0.9,0.3-0.4,1.4-0.5,1.9c-0.1,1.8-1,3.6-0.4,5.6c0-0.1,0-0.1,0.1-0.2C91.9,571.4,91.9,571.3,91.9,571.2z"/>
	<path class="st2" d="M85.2,388.4c0,0.1,0,0.3,0,0.4C85.2,388.7,85.3,388.6,85.2,388.4c0.1-0.1,0.1-0.2,0.1-0.3
		C85.3,388.2,85.2,388.3,85.2,388.4z"/>
	<path class="st2" d="M104.1,491.5c0.9,2.4,1.3,4.9,1.6,7.5c0.7,7.5-0.3,14.7-2.1,22c-2.6,10.5-3.9,21.4-9.8,30.8
		c-0.4,0.6-0.7,1.4-0.8,2.1c-0.7,5.2-3.6,9.9-3.4,15.3c0,0.7-0.5,1.5-0.9,2.6c0,0.1,0,0.2,0,0.3c0.4-1.1,1-2,1-2.8
		c-0.3-5.4,2.6-10.1,3.4-15.2c0.1-0.9,0.4-1.6,0.8-2.2c6-9.4,7.3-20.3,9.8-30.8c1.8-7.2,2.8-14.5,2.1-22c-0.2-2.6-0.7-5.1-1.6-7.5
		c-2.1-6-3.7-12.3-6.7-17.9c-0.2-0.4-0.4-0.7-0.6-1c0.2,0.3,0.4,0.6,0.5,0.9C100.5,479.3,102,485.5,104.1,491.5z"/>
	<path class="st2" d="M91.1,464.6C91.1,464.6,91.1,464.6,91.1,464.6c0.7,1,1.5,2,2.3,3C92.6,466.6,91.8,465.6,91.1,464.6z"/>
	<path class="st2" d="M55.4,661.1c3.4-5.1,6.5-10.5,9.1-16c5.9-12.4,8-26,10.8-39.3c1.6-7.4,2.4-14.9,5.3-22
		c0.7-1.6,1.5-3.1,1.7-4.9c0.6-5.8,1.3-11.6,2-17.3c0.1-1.3,0.4-2.6,0.4-3.9c0,1.2-0.3,2.5-0.4,3.7c-0.7,5.8-1.4,11.6-2,17.3
		c-0.2,1.8-1.1,3.3-1.7,4.9c-2.9,7.1-3.8,14.6-5.3,22c-2.9,13.3-5,26.9-10.8,39.3c-2.6,5.5-5.6,10.9-9.1,16
		c-4.5,6.7-8.6,13.6-12,20.9c-1.6,3.4-2.7,6.9-3.6,10.5c0.8-3.5,2-6.9,3.6-10.3C46.8,674.7,50.9,667.7,55.4,661.1z"/>
	<path class="st2" d="M38.2,703c0,0.1,0,0.1,0,0.2c0.3-3.4,0.7-6.8,1.5-10.1C38.9,696.4,38.5,699.7,38.2,703z"/>
	<path class="st2" d="M89.1,544.9c0-0.1,0-0.1,0-0.2c-0.9-7.8,0.2-15.6,0.5-23.3C89.2,529.2,88.1,537,89.1,544.9z"/>
	<path class="st2" d="M86.8,463.7c0.4-0.1,0.6,0.2,0.6,0.6c0.3,4,1.6,8.1,1.5,12.2c0,0,0,0,0,0c0.2-4.2-1.2-8.2-1.5-12.4
		c0-0.4-0.2-0.7-0.6-0.6c-0.6,0.1-1.1,0.4-1,1.2c0,0,0,0,0,0.1C85.8,464.1,86.2,463.9,86.8,463.7z"/>
	<path class="st2" d="M86.9,544c-0.1,1.7-1,3.2-1.6,4.9c-0.6,1.6-1.1,3.2-1,4.9c0-1.6,0.5-3.1,1-4.7C85.9,547.5,86.9,545.8,86.9,544
		z"/>
	<path class="st2" d="M40.2,704.3c0,0.1,0,0.2,0,0.3c0,0,0,0,0,0c0,0,0-0.1,0-0.1C40.2,704.4,40.2,704.3,40.2,704.3
		C40.2,704.3,40.2,704.3,40.2,704.3z"/>
	<path class="st2" d="M89.8,516.5c0.2-8.9,0-17.9-1.4-26.8c-0.1-0.4-0.1-0.7-0.1-1.1c0,0.4,0.1,0.9,0.1,1.3
		C89.7,498.8,90,507.7,89.8,516.5z"/>
	<path class="st2" d="M86.5,537.8c0.1-5.2,0.9-10.3,1-15.5C87.5,527.5,86.6,532.6,86.5,537.8z"/>
	<path class="st2" d="M86.5,485.3c0,0,0,0.1,0,0.1c0-0.1,0-0.2,0-0.3C86.5,485.2,86.5,485.2,86.5,485.3z"/>
	<path class="st2" d="M87.5,517.9c0-4.1,0.2-8.2,0.2-12.3C87.7,509.6,87.5,513.7,87.5,517.9z"/>
	<path class="st2" d="M67.7,748.1c-3.4-1.6-6.9-1.9-10.2,0.3c-1.3,0.9-2,0.4-2.3-1c-0.5-2.5-1.2-5-1.5-7.6c-1-8.2-3.3-16.3-3.8-24.6
		c0,0,0-0.1,0-0.1c0,0.1,0,0.1,0,0.2c0.5,8.3,2.7,16.4,3.8,24.6c0.3,2.5,1,5,1.5,7.6c0.3,1.4,0.9,1.9,2.3,1c3.3-2.2,6.8-2,10.2-0.3
		c1.5,0.7,1.7,0,1.7-0.8C69.3,748.1,69.1,748.8,67.7,748.1z"/>
	<path class="st2" d="M44.7,706.7c-0.4-0.4-0.7-0.9-0.9-1.4c0.2,0.5,0.5,1,0.9,1.5c0.7,0.8,0.6,1.9,0.9,2.8c0,0.1,0.1,0.3,0.1,0.4
		c0-0.2-0.1-0.3-0.1-0.5C45.3,708.5,45.4,707.4,44.7,706.7z"/>
	<path class="st2" d="M84.1,598.5c0-2,0.2-4.1,0.5-6.2c0.1-0.4,0.1-0.8,0.2-1.2c0,0,0,0,0,0c-0.1,0.4-0.1,0.7-0.2,1.1
		C84.3,594.3,84.1,596.4,84.1,598.5z"/>
	<path class="st2" d="M91.1,697.1c0,0.1-0.4,0.1-0.7,0.2c-2.5,0.4-3.6,2.2-4.5,4.2c-3.2,7.2-6.6,14.3-9.6,21.6
		c-2.1,5.1-4.6,9.9-5.9,15.3c-0.5,2.4-1.1,4.7-1.1,7.1c0.1-2.4,0.6-4.7,1.1-7c1.3-5.4,3.9-10.3,5.9-15.3c3-7.3,6.3-14.4,9.6-21.6
		c0.9-2,2.1-3.8,4.5-4.2c0.2,0,0.7-0.1,0.7-0.2c0.9-3.6,5-5.2,5.7-9c0.3-1.4,0.5-2.8,0.7-4.2c-0.2,1.4-0.5,2.7-0.7,4.1
		C96.1,691.9,92,693.5,91.1,697.1z"/>
	<path class="st2" d="M48.1,712.5c-1.1-0.2-1.7-0.8-2-1.5c0.3,0.8,0.9,1.4,2,1.6c0.8,0.1,1.3,0.6,1.5,1.3
		C49.4,713.2,48.9,712.6,48.1,712.5z"/>
	<path class="st2" d="M95.9,699.5c1.4,0.1,1.4-1.4,2-2.1c0.1-0.2,0.2-0.4,0.2-0.6c0,0.1-0.1,0.3-0.2,0.5c-0.6,0.8-0.6,2.2-2,2.1
		c-0.4,0-0.7-0.2-0.8-0.5C95.2,699.2,95.5,699.4,95.9,699.5z"/>
	<path class="st2" d="M99.2,368.9c7.2,6,14.8,11,24.3,13.1c5.9,1.3,11.8,1.9,17.7,0.9c6.6-1.1,14.4-9.4,15.5-16
		c0.3-1.5,0.4-3,0.3-4.5c0,1.4-0.1,2.8-0.3,4.3c-1.1,6.6-9,14.9-15.5,16c-5.9,1-11.8,0.4-17.7-0.9c-9.4-2.1-17.1-7.1-24.3-13.1
		c-0.5-0.3-0.8-0.7-0.8-1.1C98.4,368,98.7,368.4,99.2,368.9z"/>
	<path class="st2" d="M85.6,439.8c0.1,0,0.1,0,0.2-0.1C85.7,439.8,85.7,439.8,85.6,439.8C85.6,439.8,85.6,439.8,85.6,439.8z"/>
	<path class="st2" d="M84.8,440c0.3,0,0.5-0.1,0.8-0.1c0,0,0,0,0,0C85.3,439.9,85.1,440,84.8,440z"/>
	<polygon class="st2" points="85.9,439.7 85.9,439.7 85.9,439.7 	"/>
	<polygon class="st2" points="85.9,439.7 85.9,439.7 85.9,439.7 	"/>
	<path class="st2" d="M85.9,382.4C85.9,382.4,85.9,382.4,85.9,382.4c0,0-0.1,0-0.1,0.1c-0.4,2.1-0.6,4.2-0.7,6.3
		c0-0.1,0.1-0.3,0.1-0.4c0.1-1.8,0.3-3.6,0.6-5.4C85.8,382.8,85.9,382.6,85.9,382.4z"/>
	<polygon class="st2" points="85.9,439.7 85.9,439.7 85.9,439.7 	"/>
	<path class="st2" d="M85.8,387.1c0,0.1-0.1,0.2-0.1,0.3c-0.2,9.7,0.7,19.4-0.5,29.2C86.5,406.9,85.4,397,85.8,387.1z"/>
	<path class="st2" d="M86,439.6C86,439.6,86,439.6,86,439.6c0,0-0.1,0.1-0.1,0.1C86,439.7,86,439.7,86,439.6z"/>
	<path class="st2" d="M85.9,439.7c0,0,0.1,0,0.1-0.1C86,439.7,86,439.7,85.9,439.7C85.9,439.7,85.9,439.7,85.9,439.7z"/>
	<path class="st2" d="M84.5,439.9c-1.6,0.1-0.8-1.1-0.8-1.7c0-7.2,0.7-14.5,1.6-21.6c1.3-9.9,0.3-19.9,0.6-29.8
		c0,0.1-0.1,0.2-0.1,0.3c-0.4,9.8,0.7,19.7-0.6,29.6c0,0,0,0,0,0c-0.1,0.9-0.2,1.8-0.3,2.7c-0.3,2.7-0.6,5.4-0.8,8.1
		c-0.1,1.8-0.3,3.6-0.3,5.4c-0.1,1.8-0.1,3.6-0.1,5.4c0,0.2-0.1,0.5-0.2,0.8C83.3,439.6,83.4,440.1,84.5,439.9
		c0,0.1,0.2,0.1,0.3,0.1c0.3,0,0.5-0.1,0.8-0.1C85.2,439.9,84.8,439.9,84.5,439.9z"/>
	<path class="st2" d="M85.6,439.8c0.1,0,0.1,0,0.2-0.1c0,0,0,0,0.1,0C85.8,439.8,85.7,439.8,85.6,439.8z"/>
	<path class="st2" d="M85.6,439.8C85.6,439.8,85.6,439.8,85.6,439.8C85.6,439.8,85.6,439.8,85.6,439.8z"/>
	<path class="st2" d="M85.5,439.8C85.5,439.8,85.5,439.8,85.5,439.8C85.6,439.8,85.6,439.8,85.5,439.8
		C85.6,439.8,85.6,439.8,85.5,439.8C85.6,439.8,85.6,439.8,85.5,439.8z"/>
	<path class="st2" d="M85.8,439.8C85.8,439.8,85.8,439.8,85.8,439.8C85.9,439.7,85.9,439.7,85.8,439.8
		C85.8,439.8,85.8,439.8,85.8,439.8z"/>
	<path class="st2" d="M90.1,372C90.1,372,90.1,372,90.1,372c-1.4,3-2.3,6.3-3.4,9.5c-0.1,0.4-0.3,0.8-0.4,1.2c0,0,0,0.1,0,0.1
		C87.7,379.2,88.5,375.5,90.1,372z"/>
	<path class="st2" d="M85.8,383c-0.3,1.8-0.5,3.6-0.6,5.4c0-0.1,0.1-0.2,0.1-0.3C85.3,386.4,85.6,384.7,85.8,383z"/>
	<path class="st2" d="M38.8,710.5c0-0.1,0-0.3,0-0.4C38.7,710.2,38.8,710.4,38.8,710.5c0.3,1.2-0.2,2.9,1.7,3.2
		c0.6-0.2,1.5,0,1.7-0.4c-0.3,0.4-1.2,0.1-1.7,0.3C38.6,713.4,39.1,711.6,38.8,710.5z"/>
	<path class="st2" d="M40.5,713.6c-1.9-0.3-1.4-2-1.7-3.2c0-0.1,0-0.2,0-0.3c0,0,0,0,0,0c0,0.1,0,0.2,0,0.4
		C39.1,711.6,38.6,713.4,40.5,713.6z"/>
	<path class="st2" d="M83.7,444.7c-0.5,0.4-0.9,1-1.3,1.8c0,0.1-0.1,0.1-0.1,0.2c0.2-0.5,0.5-0.8,0.7-1.2
		C83.2,445.2,83.5,444.9,83.7,444.7z"/>
	<path class="st2" d="M81.9,460.7c-1.5,0.4-1.6-0.5-1.6-1.4c-0.1-2.2,0-4.3,0-6.5c0.2-2.3,1.2-4.4,2.2-6.4c0.2-0.3,0.4-0.6,0.5-0.9
		c-0.2,0.3-0.5,0.7-0.7,1.2c-0.8,1.6-1.6,3.3-2,5.2c0,0.1,0,0.1,0,0.2c0,0.3-0.1,0.6-0.1,0.9c0,2.2-0.1,4.3,0,6.5
		c0,0.9,0.1,1.7,1.6,1.4c4-1,8.1-1.6,12.1-2.7c0.7-0.2,1.2-0.5,1.5-0.9c-0.3,0.3-0.7,0.6-1.4,0.8C90,459.2,85.9,459.7,81.9,460.7z"
		/>
	<path class="st2" d="M46.5,763.1c-0.9-2.9-1.7-5.9-2.4-8.9C44.8,757.2,45.6,760.2,46.5,763.1z"/>
	<path class="st2" d="M40,717.5c1.5,0.4,3.1,0,4.6-0.6c0.6-0.2,1.3-0.5,1.4,0.6c0.3,6.2,2.2,12.2,3,18.4c0.7,6,2.2,11.9,3.7,17.8
		c0.5,2,1.7,2.3,3.3,0.9c1.4-1.3,2.9-2.5,4.7-3.3c3.7-1.5,8.6,1.3,9.1,5.2c0.4,3.4,1.1,6.7,3.3,9.6c0.1,0.1,0.1,0.2,0.2,0.2
		c-0.1-0.1-0.2-0.3-0.3-0.4c-2.1-2.7-2.8-6.1-3.2-9.5c-0.5-3.9-5.4-6.7-9.1-5.2c-1.8,0.7-3.2,2-4.7,3.3c-1.5,1.4-2.8,1.1-3.3-0.9
		c-1.5-5.9-3-11.7-3.7-17.8c-0.7-6.2-2.6-12.2-3-18.4c-0.1-1.1-0.7-0.9-1.4-0.6c-1.5,0.6-3.1,1-4.6,0.6c-2.1-0.5-2.4,0.4-2.2,1.6
		C37.7,717.8,38,717,40,717.5z"/>
	<path class="st2" d="M74.3,738.5c0.8-2.3,1.7-4.5,2.6-6.8c0.9-2.2,1.9-4.5,2.9-6.7c0.7-1.5,1.3-3,2-4.4c0.6-1.3,1.1-2.5,1.7-3.8
		c-0.6,1.2-1.1,2.5-1.7,3.7C79,726.4,76.3,732.3,74.3,738.5c-0.1,0.1-0.1,0.3-0.1,0.5C74.2,738.8,74.2,738.6,74.3,738.5
		C74.3,738.5,74.3,738.5,74.3,738.5z"/>
	<path class="st2" d="M73.6,741.2c0,0.2-0.1,0.4-0.2,0.6c0-0.1,0-0.1,0.1-0.2C73.6,741.5,73.6,741.4,73.6,741.2z"/>
	<path class="st2" d="M96.7,703.8c-1.6-0.3-3.1-0.9-4.3-1.8c-1.7-1.2-2.3-0.4-2.9,1c-1.1,2.4-2.1,4.8-3.1,7.1c1-2.3,2.1-4.7,3.1-7
		c0.6-1.4,1.2-2.2,2.9-1C93.7,703,95.1,703.7,96.7,703.8c1,0.2,1.4,0.6,1.5,1.1C98.1,704.4,97.7,704,96.7,703.8z"/>
	<path class="st2" d="M86.8,743c2.3-0.3,4.7-0.7,7.1,0.1c3.6,1.1,5.7,3.9,7.6,6.8c1.3,2,2.3,4,2.3,6.3c0.1-2.4-1-4.5-2.3-6.4
		c-1.9-2.9-4-5.7-7.6-6.8C91.5,742.3,89.2,742.6,86.8,743c-1.9,0.1-3.1-0.2-3.4-1.2C83.7,742.9,84.8,743.3,86.8,743z"/>
	<path class="st2" d="M76.9,731.7c-0.9,2.2-1.8,4.5-2.6,6.8c0,0,0,0,0,0c0,0,0,0,0,0C75.1,736.2,75.9,734,76.9,731.7z"/>
	<path class="st2" d="M73.1,747.8c0-1.8,0.1-3.6,0.3-5.5c0.1-0.2,0.1-0.4,0.2-0.6c0,0.1,0,0.1-0.1,0.2c0,0.1-0.1,0.2-0.1,0.3
		C73.2,744.1,73.1,745.9,73.1,747.8z"/>
	<path class="st2" d="M95.4,566.8c-1.8,6.3-2.7,12.8-4.2,19.2c-0.2,0.8-0.4,1.6-0.5,2.5c0.2-0.8,0.3-1.6,0.5-2.4
		C92.7,579.7,93.6,573.2,95.4,566.8c1.6-5.6,2.8-11.5,5.9-16.9c1-1.6,1.6-3.4,2.2-5.3c-0.6,1.8-1.3,3.6-2.2,5.2
		C98.2,555.2,97,561.1,95.4,566.8z"/>
	<path class="st2" d="M100.4,692.3c-0.1,0.2-0.3,0.4-0.6,0.4c0.8,0,0.7-0.9,1-1.4c1.1-2.3,1.8-4.5,2.3-6.9c-0.5,2.3-1.3,4.6-2.3,6.8
		C100.7,691.5,100.6,692,100.4,692.3z"/>
	<path class="st2" d="M91.9,571.5C91.9,571.5,91.9,571.5,91.9,571.5C91.9,571.5,91.9,571.5,91.9,571.5
		C91.9,571.5,91.9,571.5,91.9,571.5C91.9,571.5,91.9,571.5,91.9,571.5z"/>
	<path class="st2" d="M110.9,509.7c-1.1,9.1-2.9,18-5.3,26.9c-0.1,0.5-0.3,1.1-0.4,1.6c0.1-0.5,0.3-1,0.4-1.5
		C108,527.9,109.9,518.9,110.9,509.7c0.7-5.7,0-11.3-1.4-16.9C110.8,498.4,111.5,503.9,110.9,509.7z"/>
	<path class="st2" d="M99.1,651.6c-0.6-8-2.7-15.8-5.7-23.1c-3.5-8.6-5.7-17.3-6.1-26.5c-0.3-7.8,0.9-15.4,2.7-22.9
		c-1.8,7.5-3.1,15.2-2.7,23c0.4,9.2,2.6,17.9,6.1,26.5C96.4,635.9,98.5,643.7,99.1,651.6c0.4,5.5,2,10.7,2.3,16.1
		c0.1,1.9,0.1,3.9,0.1,5.8c0-2,0-3.9-0.1-5.9C101.1,662.2,99.5,657,99.1,651.6z"/>
	<path class="st2" d="M92,571.5C91.9,571.5,91.9,571.5,92,571.5c0,0.1,0,0.1,0,0.2c0,0,0,0,0,0C92,571.6,92,571.5,92,571.5z"/>
	<path class="st2" d="M100.4,692.3c-0.2,0.3-0.4,0.4-0.9,0.3c-0.3-0.1-0.5-0.2-0.6-0.3c0.1,0.2,0.2,0.3,0.6,0.4c0.1,0,0.2,0,0.3,0
		C100.2,692.7,100.3,692.6,100.4,692.3z"/>
	<path class="st2" d="M100,547.9c0.2-0.6,0.4-1.2,0.5-1.7C100.4,546.8,100.2,547.3,100,547.9z"/>
	<path class="st2" d="M105.4,528c1.4-6.2,2.8-12.5,3.4-18.8C108.1,515.6,106.8,521.8,105.4,528z"/>
	<path class="st2" d="M94.3,464.1c-0.3-0.4-1-0.8-1-1.3C93.2,463.3,94,463.8,94.3,464.1c3.2,4.1,6.2,8.2,8,13
		c3.3,8.7,6.9,17.5,6.9,27c0-9.5-3.6-18.3-6.9-27.1C100.5,472.2,97.5,468.1,94.3,464.1z"/>
	<path class="st2" d="M91.9,571.2c0,0.1,0,0.2,0,0.3c0,0,0,0,0,0C91.9,571.4,91.9,571.3,91.9,571.2z"/>
	<path class="st2" d="M92.5,565.8c0-0.3-0.1-0.6-0.1-0.9C92.4,565.2,92.5,565.6,92.5,565.8z"/>
	<path class="st2" d="M82.8,205.4L82.8,205.4c0-0.2,0-0.4,0-0.5C82.8,205.1,82.7,205.2,82.8,205.4L82.8,205.4z"/>
	<path class="st2" d="M76.9,204.7c0.3-8.9,0.2-17.7-0.4-26.6c-0.5-6.8,0.1-13.6-0.2-20.5c-0.4-9.1-0.4-18.3-0.6-27.4
		c-0.2-8.6-0.9-17.3-3.2-25.7c-1.9-6.9-5.4-13-9.1-19c-1.3-2.2-2.8-4.3-4.5-6.3c-0.3-0.4-0.6-0.7-0.9-1.1c-4.8-5-11.5-6.6-17.6-9.1
		c-4.5-2-8.4-4.5-11.7-7.9c-2-2-3.8-4.3-5.2-7c-2.5-4.6-4.2-9.6-4-15c0.2-4.6,1.2-8.9,4.2-12.5c0.4-0.4,0.7-1.5,1.4-0.8
		c0.2,0.2,0.4,0.4,0.6,0.6c0.6,0.5,1.1,1.2,0.3,2.1c-4.5,5.4-3.8,11.7-2.3,17.6c1.3,5.1,3.9,9.5,7.8,13.4c0.5,0.5,1.1,1,1.7,1.5
		c4.6,3.9,9.8,5.8,15.4,7.1c4.2,1,7.4,3.5,10.2,6.4c0,0,0,0,0,0c0.1,0.1,0.1,0.1,0.2,0.2c5.7,5.8,9.6,12.7,13.2,20.1
		c5.5,11.4,6.3,23.5,6.5,35.7c0.1,9.9,0.1,19.8,0.3,29.7c0.2,14,0.9,27.9,0.7,41.9c0,0.2,0,0.5,0,0.7c0.1,0.7,0.1,1.3,0.1,1.9l3,0.2
		c0-14.9-0.2-29.8-0.7-44.7c-0.2-6.2,0.2-12.5,0-18.7c-0.2-7.7-0.3-15.5-0.6-23.2c-0.5-11.9-5-22.3-10.3-32.5
		c-2.6-5-6.1-9.5-10.1-13.2c-3.4-3.2-6.9-6.4-12-7.2c-3.4-0.6-6.9-1.6-9.8-3.5c-6.8-4.4-11.7-10.3-12.8-18.6c-0.5-3.8-1-7.6,1-11.2
		c0.5-1.2,1.7-2.8,3.2-4.3c-1.8-2.1-3.4-4.4-4.9-6.7c-5.2,4.4-7.3,8.8-7.7,9.7c0,0,0,0.1-0.1,0.1c0,0,0,0,0,0
		c-1.7,4.2-1.8,8.8-0.9,13.6c1.4,7.8,5,14.4,10.9,19.7c5.1,4.6,10.9,8.1,17.6,9.9c2.6,0.7,5.3,1.5,7.4,3.4
		c8.2,7.4,13,16.9,16.5,27.2c2.7,8.2,2.6,16.9,3.1,25.4c0.4,7.2,0.1,14.5,0.5,21.7c0.6,11.4,0,22.8,0.8,34.2
		c0.4,6.2,0.1,12.4-0.1,18.6l0.4,0c0,0,0-0.1,0-0.1L76.9,204.7z"/>
	<path class="st2" d="M33.1,25.4c1.8-1.6,3.6-2.9,4.8-3c0,0,0,0,0,0c4.5-1.6,9-2.8,13.3-2.6c6.1-0.2,10.7,1.7,15,4.9
		c2.7,2.1,2.3,5.6-0.9,6.8c-5,2-9.8,2.2-14.6,1.1l-0.4,3.1c5.7,1.4,11.5,0.8,16.9-1.8c4.9-2.3,4.9-8.7,0.3-11.9
		c-9.8-6.9-20-6.4-30.6-2.3c-0.7,0.3-1.4,0.5-2.1,0.8c-0.9,0.5-1.7,0.9-2.1-0.4c-0.5-1.3,0.8-1.2,1.4-1.6c3.2-1.8,6.7-2.4,10.2-3
		c6.5-1.1,13.1-1.5,19.5,0.7c6,2,9.9,7.3,9.9,13.2c0,3.4-1.6,5.3-4.5,6.8c-4.7,2.4-9.8,2.4-14.8,2.4c-1.5,0-3-0.2-4.5-0.4l-0.4,3.2
		c4.8,0.8,9.9,0.6,15-0.2c2.6-0.4,5.2-1.5,7.4-2.9c2.9-2,4.8-4.5,5-8.4c0.4-8.9-7.6-16.1-15.1-17.3c-8.6-1.4-17.2-1-25.3,2
		c-3.1,1.3-5.7,2.7-7.9,4.3C29.9,21.3,31.4,23.5,33.1,25.4z"/>
	<path class="st2" d="M76.9,204.7l-2.7-0.2c0,0,0,0.1,0,0.1l2.7,0.2C76.9,204.8,76.9,204.7,76.9,204.7z"/>
	<path class="st2" d="M79.8,205.2l2.9,0.2c0-0.2,0-0.3,0.1-0.5c0,0,0,0,0,0l-3-0.2C79.8,204.9,79.8,205,79.8,205.2z"/>
	<path class="st0" d="M63.6,85.7c3.7,6,7.2,12.1,9.1,19c2.3,8.4,3,17.1,3.2,25.7c0.2,9.1,0.2,18.3,0.6,27.4
		c0.3,6.8-0.2,13.6,0.1,20.5c0.6,8.7,0.7,17.4,0.4,26.1l2.6,0.2c0,0.2,0,0.4-0.1,0.6l0.1,0c0-0.8,0.1-1.6,0.1-2.4
		c0-0.3-0.1-0.6-0.2-0.9c0.2-14-0.5-27.9-0.7-41.9c-0.2-9.9-0.2-19.8-0.3-29.7c-0.2-12.2-1-24.3-6.5-35.7
		c-3.6-7.4-7.5-14.3-13.2-20.1c-2.8-2.8-5.9-5.2-10-6.2C43.2,67,38,65.1,33.4,61.2c-0.7-0.6-1.3-1.1-1.9-1.7c-4-3.9-6.7-8.4-8-13.6
		C22,40,21.3,33.7,25.8,28.3c0.7-0.8,0.4-1.4-0.1-1.9c-0.1-0.1-0.3-0.3-0.4-0.4c-1.2-1.1-1.6,0.7-2,1.1c-3,3.6-3.4,7.6-3.6,12.2
		c-0.2,5.4,1.5,10.4,4,15c1.4,2.6,3.1,4.8,5,6.8c3.2,3.3,7.1,5.8,11.5,7.7c6.2,2.6,12.9,4.2,17.8,9.3c0.4,0.4,0.8,0.8,1.1,1.3
		C60.8,81.4,62.3,83.5,63.6,85.7z"/>
	<path class="st0" d="M25.8,28.3C21.3,33.7,22,40,23.5,45.9c1.3,5.2,4,9.7,8,13.6c-3.9-3.8-6.5-8.2-7.8-13.4
		c-1.5-5.9-2.2-12.2,2.3-17.6c0.8-1,0.3-1.6-0.3-2.1C26.1,26.9,26.5,27.5,25.8,28.3z"/>
	<path class="st0" d="M78.5,130.3c0.1,9.9,0.1,19.8,0.3,29.7c0.2,14,0.9,27.9,0.7,41.9c0.1,0.3,0.1,0.6,0.2,0.9c0-0.2,0-0.5,0-0.7
		c0.2-14-0.5-27.9-0.7-41.9c-0.2-9.9-0.2-19.8-0.3-29.7c-0.2-12.2-1-24.3-6.5-35.7c-3.6-7.4-7.5-14.3-13.2-20.1
		c-0.1-0.1-0.1-0.1-0.2-0.2c5.7,5.8,9.6,12.7,13.2,20.1C77.5,106,78.3,118.1,78.5,130.3z"/>
	<path class="st0" d="M28.7,61.1c3.3,3.4,7.2,6,11.7,7.9c6.1,2.6,12.7,4.2,17.6,9.1c-4.9-5.1-11.6-6.7-17.8-9.3
		C35.8,66.9,31.9,64.4,28.7,61.1z"/>
	<path class="st0" d="M77,204.4L77,204.4c0,0.1,0,0.2,0,0.3l0,0C77,204.6,77,204.5,77,204.4z"/>
	<path class="st0" d="M78,320.2c0.3-4.1,0.3-8.3,0.6-12.4c0.5-6.6,0.2-13.1,0.1-19.7c-0.1-4.3,0-8.6-0.1-13
		c-0.2-8.2-0.5-16.4-0.5-24.7c0-9.2,0-18.5,0.3-27.7c0.2-5.9,0.6-11.7,1.1-17.5l-2.4-0.2c-1.6,14.8-2.2,29.8-2,44.7
		c0.1,10,0.7,19.9,0.8,29.9c0.1,14.1-0.1,28.2,0,42.3c0.1,9.6,0.5,19.4,3.6,28.8c1.4,4.1,3.4,7.7,5.3,11.5c0.5,0.9,1.2,1.6,2,2.3
		c0.1,0.1,0.1,0.1,0.2,0.2c0.1,0.1,0.2,0.2,0.3,0.3c3.5,3.1,6.9,6.2,10.2,9.4c0,0,0,0,0.1,0.1c8.2,8,17.9,12.7,29.3,14.3
		c6.2,0.9,12.3,1.2,18.2-1c13.7-4.9,21.3-19,16.9-32.1c-1.6-4.6-4-8.5-7.1-11.5c-4-3.9-9.3-6.4-15.5-7.6c-6.2-1.2-12.4-1.2-18.6-0.4
		c-5.4,0.7-9.6,3.9-13.6,7.1c-5.9,4.6-10,10.8-13.1,17.6c-0.7,1.6-0.6,2.8,0.3,3.7c0.3,0.3,0.7,0.6,1.3,0.8c1.4-4,2.9-7.9,5.2-11.5
		c5.9-9.3,16.8-17.2,29.4-15.6c4.6,0.6,9.2,1,13.7,2.3c1.7,0.5,3.3,1.2,4.6,2.3c3.7,3.3,7.5,6.5,9.7,10.7c1.4,2.5,2.2,5.3,2.2,8.6
		c-0.1,7.1-3.4,12.7-8.4,17.7c-7.3,7.3-16,7.2-25.1,5.9c-12.3-1.8-22.2-8.1-31.5-16.1c-0.7-0.6-1.3-1.2-1.9-1.8
		c-8.8-8.5-12.7-19.1-14-31.1C79.1,331.3,77.6,325.9,78,320.2z"/>
	<path class="st0" d="M97.6,374.4c-3.3-3.3-6.7-6.4-10.2-9.4C90.8,368.2,94.2,371.3,97.6,374.4z"/>
	<path class="st0" d="M84.9,362.2c-1.9-3.8-3.9-7.4-5.3-11.5c-3.1-9.4-3.5-19.2-3.6-28.8c-0.1-14.1,0.1-28.2,0-42.3
		c-0.1-10-0.7-19.9-0.8-29.9c-0.2-14.9,0.4-29.9,2-44.7l-0.2,0c0-0.1,0-0.2,0-0.3l0,0c-1.5,15-2.1,30-1.9,44.9
		c0.1,10,0.7,19.9,0.8,29.9c0.1,14.1-0.1,28.2,0,42.3c0.1,9.6,0.5,19.4,3.6,28.8c1.4,4.1,3.4,7.7,5.3,11.5c0.5,1,1.3,1.7,2.1,2.4
		C86.1,363.8,85.4,363.1,84.9,362.2z"/>
	<path class="st0" d="M94.2,360.9c3.1-6.8,7.2-13,13.1-17.6c4-3.2,8.2-6.4,13.6-7.1c6.2-0.8,12.4-0.8,18.6,0.4
		c6.2,1.2,11.5,3.8,15.5,7.6c-4.1-3.9-9.4-6.5-15.6-7.7c-6.2-1.2-12.4-1.3-18.6-0.4c-5.4,0.7-9.6,3.9-13.6,7.1
		c-5.8,4.7-10,10.8-13.1,17.6c-0.8,1.6-0.6,2.9,0.4,3.8C93.6,363.7,93.5,362.5,94.2,360.9z"/>
	<path class="st0" d="M127.1,385.8c9.1,1.3,17.8,1.4,25.1-5.9c5-5,8.3-10.6,8.4-17.7c0-3.3-0.8-6.1-2.2-8.6c1.3,2.5,2.1,5.3,2.1,8.5
		c-0.1,7.1-3.5,12.7-8.4,17.7c-7.2,7.3-16,7.3-25.1,5.9c-12.3-1.8-22.2-8.1-31.5-16.1c-0.6-0.5-1.2-1.1-1.8-1.7
		c0.6,0.6,1.2,1.2,1.9,1.8C104.9,377.7,114.8,384,127.1,385.8z"/>
	<path class="st0" d="M77,204.4c0,0.1,0,0.2,0,0.3l0.2,0c0,0.1,0,0.2,0,0.3l2.4,0.2c0-0.2,0-0.4,0.1-0.6L77,204.4z"/>
	<path class="st0" d="M77,204.7c0,0.1,0,0.2,0,0.3l0.2,0c0-0.1,0-0.2,0-0.3L77,204.7z"/>
	<path class="st2" d="M18,30.9C18,30.9,18,30.9,18,30.9C18,30.9,18,30.9,18,30.9z"/>
</g>
<path class="st0" d="M22.9,29.3l-0.5-0.9c0,0,5-8,13.3-10.6c6.3-2,5.1-1.3,5.1-1.3l-0.5,2.1c0,0-6.7,2.5-10.2,5.9
	c-3.2,3.1-5.3,5.7-5.3,5.7l-1.9,0.7V29.3z"/>
</svg>
