<?xml version="1.0" encoding="utf-8"?>
<!-- Generator: Adobe Illustrator 21.0.0, SVG Export Plug-In . SVG Version: 6.00 Build 0)  -->
<svg version="1.1" id="Calque_1" xmlns="http://www.w3.org/2000/svg" xmlns:xlink="http://www.w3.org/1999/xlink" x="0px" y="0px"
	 viewBox="0 0 685.5 379.5" style="enable-background:new 0 0 685.5 379.5;" xml:space="preserve">
<style type="text/css">
	.st0{fill:#7F2E40;}
	.st1{fill:#272F48;}
	.st2{fill:#D96564;}
	.st3{fill:#C1C8CA;}
	.st4{fill:#FEFDFE;}
	.st5{fill:#606060;}
	.st6{fill:#4D7388;}
</style>
<g>
	<path class="st0" d="M-498.6,412.9c0,1.4-1,2.2-1.8,3.2c-0.7,0.9-0.4,1.3,0.5,1.6c-0.3,0.7-0.9,1-1.5,1.2c-2.2,0.4-4.1,1.3-5.8,2.7
		c-0.5,0.4-1.2,0.7-1.8,0.8c-0.8,0.2-2,0.7-2.4-0.5c-0.5-1.3,0.9-1.4,1.6-1.7C-505.2,419-501.7,416.2-498.6,412.9z"/>
	<path class="st0" d="M-494.7,408.4c0.3,1-0.4,1.4-1.1,1.8C-496,409.2-495.5,408.7-494.7,408.4z"/>
</g>
<g>
	<path class="st1" d="M685.4,193.2c0.6,13.8-1.2,27.2-5.7,40.3c-5,14.6-8.4,29.7-14.9,43.7c-8.4,18.2-19,35-32.7,50
		c-12,13-26.7,21.3-42.3,28.7c-6.3,3-12.7,5.9-19.1,8.7c-9.1,4.1-18.5,7-28.4,8.5c-11.1,1.7-22.1,4.4-33.3,5.5
		c-7,0.7-14.1,1.2-21.2,0.4c-1.1-0.1-2.2-0.1-3.2-0.1c-19.6,0.1-39.2,0-58.7-0.6c-16.5-0.5-33-0.8-49.4-1.5
		c-19.7-0.9-39.5-1.1-59.2-0.8c-8.3,0.2-16.7,0.6-25,0.3c-13.6-0.4-27.1-1-40.7-1.5c-7.5-0.3-15-0.6-22.5-0.9
		c-25.2-0.8-50.3-0.4-75.5-0.6c-9.5-0.1-18.7-1.9-27.3-6.2c-2.9-1.5-5.9-1.6-9-1.1c-15,2.7-30.1,5-45.2,6.7
		c-10.2,1.1-20.5,1.1-30.7,0.1c-1-0.1-2-0.4-2.8-0.9c-2.7-1.8-5.3-1.4-8-0.1c-2,1-4,2.1-6,3.1c-6.4,3-12.1,1.9-17.1-3.1
		c-0.9-0.9-1.7-1.8-2.5-2.8c-4.4-5.9-4-10.3,0.8-15.9c3.4-4,7.4-6.8,12.4-8.4c4.1-1.3,7.2-4.3,9.6-7.7c9.6-13.5,20.9-25.5,31.9-37.8
		c5-5.5,10.9-10.1,16.6-14.7c2.5-2,4.1-4,3.7-7.6c-0.4-3.9,1.4-7.3,4.2-10.1c4.4-4.5,9.2-8.7,13-13.8c0.4-0.6,1-1.1,1.7-1.5
		c12.1-7.4,22.6-16.7,33.7-25.4c14.1-11,28.4-21.9,42.4-33c17.6-14,35-28.2,52.2-42.7c5.8-4.9,11.1-10.3,16.7-15.4
		c6.6-6.1,13.9-11.5,20.6-17.4c13.8-12.2,27.5-24.4,41-37c9.2-8.6,19.3-16.3,29-24.5c5.6-4.7,11.2-9.4,16.9-14.1
		c5.5-4.6,11.6-8.4,18-11.6c11.6-5.8,23.3-11,35.5-15.4c12.3-4.4,24.9-7.4,37.9-8.7c9.5-1,19-2.5,28.5-3.7c11.5-1.4,23-2.7,34.6-2.8
		c23.8,0,46.3,5.1,67.3,16.4c5.7,3.1,11.5,6.1,17.3,9c10.3,5.2,18.6,12.8,27,20.4c5.5,4.9,10.5,10.2,14.3,16.6
		c0.9,1.6,2.5,2.9,3.9,4.2c7,6.6,12.9,14.1,17,23c0.4,1,1,2,1.7,2.8c4.9,5.7,7.8,12.4,10.6,19.2c1.9,4.7,3.9,9.4,6,14
		c2.1,4.6,3.8,9.4,5.1,14.3c1.5,5.7,3.1,11.4,5.4,16.9c2.4,6,3.2,12.4,3.6,18.8C685.3,181.4,685.3,187.3,685.4,193.2z M40.5,343.4
		c-1.5,1.7-3,3.5-4.5,5.2c-1.5,0.5-2.3,1.9-3.4,2.9c-3.9,3.3-8.1,5.9-13,7.2c-1.2,0.3-2.6,0.7-2.2,2.4c0.5,1.8,2,1.4,3.3,1.1
		c1.2-0.3,2.2-0.7,3.1-1.5c2.3-1.9,4.9-3,7.8-3.7c1-0.2,2.2-0.4,2.5-1.7c0.6-0.1,1.2-0.1,1.8-0.2c3.8,3.2,8.3,4.6,13.3,4.9
		c12.2,0.6,24.3-1.4,36.5-2.2c0.9-0.1,1.9,0,2.4-1c0.8-0.1,1.6-0.2,2.3-0.4c2,1.2,3.4,0.2,4.6-1.3c1.6-0.1,3.2-0.2,4.8-0.3
		c1.9,1,3.4,0.4,4.6-1.1c1.3-0.4,2.6-0.3,3.9-0.3c1.3,0.8,2.6,0.7,3.6-0.4c1.1-1.1,0.7-2.3,0.1-3.5c-7.8-15-14.4-30.5-20.9-46.1
		c-0.6-1.5-1.4-3-3.3-3.5c-1-0.9-1.7-2.1-2.9-2.7c-2-1.7-2.7-1.5-4.2,1.4c-0.3,0.3-0.6,0.5-1,0.8c-3.6,0.8-6.3,2.9-8.4,5.7
		c-2,2.7-4,5.3-6.7,7.3c-1.5,1.1-2.4,2.7-3,4.5c-0.9,1-1.9,2-2.8,2.9c-1.3,0.5-2.6,1-2.6,2.7c-0.3,0.4-0.6,0.9-0.9,1.3
		c-2.3,1.3-3.5,3.7-5.1,5.6c-2.6,3.1-5.6,5.9-7.5,9.5c-0.3,0.6-0.5,1.2-0.8,1.9C40.9,341.4,40.4,342.2,40.5,343.4z M147.3,306
		c-0.2,3,1.2,5.5,2.3,8c2.1,4.9,3.8,9.9,3.6,15.3c-1.5,1.5-2.9,3-0.8,5.1c-1.6,0.3-2.7,1.3-3.9,2.1c-2.1,1.5-4.1,3.2-6.6,3.9
		c-1.9,0.5-3,1.5-3.7,3.3c-1.3,3.4-3.6,5.7-7.1,6.9c-1,0.3-2.4,0.4-2.1,1.9c0.3,1.3,1.6,1.3,2.7,1.4c3.4,0.2,6.6,1.1,9.8,2
		c6.2,1.8,12.5,2.6,18.9,3.1c8.7,0.7,17.5,0.3,26.2,0.1c17.3-0.3,34.6,1.2,52,0.8c3.2-0.1,6.3,0.1,9.5,0.1
		c13.6,0.2,27.3,1.5,40.9,1.4c8.2,0,16.5-0.3,24.7,0.3c3.5,0.3,7,0,10.5-0.2c4.7-0.3,9.5-1,14.2-0.6c7.6,0.7,15.3,0.9,23,0.8
		c13.8-0.2,27.6,0.8,41.5,1.2c19.5,0.5,38.9,1.3,58.4,1.7c7.5,0.1,15-0.4,22.5-0.2c7.6,0.2,15.1,0.1,22.7-0.6
		c14.9-1.5,29.8-3.9,44.3-7.7c17-4.4,32.7-12.3,48.2-20.5c8-4.3,15.7-9.1,21.9-16c11.1-12.3,20.2-25.8,27.5-40.6
		c5.7-11.5,9.1-23.8,13.1-35.9c4.7-14.1,8.9-28.3,9.6-43.3c0.5-10.1,0.5-20.2-1.7-30.1c-3.8-17.3-9-34.2-16.3-50.3
		c-3.4-7.4-6.1-15.2-11.1-21.8c-2.2-2.9-4-5.9-5.5-9.2c-1.4-3-3.3-5.7-5.7-7.9c-5.4-4.9-9.6-10.8-14.2-16.3
		c-9.4-11.1-20.3-20.6-33.5-27c-0.7-0.3-1.3-0.7-2-1.1c-16.3-9.8-33.8-16.6-52.4-20.3c-3.4-0.7-6.9-1.5-10.4-1.6
		c-11.6-0.4-23.1,0.7-34.7,1.2c-9.4,0.5-18.7,2.1-28,3.3c-10,1.3-20,2.3-29.8,4.6c-18.1,4.3-35,11.9-51.6,20
		c-4.7,2.3-9.5,4.6-13.1,8.5c-2,2.2-4.1,4.1-6.4,5.9c-16.5,12.5-32.3,25.7-47.6,39.6c-20.8,18.8-41.2,38.1-62.7,56.2
		c-10,8.3-19.3,17.4-29.6,25.4c-21.7,17-43.4,34.1-65,51.1c-11,8.7-21.8,17.6-33.1,25.9c-6.1,4.4-12,8.9-17.1,14.5
		c-2.4,2.6-4.8,5-4.2,9.1c0.2,1.2-0.5,2.6-0.8,3.9c-0.1,0.6-0.6,1.3,0,1.9c0.7,0.7,1.4,0.1,2-0.3c2.5-1.6,5.2-2.1,8.1-1.4
		c2.3,0.6,4.3-0.3,5.8-2.1c0.7-0.8,1.3-1.7,2.1-2.5c4.2-4.6,7.3-5,12.8-1.9c5.1,2.8,8.8,7,11.9,11.8c1.4,2.1,2.5,4.5,4.9,5.8
		C141.7,299.7,143.8,303.2,147.3,306z M106.6,303.5c0.1,1.7,0.2,3.4,0.8,4.9c3.5,8.1,6.9,16.2,10.4,24.3c0.6,1.3,1.3,2.5,2.1,3.7
		c0.6,1,1.4,1.9,2.8,1.3c1.6-0.7,1.3-1.9,0.9-3.2c-0.7-1.9-1.6-3.7-1.9-5.6c-0.5-3.2,1.2-7.1,3.8-8.3c2.5-1.2,5.6-0.4,8.1,2.1
		c0.8,0.8,1.6,1.6,2.5,2.4c0.6,0.5,1.2,0.9,2,0.4c0.9-0.6,0.5-1.4,0.2-2c-3.2-8-6-16.1-10.3-23.5c-1.9-3.3-2.7-3.3-4.7-0.2
		c-3.3,4.9-8.8,5.8-13.3,2c-0.8-0.7-1.5-1.8-2.7-1.2C106.1,301.2,106.6,302.4,106.6,303.5z"/>
	<path class="st2" d="M108.5,353.5c-1.3,0-2.6-0.2-3.9,0.3c-1.9-1.2-3.4-0.5-4.7,1.1c-1.6,0.1-3.2,0.2-4.8,0.3
		c-1.9-0.7-3.4-0.3-4.7,1.3c-0.8,0.1-1.6,0.2-2.3,0.4c-0.8-0.8-1.8-0.6-2.8-0.7c-3.3-0.3-6.4,0.6-9.6,1c-9.8,1.3-19.6,0.3-29.4,0.6
		c-2.5,0.1-4.7-0.8-6.8-2.1c-1-0.7-2.1-1.5-3.4-0.5c-0.6,0.1-1.2,0.1-1.8,0.2c-1.1-1.2-0.9-2.2,0.1-3.4c0.8-0.9,2-1.8,1.6-3.3
		c1.5-1.7,3-3.5,4.5-5.2c1.3-0.2,2.2-0.7,1.6-2.3c0.3-0.6,0.5-1.2,0.8-1.9c6.1-3.5,9.8-8.9,12.6-15.1c0.3-0.4,0.6-0.9,0.9-1.3
		c1.9,0.1,2.3-1.2,2.6-2.8c0.9-1,1.9-2,2.8-2.9c1.4,0,2.2-1,3.1-1.8c5.1-5.1,9.6-10.9,15.1-15.7c0.3-0.3,0.6-0.5,1-0.8
		c1.6,0.2,2.8-0.9,4.2-1.4c1.2,0.6,1.9,1.9,2.9,2.7c0.5,2.3,1.8,4.3,2.7,6.4c6,13.9,11.5,28.2,19,41.4
		C111.1,350.2,110.6,352,108.5,353.5z"/>
	<path class="st3" d="M225.4,328.9c-3.5-4-7.7-7.3-11-11.5c-0.6-0.8-1.3-1.5-1.5-2.5c1.5,0,2.2,1.1,3,2c4.6,4.8,9.2,9.7,14.7,13.5
		c0.9,0.6,1.6,1.5,1.6,2.7c0.1,1.3,0.8,1.9,2,2.1c3.2,0.5,6,1.8,8.9,3.2c29.3,13.4,58.2,13,86.4-3c2.4-1.4,4.8-2.7,7.5-3.5
		c0.9-0.2,1.8-0.7,2-1.7c0.4-1.9,1.8-3.1,3.2-4.3c7.1-5.9,12.9-13,17.7-20.8c3.1-5.1,5.6-10.6,8-16.1c1.1-2.5,1.6-2.5,3.5-0.6
		c1.2,1.2,2.2,2.5,3.4,3.7c13,14.3,27.9,26.2,45.2,34.9c1.2,0.6,2.8,1,2.8,2.8c0,1.8,1.1,2.3,2.7,2.1c2.3-0.3,4.4,0.5,6.5,1.2
		c11.2,4.1,22.6,7.5,34.5,9.2c1,0.1,2,0.2,2.4,1.4c-2.4,0.4-4.8,0.1-7.2-0.5c-9.1-2.1-18.2-4.1-26.9-7.6c-3.2-1.3-6.5-1.9-10-1.9
		c-28,0-56,0-83.9,0c-3.9,0-7.3,1.2-10.6,3.1c-11.4,6.6-23.5,11.1-36.6,12.6c-16,1.8-31.5-0.8-46-7.5c-9.4-4.3-19.3-5.7-29.4-6
		c-13.7-0.4-27.5-0.4-41.2-0.5c-7.2-0.1-14.4-1.5-21.7-1.3c-1,0-2-0.2-3,0.2c-2.1-2-0.8-3.6,0.8-5.1c7.9,0.4,15.7,0.9,23.6,1.1
		c14.2,0.3,28.4,0.7,42.6,0.5c1.7,0,3.5-0.2,5.2-0.3c0.4,0.3,0.8,0.6,1.2,0.8c0.8,0.2,1.7,0.4,2-0.7c0.3-1-0.5-1.5-1.3-1.7
		C226.2,328.9,225.8,328.9,225.4,328.9z M380.1,329c11.4,0,22.8,0,34.2,0c0.9,0,2.1,0.3,2.3-0.9c0.2-1-0.9-1.3-1.6-1.7
		c-16.2-9.1-30.5-20.4-42.6-34.6c-1.9-2.2-2.7-2-4.1,0.7c-0.2,0.4-0.4,0.7-0.5,1.1c-5.3,12.4-12.7,23.4-22.8,32.4
		c-0.6,0.6-1.7,1.1-1.1,2.2c0.4,1,1.4,0.7,2.2,0.7C357.4,329,368.8,329,380.1,329z"/>
	<path class="st2" d="M106.6,303.5c0-1-0.5-2.3,0.7-2.9c1.3-0.7,1.9,0.5,2.7,1.2c4.6,3.7,10.1,2.9,13.3-2c2.1-3.1,2.8-3.1,4.7,0.2
		c4.3,7.5,7.1,15.6,10.3,23.5c0.3,0.7,0.7,1.4-0.2,2c-0.8,0.5-1.4,0.2-2-0.4c-0.8-0.8-1.7-1.6-2.5-2.4c-2.5-2.6-5.6-3.4-8.1-2.1
		c-2.6,1.3-4.4,5.1-3.8,8.3c0.3,2,1.3,3.8,1.9,5.6c0.4,1.2,0.7,2.5-0.9,3.2c-1.4,0.6-2.2-0.2-2.8-1.3c-0.8-1.2-1.5-2.4-2.1-3.7
		c-3.5-8.1-7-16.2-10.4-24.3C106.8,306.8,106.7,305.1,106.6,303.5z"/>
	<path class="st4" d="M142,295c8.5-1.6,17.1-3.2,25.7-4.7c2.9-0.5,5,0.5,5.9,2.5c1,2.2,0.4,5-1.6,6.8c-1.9,1.7-4.2,2.4-6.7,2.9
		c-6,1-12,2-17.9,3.6C143.8,303.2,141.7,299.7,142,295z"/>
	<path class="st5" d="M108.5,353.5c2-1.5,2.6-3.3,1.3-5.6c-7.5-13.3-13-27.5-19-41.4c-0.9-2.1-2.2-4.1-2.7-6.4
		c1.9,0.4,2.6,1.9,3.3,3.5c6.5,15.6,13.1,31.1,20.9,46.1c0.6,1.1,1,2.4-0.1,3.5C111.1,354.2,109.8,354.3,108.5,353.5z"/>
	<path class="st5" d="M36,355.1c1.3-1,2.4-0.2,3.4,0.5c2.1,1.3,4.4,2.2,6.8,2.1c9.8-0.3,19.7,0.7,29.4-0.6c3.2-0.4,6.4-1.3,9.6-1
		c1,0.1,2-0.1,2.8,0.7c-0.5,1-1.5,1-2.4,1c-12.2,0.8-24.3,2.8-36.5,2.2C44.4,359.8,39.9,358.3,36,355.1z"/>
	<path class="st5" d="M36,348.6c0.3,1.5-0.8,2.4-1.6,3.3c-1,1.2-1.2,2.2-0.1,3.4c-0.4,1.3-1.5,1.4-2.5,1.7c-2.9,0.7-5.5,1.9-7.8,3.7
		c-0.9,0.7-2,1.2-3.1,1.5c-1.3,0.3-2.8,0.7-3.3-1.1c-0.5-1.7,1-2.1,2.2-2.4c4.9-1.3,9.1-3.9,13-7.2C33.7,350.5,34.5,349.1,36,348.6z
		"/>
	<path class="st5" d="M80,299.6c-5.5,4.8-9.9,10.6-15.1,15.7c-0.9,0.9-1.7,1.9-3.1,1.8c0.6-1.8,1.6-3.4,3-4.5c2.7-2,4.7-4.7,6.7-7.3
		C73.7,302.5,76.4,300.3,80,299.6z"/>
	<path class="st5" d="M55.6,324.1c-2.8,6.2-6.5,11.7-12.6,15.1c1.9-3.6,4.9-6.4,7.5-9.5C52.1,327.8,53.2,325.4,55.6,324.1z"/>
	<path class="st5" d="M100,354.9c1.3-1.6,2.7-2.3,4.7-1.1C103.3,355.2,101.8,355.8,100,354.9z"/>
	<path class="st5" d="M90.5,356.4c1.2-1.6,2.8-2,4.7-1.3C93.9,356.7,92.5,357.6,90.5,356.4z"/>
	<path class="st5" d="M85.1,297.4c-1.4,0.4-2.6,1.6-4.2,1.4C82.5,295.9,83.1,295.7,85.1,297.4z"/>
	<path class="st5" d="M59,320c-0.2,1.5-0.6,2.9-2.6,2.8C56.4,321,57.7,320.5,59,320z"/>
	<path class="st5" d="M42.1,341.1c0.5,1.5-0.3,2.1-1.6,2.3C40.4,342.2,40.9,341.4,42.1,341.1z"/>
	<path class="st4" d="M468.9,343.8c-0.4-1.2-1.4-1.3-2.4-1.4c-11.9-1.7-23.2-5.1-34.5-9.2c-2.1-0.8-4.2-1.5-6.5-1.2
		c-1.5,0.2-2.6-0.3-2.7-2.1c0-1.8-1.6-2.2-2.8-2.8c-17.3-8.7-32.2-20.6-45.2-34.9c-1.1-1.2-2.2-2.5-3.4-3.7
		c-1.9-1.9-2.4-1.8-3.5,0.6c-2.4,5.5-4.9,11-8,16.1c-4.8,7.9-10.6,14.9-17.7,20.8c-1.4,1.2-2.8,2.4-3.2,4.3c-0.2,1-1.1,1.4-2,1.7
		c-2.7,0.7-5.1,2.1-7.5,3.5c-28.3,16-57.1,16.4-86.4,3c-2.9-1.3-5.7-2.7-8.9-3.2c-1.2-0.2-2-0.8-2-2.1c0-1.2-0.7-2-1.6-2.7
		c-5.5-3.8-10.1-8.7-14.7-13.5c-0.8-0.9-1.6-2-3-2c-1.5-2.3-3.9-4.1-4.6-7c0.8-1.3-0.1-2.2-0.7-3.1c-1.9-2.9-3.4-5.9-4.8-9
		c-0.9-2.2-0.3-3.1,2-2.7c2.5,0.4,5,0.2,7.4-0.2c16.1-2.5,23.5-16.8,22.3-28.5c-1.5-14.5-16.3-28.1-34.7-21.7
		c-2.8,1-3.2,0.6-2.6-2.2c2.8-13.3,8.2-25.4,16.7-36.1c1.5-1.9,3.5-3.6,3.9-6.3c1.6-1.6,3.1-3.2,4.7-4.8c2.9,0.3,3.9-1.6,4.7-3.9
		c0.2-0.2,0.4-0.3,0.5-0.5c3.9-1.2,6.8-4.1,10.3-6c0.4-0.2,0.5-1,0.8-1.5c0.1,0,0.2-0.1,0.4-0.1c2.1-0.1,3.8-1.1,5.6-1.9
		c2.8-1.4,5.4-2.9,8.5-3.7c1.2-0.3,2.2-0.2,3.3,0.6c3,2.3,3.9,2.2,6.5-0.5c1.9-2,4-3.9,6.8-4.3c7.2-1,14.3-1.8,21.6-0.7
		c1.6,0.2,3.3,0.6,4.8-0.6c0.6,0.1,1.3,0.1,1.9,0.2c1.7,2.1,3.9,2,6.2,1.4c0.4,0.1,0.9,0.1,1.3,0.2c0.5,1.2,1.6,1.4,2.6,1.7
		c6.9,2.3,13.9,4.6,20.2,8.6c0.7,0.5,1.5,0.7,2.4,0.6c0.4,0.2,0.9,0.4,1.3,0.7c0.2,0.8,0.6,1.5,1.4,1.5c0.9,0,1.1-0.9,1.4-1.6
		c1.6-4.1,1.3-8.5,1.7-12.8c0.5-6.5,2.1-12.8,3.5-19.1c0.3-1.2,1-2.3,2.4-1.8c4.7,1.7,9.8,2.1,14.4,4.2c10.3,4.6,19,13.6,16.7,27.3
		c-2.9,16.8-10.1,31.5-22.4,43.2c-9.1,8.6-18.1,17.2-27.4,25.5c-1.2,1-2.3,2.1-0.8,3.8c1.4,1.5,2.9,1.5,4.4,0.2c1-0.9,1.9-1.9,3-2.6
		c9.1-5.6,17-12.8,25.6-19.1c10.9-8,19.9-17.6,26.6-29.4c1.2-2.1,2.5-4.1,2.5-6.7c0.3-0.3,0.6-0.7,0.9-1c2.7-0.8,3.6-2.9,3.6-5.5
		c0.1-0.1,0.2-0.3,0.3-0.4c1.1-0.4,1.4-1.3,1.8-2.2c2.3-5.4,3.4-11.1,3.9-16.8c0.2-1.5,0.3-3.2-0.6-4.6c0-1.1,0-2.2,0-3.3
		c0.6-1.6,1.3-3.2-1.2-3.6c-0.6-2.5-1.1-5-1.7-7.4c0.1-1.3,0.1-2.5-0.7-3.6c-1.5-2.1-3-4.4-4.7-6.4c-2.1-2.5-4.7-4.4-8.2-4.6
		c-0.3-0.2-0.6-0.5-0.8-0.7c-0.1-1.7-1.4-2.3-2.7-3c-6.6-3.4-13.6-4.1-20.9-3.9c-1.5,0-3,0.1-4.5,0c-1.5-0.1-2.3-0.9-1.6-2.5
		c0.6-1.4,1.1-3,1.8-4.4c6.2-13.6,14.6-25.9,24.7-36.8C409.6,47,453.2,30,504.6,33.7c19.9,1.4,38.9,7,56.8,16.3
		c31.2,16.2,54.5,40.2,69.8,71.8c8.4,17.3,13,35.6,14.6,54.7c1.2,14.1-0.1,27.9-2.3,41.8c-0.1,0.8-0.1,1.8-1.1,2
		c-0.9,0.2-1.7-0.4-2.1-1.1c-0.8-1.4-2-1.5-3.4-1.3c-1.2,0.1-2.3,0.1-3.5,0.1c-2.5-0.2-4,1.2-5.2,3.2c-0.8,1.2-1,2.6-0.9,4.1
		c0.1,1.8-0.8,2.4-2.4,2.3c-0.7,0-1.3,0-2,0c-0.3-0.1-0.7-0.1-1-0.2c-3.7-2.6-7.9-3.4-12.4-3.1c-2.6,0.1-5.1,0.1-7.7,0.1
		c-6.1-0.1-12.3,0.4-18.4-0.1c-1.1-0.7-2.3-0.9-3,0.4c-0.7,1.2,0.5,1.8,1.1,2.4c1.2,1.2,2,2.4,1.9,4.1c-0.1,2.5-1.8,4-3.5,5.4
		c-0.8,0.7-1.8,1.6-2.8,0.7c-1.1-0.9,0.3-1.5,0.6-2.3c0.1-0.3,0.1-0.6,0.1-1c2.1-1.2,1.8-2.7,0.6-4.3c-0.2-0.9-0.8-1.3-1.8-1.5
		c-3.2-0.5-3.1-0.5-2.4-3.6c0.1-0.5,0.1-1,0.2-1.5c0.7-0.7,1.5-1.3,1.5-2.5c1.7-0.6,2.4-2.1,3-3.6c0.2-0.1,0.4-0.3,0.5-0.4
		c1.3-0.2,2-0.9,1.5-2.3c-0.4-1.3-1-2.6-2.8-1.9c-0.3,0-0.7,0-1,0c-0.9-0.4-2.3-1-2.5,0.4c-0.5,3.9-3.8,5.4-6,8
		c-1.5,1.8-3.2,2.3-5.2,0.8c-0.1-0.8-0.6-1.4-1.1-1.9c-0.3-1.7-1.5-1.9-2.9-2c-3.3-0.3-6.2,0.7-9.1,1.9c-1.3,0.5-2.5,0.8-3.6-0.5
		c-2.5-2.8-3.2-2.8-6.2-0.8c-1.8,1.2-3.1,2.7-3.7,4.8c-1.2,1.2-2.2,2.6-3.6,3.5c-0.8,0.2-1.6,0.3-2.4,0.6c-1.6,0.7-2.6,0.7-2.2-1.5
		c0.1-0.4,0-0.8-0.1-1.2l0.1-0.1c1.9,0,2.9-1.3,3.5-2.8c0.7-1.7,0.3-3.3-1.3-4.4c-1.6-1.1-2.9-0.4-4.1,0.9c-1,1.1-2.2,2-3.4,2.9
		c-1.7,1.3-2.7,2.9-2.4,5.1c-0.2,0.3-0.4,0.6-0.5,1c-1.8,0.4-3.7,2.1-5.2-0.6l0,0c3-0.1,3.5-0.6,4-4.5c0.5-0.8,1.1-1.6,1.6-2.4
		c3.2-2,5.5-4.8,6.3-8.6c2,0,3.3-1.1,4-2.9c0.9-2.2,0-4.1-2.2-5.1c-3.1-1.3-5.9-0.4-7.2,2.5c-0.6,0.4-0.7,1.1-1.4,1.6
		c-2.8,1.9-5.5,3.9-8.5,5.6c-3.4,2-6.9,4-9.8,6.8c-0.1,0-0.2,0-0.2,0.1c-0.5-0.2-1.1-0.4-1.6,0c-1.2,1.1-2.4,0.6-3.6-0.1
		c0.2-0.8,0.7-1.6,0.6-2.5c2.7-3.2,3.6-7.2,5-11c0.3-0.5,0.7-1,1-1.5c2.7-1.4,0.9-2.2-0.5-3c-0.5-0.3-1-0.6-1.5-0.9
		c-2.8-1.2-4.3-0.8-6,2c-1.8,3-3.8,5.8-6.1,8.4c-3.8,4.2-8.2,7.7-12.1,11.9c-0.8,0.9-2,1.6-1.3,3.2c-0.5,0.9-1.3,1.4-2.4,1.1
		c-1.1-0.2-2.1-0.2-3.2,0.3c-1.4,0.6-1.7,1.8-1.4,3.1c0.3,1.8,1.5,3,3.3,3.3c1.3,0.2,2.1-0.4,2.2-1.8c2-0.3,3.4-1.4,4.9-2.7
		c2.4,0,3.6-1.1,3.5-3.6c0.8-0.8,1.7-1.6,2.5-2.4c1,0.4,2,0.7,2.9,1.1c0,0.3,0,0.7-0.1,1c-0.8,2.8,0.4,4.7,2.6,6.1
		c1.9,1.2,3.5-0.2,5-1.3c0.4-0.3,1-0.5,1.6-0.7c1.8,0.1,3.4-0.1,3.6-2.4c1.2-2.2,2.8-3.8,5.3-4.2c1.2-0.4,3.1-0.1,2.5-2.4
		c0.4-0.5,0.8-1,1.2-1.4c1.4,0.2,2.7,0.5,3.1,2.1c-0.2,0.3-0.5,0.5-0.7,0.8c-2.3,0.4-3.6,1.7-3.9,4c-0.2,0.2-0.3,0.3-0.5,0.5
		c-2.3,0.8-3,2.2-2.2,4.4c0.9,2.4,2.9,3.3,5.3,3.6c0.5,0.2,0.9,0.4,1.4,0.6c0.2,0.5,0.3,1,0.5,1.5c-3.9-0.2-6.9-2.2-9.8-4.5
		c-1.5-1.2-3.1-2-4.2,0.4l0,0c-2.3,1.3-5.1,1.3-7,3.5c-1.3,0-2.7,0.5-3.9-0.5c-0.6-2.1-3.1-4.2-5.1-4.4c-1.4-0.1-2.5,0.3-2.4,2
		c-0.4,0.3-0.8,0.6-1.2,0.9c-4.5,0.9-8.8,2.4-13.5,2.1c-1.8-0.1-3.5-0.3-4.1-2.4c-0.6-2-0.7-3.9,1.6-5.1c0.8-0.4,1.4-1.2,2-1.8
		c0.5-0.6,1.6-1.1,1.1-2c-0.5-0.9-1.6-0.6-2.5-0.3c-2.2-0.2-4.3-0.3-6.5-0.5c-3.7-1.9-7.3-2.1-11,0.1c-3.9,0.1-7.9,0.1-11.8,0.2
		c-2.2-0.1-4.8-1-5.7,2.2c-0.1,0.1-0.2,0.1-0.4,0.2c-1.1,0-2.2,0-1.7,1.7l-0.2,0.1c-2.2,0.1-3.5,1.3-3.7,3.6
		c-0.2,0.2-0.3,0.4-0.5,0.6c-1.7,0.1-2.3,1.4-2.9,2.8c-1.1,2.8-1.1,5.7-1.1,8.6c0,11.3,7.4,20.1,18.6,22c1.3,0.2,2.5,0.3,3.4-0.9
		c0.8,0,1.7,0,2.5,0c1.8,3,4.7,3,7,0.1c3.8-0.1,7.6-0.1,11.4-0.2c2.7,0.9,5.4,0.9,8.2,0c1.7,0,3.5,0.3,5.2,0.1
		c5.5-0.7,10.9,0.2,16.4,0.1c2.1,0,4.3-0.8,6.4-0.1c1.5,1.8,4,2,6.5,0.5c5.4-0.2,10.6,0.8,16,1c0.2,1.5,1.4,1.4,2.5,1.4
		c4,0,7.9,0,11.9,0c1,0,2-0.1,2.7-0.9c1,0.1,2-0.1,3,0.3c1.3,1.7,2.9,1.3,4.6,0.6c0.8,0.1,1.6,0.1,2.5,0.2c0.9,1.2,2.2,1.3,3.6,1.3
		c20.3,0,40.5,0,60.8,0c1.1,0,2.2,0,2.6-1.3c0.6-0.1,1.2-0.2,1.8-0.3c3.5,0.6,6.6-0.2,8.7-3.4c0.1-0.1,0.3-0.3,0.4-0.4
		c0.7,1,1.4,2,2,3c-0.1,0.2-0.3,0.4-0.4,0.6c-1.8-0.2-2.7,1-3.4,2.4c-2.7,4.9-5.9,9.4-9.5,13.7c-1.1,1.3-2,2.6-2.2,4.4
		c-0.1,1.8-1.1,3-2.6,3.9c-1.4,0.2-2.1,1-1.9,2.4c-2.6,3.3-5.8,5.9-8.9,8.7c-1.9-0.2-3.6,0.5-4.7,1.9c-2.4,3.1-5.6,5.1-8.8,7.2
		c-1.7,1.1-3.5,2.4-3.6,4.8c-0.3,0.3-0.6,0.7-1,1c-1.8-0.3-3.4,0.4-4.9,1.3c-14.7,9.1-30.3,16.3-47.2,20.3c-17,4-34,5.9-51.4,3.6
		c-1.7-0.2-3.5-0.3-5,0.9C470.5,344,469.7,343.9,468.9,343.8z M532.9,212c-1.3,1.1-1.3,2.3,0,3.5c0.2,0.8,0.5,1.7,1.5,1.6
		c1,0,1.3-0.9,1.5-1.7c0.7-0.7,1.3-1.4,1-2.5c1-1.7-0.4-2.3-1.5-2.7C533.8,209.8,533.1,210.7,532.9,212z M524.6,127.9
		c0,0,0,0.1,0,0.1c-23-0.6-46-1.3-68.9-1.9c-10.7-0.3-21.5-0.5-32.2-0.7c-3.1-0.1-4,1-4.2,4c-0.5,9.7,0.5,19.4-0.8,29.2
		c-1,8-0.3,16.3-0.2,24.5c0,3.3,0.7,4.1,4.1,4.3c5.2,0.3,10.5,0.5,15.7,0.6c21.2,0.4,42.3,0.6,63.5,1.4c24.3,0.9,48.6,1,72.9,1.9
		c16.5,0.6,33,0.1,49.5,1.1c4.9,0.3,5.3-0.3,5.5-5.3c0.4-17,0.8-34,1.3-51c0.1-4.9-0.5-5.6-5.4-5.7c-8.7-0.2-17.3-0.5-26-0.7
		C574.4,129.1,549.5,128.5,524.6,127.9z"/>
	<path class="st6" d="M390.1,189.1c-0.1,0.1-0.2,0.3-0.3,0.4c-2.2,1.2-3,3.2-3.6,5.5c-0.3,0.3-0.6,0.7-0.9,1
		c-1.5,0.4-1.9,1.8-2.6,2.9c-4.4,7.3-9.1,14.3-15.1,20.5c-6.7,7-14.5,12.7-22.1,18.7c-5.8,4.6-11.8,9-17.9,13.2
		c-0.6,0.4-1.4,1.2-2,0.6c-0.7-0.9,0.4-1.4,1-1.9c5.5-5,11-9.9,16.5-14.9c9-8.2,17.3-16.9,23.3-27.5c4.9-8.7,8.6-17.9,9.7-27.9
		c1.2-10.5-4.7-19.9-15.2-25.7c-5.9-3.3-12.3-4.9-18.9-6.2c-1.3-0.3-2.5,0.1-3.5,1c-2.8-0.8-5.7-1.4-8.6-1.5
		c-4.2-0.1-8.7-1.4-12.2,2.4c-0.4,0.4-1.3,0.5-1.9,0.4c-4.4-0.2-8.5,1.2-12.6,2.8c-10.3,3.9-19.8,9.4-29.8,14.1
		c-1.1,0.5-2,1.2-2.2,2.5c-1,0.3-2.1,0.4-3.1,0.8c-2.6,1-4.7,2.7-6.6,4.7c-1,1-2.1,2-2.8-0.4c-0.4-1.5-1.7-1.6-3-1.7
		c0.3-0.3,0.5-0.7,0.9-0.9c7.3-3.2,12.8-8.9,19.2-13.4c14.7-10.5,30.9-17.6,47.8-23.5c5.7-2,11.2-4.1,17.4-4.3
		c1.4,0,2.8-0.9,4.3-1.3c1.5,0.5,2.8,1.4,4.5,1.4c9.8-0.5,19.2,0.7,28.1,5c0.3,0.2,0.6,0.5,0.8,0.7c2.7,2.5,5.8,4.7,8.2,7.7
		c1.8,2.2,3.6,4.6,5.4,6.8c0.6,2.5,1.1,5,1.7,7.4c-0.7,1.6-0.3,2.8,1.2,3.6c0,1.1,0,2.2,0,3.3c-1,1-1.2,2.4-1.2,3.7
		c0,3.2-0.8,6.3-1.5,9.3C391.6,181.9,390.2,185.4,390.1,189.1z"/>
	<path class="st6" d="M199.4,291c-8.8-4.7-14.9-11.3-15.7-21.7c-0.6-6.9,1.3-13.1,6-18.4c1.6-1.7,3.2-3.4,4.8-5
		c1.4,0.3,2.8,0,4.1-0.6c6.6-2.9,13.2-2.5,19.8,0.2c8.1,3.4,13.9,12.2,14,20.9c0.1,7-2.6,12.8-7.2,17.7c-4.2,4.5-9.6,7-15.7,7.1
		C206.2,291.4,202.8,290.6,199.4,291z"/>
	<path class="st3" d="M377.9,135.8c-8.9-4.3-18.4-5.5-28.1-5c-1.7,0.1-3-0.8-4.5-1.4c2.2-8.4,6.6-15.9,11.2-23.1
		c26.3-41.3,63.5-66.3,111.9-73.6c82-12.4,159.8,42.4,176.4,123.8c7.8,38,2.1,74-16.3,108.1c-0.5,0.9-1.1,1.7-1.8,2.3
		c-0.7-1-1.4-2-2-3c0.2-1.4,1.2-2.2,2.2-2.9c4.4-3.1,6.3-7.4,5.8-12.8c-0.2-2.1-0.1-4.2-0.7-6.3c-0.4-1.6-1.2-3.3-0.7-5.1
		c1.3,0.7,1.9,1.8,2.1,3.2c0.2,1.1,0.4,2.1,0.7,3.2c0.1,0.5,0.3,1.2,1,1.3c0.7,0.1,1-0.6,1.2-1.1c0.8-2.1,1.5-4.2,2.2-6.4
		c0.4-1.2-0.4-1.6-1.4-1.7c-2.1-0.3-4.1,0.3-6.1,1.1c-2.5-3.3-5.9-5.6-8.2-9c0.7,0,1.3,0,2,0c1.6,0.1,2.5-0.6,2.4-2.3
		c-0.1-1.4,0.2-2.8,0.9-4.1c1.2-1.9,2.7-3.4,5.2-3.2c1.2,0.1,2.3,0.1,3.5-0.1c1.4-0.2,2.6,0,3.4,1.3c0.4,0.7,1.1,1.3,2.1,1.1
		c1.1-0.2,1-1.3,1.1-2c2.2-13.8,3.5-27.7,2.3-41.8c-1.7-19.1-6.3-37.4-14.6-54.7c-15.3-31.6-38.6-55.5-69.8-71.8
		c-17.9-9.3-36.8-14.8-56.8-16.3c-51.4-3.7-95,13.3-129.9,51.5c-10,11-18.4,23.2-24.7,36.8c-0.7,1.4-1.2,2.9-1.8,4.4
		c-0.7,1.7,0.1,2.4,1.6,2.5c1.5,0.1,3,0.1,4.5,0c7.2-0.2,14.3,0.6,20.9,3.9C376.5,133.5,377.8,134.1,377.9,135.8z M634.7,224.5
		c-1-0.1-1.1,0.4-1.1,1c0,1.9,1,2.9,2.8,3.2c1,0.2,1.9-0.2,1.8-1.4C638,225.2,635.7,225.5,634.7,224.5z"/>
	<path class="st3" d="M199.4,291c3.4-0.4,6.8,0.4,10.1,0.3c6.1-0.1,11.5-2.6,15.7-7.1c4.6-5,7.2-10.8,7.2-17.7
		c-0.1-8.7-5.9-17.5-14-20.9c-6.6-2.7-13.1-3.1-19.8-0.2c-1.3,0.6-2.7,0.8-4.1,0.6c0.7-7.5,2.7-14.7,5.6-21.7
		c3.6-8.8,8.6-16.9,14.7-24.3c0.8-0.9,1.5-2.3,3.2-1.8c-0.4,2.7-2.4,4.3-3.9,6.3c-8.5,10.7-13.9,22.8-16.7,36.1
		c-0.6,2.9-0.2,3.2,2.6,2.2c18.4-6.4,33.2,7.2,34.7,21.7c1.2,11.7-6.2,26-22.3,28.5c-2.5,0.4-4.9,0.6-7.4,0.2c-2.3-0.4-3,0.5-2,2.7
		c1.3,3.1,2.9,6.2,4.8,9c0.6,0.9,1.6,1.8,0.7,3.1C203.6,303.2,201.5,297.1,199.4,291z"/>
	<path class="st3" d="M471.3,344.1c1.5-1.2,3.3-1.2,5-0.9c17.4,2.3,34.5,0.4,51.4-3.6c16.9-4,32.5-11.2,47.2-20.3
		c1.5-1,3.1-1.6,4.9-1.3c-4.6,3.8-9.8,6.8-15.1,9.6c-26.8,14.2-55.3,20.1-85.5,18C476.5,345.3,473.7,345.9,471.3,344.1z"/>
	<path class="st3" d="M255.8,172.8c1.3,0.1,2.6,0.2,3,1.7c0.7,2.4,1.8,1.4,2.8,0.4c1.9-2,4-3.7,6.6-4.7c1-0.4,2.1-0.5,3.1-0.8
		c1.6-0.1,3.1-0.1,4.7-0.2c6.8-0.2,13.7-1.1,20.4,1.2c-1.5,1.1-3.2,0.8-4.8,0.6c-7.3-1.1-14.4-0.3-21.6,0.7
		c-2.8,0.4-4.9,2.3-6.8,4.3c-2.6,2.7-3.5,2.8-6.5,0.5c-1-0.8-2-0.9-3.3-0.6c-3,0.8-5.7,2.3-8.5,3.7c-1.8,0.9-3.6,1.8-5.6,1.9
		c1.7-2.8,4.4-4.3,7.4-5.4C249.6,174.8,252.6,173.5,255.8,172.8z"/>
	<path class="st3" d="M611.3,288c0.1-1.8,1.1-3.1,2.2-4.4c3.6-4.3,6.8-8.8,9.5-13.7c0.7-1.4,1.6-2.6,3.4-2.4
		c-3.3,7.1-8.2,13.1-12.8,19.3C613,287.6,612.4,288.2,611.3,288z"/>
	<path class="st3" d="M580.8,316.9c0.2-2.4,1.9-3.6,3.6-4.8c3.2-2.1,6.4-4.1,8.8-7.2c1.1-1.4,2.8-2.1,4.7-1.9
		C593.1,308.7,587.4,313.3,580.8,316.9z"/>
	<path class="st3" d="M238.9,181.5c-0.2,0.5-0.4,1.3-0.8,1.5c-3.5,1.9-6.4,4.8-10.3,6c0.1-1.8,1.9-2.1,2.9-2.7
		C233.4,184.6,235.4,181.8,238.9,181.5z"/>
	<path class="st3" d="M227.3,189.5c-0.8,2.2-1.8,4.2-4.7,3.9C223.7,191.5,224.6,189.3,227.3,189.5z"/>
	<path class="st1" d="M225.4,328.9c0.4,0,0.8-0.1,1.2,0.1c0.8,0.3,1.6,0.7,1.3,1.7c-0.3,1.1-1.2,0.9-2,0.7c-0.4-0.1-0.8-0.5-1.2-0.8
		C224.9,330.1,225.2,329.5,225.4,328.9z"/>
	<path class="st6" d="M606.8,294.3c-0.2-1.4,0.5-2.3,1.9-2.4C608.8,293.2,608.6,294.3,606.8,294.3z"/>
	<path class="st2" d="M524.6,127.9c24.9,0.6,49.8,1.2,74.7,1.8c8.7,0.2,17.3,0.5,26,0.7c5,0.1,5.6,0.8,5.4,5.7
		c-0.5,17-0.9,34-1.3,51c-0.1,5-0.6,5.7-5.5,5.3c-16.5-1.1-33-0.6-49.5-1.1c-24.3-0.9-48.6-1-72.9-1.9c-21.1-0.8-42.3-1-63.5-1.4
		c-5.2-0.1-10.5-0.4-15.7-0.6c-3.4-0.2-4.1-1-4.1-4.3c0-8.2-0.8-16.4,0.2-24.5c1.3-9.8,0.3-19.5,0.8-29.2c0.1-2.9,1.1-4,4.2-4
		c10.7,0.2,21.5,0.5,32.2,0.7c23,0.6,46,1.3,68.9,1.9C524.6,128,524.6,128,524.6,127.9z M563.2,170.9c0,0,0-0.1,0-0.1
		c2.1,0,4.2,0,6.2,0c1.6,0,3.1-0.2,4.7-0.6c1.9-0.5,2.8-1.8,2.6-3.7c-0.2-2.1-1.7-2.4-3.4-2.4c-2.1,0-4.2-0.1-6.2-0.1
		c-0.7,0-1.4,0-1.5-0.9c-0.1-0.9,0.6-1.4,1.3-1.5c1.6-0.1,3.2-0.1,4.7-0.1c1.3,0,2.7,0.1,4-0.4c2.2-0.7,2.8-2.4,2.7-4.5
		c-0.1-2.2-1.3-3.4-3.5-3.4c-1.2,0-2.5,0-3.7,0c-0.7,0-1.6,0.1-1.6-1c-0.1-1,0.7-1.3,1.4-1.4c0.9-0.1,1.8-0.2,2.7-0.2c2,0,4,0.1,6,0
		c1.8,0,3.1-0.7,3.3-2.7c0.2-2.1-0.4-3.8-2.6-4.5c-0.6-0.2-1.3-0.3-2-0.3c-6-0.3-12,0-17.9,0.8c-1.4,0.2-2.6,0.8-2.9,2.3
		c-1.2,6.9-3.5,13.5-4.8,20.4c-0.5,2.8,0.6,4.1,3.4,4.3C558.3,171,560.8,170.9,563.2,170.9z M492.5,150.7c-1.9,0-3.8,0.2-5.7,0
		c-2.3-0.2-3.3,0.9-3.5,2.9c-0.3,3.9-3.6,6.9-3.4,11c0,0.5-0.5,1.1-0.9,1.5c-1.3,1.1-1.8,2.5-1.7,4.2c0.1,1.3-0.7,2.4-1.2,3.5
		c-0.6,1.1-1.2,2.2-1.3,3.5c-0.2,2.3,0.8,3.2,3.1,3.4c3.9,0.4,6.6-2.2,8.2-5.4c0.9-1.8,0.9-4.8,4.1-5c3.4-0.2,6.6-1.5,9.9-2.3
		c1.7-0.4,2.9-1.3,3.8-2.6c1.3-2.1,2.4-4.3,3.5-6.6c0.4-0.9,0.5-2.2-0.1-2.9c-2.1-2.5-4-5.3-7.9-5.1
		C497,150.8,494.8,150.7,492.5,150.7z M521.5,151.9C521.5,151.9,521.5,152,521.5,151.9c-1.7,0.1-3.3,0.2-5,0
		c-2.1-0.2-3.5,0.8-4.2,2.4c-3.3,7-6.5,14-9,21.3c-0.8,2.4,1.1,4.7,3.5,4.8c3.2,0.2,5.9-1.2,7-6c0.8-3.3,1.7-4,5-4.1
		c1.1,0,2.2-0.1,3.2-0.1c4-0.1,7.5-1.1,9.6-5c0.4-0.7,1.1-1.2,1.7-1.8c0.8-0.7,1.2-1.6,1.3-2.6c0.6-4.6-2.4-8.5-7-8.9
		C525.7,151.8,523.6,151.9,521.5,151.9z M452.9,141.8C452.9,141.8,452.9,141.8,452.9,141.8c-3.8,0.1-7.7,0-11.5,0.1
		c-2.6,0.1-3.5,1.2-3.6,4.1c-0.1,3.1,0.7,4.2,3.3,4.5c0.9,0.1,1.8,0.1,2.7,0.1c2.8,0,3.3,0.6,2.3,3.3c-0.5,1.5-1.3,2.9-2,4.3
		c-1.2,2.4-2.7,4.8-3.4,7.5c-0.3,1.2-0.3,2.3,1.1,2.9c4.2,2,9,0.2,10.8-4.1c1.3-3.1,2.4-6.2,3.6-9.3c1.3-3.5,3.9-5,7.6-5
		c3.1,0,4-1,4-4.3c0-3.1-0.9-4-4-4.1C460.2,141.8,456.5,141.8,452.9,141.8z M602.4,170.9c0.8,0,1.4,0,2,0c1.6-0.1,3.2-0.2,3.7-2.2
		c0.4-2-0.7-3.1-2.2-4c-0.6-0.4-1.4-0.6-2-0.9c-1.8-1-1.9-1.8-0.1-3c1.3-0.8,2.8-1.6,4-2.5c1.5-1.2,2.6-2.7,1.6-4.8
		c-1-2-2.9-2.1-4.7-1.9c-1.9,0.2-3.4,1.3-5,2.2c-0.9,0.5-1.7,0.9-2.5-0.1c-1.8-2.3-4.3-2.3-6.8-2.2c-1.8,0.1-3.5,0.5-4.4,2.3
		c-0.9,1.9,0.7,2.9,1.7,4c2.4,2.6,2.1,4.2-0.9,5.9c-2,1.1-3.9,2.2-5.3,4.1c-1.2,1.6-0.7,2.8,1.2,2.9c4,0.2,8.2,1.2,11.3-2.7
		c0.6-0.8,1.5-0.9,2.1,0.1C597.7,170.9,600.1,171.1,602.4,170.9z M467.7,168.9c3.8,0,6.7-1.2,7.2-3c0.9-3,3.5-5.2,3.5-8.6
		c0-0.3,0.3-0.6,0.4-0.9c2.3-3.8,1.5-5.5-2.9-6c-0.6-0.1-1.2-0.1-1.7,0c-3.7,0.3-5.1,1.5-5.8,5.1c-0.5,2.6-1.6,4.9-3.3,6.9
		c-1.2,1.4-2.3,3.5-1.8,4.9C463.8,169,466.3,168.7,467.7,168.9z M543.9,157.9c0,0,0,0.1,0,0.1c-0.7,0-1.3,0-2,0
		c-4.3,0-4.5,0.4-4.2,4.5c0.1,1.1,0.5,1.7,1.6,1.8c2.6,0.2,5.2,0.6,7.7,0.1c1.6-0.3,3.7-0.5,3.4-3.2c-0.2-2.3-1.2-3.2-3.8-3.3
		C545.7,157.9,544.8,157.9,543.9,157.9z M478,148C478,148,478,148,478,148c0.5,0,1,0.1,1.5,0c1.2-0.2,3,0.7,3.4-1.4
		c0.3-1.8,0.1-3.2-2.1-4.1c-1.8-0.7-3.4-0.4-5.1-0.5c-2.3-0.2-3.2,1.5-3.3,3.2c-0.2,1.9,1.4,2.7,3.1,2.8
		C476.3,148.1,477.2,148,478,148z M613.9,140.5c-0.4,0.9,0.6,2.5-1.5,2.1c-0.9-0.2-1.9-0.4-2.1,0.9c-0.2,1,0.6,1.4,1.4,1.7
		c1,0.4,2.2,0.5,2.5-0.7c0.3-1.4,1.3-2.3,2-3.3c1.8-2.5,1.5-3.6-1.3-4.9c-0.5-0.2-1.1-0.6-1.6-0.3c-0.7,0.4,0,1,0.1,1.6
		C613.5,138.6,613.7,139.5,613.9,140.5z"/>
	<path class="st6" d="M622.9,227.5c2.3,3.4,5.7,5.8,8.2,9c0.1,0.2,0.2,0.3,0.3,0.5c-0.5,1.8,0.3,3.5,0.7,5.1
		c0.5,2.1,0.5,4.2,0.7,6.3c0.5,5.3-1.3,9.6-5.8,12.8c-1,0.7-2,1.5-2.2,2.9c-0.1,0.1-0.3,0.3-0.4,0.4c-2.8,0.2-5.2,1.6-7.9,2.2
		c-0.5,0.1-0.7,0.7-0.7,1.2c-0.6,0.1-1.2,0.2-1.8,0.3c-0.9-0.8-2-0.6-3.1-0.6c-20.6-0.1-41.1,0.6-61.7-0.1c-0.8,0-1.7-0.1-2.3,0.7
		c-0.8-0.1-1.6-0.1-2.5-0.2c-1.3-1.8-3-1.1-4.6-0.6c-1-0.4-2-0.2-3-0.3c-0.4-0.2-0.7-0.5-1.1-0.5c-5.3-0.8-10.6-0.8-16,0
		c-5.3-0.2-10.6-1.3-16-1c-2.1-1.6-4.3-0.8-6.5-0.5c-2.1-0.7-4.3,0.1-6.4,0.1c-5.5,0.1-10.9-0.9-16.4-0.1c-1.7,0.2-3.4,0-5.2-0.1
		c-1.2-1.2-6.4-1.5-8-0.5c-0.1,0.1-0.1,0.3-0.2,0.5c-3.8,0.1-7.6,0.1-11.4,0.2c-2.3-0.9-4.7-0.9-7-0.1c-0.8,0-1.7,0-2.5,0
		c-0.8-1-1.9-1.3-3-1.5c-1.9-0.3-3.7-0.7-5.5-1.4c-9.9-3.9-13.9-16.2-10.5-25.8c0.4-1.2,1.2-2.4,0.9-3.8c0.2-0.2,0.3-0.4,0.5-0.6
		c1.8-0.6,2.6-2.3,3.7-3.6c0,0,0.2-0.1,0.2-0.1c0.8-0.3,1.4-0.8,1.7-1.7c0.1-0.1,0.2-0.1,0.4-0.2c2.2-0.1,4.2-0.6,5.7-2.2
		c3.9-0.1,7.9-0.1,11.8-0.2c3.7,0.7,7.3,0.8,11-0.1c2.2,0.2,4.3,0.3,6.5,0.5c-1,2.2-2.8,3.8-3.6,6.1c-1.4,4.1,0.2,7,4.5,7.4
		c3.2,0.3,6.4-0.2,9.5-0.8c1.9-0.4,4.3-0.6,4.8-3.2c0.4-0.3,0.8-0.6,1.2-0.9c1.6-0.2,3.1,0.3,4.4,1.3c0.9,0.7,1.8,1.5,3.1,1.1
		c1.2,1,2.6,0.5,3.9,0.5c4,0.6,6.3-0.6,7-3.5l0,0c2.3,0.3,4.1,1.8,5.9,3c3.5,2.4,7.2,3.6,11.5,3.1c1.7-0.2,3.5-0.4,5.2,0.3
		c0.2,0.1,0.3,0.1,0.5,0.1c0.6,0.5,1.2,0.3,1.9,0.4c4.2,0.3,8.2-1.7,12.5-1.4c2.9,0.3,5-1.1,6.7-3.3c1.5-1.9,2.6-1.9,4.2,0
		c0.6,0.8,1,1.8,2.1,2c0.1,0.8,0.4,1.5,1.1,1.9c0.6,0.5,1,1.1,1.7,1.4c2.6,1.4,7.1,0,7.9-2.3c0.6,0,1.3,0,1.9,0
		c0.6,1.8,1.4,1.9,2.6,0.5c0.3,0,0.6,0,0.9,0c0,0.7,0.2,1.2,1,1.4c3.6,1,7.2,1.1,10.8,0.4c3.6-0.7,6.3-3,7.6-6.5
		c1.1-2.8,1.7-5.8-1.1-8.2c-0.2-0.2-0.2-0.8-0.3-1.2c6.1,0.5,12.3,0,18.4,0.1c2.6,0,5.2,0.1,7.7-0.1c4.5-0.2,8.7,0.5,12.4,3.1
		C622.2,227.4,622.5,227.4,622.9,227.5z M598.8,248.2c-0.8-0.3-1.6-0.3-2.4,0c-2.6-0.3-3.8,0.9-4.8,4.7c-0.4,1.6-0.1,2.9,1.7,3.5
		c0.2,0.2,0.3,0.4,0.5,0.6c0.2,1.7-0.6,2.2-2.2,1.9c-2-0.4-3,0.8-3,2.7c0,1.8,0.1,3.7,2.8,3.3c3,0.4,6.1,1.2,8.2-2.1
		c1.1-1.4,2.2-3,3.6-0.2c0.2,0.4,1.1,0.5,1.7,0.8c1.7,2.2,4.1,1.8,6.4,1.7c0.7,0.7,1.5,0.6,2.3,0.4c1.4-0.4,2.1-1.5,2-3
		c-0.1-1-0.3-2.2-1.9-1.7c-1.4-0.4-2.8-0.2-4.2-0.3c-0.7-0.1-1.7,0.3-1.7-0.9c0-0.9,0.9-1.1,1.6-1.1c1.2-0.1,2.5,0,3.7-0.1
		c2.2-0.1,5.4-4,4.9-5.7c-1.1-3.6-6.7-5.9-10-4.1c-1.5,0.8-3.1,1.3-4.3,2.6c-1.3,0.1-1.8-0.9-2.4-1.7
		C600.8,248.5,600.3,247.2,598.8,248.2z M503.8,261.8c1.9,1.1,2.2-0.9,3-1.7c0.8-0.7,0.5-2.2-0.3-2.9c-1.6-1.5-1.1-2.3,0.5-3.1
		c0.4-0.2,0.4-0.7,0.3-1.1c0-0.1,0.1-0.3,0.1-0.4c0.3-0.2,0.7-0.4,1-0.7c0.6-0.5,0.8-1.7,1.9-1c1,0.6,0.7,1.5,0.5,2.4
		c-0.2,1-0.3,2.1-0.4,3.2c-0.5,4.1,1.8,6.2,5.9,5.4c1.6-0.3,1.5-1.8,2.1-2.8c0.4-0.7,0-1.1-0.7-1.3c-1.3-0.3-2.6-1.6-2.2-2.2
		c0.9-1.4,0.5-3.9,3.1-4.3c1.5-0.2,2.7-1.3,2.2-3c-0.4-1.2-0.6-2.4-1.1-3.5c-0.5-1.2-0.8-2.5-2.3-2.6c-1.6-0.1-2.9,0.5-3.9,1.7
		c-0.3,0.3-0.3,0.8-0.6,1.1c-0.9,0.9-1.8,2-2.9,2.6c-1.2,0.6-1.5-1-2.2-1.6c-3.1-2.3-10.9-1.9-12,3.3c-0.2,0.3-0.4,0.6-0.6,0.9
		c-1.6,1.4-1.6,3.1-1.3,5c0.8,4.1,4.1,5.2,7.4,6.4C502.2,261.5,503,261.5,503.8,261.8z M476.4,245.5c-2-1.7-4.5-1.3-6.6,1
		c-1.6,0.5-2.3,2-3.4,3.1c-1.5-0.1-2.5-1-3.4-2.1c-0.7-0.9-1.4-1.8-2.6-2c-2.5-1.6-5.2-1.4-7.4,0.6c-0.9-0.2-1.3-0.8-1.6-1.7
		c-0.3-1-0.7-2.1-1.9-2.5c-0.5-1.4-1.4-2.6-3-3c-1.6-2.4-4.1-1.1-6.2-1.6c-3.7-0.8-4.8,0.4-4.2,4.2c-0.8,3.2-1.7,6.3-2.5,9.5
		c-1.8,1.7-2,3.9-1.7,6.2c0.2,1.2,0.7,2.2,2.3,2.2c1.3,0,1.8-0.6,2.3-1.7c0.8-1.6,1.1-4.2,2.8-4.4c3.2-0.5,6.3-1.8,9.6-1.3
		c0.1,5,1.1,6.2,5.3,7.9c2.2,0.9,3.7-1,5.6-1.1c1.3,0.1,2.5-0.7,2.7-1.8c0.5-2.3,1.7-2.1,3.3-1.5c-0.1,0.3-0.2,0.7-0.1,0.9
		c1.7,3.9,6.3,5.2,10.2,2.8c1-0.6,2.5-1.3,1.3-2.8c-0.9-1-1.6-3.1-3.7-1.4c-0.9,0.7-1.9,0.8-2.9-0.2c-1.1-1.1-0.7-2.1-0.1-3.2
		c0.5-0.8,1.1-1.4,2.1-1.6c1.1-0.2,2.3-0.4,3.4-0.8c1.3-0.5,2.3-1.5,2.3-2.9C478.3,245,477.1,245.6,476.4,245.5z M560.3,249
		c-0.9,0.4-1.6,1-2,2c-2.2,0.2-1.8-1-1.3-2.3c0.8-2,0.6-3.8-1.4-5c-2-1.1-3.9-1.1-5.7,0.6c-2,2.1-4.2,4-5.4,6.8
		c-0.3,0.6-0.7,1.3-1.5,1.1c-0.9-0.2-1-1-1-1.8c0-1.1,0-2.2,0-3.2c0-2-0.3-3.8-2.7-4.4c-2.3-0.6-3.9,0.5-5,2.3
		c-1.1,1.8-1.9,3.7-2.9,5.5c-1.1,2.3-2.3,4.6-3.4,7c-0.6,1.4-0.5,2.8,1,3.7c1.4,0.7,2.5,0.2,3.5-0.9c0.9-1.1,1.6-2.3,2.1-3.7
		c0.2-0.7,0.6-1.3,1.4-1.1c0.7,0.2,0.7,0.9,0.7,1.4c0,0.6,0,1.2,0.1,1.7c0.2,1.5,0.8,2.8,2.4,3.2c1.6,0.4,2.9,0.1,4-1.3
		c0.8-1,1.6-2.1,2.6-3c0.9-0.8,1.8-2.3,3-1.9c1,0.4,0.3,1.9,0.5,3c0.1,0.2,0.1,0.5,0.1,0.7c0.3,1.3,1.1,2,2.4,2.2
		c1.3,0.2,2-0.6,2.4-1.7c0.3-0.6,0.2-1.5,1.1-1.7c3,4,5.9,5.4,10,4.7c3.8-0.6,5.2-3.6,6.4-6.7c1.2-3.1,0-6.6-2.7-8.4
		C566.2,246.1,563.1,246.4,560.3,249z M486.7,240.7c-2.1-0.4-2.9,1.3-3.2,2.7c-0.6,3.6-2.2,6.8-3.3,10.2c-0.3,1.1-0.5,2.1-0.5,3.2
		c0.1,1.5,0.6,3.1,2.1,3.4c1.4,0.3,2.6-0.8,3.1-2.3c0.5-1.5,1.1-1.4,1.9-0.2c0.8,1.2,2,2.1,3.4,2.4c1.2,0.3,2.8,0.2,1.9-1.7
		c-1.9-3.9-1-7.3,1.3-10.5c0.6-0.9,0.7-1.7-0.1-2.4c-0.8-0.8-1.5-0.1-2.2,0.3c-0.1,0-0.1,0.1-0.2,0.2c-0.7,0.5-1.5,1.3-2.4,0.6
		c-0.9-0.7-0.4-1.7-0.1-2.5c0.1-0.2,0.1-0.5,0.2-0.7C489.3,241.5,488.8,240.5,486.7,240.7z M579.9,263.1c5.6,0,10.1-5.3,9.1-10.6
		c-0.2-1.2-0.6-2.3-2-2.5c-1.5-0.3-2.6,0.2-3.3,1.6c-0.4,0.9-0.7,1.8-1.1,2.8c-0.4,0.9-0.7,2.2-1.9,1.9c-1.4-0.3-0.8-1.6-0.7-2.5
		c0-0.4,0.2-0.8,0.3-1.2c0.3-1.7,0.1-3.2-1.9-3.7c-1.8-0.5-2.9,0.7-3.4,2.2c-0.7,1.9-1.3,4-1.8,6c-0.7,2.7-0.1,4,2.4,5.2
		C577,262.8,578.4,263.2,579.9,263.1z"/>
	<path class="st6" d="M497.3,229.4c-0.5,0.2-1.1,0.4-1.6,0.7c-1.5,1.2-3.1,2.5-5,1.3c-2.2-1.3-3.4-3.3-2.6-6.1
		c0.1-0.3,0.1-0.7,0.1-1c1.6-0.6,2.1-1.8,1.5-3.4c-0.3-0.8-1-1.7-1.8-0.8c-0.9,1-2.5,1.5-2.6,3.1c-0.8,0.8-1.7,1.6-2.5,2.4
		c-1.4,0.9-3.2,1.5-3.5,3.6c-1.4,1.2-2.9,2.4-4.9,2.7c-1.1-0.4-2.8,0.1-3.2-1.6c-0.4-1.5,1.1-2,2-2.8c0.2-0.2,0.3-0.4,0.4-0.6
		c1.1,0.2,1.8-0.2,2.4-1.1c1.2-0.3,2.3-1,3.2-1.9c4.1-4.2,8.2-8.5,12.4-12.6c3.5-3.4,4.8-8.9,9.9-10.9c0.5,0.3,1,0.6,1.5,0.9
		c0.1,1-0.4,2.1,0.5,3c-0.3,0.5-0.7,1-1,1.5c-2.6,1.4-5.8,7.7-5.4,10.4c0,0.2,0.3,0.4,0.4,0.6c0.1,0.9-0.4,1.7-0.6,2.5
		c-1.1,0.6-1.7,1.3-1.1,2.6c0.4,0.7,1.2,1.2,1.9,0.7c1.5-1,3.2-1.8,4.4-3.2c0.1,0,0.2,0,0.2-0.1c2.9-2.8,6.4-4.8,9.8-6.8
		c2.9-1.8,5.7-3.7,8.5-5.6c0.7-0.5,0.9-1.2,1.4-1.6c1.6-0.3,3.2-0.7,4.9-0.8c1-0.1,2.1,0.1,2.5,1.2c0.3,1,0.3,2-0.7,2.7
		c-0.8,0.6-1.2,1.4-1.3,2.3c-3.2,1.6-3.9,5.2-6.3,7.4c-0.2,0.2,0,0.8,0,1.2c-0.5,0.8-1.1,1.6-1.6,2.4c-2.2,0.7-3.1,2.6-4,4.5l0,0
		c-1,0.3-2.4,0.5-1.5,2c1.1,1.9,3.1,1.3,4.7,1.2c1.5-0.1,2.2-1,2-2.5c0.2-0.3,0.4-0.6,0.5-1c2.2-1.9,4.3-3.9,5.9-6.4
		c0.8-1.3,1.8-1.8,3.1-1c1.3,0.8,1,1.9,0.3,3c-0.5,0.8-1.3,1.5-1.5,2.6c0,0-0.1,0.1-0.1,0.1c-1,0.3-1.8,0.8-2.4,1.7
		c-0.9,1.4-0.4,3.1,0.9,3.5c1.9,0.5,5.1-1.1,6.1-3.1c1.4-0.9,2.4-2.3,3.6-3.5c2.3-0.2,3.4-2.2,5-3.4c0.8-0.6,1.4-1.3,2.4-0.8
		c1,0.5,1.5,1.3,1.3,2.4c-0.2,0.8-0.3,1.5,0.5,2c0.8,0.5,1.4-0.2,2-0.5c4.5-2.4,9.1-4.1,14.3-3.1c0.5,0.6,1,1.2,1.1,1.9
		c-0.7,1.2-1.4,2.4-2.1,3.6c-1.1,1.8-0.7,3,1.4,3.4c1.6,0.3,2.7-0.6,3.6-1.7c1.7-2.2,3.3-4.5,5.5-6.4c1.4-1.2,2.7-1.5,4,0.1
		c0.1,1.2-0.8,1.8-1.5,2.5c-2.2,0.6-2.3,3.1-3.6,4.4c-0.8,0.8-1.2,1.8-0.4,2.9c0.8,1,1.9,0.8,2.9,0.5c1.6-0.6,3.2-1.2,5-1.2
		c1.1,1.6,1.5,3.1-0.6,4.3c-1.2-0.1-2.2,0.6-3.3,1.1c-4.2,1.8-6.1,1.5-9.2-1.9c-0.9-1-1.9-1.2-3.1-0.7c-1.1,0.4-2.1,0.9-3.2,1.4
		c-2.6,1.2-5.2,1.6-7.4-0.8c-0.6-0.6-0.5-1.4-0.5-2.1c1-0.5,1.4-1.4,1.8-2.3c0.9-1.7,0.1-3.3-1.7-2.8c-2.3,0.6-4.9,1-5.8,3.9
		c-0.2,0.2-0.3,0.3-0.5,0.5c-1.8,0.8-3.8,1.3-5.2,2.9c-1.2,1.3-2.5,1.5-4.1,0.9c-1.9-0.7-4.2-1.4-5.8-0.5c-3.1,1.6-6.2,1-9.3,1.2
		c-2.7,0.2-5.5-0.5-8.1,0.6c-0.5-0.2-0.9-0.4-1.4-0.6c-0.2-1.5-1.3-2.3-2.4-2.9c-1.6-0.9-1.9-1.8-1-3.4c0.3-0.5,0.2-1.1,0.3-1.6
		c0.2-0.2,0.3-0.3,0.5-0.5c2.4-0.3,3.5-1.8,3.9-4c0.2-0.3,0.5-0.5,0.7-0.8c1.8-0.7,2.2-2.8,3.6-3.9c0.4-0.3,0.2-0.9-0.2-1.3
		c-0.3-0.4-0.8-0.5-1.1-0.3c-1.6,1.4-3.9,1.8-5.4,3.3c-0.4,0.5-0.8,1-1.2,1.4c-1.1,0.5-2.8,0.4-2.5,2.4c-2.6,0.4-4.2,2-5.3,4.2
		C499.6,227.7,497.7,227.5,497.3,229.4z"/>
	<path class="st3" d="M332.3,183.6c1-0.2,1.5-0.8,1.5-1.9c0-2.6-0.5-5.3,1.3-7.6c0.2-0.3,0.3-0.8,0.2-1.2
		c-1.4-7.5,1.1-14.5,2.7-21.6c0.2-0.9,0.4-1.8,0.6-2.7c1-0.9,2.1-1.3,3.5-1c6.5,1.3,12.9,2.9,18.9,6.2c10.5,5.8,16.4,15.2,15.2,25.7
		c-1.1,10-4.8,19.2-9.7,27.9c-6,10.7-14.4,19.4-23.3,27.5c-5.5,5-11,9.9-16.5,14.9c-0.6,0.5-1.7,1.1-1,1.9c0.5,0.6,1.4-0.2,2-0.6
		c6.1-4.2,12.1-8.6,17.9-13.2c7.6-6,15.4-11.6,22.1-18.7c5.9-6.2,10.7-13.2,15.1-20.5c0.7-1.1,1.1-2.5,2.6-2.9
		c0,2.6-1.3,4.6-2.5,6.7c-6.7,11.8-15.8,21.4-26.6,29.4c-8.6,6.3-16.5,13.5-25.6,19.1c-1.1,0.7-2,1.8-3,2.6c-1.5,1.3-3,1.2-4.4-0.2
		c-1.5-1.6-0.3-2.7,0.8-3.8c9.4-8.3,18.4-16.9,27.4-25.5c12.3-11.6,19.5-26.4,22.4-43.2c2.3-13.7-6.4-22.7-16.7-27.3
		c-4.6-2-9.7-2.5-14.4-4.2c-1.5-0.5-2.1,0.6-2.4,1.8c-1.5,6.3-3,12.6-3.5,19.1c-0.3,4.3-0.1,8.7-1.7,12.8c-0.3,0.7-0.4,1.6-1.4,1.6
		C332.9,185,332.5,184.3,332.3,183.6z"/>
	<path class="st3" d="M546.8,268.1c0.6-0.8,1.4-0.7,2.3-0.7c20.6,0.7,41.1-0.1,61.7,0.1c1.1,0,2.2-0.2,3.1,0.6
		c-0.4,1.3-1.5,1.3-2.6,1.3c-20.3,0-40.5,0-60.8,0C549.1,269.4,547.8,269.2,546.8,268.1z"/>
	<path class="st3" d="M551.6,232.8c2.2,2.4,4.8,2,7.4,0.8c1-0.5,2.1-0.9,3.2-1.4c1.2-0.5,2.1-0.3,3.1,0.7c3.1,3.4,5,3.7,9.2,1.9
		c1.1-0.5,2-1.2,3.3-1.1c0,0.3-0.1,0.7-0.1,1c-0.2,0.8-1.6,1.4-0.6,2.3c1,0.9,2-0.1,2.8-0.7c1.8-1.4,3.4-2.9,3.5-5.4
		c0.1-1.7-0.7-3-1.9-4.1c-0.6-0.6-1.9-1.2-1.1-2.4c0.8-1.2,1.9-1.1,3-0.4c0.1,0.4,0,1,0.3,1.2c2.8,2.4,2.2,5.3,1.1,8.2
		c-1.4,3.5-4,5.7-7.6,6.5c-3.6,0.7-7.2,0.6-10.8-0.4c-0.8-0.2-1-0.7-1-1.4c-0.9-4.2-2-4.8-5.8-3.2c-0.9,0.4-1.8,0.9-2.8,1.2
		C553.8,237.1,552.1,236,551.6,232.8z"/>
	<path class="st3" d="M512.3,235c2.6-1.1,5.4-0.4,8.1-0.6c3.1-0.2,6.2,0.4,9.3-1.2c1.7-0.8,3.9-0.2,5.8,0.5c1.6,0.6,2.9,0.4,4.1-0.9
		c1.4-1.6,3.3-2.1,5.2-2.9c0.5,1,1.4,1.6,2.3,2.2c1.5,1.1,2.4,2.5,2.1,4.4c-1.1-0.2-1.5-1.2-2.1-2c-1.6-1.9-2.7-1.9-4.2,0
		c-1.7,2.2-3.8,3.6-6.7,3.3c-4.3-0.4-8.2,1.7-12.5,1.4c-0.7,0-1.3,0.1-1.9-0.4c0.7-1.6,2.1-1.9,3.7-2c1.8-0.1,3.7,0.2,5.4-0.4
		c0.6-0.2,1.6-0.2,1.4-1.1c-0.2-0.8-1.1-0.6-1.7-0.5c-5.9,1.5-11.9,0.9-17.8,1.4l0,0C512.7,236,512.5,235.5,512.3,235z"/>
	<path class="st3" d="M422.3,232.4c0.2,1.4-0.5,2.6-0.9,3.8c-3.4,9.6,0.6,21.8,10.5,25.8c1.8,0.7,3.7,1.1,5.5,1.4
		c1.2,0.2,2.3,0.5,3,1.5c-0.9,1.1-2.2,1.1-3.4,0.9c-11.2-1.9-18.5-10.7-18.6-22c0-2.9-0.1-5.8,1.1-8.6
		C419.9,233.8,420.6,232.6,422.3,232.4z"/>
	<path class="st3" d="M575.8,220.5c-1.3-1.6-2.7-1.3-4-0.1c-2.2,1.8-3.8,4.2-5.5,6.4c-0.9,1.2-1.9,2.1-3.6,1.7
		c-2.1-0.4-2.5-1.7-1.4-3.4c0.8-1.2,1.4-2.4,2.1-3.6c2,1.5,3.6,1,5.2-0.8c2.2-2.5,5.5-4.1,6-8c0.2-1.4,1.5-0.8,2.5-0.4
		c-2.4,2.6-2.1,3.6,1.3,4.3c0.2,0,0.3,0.1,0.4,0.2C578.2,218.4,577.5,219.9,575.8,220.5z"/>
	<path class="st3" d="M501.4,200.6c-5.1,2-6.3,7.5-9.9,10.9c-4.2,4.1-8.3,8.4-12.4,12.6c-0.9,0.9-1.9,1.6-3.2,1.9
		c-0.7-1.5,0.5-2.3,1.3-3.2c3.8-4.1,8.3-7.6,12.1-11.9c2.3-2.6,4.3-5.4,6.1-8.4C497,199.8,498.5,199.4,501.4,200.6z"/>
	<path class="st3" d="M479.2,233.9c-0.6,2.6-3,2.8-4.8,3.2c-3.1,0.6-6.3,1.2-9.5,0.8c-4.3-0.4-5.9-3.3-4.5-7.4
		c0.8-2.3,2.6-4,3.6-6.1c0.9-0.3,1.9-0.6,2.5,0.3c0.5,0.9-0.6,1.4-1.1,2c-0.6,0.7-1.2,1.5-2,1.8c-2.4,1.2-2.2,3-1.6,5.1
		c0.6,2.1,2.3,2.3,4.1,2.4C470.4,236.3,474.8,234.8,479.2,233.9z"/>
	<path class="st3" d="M562.3,219.5c-5.2-1.1-9.8,0.7-14.3,3.1c-0.6,0.3-1.2,1.1-2,0.5c-0.8-0.5-0.7-1.2-0.5-2
		c0.2-1.2-0.3-1.9-1.3-2.4c-1-0.5-1.6,0.2-2.4,0.8c-1.6,1.3-2.7,3.2-5,3.4c0.5-2.1,1.9-3.6,3.7-4.8c3-2,3.7-2,6.2,0.8
		c1.1,1.3,2.3,1,3.6,0.5c2.9-1.2,5.9-2.2,9.1-1.9C560.8,217.6,562,217.8,562.3,219.5z"/>
	<path class="st3" d="M390.1,189.1c0.1-3.7,1.5-7.1,2.4-10.7c0.8-3.1,1.6-6.1,1.5-9.3c0-1.3,0.2-2.7,1.2-3.7
		c0.9,1.4,0.7,3.1,0.6,4.6c-0.6,5.8-1.7,11.5-3.9,16.8C391.5,187.7,391.2,188.7,390.1,189.1z"/>
	<path class="st3" d="M305.8,172c2.3-0.4,4.4,0.5,6.6,1.1c5.5,1.7,10.6,4.3,15.8,6.8c1.2,0.6,2.2,1.7,2.8,3
		c-0.9,0.1-1.6-0.1-2.4-0.6c-6.3-3.9-13.2-6.3-20.2-8.6C307.4,173.4,306.3,173.2,305.8,172z"/>
	<path class="st3" d="M521.4,238.9c-1.7-0.7-3.5-0.5-5.2-0.3c-4.3,0.4-8-0.7-11.5-3.1c-1.8-1.2-3.6-2.7-5.9-3
		c1.2-2.4,2.7-1.6,4.2-0.4c2.9,2.3,5.9,4.3,9.8,4.5c0,0,0,0,0,0c1.9,0.9,3.9,0.4,5.9,0.5C520.1,237,521.2,237.3,521.4,238.9z"/>
	<path class="st3" d="M392.3,151c-1.8-2.3-3.5-4.6-5.4-6.8c-2.4-2.9-5.4-5.1-8.2-7.7c3.5,0.2,6.1,2,8.2,4.6c1.7,2,3.1,4.2,4.7,6.4
		C392.4,148.5,392.4,149.8,392.3,151z"/>
	<path class="st3" d="M528.6,224.2c0.2-1,0.9-1.7,1.5-2.6c0.7-1.1,1-2.2-0.3-3c-1.3-0.8-2.2-0.3-3.1,1c-1.6,2.5-3.7,4.4-5.9,6.4
		c-0.3-2.2,0.7-3.8,2.4-5.1c1.2-0.9,2.4-1.9,3.4-2.9c1.2-1.3,2.5-2.1,4.1-0.9c1.6,1.1,2,2.8,1.3,4.4
		C531.5,222.9,530.5,224.2,528.6,224.2z"/>
	<path class="st3" d="M527.2,210.9c0.1-1,0.5-1.8,1.3-2.3c1-0.7,1-1.7,0.7-2.7c-0.4-1.1-1.5-1.4-2.5-1.2c-1.6,0.2-3.3,0.6-4.9,0.8
		c1.3-2.9,4.1-3.9,7.2-2.5c2.2,1,3.1,2.9,2.2,5.1C530.5,209.8,529.2,210.8,527.2,210.9z"/>
	<path class="st3" d="M519.8,266.5c5.3-0.8,10.6-0.8,16,0c0.4,0.1,0.7,0.3,1.1,0.5c-0.7,0.9-1.7,0.9-2.7,0.9c-4,0-7.9,0-11.9,0
		C521.2,267.9,520,268.1,519.8,266.5z"/>
	<path class="st3" d="M578.3,229.5c-1.8,0-3.4,0.7-5,1.2c-1.1,0.4-2.1,0.5-2.9-0.5c-0.8-1-0.4-2,0.4-2.9c1.3-1.4,1.3-3.8,3.6-4.4
		c0,0.5,0,1-0.2,1.5c-0.8,3-0.8,3.1,2.4,3.6C577.5,228.2,578.1,228.6,578.3,229.5z"/>
	<path class="st3" d="M473.5,227.2c-0.1,0.2-0.3,0.4-0.4,0.6c-0.9,0.8-2.3,1.2-2,2.8c0.4,1.7,2.1,1.2,3.2,1.6
		c-0.1,1.3-0.9,2-2.2,1.8c-1.8-0.3-3-1.5-3.3-3.3c-0.2-1.3,0-2.5,1.4-3.1C471.4,227,472.5,226.9,473.5,227.2z"/>
	<path class="st3" d="M497.4,217c-0.1-0.2-0.4-0.4-0.4-0.6c-0.4-2.8,2.8-9,5.4-10.4C501,209.8,500.1,213.8,497.4,217z"/>
	<path class="st3" d="M533.2,226.4c-1,2-4.2,3.6-6.1,3.1c-1.3-0.4-1.8-2.1-0.9-3.5c0.6-0.9,1.4-1.4,2.4-1.7c0,0.4,0.1,0.8,0.1,1.2
		c-0.4,2.2,0.6,2.2,2.2,1.5C531.6,226.7,532.4,226.6,533.2,226.4z"/>
	<path class="st3" d="M457.3,223.9c-3.7,0.9-7.3,0.8-11,0.1C450,221.8,453.7,222,457.3,223.9z"/>
	<path class="st3" d="M509.9,219c1.5-1.6,3.7-2,5.4-3.3c0.3-0.3,0.8-0.1,1.1,0.3c0.3,0.4,0.6,1,0.2,1.3c-1.4,1.1-1.8,3.2-3.6,3.9
		C512.6,219.5,511.3,219.2,509.9,219z"/>
	<path class="st3" d="M507.8,226.5c-0.1,0.6-0.1,1.2-0.3,1.6c-0.9,1.5-0.6,2.5,1,3.4c1.1,0.6,2.2,1.4,2.4,2.9
		c-2.4-0.2-4.3-1.2-5.3-3.6C504.8,228.7,505.6,227.3,507.8,226.5z"/>
	<path class="st3" d="M520.9,219.5c0-0.4-0.2-1,0-1.2c2.4-2.2,3.1-5.9,6.3-7.4C526.4,214.7,524.1,217.4,520.9,219.5z"/>
	<path class="st3" d="M487.9,235.4c-1.3,0.4-2.2-0.5-3.1-1.1c-1.3-1-2.7-1.5-4.4-1.3c-0.1-1.7,1-2.1,2.4-2
		C484.8,231.2,487.2,233.3,487.9,235.4z"/>
	<path class="st3" d="M442.8,265c2.4-0.9,4.7-0.9,7,0.1C447.5,268,444.7,268,442.8,265z"/>
	<path class="st6" d="M532.8,215.5c-1.3-1.2-1.3-2.3,0-3.5c1.3,0.3,2.6,0.7,3.9,1c0.3,1.1-0.3,1.8-1,2.5
		C534.8,215.5,533.8,215.5,532.8,215.5z"/>
	<path class="st3" d="M615.7,267.8c0.1-0.5,0.2-1.1,0.7-1.2c2.7-0.5,5.1-2,7.9-2.2C622.2,267.6,619.2,268.4,615.7,267.8z"/>
	<path class="st6" d="M578.8,216.8c-0.1-0.1-0.3-0.2-0.4-0.2c-3.4-0.8-3.6-1.7-1.3-4.3c0.3,0,0.7,0,1,0c0.6,1.3,1.3,2.6,1.3,4.1
		C579.1,216.6,579,216.7,578.8,216.8z"/>
	<path class="st3" d="M520.4,227c0.2,1.5-0.5,2.4-2,2.5c-1.7,0.1-3.6,0.7-4.7-1.2c-0.9-1.6,0.5-1.7,1.5-2
		C516.6,229,518.6,227.4,520.4,227z"/>
	<path class="st3" d="M485.3,223.4c0.2-1.6,1.7-2.2,2.6-3.1c0.9-0.9,1.5,0,1.8,0.8c0.6,1.6,0.1,2.7-1.5,3.4
		C487.2,224.1,486.2,223.8,485.3,223.4z"/>
	<path class="st3" d="M501.9,219.5c-1.2,1.4-2.9,2.2-4.4,3.2c-0.7,0.5-1.5-0.1-1.9-0.7c-0.6-1.2,0-2,1.1-2.6
		c1.2,0.7,2.3,1.2,3.6,0.1C500.8,219.1,501.4,219.4,501.9,219.5z"/>
	<path class="st3" d="M461.3,264.9c0.1-0.2,0.1-0.4,0.2-0.5c1.6-1,6.8-0.7,8,0.5C466.7,265.8,464,265.8,461.3,264.9z"/>
	<path class="st3" d="M498.8,232.4c-0.7,2.9-3,4-7,3.5C493.6,233.8,496.5,233.7,498.8,232.4z"/>
	<path class="st3" d="M497.3,265c2.2-0.2,4.4-1,6.5,0.5C501.4,267,498.8,266.8,497.3,265z"/>
	<path class="st3" d="M298.3,170.5c2.3-0.9,4.4-0.5,6.2,1.4C302.2,172.4,300,172.5,298.3,170.5z"/>
	<path class="st3" d="M386.3,194.9c0.5-2.2,1.4-4.3,3.6-5.5C389.8,192.1,388.9,194.1,386.3,194.9z"/>
	<path class="st3" d="M515.2,226.3c0.9-1.8,1.9-3.7,4-4.5C518.7,225.7,518.2,226.3,515.2,226.3z"/>
	<path class="st3" d="M434.5,224.1c-1.6,1.6-3.6,2.2-5.7,2.2C429.7,223.2,432.3,224.1,434.5,224.1z"/>
	<path class="st3" d="M512.2,221.9c-0.4,2.2-1.5,3.8-3.9,4C508.7,223.7,509.9,222.3,512.2,221.9z"/>
	<path class="st3" d="M536.8,213c-1.3-0.3-2.6-0.7-3.9-1c0.3-1.3,0.9-2.2,2.4-1.7C536.4,210.7,537.8,211.3,536.8,213z"/>
	<path class="st3" d="M579.3,216.5c0.1-1.5-0.6-2.8-1.3-4.1c1.8-0.7,2.4,0.5,2.8,1.9C581.3,215.5,580.6,216.2,579.3,216.5z"/>
	<path class="st3" d="M479.3,229.4c0.3-2,2-2.6,3.5-3.6C482.9,228.3,481.7,229.4,479.3,229.4z"/>
	<path class="st3" d="M395.2,162.1c-1.5-0.8-1.9-2.1-1.2-3.6C396.5,158.9,395.9,160.5,395.2,162.1z"/>
	<path class="st3" d="M539.8,267.3c1.6-0.5,3.3-1.2,4.6,0.6C542.8,268.6,541.1,269,539.8,267.3z"/>
	<path class="st3" d="M426.5,228.3c-1.1,1.3-1.9,3-3.7,3.6C423.1,229.7,424.3,228.5,426.5,228.3z"/>
	<path class="st3" d="M506.2,222.9c-0.3-2,1.3-1.9,2.5-2.4C509.3,222.7,507.4,222.4,506.2,222.9z"/>
	<path class="st3" d="M497.3,229.4c0.4-2,2.3-1.7,3.6-2.4C500.7,229.3,499.1,229.6,497.3,229.4z"/>
	<path class="st3" d="M503.3,204.5c-0.8-0.9-0.4-2-0.5-3C504.2,202.3,506,203,503.3,204.5z"/>
	<path class="st3" d="M532.8,215.5c1,0,2,0,3,0c-0.2,0.8-0.5,1.7-1.5,1.7C533.3,217.1,533,216.3,532.8,215.5z"/>
	<path class="st3" d="M428.4,226.5c-0.3,0.9-0.9,1.4-1.7,1.7C426.2,226.5,427.3,226.6,428.4,226.5z"/>
	<path class="st4" d="M631.4,237c-0.1-0.2-0.2-0.3-0.3-0.5c1.9-0.8,3.9-1.3,6.1-1.1c1.1,0.1,1.8,0.5,1.4,1.7
		c-0.7,2.1-1.4,4.3-2.2,6.4c-0.2,0.5-0.5,1.2-1.2,1.1c-0.7-0.1-0.9-0.7-1-1.3c-0.3-1-0.5-2.1-0.7-3.2
		C633.2,238.8,632.6,237.6,631.4,237z"/>
	<path class="st6" d="M634.7,224.5c1,1,3.3,0.7,3.5,2.9c0.1,1.2-0.8,1.6-1.8,1.4c-1.8-0.3-2.8-1.4-2.8-3.2
		C633.6,224.9,633.7,224.4,634.7,224.5z"/>
	<path class="st4" d="M563.2,170.9c-2.4,0-4.8,0.1-7.2,0c-2.8-0.1-3.9-1.5-3.4-4.3c1.3-6.8,3.6-13.5,4.8-20.4
		c0.3-1.5,1.5-2.1,2.9-2.3c5.9-0.8,11.9-1.1,17.9-0.8c0.7,0,1.3,0.1,2,0.3c2.3,0.7,2.8,2.4,2.6,4.5c-0.2,2-1.5,2.6-3.3,2.7
		c-2,0-4,0-6,0c-0.9,0-1.8,0.1-2.7,0.2c-0.8,0.1-1.5,0.4-1.4,1.4c0.1,1.1,0.9,1,1.6,1c1.2,0,2.5-0.1,3.7,0c2.2,0.1,3.4,1.3,3.5,3.4
		c0.1,2.1-0.4,3.8-2.7,4.5c-1.3,0.4-2.6,0.3-4,0.4c-1.6,0-3.2,0-4.7,0.1c-0.7,0.1-1.4,0.6-1.3,1.5c0.1,0.9,0.8,0.9,1.5,0.9
		c2.1,0,4.2,0.1,6.2,0.1c1.7,0,3.2,0.3,3.4,2.4c0.2,1.9-0.7,3.2-2.6,3.7c-1.5,0.4-3.1,0.7-4.7,0.6c-2.1-0.1-4.2,0-6.2,0
		C563.2,170.9,563.2,170.9,563.2,170.9z"/>
	<path class="st4" d="M492.5,150.7c2.2,0,4.5,0.1,6.7,0c3.9-0.2,5.8,2.6,7.9,5.1c0.6,0.7,0.5,2,0.1,2.9c-1,2.3-2.1,4.5-3.5,6.6
		c-0.8,1.3-2.1,2.2-3.8,2.6c-3.3,0.8-6.5,2.1-9.9,2.3c-3.2,0.2-3.1,3.2-4.1,5c-1.7,3.2-4.4,5.8-8.2,5.4c-2.3-0.2-3.2-1.1-3.1-3.4
		c0.1-1.3,0.7-2.4,1.3-3.5c0.6-1.1,1.3-2.2,1.2-3.5c-0.1-1.7,0.4-3.1,1.7-4.2c0.4-0.4,0.9-1,0.9-1.5c-0.2-4.1,3.2-7,3.4-11
		c0.1-2,1.2-3.1,3.5-2.9C488.7,150.8,490.6,150.7,492.5,150.7z M494.2,157.6c-3.3,0-5,1.5-4.3,3.9c0.4,1.5,3.2,2.5,5.4,1.9
		c1.7-0.5,3.8-1.3,3.6-3.5c-0.2-2.1-2.4-1.9-3.9-2.2C494.7,157.5,494.4,157.6,494.2,157.6z"/>
	<path class="st4" d="M521.5,151.9c2.1,0,4.2-0.2,6.2,0c4.6,0.5,7.6,4.3,7,8.9c-0.1,1-0.6,1.9-1.3,2.6c-0.6,0.6-1.3,1.1-1.7,1.8
		c-2.1,3.9-5.7,4.8-9.6,5c-1.1,0-2.2,0.1-3.2,0.1c-3.3,0.2-4.2,0.8-5,4.1c-1.1,4.8-3.8,6.2-7,6c-2.5-0.1-4.3-2.4-3.5-4.8
		c2.5-7.3,5.8-14.3,9-21.3c0.8-1.6,2.2-2.6,4.2-2.4C518.2,152.1,519.9,152,521.5,151.9C521.5,152,521.5,151.9,521.5,151.9z
		 M522.7,162.9c1.2,0.1,2.3,0,3-0.7c0.8-0.7,2.1-1.2,1.8-2.5c-0.3-1.3-1.6-2-2.8-2.1c-1.5-0.1-2.9,0.5-4.2,1.2
		c-0.7,0.4-1.5,0.9-1.3,1.9c0.2,0.9,0.8,1.6,1.8,1.9C521.6,162.8,522.3,162.9,522.7,162.9z"/>
	<path class="st4" d="M452.9,141.8c3.7,0,7.3,0,11,0c3.1,0.1,4,1,4,4.1c0,3.3-0.9,4.3-4,4.3c-3.6,0-6.2,1.5-7.6,5
		c-1.2,3.1-2.3,6.2-3.6,9.3c-1.8,4.3-6.6,6.1-10.8,4.1c-1.4-0.7-1.4-1.7-1.1-2.9c0.7-2.7,2.2-5,3.4-7.5c0.7-1.4,1.5-2.8,2-4.3
		c1-2.7,0.5-3.3-2.3-3.3c-0.9,0-1.8,0-2.7-0.1c-2.6-0.3-3.4-1.4-3.3-4.5c0.1-2.9,1-4,3.6-4.1C445.2,141.8,449,141.9,452.9,141.8
		C452.9,141.8,452.9,141.8,452.9,141.8z"/>
	<path class="st4" d="M602.4,170.9c-2.3,0.2-4.7-0.1-6.2-2.7c-0.5-1-1.5-0.8-2.1-0.1c-3.1,3.9-7.3,2.9-11.3,2.7
		c-2-0.1-2.4-1.3-1.2-2.9c1.4-1.9,3.3-3,5.3-4.1c3-1.7,3.2-3.3,0.9-5.9c-1-1.1-2.6-2.1-1.7-4c0.8-1.9,2.6-2.2,4.4-2.3
		c2.5-0.1,5-0.2,6.8,2.2c0.7,0.9,1.6,0.5,2.5,0.1c1.6-0.9,3.1-2,5-2.2c1.8-0.2,3.8-0.1,4.7,1.9c1,2-0.1,3.6-1.6,4.8
		c-1.2,1-2.7,1.7-4,2.5c-1.8,1.1-1.7,2,0.1,3c0.7,0.4,1.4,0.5,2,0.9c1.5,0.9,2.6,2.1,2.2,4c-0.5,2.1-2.1,2.1-3.7,2.2
		C603.8,171,603.3,170.9,602.4,170.9z"/>
	<path class="st4" d="M467.7,168.9c-1.4-0.3-3.9,0.1-4.5-1.6c-0.5-1.4,0.6-3.5,1.8-4.9c1.7-2,2.7-4.3,3.3-6.9
		c0.8-3.6,2.2-4.8,5.8-5.1c0.6,0,1.2,0,1.7,0c4.4,0.4,5.3,2.2,2.9,6c-0.2,0.3-0.4,0.6-0.4,0.9c0,3.3-2.6,5.6-3.5,8.6
		C474.4,167.8,471.5,168.9,467.7,168.9z"/>
	<path class="st4" d="M543.9,157.9c0.9,0,1.8,0,2.7,0c2.6,0.1,3.5,1,3.8,3.3c0.3,2.7-1.8,2.9-3.4,3.2c-2.5,0.5-5.1,0.1-7.7-0.1
		c-1.1-0.1-1.5-0.7-1.6-1.8c-0.3-4.2-0.1-4.5,4.2-4.5c0.7,0,1.3,0,2,0C543.9,158,543.9,157.9,543.9,157.9z"/>
	<path class="st4" d="M478,148c-0.8,0-1.7,0.1-2.5,0c-1.7-0.2-3.3-1-3.1-2.8c0.1-1.7,1-3.4,3.3-3.2c1.7,0.2,3.3-0.2,5.1,0.5
		c2.1,0.9,2.3,2.3,2.1,4.1c-0.3,2.2-2.1,1.2-3.4,1.4C479,148.1,478.5,148.1,478,148C478,148,478,148,478,148z"/>
	<path class="st4" d="M613.9,140.5c-0.2-0.9-0.4-1.9-0.6-2.8c-0.1-0.5-0.7-1.1-0.1-1.6c0.5-0.3,1.1,0.1,1.6,0.3
		c2.8,1.2,3.1,2.3,1.3,4.9c-0.7,1.1-1.7,1.9-2,3.3c-0.3,1.2-1.5,1.1-2.5,0.7c-0.8-0.3-1.6-0.7-1.4-1.7c0.2-1.3,1.2-1.1,2.1-0.9
		C614.5,143,613.5,141.4,613.9,140.5z"/>
	<path class="st3" d="M560.3,249c2.7-2.5,5.9-2.9,8.8-1c2.7,1.8,3.9,5.3,2.7,8.4c-1.2,3.1-2.6,6.1-6.4,6.7c-4,0.7-6.9-0.8-10-4.7
		c-1,0.2-0.9,1.1-1.1,1.7c-0.5,1.1-1.1,1.8-2.4,1.7c-1.3-0.2-2.1-0.9-2.4-2.2c-0.1-0.2-0.1-0.5-0.1-0.7c-0.2-1,0.5-2.6-0.5-3
		c-1.2-0.4-2.1,1.1-3,1.9c-1,0.9-1.8,2-2.6,3c-1.1,1.3-2.4,1.7-4,1.3c-1.6-0.4-2.1-1.7-2.4-3.2c-0.1-0.6-0.1-1.2-0.1-1.7
		c0-0.6,0-1.3-0.7-1.4c-0.8-0.2-1.2,0.4-1.4,1.1c-0.5,1.3-1.1,2.6-2.1,3.7c-1,1.2-2.1,1.7-3.5,0.9c-1.5-0.8-1.7-2.2-1-3.7
		c1.1-2.4,2.2-4.7,3.4-7c0.9-1.9,1.8-3.8,2.9-5.5c1.1-1.8,2.7-2.9,5-2.3c2.4,0.6,2.7,2.4,2.7,4.4c0,1.1,0,2.2,0,3.2
		c0,0.8,0.1,1.6,1,1.8c0.8,0.1,1.2-0.5,1.5-1.1c1.2-2.8,3.4-4.7,5.4-6.8c1.7-1.8,3.7-1.8,5.7-0.6c2,1.2,2.2,3,1.4,5
		c-0.5,1.3-0.9,2.5,1.3,2.3c-0.2,1.8-0.5,3.6-0.7,5.4c-0.2,1.5,0.2,2.8,1.3,3.6c2.8,1.9,6.4,3,9.1,0.3c2.8-2.7,3.2-7.9,0.9-10.5
		c-1.3-1.5-2.9-2.1-4.9-1.5C562.8,248.6,561.5,248.7,560.3,249z M555.4,247.9c0.1-1.5-0.4-2.4-1.5-3c-1.1-0.6-1.9-0.1-2.8,0.5
		c-3,2.3-4.8,5.7-7.1,8.7c-0.5,0.6-0.5,1.5,0.4,1.9c0.8,0.4,1.3-0.2,1.7-0.7c1-1.3,1.9-2.6,2.8-3.8c0.5-0.7,1-1.5,2-1.1
		c0.8,0.3,0.8,1.2,0.8,1.9c-0.1,1.7-0.3,3.3-0.4,5c0,0.7,0.1,1.4,1,1.4c0.6,0,1-0.4,1-0.9C553.6,254.4,554.9,251.1,555.4,247.9z"/>
	<path class="st4" d="M446.4,238.9c1.6,0.4,2.4,1.5,3,3c-0.3,1.3,0.3,2.6,0.4,3.9c0,0.9,0.1,1.9,1.3,2.1c1.3,0.2,1.7-0.7,1.9-1.8
		c2.3-2,5-2.2,7.4-0.6c-0.1,0.9,0.2,1.6,0.7,2.3c2.4,3.7,2.3,5.7-0.6,8.9c-0.5,0.6-0.8,1.3-0.7,2c-1.9,0.1-3.4,1.9-5.6,1.1
		c-4.2-1.6-5.1-2.8-5.3-7.9c0.3-2.2-1-2.3-2.6-1.9c-1.2,0.3-2.3,0.9-3.6,0.9c-3.6-0.2-6,1.3-7.1,4.8c-0.2,0.6-0.3,1.5-1.2,1.3
		c-0.9-0.2-0.8-1.1-0.8-1.9c-0.1-1.4,1-2.7,0.1-4.1c0.8-3.2,1.7-6.3,2.5-9.5c2.1-2.4,4.7-3.2,7.9-2.5
		C444.7,239.2,445.6,239,446.4,238.9z M444.4,247.1c1.3-0.9,1.8-2,0.6-3.2c-1.4-1.3-2.9-1.5-4.3,0.1c-1,0.3-1.3,0.9-0.9,1.8
		c0.5,1.4,1.6,2.3,3,2.6C443.6,248.6,444.3,248.1,444.4,247.1z M456.4,254.5c1.6,0,2.7-1.3,2.8-2.9c0.1-1.3-1.1-2.6-2.5-2.4
		c-1.6,0.2-3.1,1.2-3.2,3C453.4,253.6,454.5,254.6,456.4,254.5z"/>
	<path class="st4" d="M603.9,251.1c1.2-1.3,2.8-1.8,4.3-2.6c3.2-1.8,8.8,0.5,10,4.1c0.5,1.7-2.7,5.6-4.9,5.7c-1.2,0.1-2.5,0-3.7,0.1
		c-0.8,0-1.6,0.2-1.6,1.1c0,1.2,1,0.9,1.7,0.9c1.4,0.1,2.8-0.2,4.2,0.3c0.5,2.2-1.1,3.1-2.4,4.3c-2.3,0.1-4.7,0.5-6.4-1.7
		c0.2-0.9-0.1-1.7-0.8-2.2c-2.1-1.3-1.9-3.3-1.5-5.2C603,254.2,603.5,252.7,603.9,251.1z"/>
	<path class="st3" d="M495.9,249.5c1.1-5.2,8.9-5.6,12-3.3c0.7,0.5,1.1,2.1,2.2,1.6c1.1-0.6,2-1.7,2.9-2.6c0.3-0.3,0.3-0.8,0.6-1.1
		c1-1.2,2.3-1.9,3.9-1.7c1.6,0.1,1.9,1.5,2.3,2.6c0.5,1.1,0.7,2.4,1.1,3.5c0.5,1.6-0.8,2.8-2.2,3c-2.6,0.4-2.2,2.8-3.1,4.3
		c-0.4,0.6,0.9,1.9,2.2,2.2c0.6,0.2,1.1,0.5,0.7,1.3c-0.6,1-0.5,2.5-2.1,2.8c-4.1,0.8-6.4-1.3-5.9-5.4c0.1-1.1,0.1-2.2,0.4-3.2
		c0.2-0.9,0.5-1.8-0.5-2.4c-1.1-0.6-1.4,0.5-1.9,1c-0.3,0.3-0.7,0.4-1,0.7c0-0.7,0-1.5,0-2.2c-0.1-2.9-1.5-4.1-4.4-4
		c-1.5,0.1-2.9,0.6-4.2,1.4C497.9,248.5,497,249.2,495.9,249.5z"/>
	<path class="st3" d="M486.7,240.7c2.1-0.2,2.6,0.8,1.9,2.6c-0.1,0.2-0.1,0.5-0.2,0.7c-0.2,0.9-0.8,1.8,0.1,2.5c1,0.7,1.7,0,2.4-0.6
		c0.1-0.1,0.1-0.1,0.2-0.2c0.7-0.5,1.4-1.1,2.2-0.3c0.8,0.7,0.8,1.5,0.1,2.4c-2.3,3.3-3.2,6.6-1.3,10.5c0.9,1.8-0.7,1.9-1.9,1.7
		c-1.4-0.3-2.6-1.2-3.4-2.4c-0.9-1.2-1.4-1.4-1.9,0.2c-0.5,1.5-1.7,2.6-3.1,2.3c-1.5-0.3-2-1.9-2.1-3.4c-0.1-1.1,0.1-2.1,0.5-3.2
		c1.1-3.4,2.7-6.6,3.3-10.2C483.8,242,484.5,240.3,486.7,240.7z"/>
	<path class="st3" d="M579.9,263.1c-1.5,0.1-3-0.3-4.3-1c-2.5-1.2-3.1-2.5-2.4-5.2c0.5-2,1.1-4,1.8-6c0.5-1.5,1.6-2.6,3.4-2.2
		c2,0.5,2.2,2,1.9,3.7c-0.1,0.4-0.3,0.8-0.3,1.2c-0.1,0.9-0.7,2.2,0.7,2.5c1.3,0.3,1.5-1,1.9-1.9c0.4-0.9,0.7-1.9,1.1-2.8
		c0.6-1.4,1.8-1.9,3.3-1.6c1.4,0.3,1.8,1.3,2,2.5C590,257.8,585.5,263.1,579.9,263.1z"/>
	<path class="st4" d="M560.3,249c1.2-0.2,2.5-0.4,3.7-0.7c2-0.6,3.6,0,4.9,1.5c2.3,2.6,1.8,7.7-0.9,10.5c-2.7,2.7-6.3,1.5-9.1-0.3
		c-1.1-0.8-1.5-2.1-1.3-3.6c0.3-1.8,0.5-3.6,0.7-5.4C558.7,250,559.4,249.4,560.3,249z M564.7,252.5c-1.8,0.1-3.3,1.6-3.3,3.4
		c0,1.5,0.9,2.1,2.2,2c1.5,0,3.1-2.3,3-4C566.5,252.7,565.7,252.5,564.7,252.5z"/>
	<path class="st4" d="M466.4,249.6c1.1-1.1,1.8-2.6,3.4-3.1c2.3,0.1,4.4-0.4,6.6-1c0.7,0.2,1.9-0.4,1.9,0.9c-0.1,1.4-1,2.5-2.3,2.9
		c-1.1,0.4-2.2,0.6-3.4,0.8c-1,0.2-1.6,0.8-2.1,1.6c-0.6,1-1,2.1,0.1,3.2c1,1,2,0.9,2.9,0.2c2.1-1.6,2.8,0.4,3.7,1.4
		c1.3,1.5-0.2,2.2-1.3,2.8c-3.9,2.4-8.5,1.1-10.2-2.8c-0.1-0.2,0.1-0.6,0.1-0.9C466,253.5,466.2,251.6,466.4,249.6z"/>
	<path class="st4" d="M495.9,249.5c1.1-0.3,2.1-1,3-1.6c1.3-0.9,2.6-1.4,4.2-1.4c3-0.1,4.3,1.1,4.4,4c0,0.7,0,1.5,0,2.2
		c0,0.1-0.1,0.3-0.1,0.4c-2,0.5-4,1-6,1.4c-1,0.2-2.4,0.2-2.2,1.7c0.1,1.5,1.4,1.6,2.6,1.7c3.9,0.3,4.2,0.7,2.1,3.9
		c-0.8-0.3-1.7-0.3-2.5,0c-0.1-0.7-0.4-1.3-1.1-1.6c-4-2.1-5-5.7-5.1-9.8C495.4,250.1,495.6,249.8,495.9,249.5z M504.5,250.2
		c-0.2-1-0.8-1.5-1.8-1.5c-1.1,0-2,0.5-2.1,1.7c-0.1,1.2,0.8,1.5,1.8,1.5C503.4,251.8,504.3,251.4,504.5,250.2z"/>
	<path class="st4" d="M599.6,262.7c-2.1,3.3-5.2,2.5-8.2,2.1c0-0.2,0-0.3-0.1-0.5c-1.4-3.4-1.4-3.4,2.1-3.3c1.1,0,2.1-0.2,2.3-1.4
		c0.3-1.5-0.5-2.4-1.9-2.6c-0.2-0.2-0.3-0.4-0.5-0.6c-0.5-3.3,1-5.8,3-8.1c0.8-0.3,1.6-0.3,2.4,0c0.9,1.6,0.9,3.1-0.8,4.2
		c-0.7,0.5-1,1.5-0.5,2.2C598.9,257.2,598.9,260,599.6,262.7z"/>
	<path class="st4" d="M549.2,236.6c0.2-1.9-0.7-3.3-2.1-4.4c-0.9-0.6-1.8-1.2-2.3-2.2c0.2-0.2,0.3-0.3,0.5-0.5
		c0.7-0.2,1.5-0.2,2.1-0.5c1.9-0.8,3.2-0.4,3.6,1.7c0,0.7-0.1,1.5,0.5,2.1c0.5,3.2,2.2,4.3,5.2,3.3c0.9-0.3,1.8-0.8,2.8-1.2
		c3.8-1.6,5-1,5.8,3.2c-0.3,0-0.6,0-0.9,0c-0.8-0.4-1.5-1.4-2.6-0.5c-0.6,0-1.3,0-1.9,0c-0.5-0.6-1.2-0.7-1.8-0.3
		c-2.5,1.3-5.1,1.2-7.8,1.2C549.6,238.1,549.3,237.4,549.2,236.6z"/>
	<path class="st3" d="M599.6,262.7c-0.7-2.7-0.7-5.5-2.2-8c-0.4-0.8-0.2-1.7,0.5-2.2c1.7-1.2,1.7-2.6,0.8-4.2c1.5-1,2,0.3,2.6,1.2
		c0.6,0.8,1.1,1.8,2.4,1.7c-0.4,1.6-0.9,3.2-1.2,4.8c-0.4,2-0.7,3.9,1.5,5.2c0.7,0.5,1,1.3,0.8,2.2c-0.6-0.3-1.5-0.4-1.7-0.8
		C601.7,259.7,600.7,261.3,599.6,262.7z M600.5,255.7c0.7-0.1,0.9-0.7,0.9-1.4c0-0.7-0.2-1.3-1.1-1.3c-0.9,0-1.2,0.7-1.2,1.5
		C599.1,255.3,599.6,255.7,600.5,255.7z"/>
	<path class="st3" d="M433.6,251c0.9,1.4-0.2,2.7-0.1,4.1c0,0.7-0.1,1.7,0.8,1.9c0.9,0.2,1-0.7,1.2-1.3c1.1-3.5,3.5-5,7.1-4.8
		c1.3,0.1,2.4-0.5,3.6-0.9c1.6-0.4,2.9-0.3,2.6,1.9c-3.3-0.5-6.4,0.8-9.6,1.3c-1.6,0.3-1.9,2.9-2.8,4.4c-0.6,1.1-1.1,1.8-2.3,1.7
		c-1.5,0-2.1-1.1-2.3-2.2C431.5,255,431.8,252.8,433.6,251z"/>
	<path class="st3" d="M503.8,261.8c2.1-3.2,1.9-3.6-2.1-3.9c-1.2-0.1-2.5-0.2-2.6-1.7c-0.2-1.5,1.2-1.5,2.2-1.7c2-0.5,4-0.9,6-1.4
		c0.1,0.4,0.1,0.9-0.3,1.1c-1.6,0.8-2.1,1.6-0.5,3.1c0.8,0.7,1,2.2,0.3,2.9C506,260.8,505.7,262.9,503.8,261.8z"/>
	<path class="st3" d="M466.4,249.6c-0.2,2-0.4,4-0.6,6c-1.6-0.6-2.9-0.8-3.3,1.5c-0.2,1-1.4,1.8-2.7,1.8c-0.1-0.8,0.1-1.4,0.7-2
		c2.9-3.3,3-5.2,0.6-8.9c-0.5-0.7-0.8-1.5-0.7-2.3c1.2,0.3,1.9,1.2,2.6,2C463.9,248.6,464.9,249.5,466.4,249.6z"/>
	<path class="st3" d="M593.9,257c1.5,0.3,2.2,1.1,1.9,2.6c-0.2,1.2-1.3,1.4-2.3,1.4c-3.5-0.1-3.5-0.1-2.1,3.3
		c0.1,0.1,0.1,0.3,0.1,0.5c-2.7,0.4-2.8-1.5-2.8-3.3c0-1.8,1-3.1,3-2.7C593.3,259.1,594,258.7,593.9,257z"/>
	<path class="st4" d="M521.4,238.9c-0.2-1.6-1.3-1.9-2.7-1.9c-2-0.1-4,0.5-5.9-0.5c5.9-0.6,12,0.1,17.8-1.4c0.6-0.2,1.5-0.4,1.7,0.5
		c0.2,0.9-0.8,0.9-1.4,1.1c-1.8,0.6-3.6,0.3-5.4,0.4c-1.6,0-3,0.3-3.7,2C521.7,239,521.5,238.9,521.4,238.9z"/>
	<path class="st3" d="M495.2,250.3c0,4.1,1,7.8,5.1,9.8c0.6,0.3,0.9,0.9,1.1,1.6c-3.2-1.2-6.6-2.4-7.4-6.4
		C493.6,253.5,493.6,251.7,495.2,250.3z"/>
	<path class="st3" d="M446.4,238.9c-0.8,0-1.7,0.3-2.5,0.1c-3.1-0.7-5.7,0.2-7.9,2.5c-0.7-3.8,0.4-5.1,4.2-4.2
		C442.3,237.8,444.9,236.5,446.4,238.9z"/>
	<path class="st3" d="M550.3,238.5c2.6,0,5.3,0.1,7.8-1.2c0.6-0.3,1.3-0.2,1.8,0.3c-0.7,2.3-5.3,3.6-7.9,2.3
		C551.4,239.5,550.9,238.9,550.3,238.5z"/>
	<path class="st3" d="M596.4,248.2c-2,2.3-3.5,4.9-3,8.1c-1.8-0.5-2.2-1.8-1.7-3.5C592.6,249.1,593.9,247.9,596.4,248.2z"/>
	<path class="st3" d="M611.3,265c1.3-1.1,2.9-2.1,2.4-4.3c1.6-0.6,1.9,0.7,1.9,1.7c0.1,1.4-0.6,2.5-2,3
		C612.9,265.6,612,265.7,611.3,265z"/>
	<path class="st3" d="M452.9,246.1c-0.1,1.1-0.6,2-1.9,1.8c-1.2-0.2-1.2-1.2-1.3-2.1c0-1.3-0.6-2.6-0.4-3.9c1.1,0.5,1.5,1.5,1.9,2.5
		C451.6,245.3,452,245.9,452.9,246.1z"/>
	<path class="st3" d="M476.4,245.5c-2.2,0.5-4.3,1.1-6.6,1C471.9,244.2,474.3,243.8,476.4,245.5z"/>
	<path class="st3" d="M561.8,237.6c1.1-1,1.8,0,2.6,0.5C563.2,239.4,562.4,239.4,561.8,237.6z"/>
	<path class="st3" d="M551,230.7c-0.4-2.2-1.7-2.5-3.6-1.7c-0.7,0.3-1.4,0.4-2.1,0.5c0.9-2.8,3.6-3.3,5.8-3.9
		c1.8-0.5,2.6,1.1,1.7,2.8C552.4,229.3,552,230.2,551,230.7z"/>
	<path class="st2" d="M494.2,157.6c0.2,0,0.5,0,0.7,0c1.5,0.3,3.7,0.1,3.9,2.2c0.2,2.2-1.8,3-3.6,3.5c-2.2,0.7-5-0.4-5.4-1.9
		C489.1,159.1,490.8,157.5,494.2,157.6z"/>
	<path class="st2" d="M522.7,162.9c-0.5-0.1-1.1-0.1-1.8-0.3c-1-0.2-1.6-0.9-1.8-1.9c-0.2-1,0.6-1.5,1.3-1.9
		c1.3-0.7,2.8-1.3,4.2-1.2c1.2,0.1,2.5,0.8,2.8,2.1c0.3,1.3-1,1.8-1.8,2.5C525,162.9,524,163.1,522.7,162.9z"/>
	<path class="st4" d="M555.4,247.9c-0.5,3.1-1.8,6.4-2.1,9.9c0,0.5-0.4,1-1,0.9c-0.9-0.1-1.1-0.8-1-1.4c0.1-1.7,0.3-3.3,0.4-5
		c0-0.7,0-1.6-0.8-1.9c-1-0.4-1.5,0.4-2,1.1c-0.9,1.3-1.9,2.6-2.8,3.8c-0.4,0.5-0.9,1.1-1.7,0.7c-0.9-0.5-0.8-1.3-0.4-1.9
		c2.3-3,4-6.3,7.1-8.7c0.8-0.6,1.7-1.1,2.8-0.5C555,245.5,555.5,246.4,555.4,247.9z"/>
	<path class="st6" d="M456.4,254.5c-1.9,0.1-3-0.9-2.9-2.3c0.1-1.8,1.6-2.8,3.2-3c1.5-0.2,2.6,1.2,2.5,2.4
		C459.1,253.2,458,254.5,456.4,254.5z"/>
	<path class="st6" d="M440.6,243.9c1.4-1.5,2.9-1.4,4.3-0.1c1.3,1.2,0.8,2.3-0.6,3.2C442.7,246.5,441.1,245.8,440.6,243.9z"/>
	<path class="st3" d="M440.6,243.9c0.5,2,2,2.6,3.7,3.2c-0.1,1-0.8,1.5-1.7,1.3c-1.4-0.3-2.5-1.2-3-2.6
		C439.4,244.8,439.6,244.1,440.6,243.9z"/>
	<path class="st6" d="M564.7,252.5c1,0,1.8,0.2,1.9,1.4c0.1,1.7-1.5,4-3,4c-1.3,0-2.2-0.5-2.2-2
		C561.4,254.1,562.9,252.6,564.7,252.5z"/>
	<path class="st3" d="M504.5,250.2c-0.2,1.3-1.1,1.7-2.1,1.7c-1,0-1.9-0.3-1.8-1.5c0.1-1.1,0.9-1.7,2.1-1.7
		C503.7,248.6,504.3,249.2,504.5,250.2z"/>
	<path class="st6" d="M600.5,255.7c-0.9,0-1.3-0.5-1.4-1.2c0-0.8,0.3-1.5,1.2-1.5c0.9,0,1,0.6,1.1,1.3
		C601.4,255.1,601.1,255.6,600.5,255.7z"/>
</g>
</svg>
